<?xml version="1.0" standalone="no"?>
<!DOCTYPE svg PUBLIC "-//W3C//DTD SVG 1.1//EN" "http://www.w3.org/Graphics/SVG/1.1/DTD/svg11.dtd" >
<svg>
<metadata>
Created by FontForge 20110222 at Sat May 24 10:39:03 2014
 By Orthosie Webhosting
Copyright 2013 Anton Koovit, Yassin Baggar.
</metadata>
<defs>
<font id="Arvo-Italic" horiz-adv-x="1235" >
  <font-face 
    font-family="Arvo"
    font-weight="400"
    font-style="italic"
    font-stretch="normal"
    units-per-em="2048"
    panose-1="2 6 6 3 4 2 2 2 3 4"
    ascent="1638"
    descent="-410"
    x-height="1036"
    cap-height="1516"
    bbox="-281 -3014 2507 2078"
    underline-thickness="50"
    underline-position="-50"
    unicode-range="U+0020-FB02"
  />
    <missing-glyph />
    <glyph glyph-name="fourinferior" horiz-adv-x="1141" 
d="M102 1516h936v-1516h-936v1516zM205 102h731v1311h-731v-1311z" />
    <glyph glyph-name="space" unicode=" " horiz-adv-x="449" 
 />
    <glyph glyph-name="exclam" unicode="!" horiz-adv-x="842" 
d="M514 1577h260l-312 -1167h-178zM198 119q0 27 10.5 51t28.5 41.5t42 28t52 10.5q27 0 51 -10.5t41.5 -28t28 -41.5t10.5 -51t-10.5 -51.5t-28 -43t-41.5 -29.5t-51 -11q-28 0 -52 11t-42 29.5t-28.5 43t-10.5 51.5z" />
    <glyph glyph-name="quotesingle" unicode="'" horiz-adv-x="414" 
d="M275 1059h-125l71 510l183 12z" />
    <glyph glyph-name="quotedbl" unicode="&#x22;" horiz-adv-x="745" 
d="M288 1059h-125l71 510l183 12zM574 1059h-124l71 510l182 12z" />
    <glyph glyph-name="numbersign" unicode="#" horiz-adv-x="1455" 
d="M374 1184h240l135 313h201l-134 -313h358l134 313h201l-134 -313h226l-90 -172h-209l-192 -451h243l-88 -172h-228l-165 -389h-203l166 389h-357l-165 -389h-207l167 389h-239l92 172h221l193 451h-256zM551 561h357l193 451h-358z" />
    <glyph glyph-name="percent" unicode="%" horiz-adv-x="1671" 
d="M192.5 1258q32.5 71 89 124.5t132 85t161.5 31.5q62 0 114.5 -23t91 -61.5t60 -88t21.5 -103.5q0 -76 -31.5 -146.5t-87 -124.5t-132 -86t-165.5 -32q-64 0 -116.5 22.5t-90 60.5t-58.5 87.5t-21 103.5q0 79 32.5 150zM471 1319.5q-39 -15.5 -69.5 -42.5t-49 -63
t-18.5 -77q0 -31 9.5 -57t27.5 -45t43 -29.5t57 -10.5q40 0 79 16.5t69 44.5t48.5 65.5t18.5 78.5q0 29 -10 54t-27.5 43t-42.5 28t-55 10q-41 0 -80 -15.5zM1421 1540h225l-1400 -1556h-226zM844 239q0 65 15 114.5t42 92.5t65 79t84 62t99 40t110 14q62 0 114.5 -22.5
t91 -61t60 -88t21.5 -103.5q0 -76 -31.5 -146.5t-87 -125t-131.5 -87t-166 -32.5q-64 0 -116.5 23t-90 61.5t-58.5 87.5t-21 92zM1155.5 461.5q-38.5 -15.5 -68.5 -42.5t-48.5 -63t-18.5 -78q0 -62 36 -101.5t99 -39.5q40 0 79 16.5t69 44.5t48.5 65t18.5 79q0 29 -10 53.5
t-27.5 42.5t-42.5 28.5t-55 10.5q-41 0 -79.5 -15.5z" />
    <glyph glyph-name="perthousand" unicode="&#x2030;" horiz-adv-x="2359" 
d="M192.5 1258.5q32.5 70.5 89 124t132 85t161.5 31.5q62 0 115 -23.5t91 -61.5t59.5 -88t21.5 -103q0 -76 -31.5 -146.5t-87 -124t-132 -86t-165.5 -32.5q-63 0 -116.5 22.5t-91 60t-58 88t-20.5 103.5q0 80 32.5 150.5zM471 1320q-39 -15 -69.5 -42t-49 -63.5t-18.5 -77.5
q0 -62 37 -102t100 -40q41 0 80 16.5t68.5 44t48 65.5t18.5 79q0 60 -38 97.5t-97 37.5q-41 0 -80 -15zM1421 1540h226l-1401 -1556h-226zM1646.5 402.5q32.5 70.5 89 124t132.5 84t162 30.5q61 0 114.5 -22.5t91 -60.5t59 -88t21.5 -103q0 -76 -31.5 -146.5t-87 -125
t-131 -87.5t-165.5 -33q-64 0 -117 22.5t-91 61.5t-58.5 89.5t-20.5 103.5q0 80 32.5 150.5zM1925 461.5q-39 -15.5 -68.5 -42t-48 -63.5t-18.5 -77q0 -62 36 -102t99 -40q41 0 80 16.5t68.5 44t48 65.5t18.5 79q0 59 -38 97t-97 38q-41 0 -80 -15.5zM876.5 402.5
q32.5 70.5 89 124t132.5 84t162 30.5q61 0 114 -22.5t91 -60.5t59.5 -88t21.5 -103q0 -76 -31.5 -146.5t-87 -125t-131 -87.5t-166.5 -33q-63 0 -116 22.5t-91 61.5t-58.5 89.5t-20.5 103.5q0 80 32.5 150.5zM1155 461.5q-39 -15.5 -68.5 -42t-48 -63.5t-18.5 -77
q0 -62 36 -102t99 -40q41 0 80 16.5t68.5 44t48 65.5t18.5 79q0 59 -38 97t-97 38q-41 0 -80 -15.5z" />
    <glyph glyph-name="ampersand" unicode="&#x26;" horiz-adv-x="1382" 
d="M1075 -20l-154 213q-49 -50 -103 -91t-113 -70.5t-123.5 -46t-133.5 -16.5q-81 0 -149 30t-118 82.5t-78 123t-28 151.5q0 83 32 155.5t84.5 131.5t120 104t138.5 74q-19 26 -41 56.5t-41 68t-32 83t-13 101.5q0 88 35.5 163.5t96 131t142.5 87.5t175 32q71 0 133 -26
t108 -70.5t72.5 -102t26.5 -120.5q0 -69 -16 -122.5t-46.5 -97t-76 -80t-103.5 -73.5q-37 -25 -75.5 -46t-79.5 -41l226 -288q48 75 83.5 147.5t58.5 131.5h180q-38 -101 -92 -207.5t-124 -205.5l194 -247zM458 657q-43 -18 -81 -48.5t-66.5 -69.5t-45 -84.5t-16.5 -92.5
q0 -48 16 -89.5t45.5 -71.5t71 -47t91.5 -17q51 0 98.5 14t91.5 38.5t84.5 58.5t76.5 74l-277 370q-23 -9 -45 -17.5t-44 -17.5v0zM839 1020q38 34 67 80t29 100q0 37 -14 70t-38 58t-57 39.5t-71 14.5q-55 0 -103 -19t-83 -52t-55.5 -77t-20.5 -95q0 -34 8.5 -63.5
t24.5 -58.5t39 -59.5t51 -66.5q61 26 117.5 56.5t105.5 72.5v0z" />
    <glyph glyph-name="parenleft" unicode="(" horiz-adv-x="825" 
d="M432 -369q-45 78 -81 169t-61 189t-38 201t-13 207q0 203 44 387.5t130 352t199.5 310t267.5 270.5l124 -124q-139 -128 -238 -249.5t-172.5 -274.5t-112.5 -318t-39 -345q0 -92 9.5 -182.5t28.5 -175t48 -162t67 -144.5z" />
    <glyph glyph-name="parenright" unicode=")" horiz-adv-x="948" 
d="M482 1712q46 -78 82 -168.5t60.5 -189t37.5 -201.5t13 -207q0 -195 -46 -370t-132 -339t-209 -313t-282 -293l-118 118q135 125 243 264t184 288.5t117 308.5t41 328q0 92 -9.5 182t-29 175t-48.5 162.5t-67 144.5z" />
    <glyph glyph-name="asterisk" unicode="*" horiz-adv-x="829" 
d="M535 1300l260 78l12 -137l-257 -76l101 -202l-125 -70l-98 202l-184 -194l-109 82l190 199l-225 78l66 122l225 -79l55 243h146z" />
    <glyph glyph-name="comma" unicode="," horiz-adv-x="569" 
d="M205 283l219 -86l-256 -537l-171 67z" />
    <glyph glyph-name="hyphen" unicode="-" horiz-adv-x="856" 
d="M137 496l40 172h571l-40 -172h-571z" />
    <glyph glyph-name="period" unicode="." horiz-adv-x="514" 
d="M50 119q0 27 10.5 51t28.5 41.5t42 28t52 10.5q27 0 51 -10.5t41.5 -28t28 -41.5t10.5 -51t-10.5 -51.5t-28 -43t-41.5 -29.5t-51 -11q-28 0 -52 11t-42 29.5t-28.5 43t-10.5 51.5z" />
    <glyph glyph-name="slash" unicode="/" horiz-adv-x="1001" 
d="M1039 1556h248l-1137 -1556h-248z" />
    <glyph glyph-name="zero" unicode="0" horiz-adv-x="1409" 
d="M594 -18q-118 0 -203.5 39t-140.5 107.5t-81 162t-26 201.5q0 110 23.5 231t69 237.5t112 221.5t152.5 184.5t191 126.5t227 47q120 0 205.5 -41.5t140 -112t79.5 -164t25 -198.5q0 -115 -24 -236.5t-70.5 -237.5t-113.5 -219t-153 -180.5t-190 -123t-223 -45.5zM616 166
q78 0 148.5 39.5t131 106t109 153t83 180t53 187.5t18.5 176q0 71 -13.5 135.5t-44 113t-81 77t-125.5 28.5q-77 0 -147.5 -41.5t-130.5 -111t-109 -158.5t-83.5 -184.5t-53.5 -189.5t-19 -173q0 -70 13.5 -131.5t44.5 -107.5t81.5 -72.5t124.5 -26.5z" />
    <glyph glyph-name="one" unicode="1" horiz-adv-x="844" 
d="M182 172h147l254 1109l-343 -167l47 209l477 236h80l-320 -1387h150l-39 -172h-492z" />
    <glyph glyph-name="two" unicode="2" horiz-adv-x="1143" 
d="M14 154l680 639q39 37 83 78t81 87t61.5 95.5t24.5 103.5q0 41 -15 76.5t-42.5 62t-67 41.5t-88.5 15q-51 0 -98.5 -16.5t-87 -48t-69.5 -78t-46 -107.5h-207q24 103 76.5 185t124.5 138.5t159 86.5t179 30q85 0 155 -28.5t120.5 -77.5t78 -114.5t27.5 -139.5
q0 -59 -10.5 -109t-38 -101t-76.5 -108.5t-127 -130.5l-601 -561h621l-39 -172h-892z" />
    <glyph glyph-name="three" unicode="3" horiz-adv-x="1124" 
d="M938 1151q0 43 -16.5 83.5t-46 71.5t-71 49.5t-91.5 18.5q-62 0 -110 -16t-83.5 -43t-58.5 -61.5t-35 -71.5q-2 -5 -2.5 -7.5t-1.5 -5.5t-2.5 -8t-3.5 -14l-201 2q15 91 61 164.5t114 125.5t155.5 79.5t185.5 27.5q88 0 163.5 -25.5t131 -73t87.5 -114.5t32 -151
q0 -61 -15.5 -119.5t-50 -110t-89.5 -93t-133 -69.5q33 -16 61.5 -42.5t49.5 -62.5t32.5 -79t11.5 -92q0 -117 -43 -216.5t-119.5 -172.5t-181 -114.5t-228.5 -41.5q-71 0 -138.5 20.5t-123 58t-94 91t-51.5 119.5q-6 26 -9 54t-1 59h200q1 -48 17.5 -89.5t47.5 -73
t75.5 -49.5t101.5 -18q74 0 136.5 28t107.5 76.5t70.5 113t25.5 137.5q0 49 -17 89.5t-47 69t-71.5 44.5t-91.5 16h-89l35 157h74q75 0 137.5 23t107.5 61.5t70 89t25 105.5z" />
    <glyph glyph-name="four" unicode="4" horiz-adv-x="1153" 
d="M59 596l752 920h231l-744 -906h392l58 250l200 14l-61 -264h225l-41 -172h-224l-62 -266h145l-39 -172h-492l39 172h150l62 266h-630z" />
    <glyph glyph-name="five" unicode="5" horiz-adv-x="1192" 
d="M415 910q56 31 113.5 47t130.5 16q91 0 170 -30t137 -85.5t91 -133.5t33 -173q0 -96 -24.5 -176t-67 -145t-101 -113.5t-126 -81.5t-141.5 -49.5t-149 -16.5q-93 0 -171 25t-137.5 69t-98.5 104t-54 130l183 78q11 -45 34.5 -86t60.5 -72.5t87 -50.5t115 -19q70 0 139 26
t124 75.5t89.5 122.5t34.5 168q0 56 -19 104t-54 83.5t-84 56t-109 20.5q-81 0 -154 -28t-129 -75l-154 29l185 787h864l-41 -173h-676z" />
    <glyph glyph-name="six" unicode="6" horiz-adv-x="1229" 
d="M1049 1516l-445 -539q38 11 66 14t50 3q96 0 177 -33t140 -90.5t92 -135.5t33 -168q0 -131 -50.5 -237.5t-134 -182t-192.5 -116.5t-226 -41q-105 0 -189.5 34t-144 92.5t-91.5 135.5t-32 164q0 55 12 111.5t38.5 118t69 129t104.5 144.5l479 597h244zM681 839
q-100 0 -181 -47.5t-127 -116.5t-58.5 -128t-12.5 -121q0 -57 19 -106t55 -85t87.5 -56.5t117.5 -20.5q74 0 142.5 28.5t121.5 81t85 127.5t32 167q0 64 -23 115.5t-62 87.5t-90 55t-106 19z" />
    <glyph glyph-name="seven" unicode="7" horiz-adv-x="1212" 
d="M100 172h138q92 158 196.5 320t208.5 315t201.5 290t176.5 246h-573l-32 -137h-195l72 310h1001l-34 -150q-97 -130 -202.5 -275.5t-212 -298.5t-208.5 -310t-191 -310h146l-39 -172h-492z" />
    <glyph glyph-name="eight" unicode="8" horiz-adv-x="1247" 
d="M844 1544q78 0 144.5 -26.5t115 -73.5t75.5 -110.5t27 -137.5q0 -62 -19 -119t-53 -106.5t-80.5 -90.5t-101.5 -71q70 -55 111 -134t41 -169q0 -108 -44 -203.5t-122 -166t-185.5 -111.5t-234.5 -41q-98 0 -175 32t-130.5 87t-82 127t-28.5 153q0 77 25 147.5t69.5 130.5
t105.5 107.5t134 78.5q-50 48 -78 111.5t-28 133.5q0 93 42 175.5t112.5 144t164 97t195.5 35.5zM297 399q0 -53 16.5 -96.5t48 -74t77 -47.5t102.5 -17q85 0 153.5 27.5t116.5 74t74 106t26 124.5q0 48 -17.5 90.5t-49.5 73.5t-76 49t-98 18q-75 0 -143 -26.5t-119 -71.5
t-81 -104.5t-30 -125.5zM512 1098q0 -41 14.5 -76.5t41 -62t64 -41.5t83.5 -15q57 0 112 22t98.5 60t70 88.5t26.5 106.5q0 43 -14 79t-39.5 62t-62.5 40.5t-83 14.5q-62 0 -118 -23t-99 -61t-68.5 -88.5t-25.5 -105.5z" />
    <glyph glyph-name="nine" unicode="9" horiz-adv-x="1294" 
d="M295 0l447 543q-38 -12 -66.5 -14.5t-49.5 -2.5q-96 0 -177 33t-140 90.5t-92 135.5t-33 168q0 131 50.5 237.5t134 182t192.5 116.5t226 41q105 0 189.5 -34t144 -92.5t91.5 -135.5t32 -164q0 -55 -12 -111.5t-38.5 -118t-69.5 -129t-104 -144.5l-481 -601h-244z
M665 681q121 0 208 60t146 188q14 40 19.5 81t5.5 84q0 57 -19 106t-55 85t-87.5 56.5t-117.5 20.5q-74 0 -142.5 -28.5t-121.5 -81t-85 -127.5t-32 -167q0 -65 23 -116t62 -87t90 -55t106 -19z" />
    <glyph glyph-name="colon" unicode=":" horiz-adv-x="543" 
d="M256 -2095q0 26 10.5 49.5t28 41t41.5 28t51 10.5q26 0 49.5 -10.5t41 -28t28 -41t10.5 -49.5q0 -27 -10.5 -51t-28 -42.5t-41 -29t-49.5 -10.5q-27 0 -51 10.5t-41.5 29t-28 42.5t-10.5 51zM93 -2881q0 26 10.5 49.5t28 41t41.5 28t51 10.5q26 0 49.5 -10.5t41 -28
t28 -41t10.5 -49.5q0 -27 -10.5 -51t-28 -42.5t-41 -29t-49.5 -10.5q-27 0 -51 10.5t-41.5 29t-28 42.5t-10.5 51z" />
    <glyph glyph-name="semicolon" unicode=";" horiz-adv-x="555" 
d="M242 -2095q0 26 10.5 49.5t28 41t41.5 28t51 10.5q26 0 49.5 -10.5t41 -28t28 -41t10.5 -49.5q0 -27 -10.5 -51t-28 -42.5t-41 -29t-49.5 -10.5q-27 0 -51 10.5t-41.5 29t-28 42.5t-10.5 51zM104 283l219 -86l-256 -537l-171 67z" />
    <glyph glyph-name="less" unicode="&#x3c;" horiz-adv-x="1067" 
d="M26 653l850 295l-45 -186l-611 -192l521 -203l-37 -164l-711 305z" />
    <glyph glyph-name="equal" unicode="=" horiz-adv-x="1053" 
d="M169 508h750l-39 -172h-750zM253 877h750l-39 -172h-750z" />
    <glyph glyph-name="greater" unicode="&#x3e;" horiz-adv-x="1067" 
d="M782 498l-850 -295l45 186l611 192l-521 203l37 164l711 -305z" />
    <glyph glyph-name="question" unicode="?" horiz-adv-x="1128" 
d="M299 414q14 69 28.5 122.5t32.5 95.5t40 75t51.5 62.5t67.5 57.5t87 60q70 45 123.5 80t89 69.5t53.5 74t18 93.5q0 36 -14 67.5t-40.5 55.5t-64 37.5t-85.5 13.5q-56 0 -105.5 -18t-91 -59t-63 -88t-21.5 -76l-207 18q23 94 70 170.5t113 130.5t149.5 83.5t179.5 29.5
q95 0 168 -29.5t122.5 -77.5t75 -109t25.5 -124q0 -72 -19 -130t-55 -107.5t-89.5 -93t-122.5 -85.5q-49 -29 -87 -51t-68.5 -44.5t-53.5 -47.5t-42 -60t-35 -82.5t-32 -113.5h-198zM368 256q27 0 51 -10.5t41.5 -28t28 -41.5t10.5 -51t-10.5 -51.5t-28 -43t-41.5 -29.5
t-51 -11q-28 0 -52 11t-42 29.5t-28.5 43t-10.5 51.5t10.5 51t28.5 41.5t42 28t52 10.5z" />
    <glyph glyph-name="at" unicode="@" horiz-adv-x="2351" 
d="M1681 956l-154 -663q-10 -51 -1.5 -81t28.5 -46t53 -16q84 0 151.5 45.5t115.5 119.5t74 168t26 191q0 138 -47 254t-133.5 200.5t-208 131.5t-269.5 47q-130 0 -256 -33.5t-239.5 -95.5t-209.5 -149.5t-166 -195t-109.5 -232t-39.5 -261.5q0 -139 46 -260t130.5 -210
t204 -140.5t265.5 -51.5q115 0 229 30.5t219 86.5l57 -157q-128 -69 -257 -106.5t-271 -37.5q-119 0 -226 30t-198 85t-164.5 131.5t-125 169t-79.5 198.5t-28 220q0 167 47 318.5t130.5 280.5t199 233.5t252 178t289 113t311.5 39.5q128 0 240.5 -29t206.5 -81.5
t167.5 -126.5t124.5 -163t77.5 -190.5t26.5 -210.5q0 -90 -19 -177.5t-54.5 -166t-87 -145t-116.5 -115t-142.5 -75.5t-165.5 -27q-97 0 -153 37t-79 99q-72 -53 -157 -82.5t-177 -29.5q-89 0 -162 32.5t-124.5 87.5t-80 127.5t-28.5 152.5q0 77 22.5 147.5t63 130.5t96 109
t121.5 83.5t139.5 53t149.5 18.5q77 0 143 -22t117 -63l21 91h184zM1056 193q47 0 90.5 12t81.5 33t70.5 50t57.5 64l64 272q-21 66 -82 106t-151 40q-72 0 -138.5 -29t-117.5 -77t-81.5 -110.5t-30.5 -129.5q0 -48 16 -90.5t46 -73.5t74 -49t101 -18z" />
    <glyph glyph-name="A" unicode="A" horiz-adv-x="1458" 
d="M919 172h127l-37 342h-574l-191 -342h136l-38 -172h-492l39 172h131l760 1344h323l158 -1344h150l-39 -172h-492zM531 686h459l-75 688z" />
    <glyph glyph-name="B" unicode="B" horiz-adv-x="1500" 
d="M114 172h134l270 1171h-148l41 173h678q85 0 151.5 -27t112 -75.5t69 -115.5t23.5 -147q0 -143 -72 -245t-204 -153q66 -48 101.5 -122t35.5 -166q0 -105 -42.5 -191t-116 -147t-172.5 -94t-212 -33h-688zM572 674l-115 -502h335q67 0 122 21.5t94 58.5t60 87.5t21 109.5
q0 51 -13 92.5t-36.5 71t-57 45.5t-73.5 16h-337zM725 1343l-113 -495h330q60 0 112 19.5t90.5 55.5t61 86t22.5 111q0 47 -11 87.5t-33.5 70.5t-56.5 47.5t-79 17.5h-323z" />
    <glyph glyph-name="C" unicode="C" horiz-adv-x="1468" 
d="M1394 322q-58 -82 -129 -146.5t-156 -109t-184 -68t-213 -23.5q-137 0 -253.5 51.5t-201.5 142.5t-133.5 215.5t-48.5 270.5q0 125 29.5 240t83.5 213.5t131 179t172.5 137.5t207 88t234.5 31q170 0 302.5 -68.5t217.5 -189.5h156l-41 -172h-276q-22 51 -58.5 94
t-85 73.5t-108.5 47.5t-129 17q-132 0 -244 -53.5t-194 -145.5t-128 -214.5t-46 -260.5q0 -115 36 -207.5t96 -157t139 -99t165 -34.5q151 0 265.5 62.5t201.5 187.5z" />
    <glyph glyph-name="D" unicode="D" horiz-adv-x="1561" 
d="M425 1516h549q133 0 240.5 -50.5t183 -138t116 -204.5t40.5 -249q0 -131 -31.5 -246.5t-89 -213t-139.5 -174t-182 -130t-216 -82t-243 -28.5h-578l39 172h132l270 1171h-131zM723 1343l-268 -1171h220q83 0 164 22t154.5 64t136 102t108 136t71.5 167t26 195
q0 97 -27.5 184.5t-78 154.5t-122 106.5t-159.5 39.5h-225z" />
    <glyph glyph-name="E" unicode="E" horiz-adv-x="1415" 
d="M411 1516h1100l-100 -433h-207l61 260h-540l-111 -485h446l-43 -172h-442l-118 -514h534l61 262h209l-100 -434h-1086l39 172h134l270 1171h-148z" />
    <glyph glyph-name="F" unicode="F" horiz-adv-x="1331" 
d="M407 1516h1102l-98 -429h-197l57 256h-550l-111 -487h522l-39 -172h-523l-117 -512h153l-39 -172h-492l39 172h130l270 1171h-148z" />
    <glyph glyph-name="G" unicode="G" horiz-adv-x="1616" 
d="M1155 0l50 222q-92 -126 -218.5 -186.5t-274.5 -60.5q-137 0 -254 52.5t-202 144.5t-133 216t-48 267q0 124 29 238t83 213t130.5 179.5t172 138t207.5 89t236 31.5q95 0 176 -22t147 -58t115.5 -82.5t81.5 -95.5h156l-41 -172h-276q-22 51 -58.5 94t-85 73.5
t-108.5 47.5t-129 17q-90 0 -170 -24t-148 -68.5t-122.5 -106t-92.5 -136.5t-58.5 -161t-20.5 -178q0 -109 34.5 -200.5t93.5 -157.5t138.5 -103t169.5 -37q91 0 171.5 25.5t147 74t118.5 118t86 157.5h-423l41 176h643l-164 -725h-200z" />
    <glyph glyph-name="H" unicode="H" horiz-adv-x="1933" 
d="M1476 1516h492l-41 -173h-137l-268 -1171h149l-39 -172h-492l39 172h134l126 545h-857l-125 -545h149l-39 -172h-492l39 172h134l270 1171h-148l41 173h492l-41 -173h-137l-105 -458h858l105 458h-148z" />
    <glyph glyph-name="I" unicode="I" horiz-adv-x="883" 
d="M425 1516h492l-41 -173h-141l-268 -1171h139l-39 -172h-492l39 172h144l270 1171h-143z" />
    <glyph glyph-name="J" unicode="J" horiz-adv-x="762" 
d="M390 1516h491l-41 -173h-141l-271 -1171q-14 -42 -61 -103.5t-117 -142t-157 -164.5l-168 15q80 90 140 168.5t109.5 150t61.5 109.5l263 1138h-150z" />
    <glyph glyph-name="K" unicode="K" horiz-adv-x="1642" 
d="M1390 1343l41 173h389l-41 -173h-94l-837 -589l468 -582h158l-39 -172h-407l39 172l-469 602zM411 1516h492l-41 -173h-137l-268 -1171h149l-39 -172h-492l39 172h134l270 1171h-148z" />
    <glyph glyph-name="L" unicode="L" horiz-adv-x="1376" 
d="M411 1516h492l-41 -173h-137l-268 -1171h505q43 0 66.5 23t31.5 57l47 197h201l-104 -449h-1129l39 172h134l270 1171h-148z" />
    <glyph glyph-name="M" unicode="M" horiz-adv-x="2290" 
d="M114 172h136l270 1171h-150l41 173h459l197 -1301l784 1301h473l-41 -173h-137l-270 -1171h159l-39 -172h-491l39 172h132l266 1154l-800 -1326h-231l-202 1323l-266 -1151h163l-39 -172h-492z" />
    <glyph glyph-name="N" unicode="N" horiz-adv-x="1786" 
d="M1370 1516h491l-39 -173h-136l-308 -1343h-262l-413 1255l-249 -1083h152l-39 -172h-492l39 172h133l271 1171h-150l41 173h416l408 -1246l246 1073h-148z" />
    <glyph glyph-name="O" unicode="O" horiz-adv-x="1577" 
d="M712 -31q-128 0 -243.5 49t-203 138.5t-139 216t-51.5 282.5q0 131 31 247.5t87 215.5t134.5 178t174 134t204.5 84.5t227 29.5q128 0 243.5 -44.5t203 -129.5t139 -208.5t51.5 -280.5q0 -134 -30 -254t-84.5 -221t-132 -182t-173 -137.5t-206.5 -87t-232 -30.5zM735 172
q86 0 165 24t147 68.5t123.5 107t94.5 139.5t60.5 166t21.5 187q0 109 -32.5 197t-90.5 150.5t-138 96t-175 33.5q-124 0 -235 -50t-195 -139.5t-133 -212t-49 -267.5q0 -107 32.5 -198.5t90.5 -158.5t138 -105t175 -38z" />
    <glyph glyph-name="P" unicode="P" horiz-adv-x="1313" 
d="M409 1516h608q87 0 159 -30t124 -81.5t80.5 -120.5t28.5 -147q0 -103 -39 -191t-114.5 -152t-187 -100.5t-255.5 -36.5h-247l-111 -485h151l-39 -172h-492l39 172h132l270 1171h-148zM723 1343l-117 -514h229q81 0 148 19.5t115 57t74 92.5t26 126q0 42 -14 81.5t-43 70
t-74 49t-107 18.5h-237z" />
    <glyph glyph-name="Q" unicode="Q" horiz-adv-x="1559" 
d="M601 -21q-110 19 -205.5 75t-167 143.5t-112.5 203t-41 254.5q0 131 31 247.5t87 215.5t134.5 178t174 134t204.5 84.5t227 29.5q128 0 243.5 -44.5t203 -129.5t139 -208.5t51.5 -280.5q0 -128 -27 -242t-77 -212.5t-120.5 -178.5t-158 -138.5t-189.5 -93.5t-214 -44
q42 -13 75.5 -33.5t66.5 -39.5t70 -32.5t87 -13.5q57 0 108.5 28.5t79.5 87.5l135 -69q-25 -56 -67 -98.5t-92.5 -71t-103.5 -42.5t-101 -14q-50 0 -90.5 11.5t-76 28.5t-67.5 36t-63.5 33.5t-64 22t-70.5 1.5q-31 -3 -51 -10zM735 172q86 0 165 24t147 68.5t123.5 107
t94.5 139.5t60.5 166t21.5 187q0 109 -32.5 197t-90.5 150.5t-138 96t-175 33.5q-124 0 -235 -50t-195 -139.5t-133 -212t-49 -267.5q0 -107 32.5 -198.5t90.5 -158.5t138 -105t175 -38z" />
    <glyph glyph-name="R" unicode="R" horiz-adv-x="1438" 
d="M409 1516h617q87 0 158 -26t121.5 -73t78 -112.5t27.5 -143.5q0 -81 -27.5 -149.5t-74 -122t-108 -92t-129.5 -60.5q39 -28 66 -84t29 -133l6 -348h129l-39 -172h-293l-6 461q-2 125 -57 183t-166 58h-163l-121 -530h149l-39 -172h-492l39 172h134l270 1171h-150z
M725 1343l-108 -473h237q75 0 138.5 17t109.5 52t72 88t26 124q0 42 -14 77.5t-43.5 61t-75 39.5t-107.5 14h-235z" />
    <glyph glyph-name="S" unicode="S" horiz-adv-x="1278" 
d="M1080 1137q12 53 -4.5 94t-52.5 69.5t-87 43t-108 14.5q-83 0 -148.5 -22t-110.5 -60t-69 -88.5t-24 -106.5q0 -50 19 -81t48 -51t64.5 -32t68.5 -24l187 -68q72 -24 126 -57t90 -76.5t54 -99t18 -125.5q0 -111 -43 -203t-120.5 -157.5t-186.5 -101.5t-241 -36
q-119 0 -201.5 25.5t-135.5 69t-79.5 99.5t-33.5 118h-95l39 159h272l-18 -74q-14 -108 63 -161t223 -53q75 0 138 21t108.5 58.5t71.5 90t26 114.5q0 48 -17 83t-46.5 60.5t-69 44t-84.5 33.5l-174 56q-136 43 -206 128t-70 218q0 102 39 189.5t113.5 152t181 101
t241.5 36.5q85 0 156 -19t125.5 -53t92 -82t54.5 -106h101l-39 -160h-260z" />
    <glyph glyph-name="T" unicode="T" horiz-adv-x="1362" 
d="M348 172h140l272 1180h-367l-53 -236h-205l92 400h1352l-93 -400h-204l53 236h-368l-270 -1180h142l-39 -172h-491z" />
    <glyph glyph-name="U" unicode="U" horiz-adv-x="1581" 
d="M282 1516h492l-39 -173h-140l-161 -704q-8 -35 -14.5 -74.5t-6.5 -89.5q-1 -55 17 -108.5t56 -96t97 -68.5t141 -26q83 0 153.5 23.5t127.5 78t100.5 143t73.5 218.5l162 704h-152l39 173h492l-39 -173h-133l-166 -722q-39 -171 -103.5 -293.5t-150.5 -201t-192 -115
t-230 -36.5q-109 0 -202.5 32.5t-161 94t-105 150.5t-35.5 203q0 45 6 89.5t17 94.5l162 704h-144z" />
    <glyph glyph-name="V" unicode="V" horiz-adv-x="1470" 
d="M1174 1516h492l-39 -173h-133l-746 -1343h-305l-129 1343h-139l39 173h491l-39 -173h-140l99 -1169l645 1169h-135z" />
    <glyph glyph-name="W" unicode="W" horiz-adv-x="2271" 
d="M2016 1516h491l-39 -173h-138l-703 -1343h-285l-53 1171l-586 -1171h-285l-89 1343h-154l39 173h491l-39 -173h-132l69 -1148l659 1321h213l49 -1321l605 1148h-152z" />
    <glyph glyph-name="X" unicode="X" horiz-adv-x="1487" 
d="M1115 1516h491l-41 -173h-104l-551 -579l284 -592h150l-39 -172h-491l38 172h137l-218 446l-424 -446h118l-39 -172h-491l39 172h121l590 621l-268 550h-146l41 173h491l-41 -173h-130l193 -402l382 402h-133z" />
    <glyph glyph-name="Y" unicode="Y" horiz-adv-x="1323" 
d="M214 1516h491l-39 -173h-122l175 -473l411 473h-122l39 173h492l-39 -173h-123l-586 -656l-120 -515h141l-39 -172h-492l39 172h141l120 519l-259 652h-147z" />
    <glyph glyph-name="Z" unicode="Z" horiz-adv-x="1298" 
d="M1390 1298l-1152 -1120h681l57 252h207l-98 -430h-1110l51 231l1135 1108h-660l-59 -258h-207l100 435h1102z" />
    <glyph glyph-name="bracketleft" unicode="[" horiz-adv-x="762" 
d="M466 1720h424l-34 -151h-220l-374 -1630h219l-35 -152h-424z" />
    <glyph glyph-name="backslash" unicode="\" horiz-adv-x="700" 
d="M101 1581h162l334 -1606h-162z" />
    <glyph glyph-name="bracketright" unicode="]" horiz-adv-x="762" 
d="M554 1569h-220l35 151h424l-444 -1933h-424l35 152h219z" />
    <glyph glyph-name="asciicircum" unicode="^" horiz-adv-x="1229" 
d="M781 1516l225 -791h-139l-167 627l-466 -627h-153l589 791h111z" />
    <glyph glyph-name="underscore" unicode="_" horiz-adv-x="1049" 
d="M-93 -154h1024l-24 -102h-1024z" />
    <glyph glyph-name="grave" unicode="`" horiz-adv-x="590" 
d="M387 1178l-287 282v17h248l184 -299h-145z" />
    <glyph glyph-name="a" unicode="a" horiz-adv-x="1307" 
d="M771 70q-67 -45 -134.5 -66.5t-139.5 -21.5q-85 0 -159 33t-128.5 90t-86 134.5t-31.5 166.5q0 145 51 266t138.5 208t204 135t247.5 48q75 0 141 -22.5t108 -58.5l13 54h201l-200 -864h161l-39 -172h-363zM544 154q37 0 75.5 9t73.5 23t66 32.5t55 38.5l129 554
q-26 33 -81 56.5t-144 23.5q-77 0 -152 -31.5t-134 -91t-96 -146t-37 -196.5q0 -64 18 -114.5t50 -85.5t77.5 -53.5t99.5 -18.5z" />
    <glyph glyph-name="b" unicode="b" horiz-adv-x="1272" 
d="M252 1556h392l-135 -585q134 92 278 92q85 0 159 -33t128.5 -90t86 -134.5t31.5 -166.5q0 -97 -23 -183t-65 -159t-101 -131.5t-130 -99t-152.5 -62.5t-169.5 -22q-77 0 -143 23t-108 59l-15 -64h-200l318 1384h-192zM740 891q-71 0 -142.5 -28.5t-131.5 -78.5l-127 -549
q26 -33 81.5 -57t145.5 -24q77 0 152 31.5t134.5 91t96.5 145.5t37 196q0 64 -18 114.5t-50.5 85.5t-78 54t-99.5 19z" />
    <glyph glyph-name="c" unicode="c" horiz-adv-x="1135" 
d="M921 731q-16 40 -42.5 70t-60.5 50t-74 30t-83 10q-55 0 -117.5 -28.5t-116 -83.5t-88.5 -135t-35 -183q0 -75 22 -132.5t59 -96.5t86 -58.5t104 -19.5q40 0 75 6.5t66.5 22t61.5 40.5t59 62l145 -109q-39 -55 -88 -93.5t-103 -62.5t-111.5 -34.5t-113.5 -10.5
q-102 0 -188.5 36.5t-149 100.5t-98 150.5t-35.5 186.5q0 136 51 249.5t134 195.5t187.5 127.5t211.5 45.5q50 0 100 -9.5t96 -30t86 -51.5t72 -73h125l-28 -172h-209v0z" />
    <glyph glyph-name="d" unicode="d" horiz-adv-x="1285" 
d="M923 1556h374l-319 -1384h172l-39 -172h-373l15 67q-57 -39 -119.5 -63t-134.5 -24q-89 0 -166 34t-134.5 94t-90.5 141.5t-33 176.5q0 138 49 255t133.5 203t197 134.5t240.5 48.5q80 0 149 -23t120 -63l93 403h-175zM546 154q63 0 130.5 28t122.5 82l124 537
q-37 43 -96 66.5t-144 23.5q-75 0 -147.5 -31.5t-128.5 -89.5t-90.5 -141t-34.5 -185q0 -67 19.5 -120.5t54.5 -91t83.5 -58t106.5 -20.5z" />
    <glyph glyph-name="e" unicode="e" horiz-adv-x="1171" 
d="M318 483q-1 -14 -2 -24t-1 -19q0 -63 20.5 -117t57 -93.5t87 -62t110.5 -22.5q80 0 152.5 32.5t121.5 94.5l148 -108q-34 -45 -81 -81t-104 -61.5t-121.5 -39t-131.5 -13.5q-96 0 -179.5 32t-146 93t-98 149.5t-35.5 200.5q0 129 45.5 242.5t126 198t190.5 133.5t238 49
q99 0 176.5 -33.5t131.5 -88.5t82 -127t28 -148q0 -51 -5.5 -98.5t-13.5 -88.5h-796zM688 897q-60 0 -112.5 -19t-95.5 -53t-76 -80t-54 -100h590q1 62 -16.5 109.5t-51 79t-80.5 47.5t-104 16z" />
    <glyph glyph-name="f" unicode="f" horiz-adv-x="811" 
d="M168 1036h212l42 183q22 96 62 164t94.5 111t122.5 63t147 20q48 0 88.5 -6t73.5 -15t59 -19.5t44 -20.5l-103 -154q-26 17 -71.5 30t-98.5 13q-80 0 -136 -44.5t-81 -152.5l-40 -172h282l-41 -172h-280l-306 -1335h-203l305 1335h-213z" />
    <glyph glyph-name="g" unicode="g" horiz-adv-x="1249" 
d="M783 64q-63 -44 -129.5 -63t-143.5 -19q-85 0 -159 33t-128.5 90t-86 134.5t-31.5 166.5q0 145 51 266t138.5 208t204 135t247.5 48q75 0 141 -22.5t108 -58.5l13 54h203l-238 -1024q-30 -130 -80 -221.5t-122 -149.5t-167.5 -85t-216.5 -27q-55 0 -114 9t-115.5 27.5
t-106.5 46.5t-88 66l129 146q24 -26 58 -47.5t75 -37.5t86.5 -25t92.5 -9q72 0 131 15.5t105.5 54t81 104t61.5 185.5zM557 154q78 0 146 28t125 76l128 552q-26 33 -81 57t-144 24q-77 0 -152 -31.5t-134 -91t-96 -146t-37 -196.5q0 -64 18 -114.5t50 -85.5t77.5 -53.5
t99.5 -18.5z" />
    <glyph glyph-name="h" unicode="h" horiz-adv-x="1307" 
d="M936 641q28 118 -18.5 178t-155.5 60q-67 0 -139 -29t-138 -77l-178 -773h-202l318 1384h-200l41 172h402l-145 -626q73 57 156 91t171 34q80 0 144.5 -24t105 -73t54 -122t-8.5 -170l-114 -494h147l-39 -172h-350z" />
    <glyph glyph-name="i" unicode="i" horiz-adv-x="725" 
d="M200 1036h387l-200 -864h166l-39 -172h-369l200 864h-186zM391 1401q0 27 10.5 51t28.5 41.5t42 28t52 10.5q27 0 51 -10.5t41.5 -28t28 -41.5t10.5 -51t-10.5 -51.5t-28 -43t-41.5 -29.5t-51 -11q-28 0 -52 11t-42 29.5t-28.5 43t-10.5 51.5z" />
    <glyph glyph-name="j" unicode="j" horiz-adv-x="668" 
d="M185 1036h405l-258 -1112q-21 -91 -61 -163.5t-97 -123t-128.5 -78.5t-155.5 -30l16 145q90 13 146 83t82 186l214 921h-204zM396 1401q0 27 10.5 51t28.5 41.5t42 28t52 10.5q27 0 51 -10.5t41.5 -28t28 -41.5t10.5 -51t-10.5 -51.5t-28 -43t-41.5 -29.5t-51 -11
q-28 0 -52 11t-42 29.5t-28.5 43t-10.5 51.5z" />
    <glyph glyph-name="k" unicode="k" 
d="M279 1556h387l-223 -964h112l340 288l37 156h336l-41 -172h-107l-389 -329l250 -365h125l-39 -170h-219l-311 469h-122l-108 -469h-202l318 1384h-185z" />
    <glyph glyph-name="l" unicode="l" horiz-adv-x="653" 
d="M264 1556h402l-320 -1384h172l-39 -172h-374l318 1384h-200z" />
    <glyph glyph-name="m" unicode="m" horiz-adv-x="2100" 
d="M192 1036h387l-25 -106q71 59 155.5 92t178.5 33q106 0 183 -43t109 -130q37 38 81 69.5t93.5 54.5t104 36t111.5 13q80 0 144.5 -24t105.5 -73t54 -122t-9 -170l-114 -494h149l-39 -172h-352l149 641q28 118 -18 178t-156 60q-78 0 -148 -33.5t-133 -92.5l-173 -753
h-203l149 641q28 118 -18 178t-156 60q-78 0 -148 -33.5t-133 -93.5l-173 -752h-203l200 864h-194z" />
    <glyph glyph-name="n" unicode="n" horiz-adv-x="1368" 
d="M188 1036h391l-25 -106q71 59 155.5 92t178.5 33q80 0 144.5 -24t105.5 -73t54 -122t-9 -170l-114 -494h147l-39 -172h-350l149 641q28 118 -18 178t-156 60q-78 0 -148 -33.5t-133 -93.5l-173 -752h-203l200 864h-198z" />
    <glyph glyph-name="o" unicode="o" 
d="M75 449q0 86 21.5 165t61 148t95 125t122.5 96t143.5 62t158.5 22q103 0 191 -36.5t152 -100t100.5 -149t36.5 -183.5q0 -87 -22 -167t-61.5 -149t-94.5 -126t-122.5 -97t-144.5 -62t-160 -22q-104 0 -191 36.5t-151 100.5t-99.5 150.5t-35.5 186.5zM284 463
q0 -70 20.5 -127.5t57.5 -98t89 -63t114 -22.5q73 0 142.5 32t122.5 89t85.5 137t32.5 176q0 70 -21.5 126t-59.5 96t-89.5 61.5t-112.5 21.5q-74 0 -142.5 -31.5t-121.5 -88t-85 -135.5t-32 -173z" />
    <glyph glyph-name="p" unicode="p" horiz-adv-x="1333" 
d="M189 1036h393l-14 -68q69 48 138 71.5t144 23.5q85 0 159.5 -33t129 -90t86 -134.5t31.5 -166.5q0 -145 -51 -266t-138.5 -208t-204 -135t-247.5 -48q-76 0 -142.5 22.5t-109.5 58.5l-83 -362h171l-39 -172h-377l311 1335h-198zM803 891q-70 0 -141.5 -28.5t-131.5 -77.5
l-127 -549q26 -33 80.5 -57.5t145.5 -24.5q77 0 152 31.5t134.5 91t96.5 145.5t37 196q0 64 -18 114.5t-50.5 85.5t-77.5 54t-100 19z" />
    <glyph glyph-name="q" unicode="q" horiz-adv-x="1246" 
d="M754 70q-67 -45 -134.5 -66.5t-139.5 -21.5q-85 0 -159 33t-128.5 90t-86 134.5t-31.5 166.5q0 145 51 266t138.5 208t204 135t247.5 48q75 0 140.5 -22.5t108.5 -57.5l15 53h197l-309 -1335h182l-39 -172h-381zM527 154q69 0 140 27.5t130 75.5l127 555
q-26 32 -80.5 55.5t-142.5 23.5q-77 0 -152 -31.5t-134 -91t-96 -146t-37 -196.5q0 -64 18 -114.5t50 -85.5t77.5 -53.5t99.5 -18.5z" />
    <glyph glyph-name="r" unicode="r" horiz-adv-x="1053" 
d="M958 750h-203l29 122q-97 0 -165 -49.5t-112 -130.5l-120 -520h172l-39 -172h-375l200 864h-198l41 172h391l-33 -142q28 32 60 59.5t67.5 47.5t74 31.5t77.5 11.5q36 0 62 -1t55.5 -3.5t81.5 -9.5z" />
    <glyph glyph-name="s" unicode="s" horiz-adv-x="1012" 
d="M749 748q-1 39 -15.5 69t-40 50.5t-60 31t-74.5 10.5t-76 -9.5t-63 -28.5t-42.5 -46t-15.5 -61q0 -40 25.5 -66.5t80.5 -48.5l193 -69q88 -32 134 -99.5t46 -163.5q0 -86 -31.5 -151t-87.5 -109t-133.5 -66t-169.5 -22q-56 0 -107 9t-94.5 27.5t-76 46t-50.5 63.5h-106
l41 172h211q-5 -39 10 -69t43 -50.5t66.5 -30.5t81.5 -10t80.5 11t65.5 32t44.5 52t16.5 71q0 38 -27 69.5t-84 51.5l-184 67q-89 35 -137 102.5t-48 151.5q0 74 26 135t77 105t128 68t179 24q59 0 109 -11.5t89 -31.5t67 -46.5t45 -57.5h112l-41 -172h-207v0z" />
    <glyph glyph-name="t" unicode="t" horiz-adv-x="778" 
d="M186 1036h173l61 248l211 86l-79 -334h218l-41 -172h-218l-132 -559q-5 -20 -9.5 -40.5t-4.5 -43.5q0 -45 24.5 -63.5t77.5 -18.5q57 0 137 33l17 -143q-53 -25 -102 -39.5t-109 -14.5q-63 0 -115 15.5t-86 51t-45 93t8 141.5l144 588h-171z" />
    <glyph glyph-name="u" unicode="u" horiz-adv-x="1290" 
d="M843 1036h336l-200 -864h155l-39 -172h-348l24 105q-32 -33 -69 -56.5t-75.5 -38t-76 -21.5t-69.5 -7q-68 0 -128.5 19.5t-101.5 57.5q-25 25 -46.5 58.5t-33.5 80.5t-11 109t20 144l95 413h-140l41 172h340l-123 -526q-44 -186 -3.5 -273t171.5 -87q58 0 102.5 19.5
t81 54.5t61.5 74l132 566h-136z" />
    <glyph glyph-name="v" unicode="v" horiz-adv-x="1155" 
d="M135 1036h379l-41 -172h-79l62 -639l407 639h-84l41 172h378l-41 -172h-79l-594 -880h-176l-116 880h-97z" />
    <glyph glyph-name="w" unicode="w" horiz-adv-x="1649" 
d="M136 1036h379l-41 -172h-80l33 -624l416 796h192l41 -796l334 624h-96l41 172h379l-41 -172h-90l-482 -880h-196l-37 794h-4l-414 -794h-197l-74 880h-104z" />
    <glyph glyph-name="x" unicode="x" horiz-adv-x="1137" 
d="M626 172h75l-146 238l-237 -238h64l-38 -172h-379l39 172h85l389 365l-227 327h-108l41 172h379l-41 -172h-66l137 -222l225 222h-73l41 172h379l-41 -172h-74l-374 -341l234 -351h95l-39 -172h-379z" />
    <glyph glyph-name="y" unicode="y" horiz-adv-x="1165" 
d="M148 1036h379l-41 -172h-79l61 -639l408 639h-85l41 172h379l-41 -172h-87l-741 -1163h101l-43 -172h-410l43 172h101l185 290l-114 873h-98z" />
    <glyph glyph-name="z" unicode="z" horiz-adv-x="995" 
d="M10 117l718 760h-337l-35 -148h-197l72 307h790l-26 -121l-714 -755h366l41 178h196l-78 -338h-821z" />
    <glyph glyph-name="braceleft" unicode="{" horiz-adv-x="713" 
d="M34 670q8 32 15.5 63.5t15.5 63.5q28 0 53.5 10.5t48.5 29t43 43.5t36 54.5t28 62.5t20 66q75 326 86 373q15 63 44 112t66.5 83t79 51.5t81.5 17.5h68.5h68.5q-8 -32 -14.5 -63.5t-14.5 -63.5h-34.5h-34.5q-27 0 -48 -13.5t-38 -39t-30 -62.5t-24 -84
q-20 -88 -39.5 -174t-39.5 -174q-14 -62 -38.5 -110t-56 -84t-67.5 -60t-74 -37q-1 -1 -1 -2t-1 -2q19 -8 36 -20t30.5 -27.5t23.5 -36t16 -44.5q8 -33 6.5 -73t-12.5 -90q-20 -88 -40 -174t-40 -174q-11 -48 -14.5 -84t1.5 -62q3 -13 8 -22.5t12.5 -16t18 -10t24.5 -3.5
h34.5h34.5q-7 -32 -14 -63.5t-14 -63.5h-34.5h-34.5h-34.5h-34.5q-39 0 -73 17.5t-56.5 51.5t-29.5 83t8 112l86 372q14 60 12 117t-24 95q-5 8 -10.5 15.5t-12.5 13.5t-15 11t-17 8.5t-19 5t-21 1.5z" />
    <glyph glyph-name="bar" unicode="|" horiz-adv-x="519" 
d="M393 1726h176l-461 -1996h-176z" />
    <glyph glyph-name="braceright" unicode="}" horiz-adv-x="734" 
d="M-70 -233q8 32 14.5 63.5t14.5 63.5h34.5h34.5q27 0 48 13.5t38 39t30 62t24 83.5q20 88 40 174t40 174q14 61 38.5 109.5t55 84.5t67 60t74.5 37q1 1 1 2t1 2q-20 8 -36.5 20t-30 27.5t-23.5 36t-16 44.5q-8 33 -7 73t13 90q21 88 40.5 174t39.5 174q10 47 14 84
t-1.5 62.5t-20.5 39t-42 13.5h-34.5h-34.5q7 32 14 63.5t14 63.5h34.5h34.5h34.5h34.5q33 0 62 -13.5t50.5 -39t34 -62.5t12.5 -84q0 -9 -3 -28.5t-12 -60.5t-11 -50l-68 -299q-8 -33 -10.5 -66t0 -62.5t11 -54.5t23 -43.5t35 -29t48.5 -10.5q-8 -32 -15.5 -63.5
t-15.5 -63.5q-28 0 -54 -10.5t-48.5 -29t-42.5 -44t-36 -55t-28 -62.5t-20 -66q-11 -47 -42.5 -186.5t-43.5 -185.5q-15 -63 -44 -112t-66.5 -83t-79.5 -51.5t-81 -17.5h-68.5h-68.5z" />
    <glyph glyph-name="asciitilde" unicode="~" horiz-adv-x="1229" 
d="M141 483q45 84 106 130t150 46q58 0 119.5 -22.5t119.5 -49t109 -49t89 -22.5q43 0 86.5 34.5t93.5 117.5l73 -115q-45 -84 -105.5 -130t-150.5 -46q-39 0 -79 10.5t-80.5 26.5t-79 34.5t-74 34.5t-67 26.5t-56.5 10.5q-43 0 -86.5 -34t-93.5 -117z" />
    <glyph glyph-name="ellipsis" unicode="&#x2026;" horiz-adv-x="1899" 
d="M246 119q0 27 10.5 51t28.5 41.5t42 28t52 10.5q27 0 51 -10.5t41.5 -28t28 -41.5t10.5 -51t-10.5 -51.5t-28 -43t-41.5 -29.5t-51 -11q-28 0 -52 11t-42 29.5t-28.5 43t-10.5 51.5zM879 119q0 27 10.5 51t28.5 41.5t42 28t52 10.5q27 0 51 -10.5t41.5 -28t28 -41.5
t10.5 -51t-10.5 -51.5t-28 -43t-41.5 -29.5t-51 -11q-28 0 -52 11t-42 29.5t-28.5 43t-10.5 51.5zM1512 119q0 27 10.5 51t28.5 41.5t42 28t52 10.5q27 0 51 -10.5t41.5 -28t28 -41.5t10.5 -51t-10.5 -51.5t-28 -43t-41.5 -29.5t-51 -11q-28 0 -52 11t-42 29.5t-28.5 43
t-10.5 51.5z" />
    <glyph glyph-name="quoteleft" unicode="&#x2018;" horiz-adv-x="487" 
d="M497 1561l127 -64l-264 -518l-182 80z" />
    <glyph glyph-name="quoteright" unicode="&#x2019;" horiz-adv-x="509" 
d="M439 1563l185 -80l-324 -504l-125 65z" />
    <glyph glyph-name="quotedblleft" unicode="&#x201c;" horiz-adv-x="918" 
d="M927 1561l127 -64l-264 -518l-182 80zM499 1563l129 -66l-268 -516l-182 78z" />
    <glyph glyph-name="quotedblright" unicode="&#x201d;" horiz-adv-x="918" 
d="M282 979l-125 65l264 519l185 -80zM710 979l-125 65l264 517l185 -78z" />
    <glyph glyph-name="quotesinglbase" unicode="&#x201a;" horiz-adv-x="637" 
d="M215 266l186 -80l-323 -503l-127 63z" />
    <glyph glyph-name="quotedblbase" unicode="&#x201e;" horiz-adv-x="920" 
d="M645 266l186 -80l-323 -503l-127 63zM215 266l186 -80l-323 -503l-127 63z" />
    <glyph glyph-name="commabelow" horiz-adv-x="569" 
d="M133 -41l211 -84l-180 -348l-144 53z" />
    <glyph glyph-name="apostrophe" unicode="&#x2bc;" horiz-adv-x="340" 
d="M133 1520l211 -84l-180 -349l-144 54z" />
    <glyph glyph-name="commaaccent" horiz-adv-x="340" 
d="M221 1138l-189 74l181 349l121 -44z" />
    <glyph glyph-name="endash" unicode="&#x2013;" horiz-adv-x="1024" 
d="M40 647h1024l-40 -162h-1024z" />
    <glyph glyph-name="emdash" unicode="&#x2014;" horiz-adv-x="2048" 
d="M40 647h2048l-40 -162h-2048z" />
    <glyph glyph-name="brokenbar" unicode="&#xa6;" horiz-adv-x="647" 
d="M423 1729h177l-175 -750h-176zM135 481h176l-172 -749h-176z" />
    <glyph glyph-name="guilsinglleft" unicode="&#x2039;" horiz-adv-x="557" 
d="M264 545l131 -373h-186l-139 395l319 391h197z" />
    <glyph glyph-name="guilsinglright" unicode="&#x203a;" horiz-adv-x="539" 
d="M350 586l-131 372h187l139 -395l-320 -391h-196z" />
    <glyph glyph-name="guillemotleft" unicode="&#xab;" horiz-adv-x="981" 
d="M673 545l131 -373h-186l-139 395l319 391h197zM249 545l131 -373h-186l-139 395l319 391h197z" />
    <glyph glyph-name="guillemotright" unicode="&#xbb;" horiz-adv-x="981" 
d="M335 586l-131 372h187l139 -395l-320 -391h-196zM759 586l-131 372h187l139 -395l-320 -391h-196z" />
    <glyph glyph-name="degree" unicode="&#xb0;" horiz-adv-x="682" 
d="M340 1737q49 0 92.5 -19t76.5 -52t52 -76.5t19 -92.5t-19 -92t-52 -75.5t-76.5 -51t-92.5 -18.5t-92.5 18.5t-75.5 51t-51 75.5t-19 92t19 92.5t51 76.5t75.5 52t92.5 19zM205 1497q0 -28 10.5 -52.5t29 -43t43 -29t52.5 -10.5t52.5 10.5t43.5 29t30 43t11 52.5t-11 52.5
t-30 43.5t-43.5 30t-52.5 11t-52.5 -11t-43 -30t-29 -43.5t-10.5 -52.5z" />
    <glyph glyph-name="periodcentered" unicode="&#xb7;" horiz-adv-x="612" 
d="M223 -2332q0 26 10.5 49.5t28 41t41.5 28t51 10.5q26 0 49.5 -10.5t41 -28t28 -41t10.5 -49.5q0 -27 -10.5 -51t-28 -42.5t-41 -29t-49.5 -10.5q-27 0 -51 10.5t-41.5 29t-28 42.5t-10.5 51z" />
    <glyph glyph-name="bullet" unicode="&#x2022;" horiz-adv-x="989" 
d="M219 545q0 54 20 101t55 82t82 55t101 20t101 -20t82.5 -54.5t56 -82t20.5 -101.5q0 -55 -20.5 -102t-56 -81.5t-82.5 -54.5t-101 -20t-101 20t-82 54.5t-55 81.5t-20 102z" />
    <glyph glyph-name="circumflex" unicode="&#x2c6;" horiz-adv-x="860" 
d="M172 1171l297 273h111l151 -273h-170l-64 125l-119 -125h-206z" />
    <glyph glyph-name="tilde" unicode="&#x2dc;" horiz-adv-x="1000" 
d="M375 1415q50 0 86.5 -16.5t68 -36t62.5 -35.5t70 -16q28 0 54.5 19t35.5 61l119 -35q-20 -85 -78 -131.5t-139 -46.5q-56 0 -95 15.5t-71 33.5t-60 33.5t-61 15.5q-15 0 -30.5 -2t-30.5 -9.5t-27.5 -23t-19.5 -43.5l-109 53q13 47 37 78.5t54 50.5t64.5 27t69.5 8z" />
    <glyph glyph-name="macron" unicode="&#xaf;" horiz-adv-x="922" 
d="M864 1229h-743l26 117h744z" />
    <glyph glyph-name="breve" unicode="&#x2d8;" horiz-adv-x="999" 
d="M468 1149q-83 0 -150 23.5t-113 69.5t-66.5 105.5t-16.5 131.5h141q2 -92 50.5 -145.5t164.5 -53.5q98 0 161.5 55.5t86.5 143.5h145q-13 -72 -50 -131.5t-87.5 -104.5t-122 -69.5t-143.5 -24.5v0z" />
    <glyph glyph-name="cedilla" unicode="&#xb8;" horiz-adv-x="940" 
d="M182 -303q55 1 99.5 19.5t78 48.5t55 70.5t29.5 86.5l150 -45q-18 -73 -56 -130.5t-90.5 -97t-117.5 -60.5t-137 -21z" />
    <glyph glyph-name="hungarumlaut" unicode="&#x2dd;" horiz-adv-x="808" 
d="M698 1508l-243 -321h-140l201 321h182zM413 1508l-243 -321h-138l198 321h183z" />
    <glyph glyph-name="ogonek" unicode="&#x2db;" horiz-adv-x="705" 
d="M428 29q-66 -29 -116 -56t-82.5 -55.5t-44.5 -58.5t-12 -64q0 -19 8 -32t20.5 -20.5t29 -11t34.5 -3.5q48 0 75 6.5t47 15.5l50 -166q-11 -6 -31.5 -13t-45.5 -13.5t-52 -10.5t-50 -4q-60 0 -101.5 13.5t-79 39.5t-53.5 64.5t-16 89.5t13 95.5t42.5 81.5t62.5 66.5
t72.5 52t77 37.5t66.5 23z" />
    <glyph glyph-name="caron" unicode="&#x2c7;" horiz-adv-x="778" 
d="M718 1444l-297 -273h-113l-149 273h166l67 -129l129 129h197z" />
    <glyph glyph-name="acute" unicode="&#xb4;" horiz-adv-x="645" 
d="M297 1477h240v-17l-299 -282h-154z" />
    <glyph glyph-name="dieresis" unicode="&#xa8;" horiz-adv-x="1039" 
d="M162 1360q0 26 10.5 49.5t28 41t41 28t49.5 10.5q25 0 48 -10.5t40 -28t27 -41t10 -49.5q0 -27 -10 -51t-27 -42.5t-40 -29t-48 -10.5q-26 0 -49.5 10.5t-41 29t-28 42.5t-10.5 51zM621 1360q0 26 10.5 49.5t28 41t41 28t49.5 10.5q25 0 47.5 -10.5t40 -28t27.5 -41
t10 -49.5q0 -27 -10 -51t-27.5 -42.5t-40 -29t-47.5 -10.5q-26 0 -49.5 10.5t-41 29t-28 42.5t-10.5 51z" />
    <glyph glyph-name="ring" unicode="&#x2da;" horiz-adv-x="800" 
d="M302 1342q0 -21 8.5 -39.5t23 -33t33 -23t39.5 -8.5t40 8.5t33.5 23t23 33t8.5 39.5t-8.5 40t-23 33.5t-33.5 23t-40 8.5t-39.5 -8.5t-33 -23t-23 -33.5t-8.5 -40zM406 1598q52 0 99 -20.5t81.5 -55t55 -81.5t20.5 -99t-20.5 -98.5t-55 -81.5t-81.5 -55.5t-99 -20.5
t-98.5 20.5t-81.5 55.5t-55.5 81.5t-20.5 98.5t20.5 99t55.5 81.5t81.5 55t98.5 20.5z" />
    <glyph glyph-name="dotaccent" unicode="&#x2d9;" horiz-adv-x="612" 
d="M174 -1600q0 26 10.5 49.5t28 41t41.5 28t51 10.5q26 0 49.5 -10.5t41 -28t28 -41t10.5 -49.5q0 -27 -10.5 -51t-28 -42.5t-41 -29t-49.5 -10.5q-27 0 -51 10.5t-41.5 29t-28 42.5t-10.5 51z" />
    <glyph glyph-name="macron#1" horiz-adv-x="922" 
d="M864 1229h-743l26 117h744z" />
    <glyph glyph-name="dieresis.i" horiz-adv-x="983" 
d="M231 1360q0 53 38 91t91 38q25 0 48.5 -10.5t40 -27.5t26.5 -41t10 -50q0 -27 -10 -51.5t-26.5 -43t-40 -28.5t-48.5 -10q-53 0 -91 40t-38 93zM547 1360q0 53 38 91t91 38q24 0 48 -10.5t40 -27.5t26.5 -41t10.5 -50q0 -27 -10.5 -51.5t-26.5 -43t-40 -28.5t-48 -10
q-53 0 -91 40t-38 93z" />
    <glyph glyph-name="circumflex.i" horiz-adv-x="799" 
d="M147 1171l267 273h112l120 -273h-160l-44 125l-105 -125h-190z" />
    <glyph glyph-name="breve.i" 
d="M420 1149q-78 0 -135.5 28.5t-94 75.5t-53 106.5t-10.5 119.5h111q-2 -41 7 -81t31.5 -71t60.5 -50.5t91 -19.5q61 0 106.5 29t76 67t48 73.5t21.5 52.5h111q-5 -45 -28.5 -102.5t-69.5 -107.5t-113.5 -85t-159.5 -35z" />
    <glyph glyph-name="caron.i" horiz-adv-x="778" 
d="M676 1444l-297 -273h-113l-149 273h166l67 -129l129 129h197z" />
    <glyph glyph-name="AE" unicode="&#xc6;" horiz-adv-x="1991" 
d="M-132 172h127l990 1344h1101l-100 -433h-207l62 260h-541l-111 -485h447l-43 -172h-443l-118 -514h534l62 262h209l-101 -434h-1085l39 172h133l79 342h-412l-252 -342h122l-39 -172h-491zM942 686l148 642l-473 -642h325z" />
    <glyph glyph-name="ae" unicode="&#xe6;" horiz-adv-x="1755" 
d="M508 606q68 0 119.5 -5.5t89.5 -15.5l23 95q13 55 6 95.5t-30 67t-61.5 39.5t-88.5 13q-47 0 -91.5 -6.5t-85 -17t-75 -24t-60.5 -28.5l-30 129q42 24 91 44.5t100.5 35t104 23t101.5 8.5q109 0 182.5 -33.5t107.5 -105.5q78 69 177.5 108t214.5 39q99 0 176.5 -33.5
t131.5 -88.5t82 -127t28 -148q0 -51 -5.5 -98.5t-13.5 -88.5h-796q-1 -14 -1.5 -24t-0.5 -19q0 -63 20.5 -117t56.5 -93.5t86.5 -62t110.5 -22.5q81 0 153 32.5t122 94.5l147 -108q-34 -45 -81 -81t-104 -61.5t-121.5 -39t-131.5 -13.5q-64 0 -122.5 14.5t-109.5 42
t-92.5 68t-71.5 92.5q-39 -53 -87.5 -93t-104 -67t-115.5 -41t-123 -14q-72 0 -134.5 16t-108.5 50t-72.5 85.5t-26.5 123.5q0 74 24 129t64.5 95t93 66.5t109.5 42t114.5 21.5t108.5 6zM355 127q104 0 198 46.5t166 131.5q-8 32 -12 66.5t-4 72.5q0 16 1 33h-230
q-61 0 -114 -14t-92.5 -40t-62 -64.5t-22.5 -86.5q0 -74 46.5 -109.5t125.5 -35.5zM1276 897q-59 0 -111.5 -19t-96 -53t-76.5 -80t-54 -100h590q1 62 -16.5 109.5t-51 79t-80.5 47.5t-104 16z" />
    <glyph glyph-name="OE" unicode="&#x152;" horiz-adv-x="2066" 
d="M688 0q-143 0 -257 52t-192.5 139.5t-120.5 203t-42 244.5q0 182 73.5 342t198.5 278.5t289 187.5t344 69h1184l-99 -433h-204l57 260h-535l-110 -485h455l-41 -172h-455l-119 -514h535l61 260h209l-100 -432h-1131zM289 655q0 -100 27.5 -188t81 -153.5t131 -103.5
t178.5 -38h211l270 1171h-232q-122 0 -241 -53t-214 -146t-153.5 -219t-58.5 -270z" />
    <glyph glyph-name="oe" unicode="&#x153;" horiz-adv-x="1995" 
d="M76 449q0 129 48 241.5t130 196.5t191.5 132t232.5 48q133 0 238.5 -59.5t166.5 -157.5q82 100 200 158.5t259 58.5q98 0 176 -34t132.5 -89t82 -127t27.5 -147q0 -52 -5 -99t-13 -88h-795q-2 -4 -2 -9t-2 -9v-25q0 -63 20.5 -116.5t57 -93.5t87 -62.5t109.5 -22.5
q80 0 152.5 33t122.5 94q37 -28 73.5 -53.5t73.5 -54.5q-67 -90 -185 -142.5t-253 -52.5q-129 0 -232.5 56.5t-162.5 160.5q-84 -98 -201 -154.5t-252 -56.5q-104 0 -191.5 37t-151 100.5t-99 149.5t-35.5 187zM285 463q0 -141 77.5 -226t202.5 -85q74 0 142.5 31.5t123 89
t86 137t31.5 176.5q0 69 -21.5 125.5t-59.5 96.5t-89 61.5t-112 21.5q-74 0 -142.5 -32t-122 -88t-85 -135t-31.5 -173zM1516 897q-119 0 -208 -71.5t-130 -180.5h589q2 62 -16 109t-51 78.5t-80 48t-104 16.5z" />
    <glyph glyph-name="thorn" unicode="&#xfe;" horiz-adv-x="1255" 
d="M235 1556h393l-135 -585q134 92 279 92q85 0 159 -33t128.5 -90t86 -134.5t31.5 -166.5q0 -145 -51 -266t-138.5 -208t-204 -135t-247.5 -48q-77 0 -143.5 23t-108.5 59l-84 -363h137l-38 -172h-492l39 172h154l388 1683h-194zM724 891q-70 0 -142 -28.5t-132 -78.5
l-126 -548q25 -33 80 -57.5t146 -24.5q77 0 152 31.5t134.5 91t96.5 145.5t37 196q0 64 -18 114.5t-50.5 85.5t-77.5 54t-100 19z" />
    <glyph glyph-name="Thorn" unicode="&#xde;" horiz-adv-x="1320" 
d="M425 1516h492l-41 -173h-141l-31 -135h272q88 0 162.5 -23t128.5 -67.5t84.5 -108.5t30.5 -145q0 -104 -38.5 -191.5t-110 -151t-173 -99t-227.5 -35.5h-317l-49 -215h139l-39 -172h-492l39 172h144l270 1171h-143zM665 1036l-109 -477h291q69 0 128 18.5t102.5 54.5
t68.5 90t25 126q0 85 -57 136.5t-181 51.5h-268z" />
    <glyph glyph-name="Oslash" unicode="&#xd8;" horiz-adv-x="1577" 
d="M1280 1536h228l-124 -171q84 -83 135 -205t51 -279q0 -134 -30 -254t-84.5 -221t-132 -182t-173 -137.5t-206.5 -87t-232 -30.5q-158 0 -293 72l-45 -61h-228l124 171q-92 95 -143.5 221.5t-51.5 282.5q0 131 31 247.5t87 215.5t134.5 178t174 134t204.5 84.5t227 29.5
q165 0 301 -71zM1106 1298q-100 43 -195 43q-124 0 -235 -50t-195 -139.5t-133 -212t-49 -267.5q0 -107 30 -192t76 -145zM735 172q86 0 165 24t147 68.5t123.5 107t94.5 139.5t60.5 166t21.5 187q0 109 -29 186.5t-69 130.5l-703 -965q94 -44 189 -44z" />
    <glyph glyph-name="oslash" unicode="&#xf8;" 
d="M1106 1135h219l-258 -259q90 -117 90 -278q0 -87 -22 -167t-61.5 -149t-94.5 -126t-122.5 -97t-144.5 -62t-160 -22q-104 0 -175 29.5t-116 62.5l-97 -97h-219l209 209q-26 39 -52.5 104.5t-26.5 165.5q0 86 21.5 165t61 148t95 125t122.5 96t143.5 62t158.5 22
q103 0 170.5 -28t107.5 -56zM397 204q79 -52 168 -52q73 0 142.5 32t122.5 89t85.5 137t32.5 176q0 70 -29 142zM284 463q0 -70 21 -131l514 515q-62 44 -154 44q-74 0 -142.5 -31.5t-121.5 -88t-85 -135.5t-32 -173z" />
    <glyph glyph-name="Eth" unicode="&#xd0;" horiz-adv-x="1561" 
d="M184 690l39 172h182l111 481h-131l40 173h549q133 0 240.5 -50.5t183 -138t116 -204.5t40.5 -249q0 -131 -31.5 -246.5t-89 -213t-139.5 -174t-182 -130t-216 -82t-243 -28.5h-578l39 172h132l119 518h-181zM723 1343l-110 -481h241l-39 -172h-242l-118 -518h220
q83 0 164 22t154.5 64t136 102t108 136t71.5 167t26 195q0 97 -27.5 184.5t-78 154.5t-122 106.5t-159.5 39.5h-225z" />
    <glyph glyph-name="eth" unicode="&#xf0;" horiz-adv-x="1251" 
d="M674 1532l76 -128l156 64l66 -159l-133 -55l179 -298q36 -60 64.5 -119t46 -134.5t17.5 -150.5q0 -91 -47.5 -209.5t-141.5 -205.5t-208 -124.5t-198 -37.5q-108 0 -196.5 36.5t-151 100.5t-97 150.5t-34.5 186.5q0 86 21.5 165t60.5 147.5t93.5 125t119.5 96.5t139 62
t153 22q32 0 59 -3l-69 112l-169 -69l-66 159l143 59l-127 207h244zM945 586q0 66 -15 115.5t-49.5 94.5t-93.5 70t-125 25q-80 0 -159.5 -44t-131 -115.5t-71 -143.5t-19.5 -125q0 -64 16.5 -120.5t50.5 -99t87 -67t127 -24.5q67 0 135.5 30t123.5 86t89.5 136.5
t34.5 181.5z" />
    <glyph glyph-name="fi" unicode="&#xfb01;" horiz-adv-x="1534" 
d="M168 1036h211l43 183q45 192 156.5 275t269.5 83q96 0 162.5 -20.5t101.5 -40.5l-102 -154q-27 16 -72 29.5t-98 13.5q-80 0 -136.5 -44t-80.5 -153l-41 -172h282l-41 -172h-280l-305 -1335h-203l305 1335h-213zM1010 1036h387l-201 -864h166l-39 -172h-369l199 864h-184
zM1200 1401q0 53 39 92t94 39q27 0 50.5 -10.5t42 -28.5t28.5 -42t10 -50q0 -27 -10 -51.5t-28.5 -43t-42 -29.5t-50.5 -11q-55 0 -94 41t-39 94z" />
    <glyph glyph-name="fl" unicode="&#xfb02;" horiz-adv-x="1460" 
d="M168 1036h211l43 183q45 192 155.5 275t270.5 83q82 0 154.5 -23.5t127.5 -62.5l15 65h203l-320 -1384h172l-39 -172h-375l301 1311q-38 41 -100.5 67.5t-128.5 26.5q-94 0 -152.5 -44t-82.5 -153l-41 -172h282l-41 -172h-280l-305 -1335h-203l305 1335h-213z" />
    <glyph glyph-name="mu" unicode="&#xb5;" 
d="M-89 -471l349 1507h200l-135 -583q-23 -84 -18 -153t55.5 -108.5t142.5 -41.5q47 0 97 21t87 55t62 73l172 737h201l-200 -864h202l-39 -172h-395l23 105q-31 -33 -68 -56.5t-75.5 -38.5t-76.5 -21.5t-70 -6.5q-56 0 -106.5 13t-90.5 38l-116 -504h-201z" />
    <glyph glyph-name="germandbls" unicode="&#xdf;" horiz-adv-x="1348" 
d="M-9 172h195l233 1008q21 92 63.5 165.5t104 125t142 79t178.5 27.5q84 0 152.5 -27.5t117.5 -76t76 -114.5t27 -142q0 -63 -17.5 -113t-45 -89.5t-61.5 -69.5t-67 -54q34 -27 64 -61.5t52.5 -76t35 -89.5t12.5 -101q0 -128 -49 -233.5t-133 -180.5t-197 -116t-240 -41
q-20 0 -47 1.5t-47 4.5l43 184q20 -5 37 -6.5t37 -1.5q75 0 146 27.5t126.5 77t89 117t33.5 147.5q0 57 -20 104.5t-54 81t-79 52t-95 18.5h-80l44 186h75q45 0 87.5 15.5t75.5 44.5t53 69.5t20 91.5q0 40 -13.5 74t-39 58.5t-62 38.5t-82.5 14q-48 0 -91 -17.5t-78 -48.5
t-60 -74t-37 -94l-266 -1157h-398z" />
    <glyph glyph-name="dotlessi" unicode="&#x131;" horiz-adv-x="725" 
d="M198 1036h387l-200 -864h166l-39 -172h-369l200 864h-186z" />
    <glyph glyph-name="onesuperior" unicode="&#xb9;" horiz-adv-x="486" 
d="M100 956h84l103 436l-161 -75l35 143l244 119h61l-142 -623h81l-26 -116h-304z" />
    <glyph glyph-name="twosuperior" unicode="&#xb2;" horiz-adv-x="609" 
d="M-5 944l338 277q27 21 49 40t37.5 37t24 37.5t8.5 42.5q0 32 -26 56t-72 24q-53 0 -91 -30t-51 -78h-124q12 52 38 94.5t62.5 72.5t81.5 46t96 16q46 0 86.5 -15t71 -40.5t48 -60t17.5 -74.5q0 -54 -22.5 -101.5t-83.5 -99.5l-278 -225h284l-29 -121h-487z" />
    <glyph glyph-name="threesuperior" unicode="&#xb3;" horiz-adv-x="622" 
d="M467 1379q0 35 -27 60.5t-74 25.5q-110 0 -137 -98h-137q9 52 51 107.5t103 82.5t132 27q63 0 113 -25.5t78.5 -71.5t28.5 -98q0 -117 -131 -171q75 -41 75 -128q0 -63 -36 -124t-107.5 -96.5t-157.5 -35.5q-58 0 -113 24t-84.5 71t-29.5 125h133q0 -99 107 -99
q63 0 107 34t44 89q0 86 -106 86h-58l25 107h55q64 0 105 31t41 77z" />
    <glyph glyph-name="ordmasculine" unicode="&#xba;" horiz-adv-x="772" 
d="M75 1153q0 91 35 167.5t94.5 132t137.5 87t165 31.5q69 0 127.5 -23t101 -63.5t67 -95t24.5 -117.5q0 -92 -32.5 -170t-90.5 -134.5t-137 -88t-172 -31.5q-69 0 -128 24.5t-101.5 66.5t-66.5 97t-24 117zM231 1163q0 -38 13.5 -71.5t37 -58t55 -38.5t68.5 -14
q54 0 102.5 20t85 56.5t58.5 88t22 114.5q0 40 -14 73t-38 55.5t-56.5 35t-69.5 12.5q-52 0 -100 -19t-84.5 -54.5t-58 -86t-21.5 -113.5z" />
    <glyph glyph-name="ordfeminine" unicode="&#xaa;" horiz-adv-x="834" 
d="M540 908q-43 -35 -89 -52.5t-109 -17.5q-50 0 -91.5 14.5t-71.5 39t-46.5 57t-16.5 69.5q0 69 31 115.5t80.5 74.5t111.5 40t123 12q47 0 86 -4.5t68 -10.5l12 49q16 67 -20 98t-105 31q-65 0 -119.5 -13.5t-95.5 -33.5l-26 97q62 37 134 57t144 20q54 0 99 -11t77 -33.5
t50 -58t18 -83.5q0 -15 -7.5 -54t-73.5 -323h81l-29 -131h-227zM374 954q56 0 106.5 18t84.5 49l31 136h-156q-36 0 -68.5 -8.5t-56.5 -24t-38.5 -38.5t-14.5 -52q0 -38 30 -59t82 -21z" />
    <glyph glyph-name="exclamdown" unicode="&#xa1;" horiz-adv-x="850" 
d="M294 -528h-260l312 1167h178zM346 936q0 27 10.5 51t28.5 41.5t42 28t52 10.5q27 0 51 -10.5t41.5 -28t28 -41.5t10.5 -51t-10.5 -51.5t-28 -43t-41.5 -29.5t-51 -11q-28 0 -52 11t-42 29.5t-28.5 43t-10.5 51.5z" />
    <glyph glyph-name="questiondown" unicode="&#xbf;" horiz-adv-x="1000" 
d="M735 623q-14 -70 -29 -123.5t-33 -95.5t-40 -75t-51 -62.5t-67 -57.5t-87 -59q-71 -45 -124.5 -80t-89 -70t-53.5 -74.5t-18 -93.5q0 -36 14 -67.5t40.5 -55.5t64.5 -37.5t86 -13.5q55 0 101 18t81 50t60 76.5t38 97.5l207 -19q-23 -95 -70 -171t-113 -130t-149.5 -83
t-179.5 -29q-95 0 -168 29.5t-122.5 77.5t-75 108.5t-25.5 123.5q0 72 19 130t55.5 107.5t90 93t122.5 85.5q49 29 87 51t68 44.5t53.5 47.5t42.5 60t35 82.5t31 114.5h199zM810 932q0 -27 -10.5 -51t-28.5 -41.5t-42 -28t-52 -10.5q-27 0 -51 10.5t-41.5 28t-28 41.5
t-10.5 51t10.5 51.5t28 43t41.5 29.5t51 11q28 0 52 -11t42 -29.5t28.5 -43t10.5 -51.5z" />
    <glyph glyph-name="nonmarkingreturn" horiz-adv-x="0" 
 />
    <glyph glyph-name=".null" horiz-adv-x="471" 
 />
    <glyph glyph-name="uni0410" unicode="&#x410;" horiz-adv-x="1456" 
d="M919 172h127l-37 342h-574l-191 -342h136l-38 -172h-492l39 172h131l760 1344h323l158 -1344h150l-39 -172h-492zM531 686h459l-75 688z" />
    <glyph glyph-name="uni0411" unicode="&#x411;" horiz-adv-x="1464" 
d="M111 172h141l272 1180h-110l39 164h1067l-93 -400h-204l53 236h-545l-106 -469h274q92 0 170 -27t134.5 -77t88 -120.5t31.5 -158.5q0 -105 -42 -196t-119 -158.5t-185.5 -106.5t-243.5 -39h-661zM586 711l-125 -539h305q74 0 136.5 22.5t108.5 64.5t72.5 101.5
t26.5 133.5q0 94 -63.5 155.5t-188.5 61.5h-272z" />
    <glyph glyph-name="uni0412" unicode="&#x412;" horiz-adv-x="1499" 
d="M114 172h134l270 1171h-148l41 173h678q85 0 151.5 -27t112 -75.5t69 -115.5t23.5 -147q0 -143 -72 -245t-204 -153q66 -48 101.5 -122t35.5 -166q0 -105 -42.5 -191t-116 -147t-172.5 -94t-212 -33h-688zM572 674l-115 -502h335q67 0 122 21.5t94 58.5t60 87.5t21 109.5
q0 51 -13 92.5t-36.5 71t-57 45.5t-73.5 16h-337zM725 1343l-113 -495h330q60 0 112 19.5t90.5 55.5t61 86t22.5 111q0 47 -11 87.5t-33.5 70.5t-56.5 47.5t-79 17.5h-323z" />
    <glyph glyph-name="uni0413" unicode="&#x413;" horiz-adv-x="1313" 
d="M113 172h131l272 1180h-129l39 164h1051l-93 -400h-204l53 236h-510l-270 -1180h151l-39 -172h-491z" />
    <glyph glyph-name="uni0414" unicode="&#x414;" horiz-adv-x="1559" 
d="M-115 172h54q88 8 152.5 58.5t113.5 127t85 176t68 207.5l174 602h-196l41 173h1235l-41 -173h-148l-268 -1171h145l-118 -520h-197l80 348h-1024l-80 -348h-194zM545 717q-58 -199 -130.5 -334t-170.5 -211h702l271 1171h-492z" />
    <glyph glyph-name="uni0415" unicode="&#x415;" horiz-adv-x="1413" 
d="M411 1516h1100l-100 -433h-207l61 260h-540l-111 -485h446l-43 -172h-442l-118 -514h534l61 262h209l-100 -434h-1086l39 172h134l270 1171h-148z" />
    <glyph glyph-name="uni0416" unicode="&#x416;" horiz-adv-x="2038" 
d="M653 172h154l118 520h-112l-498 -520l-39 -172h-368l41 172h139l608 623l-352 548h-96l39 173h299l-41 -173l290 -479h129l113 479h-152l41 173h492l-41 -173h-145l-111 -479h129l502 479l39 173h317l-41 -173h-98l-625 -581l342 -590h144l-41 -172h-353l41 172l-270 520
h-125l-121 -520h146l-41 -172h-492z" />
    <glyph glyph-name="uni0417" unicode="&#x417;" horiz-adv-x="1167" 
d="M14 326q11 43 20 86t19 86h246q-8 -37 -16.5 -74t-16.5 -74q10 -86 72.5 -135t173.5 -49q59 0 120.5 23.5t111 66.5t81 104.5t31.5 139.5q0 100 -63.5 159.5t-165.5 59.5h-86q10 39 17 75.5t17 75.5h70q76 0 139.5 25t109.5 64.5t71.5 92t25.5 107.5q0 37 -12 75
t-40 68.5t-70 50t-103 19.5q-59 0 -109.5 -17.5t-87.5 -44t-61.5 -55t-34.5 -49.5q-6 -28 -12 -52t-12 -50h-246l20 86t21 86h71q33 59 83.5 109.5t109.5 86t126.5 55t137.5 19.5q98 0 176 -31.5t131.5 -82t81 -116t27.5 -132.5q0 -54 -16.5 -110t-53.5 -108.5t-93 -96.5
t-136 -72q69 -33 114.5 -110t45.5 -179q0 -111 -48.5 -207t-127 -165.5t-180 -109.5t-208.5 -40q-86 0 -159.5 23.5t-129 67.5t-88 107.5t-36.5 141.5h-58v0z" />
    <glyph glyph-name="uni0418" unicode="&#x418;" horiz-adv-x="1935" 
d="M413 1516h516l-41 -173h-159l-250 -1079l1110 1252h379l-41 -173h-135l-268 -1171h148l-39 -172h-493l39 172h135l252 1088l-1114 -1260h-377l41 176h137l268 1167h-149z" />
    <glyph glyph-name="uni041A" unicode="&#x41a;" horiz-adv-x="1640" 
d="M1390 1343l41 173h389l-41 -173h-94l-837 -589l468 -582h158l-39 -172h-407l39 172l-469 602zM411 1516h492l-41 -173h-137l-268 -1171h149l-39 -172h-492l39 172h134l270 1171h-148z" />
    <glyph glyph-name="uni041B" unicode="&#x41b;" horiz-adv-x="1647" 
d="M895 172h147l271 1171h-496l-174 -598q-59 -194 -122.5 -334.5t-137.5 -230.5t-163 -134t-195 -46h-148l72 311h188l-37 -155q64 14 112 57t88 115.5t75 176t76 236.5l180 602h-211l41 173h1239l-41 -173h-139l-269 -1171h135l-38 -172h-492z" />
    <glyph glyph-name="uni041C" unicode="&#x41c;" horiz-adv-x="2290" 
d="M114 172h136l270 1171h-150l41 173h459l197 -1301l784 1301h473l-41 -173h-137l-270 -1171h159l-39 -172h-491l39 172h132l266 1154l-800 -1326h-231l-202 1323l-266 -1151h163l-39 -172h-492z" />
    <glyph glyph-name="uni041D" unicode="&#x41d;" horiz-adv-x="1931" 
d="M1476 1516h492l-41 -173h-137l-268 -1171h149l-39 -172h-492l39 172h134l126 545h-857l-125 -545h149l-39 -172h-492l39 172h134l270 1171h-148l41 173h492l-41 -173h-137l-105 -458h858l105 458h-148z" />
    <glyph glyph-name="uni041E" unicode="&#x41e;" horiz-adv-x="1577" 
d="M712 -31q-128 0 -243.5 49t-203 138.5t-139 216t-51.5 282.5q0 131 31 247.5t87 215.5t134.5 178t174 134t204.5 84.5t227 29.5q128 0 243.5 -44.5t203 -129.5t139 -208.5t51.5 -280.5q0 -134 -30 -254t-84.5 -221t-132 -182t-173 -137.5t-206.5 -87t-232 -30.5zM735 172
q86 0 165 24t147 68.5t123.5 107t94.5 139.5t60.5 166t21.5 187q0 109 -32.5 197t-90.5 150.5t-138 96t-175 33.5q-124 0 -235 -50t-195 -139.5t-133 -212t-49 -267.5q0 -107 32.5 -198.5t90.5 -158.5t138 -105t175 -38z" />
    <glyph glyph-name="uni041F" unicode="&#x41f;" horiz-adv-x="1877" 
d="M419 1516h1493l-41 -173h-137l-268 -1171h137l-39 -172h-492l39 172h146l270 1171h-803l-268 -1171h141l-39 -172h-491l39 172h141l270 1171h-139z" />
    <glyph glyph-name="uni0420" unicode="&#x420;" horiz-adv-x="1313" 
d="M409 1516h608q87 0 159 -30t124 -81.5t80.5 -120.5t28.5 -147q0 -103 -39 -191t-114.5 -152t-187 -100.5t-255.5 -36.5h-247l-111 -485h151l-39 -172h-492l39 172h132l270 1171h-148zM723 1343l-117 -514h229q81 0 148 19.5t115 57t74 92.5t26 126q0 42 -14 81.5t-43 70
t-74 49t-107 18.5h-237z" />
    <glyph glyph-name="uni0421" unicode="&#x421;" horiz-adv-x="1468" 
d="M1394 322q-58 -82 -129 -146.5t-156 -109t-184 -68t-213 -23.5q-137 0 -253.5 51.5t-201.5 142.5t-133.5 215.5t-48.5 270.5q0 125 29.5 240t83.5 213.5t131 179t172.5 137.5t207 88t234.5 31q170 0 302.5 -68.5t217.5 -189.5h156l-41 -172h-276q-22 51 -58.5 94
t-85 73.5t-108.5 47.5t-129 17q-132 0 -244 -53.5t-194 -145.5t-128 -214.5t-46 -260.5q0 -115 36 -207.5t96 -157t139 -99t165 -34.5q151 0 265.5 62.5t201.5 187.5z" />
    <glyph glyph-name="uni0422" unicode="&#x422;" horiz-adv-x="1362" 
d="M348 172h140l272 1180h-367l-53 -236h-205l92 400h1352l-93 -400h-204l53 236h-368l-270 -1180h142l-39 -172h-491z" />
    <glyph glyph-name="uni0423" unicode="&#x423;" horiz-adv-x="1293" 
d="M987 1343l39 173h492l-39 -173h-140q-163 -247 -326 -490t-327 -491q-96 -145 -181 -242t-188 -128q-20 -6 -41.5 -9t-44.5 -3q-34 0 -75 5t-74 15h-84q18 78 35.5 155.5t36.5 155.5h188q-10 -45 -20.5 -89t-20.5 -89q35 0 63.5 6t62.5 35t80 90.5t91 127.5l-230 951
h-127l39 173h491l-39 -173h-161l166 -736l467 736h-133z" />
    <glyph glyph-name="uni0424" unicode="&#x424;" horiz-adv-x="1540" 
d="M745 1597h476l-35 -151h-137l-29 -121q117 -4 215 -36t169 -89t109.5 -138t38.5 -179q0 -127 -59 -234.5t-162.5 -185.5t-245 -123t-305.5 -47l-26 -121h145l-39 -172h-491l39 172h149l27 121q-115 4 -213.5 36.5t-169 91t-110.5 140.5t-40 182q0 123 59.5 228.5
t163 183.5t244.5 124t305 46l29 121h-141zM1350 879q0 63 -22.5 114t-69 88t-115 58.5t-160.5 25.5l-164 -710q142 2 242 41t164.5 99t94.5 135t30 149v0zM254 748q0 -68 23.5 -121.5t70.5 -90t115.5 -58t159.5 -23.5l163 708q-145 -4 -246.5 -43t-165 -98t-92 -132
t-28.5 -142v0z" />
    <glyph glyph-name="uni0425" unicode="&#x425;" horiz-adv-x="1487" 
d="M1115 1516h491l-41 -173h-104l-551 -579l284 -592h150l-39 -172h-491l38 172h137l-218 446l-424 -446h118l-39 -172h-491l39 172h121l590 621l-268 550h-146l41 173h491l-41 -173h-130l193 -402l382 402h-133z" />
    <glyph glyph-name="uni0426" unicode="&#x426;" horiz-adv-x="1879" 
d="M1422 1516h492l-41 -173h-137l-271 -1181h201l-117 -510h-188l80 348h-1376l37 162h145l272 1181h-150l41 173h494l-41 -173h-137l-271 -1181h802l272 1181h-148z" />
    <glyph glyph-name="uni0427" unicode="&#x427;" horiz-adv-x="1579" 
d="M254 1516h491l-38 -173h-150l-74 -329q-22 -99 -19 -158t35.5 -90t94 -41t158.5 -10q82 0 173 19.5t187 47.5l129 561h-154l39 173h492l-39 -173h-131l-268 -1171h135l-39 -172h-492l39 172h148l100 432q-84 -29 -172 -46t-186 -17q-125 0 -221.5 17t-154.5 67.5
t-74.5 139.5t16.5 232l75 346h-139z" />
    <glyph glyph-name="uni0428" unicode="&#x428;" horiz-adv-x="2423" 
d="M1972 1516h492l-41 -173h-137l-271 -1181h144l-37 -162h-2048l37 162h143l272 1181h-147l41 173h491l-41 -173h-137l-270 -1181h569l273 1181h-148l41 173h492l-41 -173h-138l-270 -1181h565l273 1181h-148z" />
    <glyph glyph-name="uni0429" unicode="&#x429;" horiz-adv-x="2431" 
d="M1972 1516h492l-41 -173h-137l-271 -1181h232l-117 -510h-188l79 348h-1947l37 162h143l272 1181h-147l41 173h491l-41 -173h-137l-270 -1181h569l273 1181h-148l41 173h492l-41 -173h-138l-270 -1181h565l273 1181h-148z" />
    <glyph glyph-name="uni042A" unicode="&#x42a;" horiz-adv-x="1567" 
d="M283 172h139l272 1180h-299l-53 -236h-205l92 400h871l-39 -164h-160l-106 -469h276q92 0 170 -27t134.5 -77t88 -120.5t31.5 -158.5q0 -105 -42 -196t-119 -158.5t-185.5 -106.5t-243.5 -39h-661zM756 711l-125 -539h307q74 0 136.5 22.5t108.5 64.5t72.5 101.5
t26.5 133.5q0 94 -63.5 155.5t-188.5 61.5h-274z" />
    <glyph glyph-name="uni042B" unicode="&#x42b;" horiz-adv-x="2044" 
d="M428 1516h491l-41 -173h-141l-104 -460h274q92 0 170 -27t134.5 -77t88 -120.5t31.5 -158.5q0 -105 -42 -196t-119 -158.5t-185.5 -106.5t-243.5 -39h-661l39 172h141l270 1171h-143zM594 711l-125 -539h305q74 0 136.5 22.5t108.5 64.5t72.5 101.5t26.5 133.5
q0 94 -63.5 155.5t-188.5 61.5h-272zM1625 1516h492l-41 -173h-141l-268 -1171h139l-39 -172h-492l39 172h144l270 1171h-143z" />
    <glyph glyph-name="uni042C" unicode="&#x42c;" horiz-adv-x="1397" 
d="M422 1516h491l-41 -173h-141l-104 -460h274q92 0 170 -27t134.5 -77t88 -120.5t31.5 -158.5q0 -105 -42 -196t-119 -158.5t-185.5 -106.5t-243.5 -39h-661l39 172h141l270 1171h-143zM588 711l-125 -539h305q74 0 136.5 22.5t108.5 64.5t72.5 101.5t26.5 133.5
q0 94 -63.5 155.5t-188.5 61.5h-272z" />
    <glyph glyph-name="uni042D" unicode="&#x42d;" horiz-adv-x="1602" 
d="M500 657q10 45 18 90.5t19 90.5h806q3 10 3 26q0 82 -20.5 156t-59.5 132t-93.5 101t-121.5 66q-35 10 -70 16t-74 6q-155 0 -261.5 -55t-199.5 -170h-64h-65h-63h-64q11 43 20 85t19 85h107q63 62 129.5 109t140.5 80.5t156 51t176 17.5q131 0 245.5 -45t199.5 -130
t134.5 -208t49.5 -280q0 -201 -65.5 -369t-181.5 -289t-272.5 -187.5t-338.5 -66.5q-107 0 -199 27t-166 78t-129 124.5t-88 166.5q47 24 94 47.5t94 48.5q29 -82 73 -137.5t98.5 -89t117 -48t127.5 -14.5q111 0 208 38t175 104.5t132 154.5t79 188h-825v0z" />
    <glyph glyph-name="uni042E" unicode="&#x42e;" horiz-adv-x="2347" 
d="M1452 -31q-129 0 -243.5 49.5t-202.5 138.5t-139.5 216t-51.5 282v30t2 30h-227l-125 -543h139l-39 -172h-491l39 172h143l270 1171h-143l41 173h491l-41 -173h-141l-104 -456h213q37 147 114.5 269t187 208t245 133t284.5 47q129 0 244 -45t203 -130t139 -208t51 -280
q0 -201 -65.5 -369t-181 -289t-272.5 -187.5t-339 -66.5v0zM1475 172q129 0 241.5 53.5t194.5 146.5t129 219t47 273q0 109 -33 197t-90 150.5t-138 96t-175 33.5q-123 0 -234.5 -50t-195.5 -139t-133.5 -212t-49.5 -268q0 -107 33 -198t90.5 -158.5t137 -105.5t176.5 -38v0
z" />
    <glyph glyph-name="uni042F" unicode="&#x42f;" horiz-adv-x="1464" 
d="M758 172h139l123 530h-193q-110 0 -187 -58t-136 -183l-219 -461h-295l45 190h131l162 330q41 86 103.5 146.5t117.5 83.5q-47 18 -83 48.5t-62.5 69.5t-40 85t-13.5 94q0 106 44 193t121 148.5t181.5 94.5t223.5 33l636 2l-40 -175h-152l-270 -1171h155l-39 -172h-491z
M557 1051q0 -90 57.5 -137.5t155.5 -47.5h287l110 477h-264q-92 0 -158.5 -22.5t-107.5 -61t-60.5 -93t-19.5 -115.5z" />
    <glyph glyph-name="uni0430" unicode="&#x430;" horiz-adv-x="1307" 
d="M771 70q-67 -45 -134.5 -66.5t-139.5 -21.5q-85 0 -159 33t-128.5 90t-86 134.5t-31.5 166.5q0 145 51 266t138.5 208t204 135t247.5 48q75 0 141 -22.5t108 -58.5l13 54h201l-200 -864h161l-39 -172h-363zM544 154q37 0 75.5 9t73.5 23t66 32.5t55 38.5l129 554
q-26 33 -81 56.5t-144 23.5q-77 0 -152 -31.5t-134 -91t-96 -146t-37 -196.5q0 -64 18 -114.5t50 -85.5t77.5 -53.5t99.5 -18.5z" />
    <glyph glyph-name="uni0431" unicode="&#x431;" horiz-adv-x="1239" 
d="M1311 1556l-49 -229h-342q-92 0 -180.5 -31t-154.5 -81t-112 -113t-78 -152q66 60 148 89.5t188 29.5q96 0 176 -35t138.5 -96t90 -148.5t31.5 -191.5q0 -131 -47 -244.5t-129 -197.5t-191.5 -132.5t-234.5 -48.5q-112 0 -200.5 35t-148.5 97.5t-92 149.5t-32 192
q0 49 11.5 108t25.5 115.5t27.5 102.5t19.5 67q78 318 279 485.5t508 168.5h110l13 60h225zM578 152q81 0 151 31.5t121 89t81 137t30 176.5q0 63 -18.5 119.5t-52.5 97.5t-82 64.5t-106 23.5q-86 0 -160.5 -31t-129 -86t-86 -134t-31.5 -177q0 -82 23.5 -141.5t63.5 -97.5
t90 -55t106 -17v0z" />
    <glyph glyph-name="uni0432" unicode="&#x432;" horiz-adv-x="1204" 
d="M82 0l199 864h-119l41 172h612q160 0 249 -69.5t89 -184.5q0 -92 -55.5 -158.5t-157.5 -103.5q57 -31 88 -76t31 -104q0 -70 -36 -132.5t-98.5 -108.5t-149.5 -72.5t-191 -26.5h-502zM373 446l-64 -274h316q114 0 166.5 38t52.5 109q0 52 -37 89.5t-119 37.5h-315z
M469 864l-63 -274h307q112 0 166.5 44t54.5 111q0 52 -38 85.5t-120 33.5h-307z" />
    <glyph glyph-name="uni0433" unicode="&#x433;" horiz-adv-x="1065" 
d="M172 758q10 43 20.5 86t20.5 86h98q54 57 142 97t217 40q78 0 139 -19.5t103 -53t64.5 -80t22.5 -97.5q0 -78 -21.5 -128t-61 -84t-97 -57.5t-129.5 -47t-155.5 -53t-178.5 -76.5q-53 -27 -73.5 -58.5t-20.5 -72.5q0 -56 50 -84.5t124 -28.5q41 0 84 8t80 26.5t64.5 48.5
t37.5 73h213l-20 -86t-21 -86h-104q-59 -64 -142 -103t-210 -39q-80 0 -145.5 18.5t-111.5 52.5t-70.5 81t-24.5 102q0 58 20 111t62 99t106.5 83t155.5 64q116 36 193 60t121 47.5t61.5 50t17.5 67.5q0 49 -39 76.5t-119 27.5q-61 0 -125.5 -21.5t-105.5 -64.5
q-15 -14 -24 -30.5t-13 -34.5h-205z" />
    <glyph glyph-name="uni0434" unicode="&#x434;" horiz-adv-x="1284" 
d="M505 1565q202 -10 345.5 -75t219.5 -180.5t105 -267t13 -364.5q-14 -161 -68 -290.5t-136.5 -220.5t-188 -140.5t-222.5 -49.5q-110 0 -201.5 36.5t-157 100t-102 150t-36.5 185.5q0 87 21.5 166.5t60.5 148.5t92.5 124.5t118.5 95.5t138 61.5t150 21.5
q104 0 189.5 -26.5t142.5 -77.5q-8 113 -43.5 192.5t-100 126t-164 79t-216.5 42.5zM666 891q-66 0 -134 -32t-123 -89.5t-89.5 -137t-34.5 -173.5q0 -69 21 -125.5t60 -97t94 -62.5t124 -22q76 0 146 32t125 90.5t94 140.5t39 183q0 79 -28.5 131.5t-71 88.5t-99 54.5
t-123.5 18.5v0z" />
    <glyph glyph-name="uni0435" unicode="&#x435;" horiz-adv-x="1169" 
d="M318 483q-1 -14 -2 -24t-1 -19q0 -63 20.5 -117t57 -93.5t87 -62t110.5 -22.5q80 0 152.5 32.5t121.5 94.5l148 -108q-34 -45 -81 -81t-104 -61.5t-121.5 -39t-131.5 -13.5q-96 0 -179.5 32t-146 93t-98 149.5t-35.5 200.5q0 129 45.5 242.5t126 198t190.5 133.5t238 49
q99 0 176.5 -33.5t131.5 -88.5t82 -127t28 -148q0 -51 -5.5 -98.5t-13.5 -88.5h-796zM688 897q-60 0 -112.5 -19t-95.5 -53t-76 -80t-54 -100h590q1 62 -16.5 109.5t-51 79t-80.5 47.5t-104 16z" />
    <glyph glyph-name="uni0436" unicode="&#x436;" horiz-adv-x="1847" 
d="M1444 864l41 172h393l-41 -172h-129l-397 -346l243 -346h125l-39 -172h-219l-301 442h-137l-63 -270h108l-39 -172h-295l103 449h-158l-320 -277l-38 -172h-342l38 172h127l402 348l-244 344h-125l39 172h219l301 -440h135l62 268h-109l41 172h295l-104 -446h180l317 274
h-69v0z" />
    <glyph glyph-name="uni0437" unicode="&#x437;" horiz-adv-x="975" 
d="M358 453q11 39 18 77.5t17 77.5h68q55 0 106 10.5t90 32t62.5 56t23.5 84.5q0 57 -44 86.5t-138 29.5q-49 0 -94 -13t-82 -38t-62.5 -56.5t-37.5 -68.5v0h-33h-33h-129q10 43 19.5 86t19.5 86h72q67 72 167.5 120t202.5 48q91 0 159.5 -20.5t113.5 -55t67.5 -81
t22.5 -97.5q0 -14 -6 -51t-28.5 -81t-70 -86t-129.5 -67q37 -14 62.5 -35.5t41 -47t23 -56.5t7.5 -63q0 -76 -36 -139.5t-98.5 -110.5t-145.5 -73.5t-177 -26.5q-84 0 -153.5 20t-121 59t-83 94.5t-39.5 125.5q47 10 94 21l94 22q6 -93 66.5 -136t158.5 -43q49 0 95.5 10.5
t82 33t56 55t20.5 80.5q0 73 -56 102t-134 29h-99v0z" />
    <glyph glyph-name="uni0438" unicode="&#x438;" horiz-adv-x="1288" 
d="M843 1036h336l-200 -864h155l-39 -172h-348l24 105q-32 -33 -69 -56.5t-75.5 -38t-76 -21.5t-69.5 -7q-68 0 -128.5 19.5t-101.5 57.5q-25 25 -46.5 58.5t-33.5 80.5t-11 109t20 144l95 413h-140l41 172h340l-123 -526q-44 -186 -3.5 -273t171.5 -87q58 0 102.5 19.5
t81 54.5t61.5 74l132 566h-136z" />
    <glyph glyph-name="uni043A" unicode="&#x43a;" horiz-adv-x="1257" 
d="M184 1036h355l-103 -444h150l325 276l41 168h336l-41 -172h-96l-389 -329l250 -365h125l-39 -170h-219l-312 469h-159l-109 -469h-203l199 864h-152z" />
    <glyph glyph-name="uni043B" unicode="&#x43b;" horiz-adv-x="1475" 
d="M870 0q50 217 100 432t99 432h-317q-45 -159 -83 -285t-75 -214.5t-96 -172.5t-136 -124.5t-139.5 -54t-132.5 -13.5h-57l38 166q96 0 161.5 31.5t112 92t78.5 142.5t73 211l67 221h-143q10 43 20.5 86t20.5 86h958l-20 -86q-10 -43 -21 -86h-106q-41 -174 -80 -346
t-80 -346h150q-11 -43 -20 -86t-19 -86h-353z" />
    <glyph glyph-name="uni043C" unicode="&#x43c;" horiz-adv-x="1722" 
d="M1313 737l-596 -747l-201 758l-88 -326q-28 -104 -56.5 -183t-73.5 -132.5t-114.5 -81t-179.5 -27.5h-53l31 168q60 0 100 13.5t70 50.5t55 103t55 171l103 358h-121l41 174h319l193 -717l557 717h368l-39 -174h-153l-156 -690h131l-39 -172h-319z" />
    <glyph glyph-name="uni043D" unicode="&#x43d;" horiz-adv-x="1311" 
d="M190 1036h334l-92 -393h471l92 393h203l-201 -864h150l-39 -172h-352l110 477h-471l-110 -477h-203l199 864h-131z" />
    <glyph glyph-name="uni043E" unicode="&#x43e;" 
d="M75 449q0 86 21.5 165t61 148t95 125t122.5 96t143.5 62t158.5 22q103 0 191 -36.5t152 -100t100.5 -149t36.5 -183.5q0 -87 -22 -167t-61.5 -149t-94.5 -126t-122.5 -97t-144.5 -62t-160 -22q-104 0 -191 36.5t-151 100.5t-99.5 150.5t-35.5 186.5zM284 463
q0 -70 20.5 -127.5t57.5 -98t89 -63t114 -22.5q73 0 142.5 32t122.5 89t85.5 137t32.5 176q0 70 -21.5 126t-59.5 96t-89.5 61.5t-112.5 21.5q-74 0 -142.5 -31.5t-121.5 -88t-85 -135.5t-32 -173z" />
    <glyph glyph-name="uni043F" unicode="&#x43f;" horiz-adv-x="1432" 
d="M225 1036h1155l-41 -172h-141l-160 -692h150l-39 -172h-352l198 864h-471l-159 -692h145l-39 -172h-491l38 172h144l160 692h-138z" />
    <glyph glyph-name="uni0440" unicode="&#x440;" horiz-adv-x="1331" 
d="M189 1036h393l-14 -68q69 48 138 71.5t144 23.5q85 0 159.5 -33t129 -90t86 -134.5t31.5 -166.5q0 -145 -51 -266t-138.5 -208t-204 -135t-247.5 -48q-76 0 -142.5 22.5t-109.5 58.5l-83 -362h171l-39 -172h-377l311 1335h-198zM803 891q-70 0 -141.5 -28.5t-131.5 -77.5
l-127 -549q26 -33 80.5 -57.5t145.5 -24.5q77 0 152 31.5t134.5 91t96.5 145.5t37 196q0 64 -18 114.5t-50.5 85.5t-77.5 54t-100 19z" />
    <glyph glyph-name="uni0441" unicode="&#x441;" horiz-adv-x="1135" 
d="M921 731q-16 40 -42.5 70t-60.5 50t-74 30t-83 10q-55 0 -117.5 -28.5t-116 -83.5t-88.5 -135t-35 -183q0 -75 22 -132.5t59 -96.5t86 -58.5t104 -19.5q40 0 75 6.5t66.5 22t61.5 40.5t59 62l145 -109q-39 -55 -88 -93.5t-103 -62.5t-111.5 -34.5t-113.5 -10.5
q-102 0 -188.5 36.5t-149 100.5t-98 150.5t-35.5 186.5q0 136 51 249.5t134 195.5t187.5 127.5t211.5 45.5q50 0 100 -9.5t96 -30t86 -51.5t72 -73h125l-28 -172h-209v0z" />
    <glyph glyph-name="uni0442" unicode="&#x442;" horiz-adv-x="2099" 
d="M192 1036h387l-25 -106q71 59 155.5 92t178.5 33q106 0 183 -43t109 -130q37 38 81 69.5t93.5 54.5t104 36t111.5 13q80 0 144.5 -24t105.5 -73t54 -122t-9 -170l-114 -494h149l-39 -172h-352l149 641q28 118 -18 178t-156 60q-78 0 -148 -33.5t-133 -92.5l-173 -753
h-203l149 641q28 118 -18 178t-156 60q-78 0 -148 -33.5t-133 -93.5l-173 -752h-203l200 864h-194z" />
    <glyph glyph-name="uni0443" unicode="&#x443;" horiz-adv-x="1163" 
d="M303 -2q-35 217 -71.5 433t-71.5 433h-78q10 43 20.5 86t20.5 86h379q-10 -43 -20.5 -86t-20.5 -86h-113q23 -166 45.5 -329.5t44.5 -329.5q103 166 203 329.5t203 329.5h-123q10 43 20.5 86t20.5 86h379q-11 -43 -21 -86l-20 -86h-62q-137 -217 -272 -434t-272 -434
q-74 -117 -144.5 -204t-146.5 -145.5t-161 -88t-185 -29.5h-29v172h84q96 0 191.5 62.5t185.5 209.5q4 7 7 13t7 12v0z" />
    <glyph glyph-name="uni0444" unicode="&#x444;" horiz-adv-x="1907" 
d="M920 1384l20 86t21 86h337q-10 -43 -19 -86t-19 -86h-3q-18 -92 -38.5 -181t-42.5 -181q57 25 114.5 33t116.5 8q90 0 167 -33t132 -90t87 -135t32 -166q0 -145 -51.5 -266t-139.5 -208t-207.5 -135t-255.5 -48q-55 0 -116.5 11t-108.5 36q-18 -82 -37.5 -164t-38.5 -164
h154q-10 -43 -19.5 -86t-19.5 -86h-340q29 123 55.5 242.5t55.5 242.5q-51 -20 -104.5 -27t-104.5 -7q-92 0 -172 34.5t-138.5 94t-91 141.5t-32.5 176q0 137 49 255t133 204t197.5 134t240.5 48q72 0 137.5 -12.5t116.5 -40.5q23 92 42.5 185t41.5 185h-151zM584 154
q59 0 113.5 7t101.5 34l147 645q-37 28 -92 39.5t-133 11.5q-76 0 -147.5 -32t-128 -90t-91.5 -140t-35 -185q0 -135 74 -212.5t191 -77.5zM1372 891q-76 0 -132 -12.5t-107 -36.5q-37 -162 -74 -322t-74 -321q33 -23 84 -34t121 -11q80 0 156.5 31.5t137 91t97.5 145.5
t37 196q0 130 -67.5 201.5t-178.5 71.5z" />
    <glyph glyph-name="uni0445" unicode="&#x445;" horiz-adv-x="1137" 
d="M626 172h75l-146 238l-237 -238h64l-38 -172h-379l39 172h85l389 365l-227 327h-108l41 172h379l-41 -172h-66l137 -222l225 222h-73l41 172h379l-41 -172h-74l-374 -341l234 -351h95l-39 -172h-379z" />
    <glyph glyph-name="uni0446" unicode="&#x446;" horiz-adv-x="1292" 
d="M850 1036h348l-176 -768q-6 -24 -5 -44.5t8 -34t22.5 -20.5t37.5 -7h103l-103 -449h-182l66 287h-11q-43 0 -73.5 10t-49 27.5t-26.5 38t-8 41.5q-33 -37 -73 -62.5t-83 -42t-85 -23.5t-75 -7q-67 0 -130.5 19t-104.5 58q-25 25 -46.5 59t-33.5 81t-11 108.5t19 143.5
l94 413h-139l41 172h340l-123 -526q-43 -186 0 -273t174 -87q60 0 133.5 35.5t126.5 113.5l131 565h-147z" />
    <glyph glyph-name="uni0447" unicode="&#x447;" horiz-adv-x="1174" 
d="M94 864q10 43 20.5 86t20.5 86h297q-6 -22 -11 -46.5t-11 -47.5v0q-17 -72 -35.5 -150.5t-22.5 -134.5q-4 -45 6.5 -71.5t33 -41t57 -19.5t81.5 -5q66 0 117 3t98 12q29 127 59 250.5t58 250.5h189q-52 -217 -101 -432t-100 -432h147q-10 -43 -19 -86t-20 -86h-335
q22 96 43.5 190.5t44.5 190.5q-52 -10 -109 -14.5t-119 -4.5q-86 0 -154.5 17.5t-111.5 61.5t-55 119t14 190q6 28 13.5 57t13.5 57h-109z" />
    <glyph glyph-name="uni0448" unicode="&#x448;" horiz-adv-x="2052" 
d="M1522 864l20 86t21 86h315q-51 -217 -100 -432t-101 -432h193q-10 -43 -19.5 -86t-19.5 -86h-387q6 27 11 51.5t11 50.5q-63 -65 -148 -92.5t-163 -27.5q-98 0 -165.5 43t-104.5 108q-76 -82 -177.5 -116.5t-191.5 -34.5q-72 0 -139.5 22.5t-114.5 75.5t-63.5 144
t14.5 229q23 104 47.5 205.5t46.5 205.5h-153l20 86t21 86h356q-19 -80 -42.5 -166t-45 -172t-37.5 -169t-20 -156q-9 -115 38.5 -169t151.5 -54q76 0 138.5 35.5t109.5 115.5q43 186 85 367.5t85 367.5h203q-19 -80 -42.5 -166t-45 -172t-38 -169t-20.5 -156
q-6 -115 42 -169t147 -54q63 0 129.5 35.5t115.5 113.5q33 141 65 282.5t64 282.5h-112z" />
    <glyph glyph-name="uni0449" unicode="&#x449;" horiz-adv-x="1987" 
d="M1522 864l20 86t21 86h313q-45 -192 -88 -383.5t-88 -384.5q-6 -24 -5 -44.5t8 -34t22.5 -20.5t37.5 -7h103q-27 -113 -51.5 -224.5t-51.5 -224.5h-182q16 72 32.5 143.5t33.5 143.5h-11q-86 0 -119.5 37t-37.5 78q-64 -72 -152 -102.5t-172 -30.5q-98 0 -165.5 43
t-104.5 108q-76 -82 -177.5 -116.5t-191.5 -34.5q-72 0 -139.5 22.5t-114.5 75.5t-63.5 144t14.5 229q23 104 47.5 205.5t46.5 205.5h-153l20 86t21 86h356q-19 -80 -42.5 -166t-45 -172t-37.5 -169t-20 -156q-9 -115 38.5 -169t151.5 -54q76 0 138.5 35.5t109.5 115.5
q37 186 81 367.5t89 367.5h203q-19 -80 -42.5 -166t-45 -172t-38 -169t-20.5 -156q-6 -115 42 -169t147 -54q61 0 126.5 33.5t114.5 109.5q35 143 66.5 285.5t66.5 285.5h-112v0z" />
    <glyph glyph-name="uni044A" unicode="&#x44a;" horiz-adv-x="1262" 
d="M100 1036h574l-84 -362h215q69 0 125.5 -19.5t96.5 -55.5t62.5 -86t22.5 -112q0 -90 -38 -163.5t-101.5 -126t-146.5 -82t-171 -29.5h-411l200 864h-192l-31 -133h-192zM549 502l-76 -330h229q41 0 80 13.5t69 39t48.5 62.5t18.5 84q0 65 -40 98t-104 33h-225z" />
    <glyph glyph-name="uni044B" unicode="&#x44b;" horiz-adv-x="1604" 
d="M186 1036h326l-84 -362h215q70 0 126 -19.5t96 -55.5t62.5 -86t22.5 -112q0 -90 -38 -163.5t-101 -126t-146 -82t-171 -29.5h-412l201 864h-138zM387 502l-76 -330h230q41 0 79.5 13.5t68.5 39t48.5 62.5t18.5 84q0 65 -40 98t-104 33h-225zM1288 1036h203l-201 -864h166
l-39 -172h-368z" />
    <glyph glyph-name="uni044C" unicode="&#x44c;" horiz-adv-x="1100" 
d="M186 1036h326l-84 -362h215q70 0 126 -19.5t96 -55.5t62.5 -86t22.5 -112q0 -90 -38 -163.5t-101 -126t-146 -82t-171 -29.5h-412l201 864h-138zM387 502l-76 -330h230q41 0 79.5 13.5t68.5 39t48.5 62.5t18.5 84q0 65 -40 98t-104 33h-225z" />
    <glyph glyph-name="uni044D" unicode="&#x44d;" horiz-adv-x="1145" 
d="M305 625h551q-4 57 -27.5 106t-62.5 84t-88 55.5t-107 20.5q-43 0 -87 -11.5t-84 -33t-72.5 -50t-51.5 -65.5h-208l38 172h91q41 43 91 74t104 51.5t109.5 30.5t106.5 10q101 0 185 -37t143 -100.5t93 -149.5t34 -184q0 -125 -45 -237.5t-126 -198.5t-191.5 -136.5
t-241.5 -50.5q-76 0 -143.5 19.5t-124 55.5t-98.5 86t-68 112l188 84q25 -78 89.5 -129t168.5 -51q57 0 116.5 19t111 59t91 100.5t58.5 140.5h-578z" />
    <glyph glyph-name="uni044E" unicode="&#x44e;" horiz-adv-x="1726" 
d="M137 1036h387l-98 -426h199q24 99 77.5 183t127 145t165.5 95t197 34q102 0 188 -37t148.5 -99.5t97.5 -148.5t35 -184q0 -131 -46 -244.5t-126 -197.5t-188.5 -132.5t-233.5 -48.5q-104 0 -189 35t-145.5 96.5t-93.5 147.5t-33 188h-219l-102 -442h-203l199 864h-185z
M801 463q0 -146 74.5 -228.5t203.5 -82.5q74 0 141.5 31.5t119 89t82 137t30.5 176.5q0 141 -74.5 223t-197.5 82q-74 0 -142.5 -32t-121 -88t-84 -135t-31.5 -173z" />
    <glyph glyph-name="uni044F" unicode="&#x44f;" horiz-adv-x="1212" 
d="M1157 1036q-10 -41 -18.5 -79.5t-18.5 -79.5h-92q-41 -179 -82 -353t-82 -352h150q-10 -43 -19.5 -86t-19.5 -86h-352q26 111 50.5 221.5t51.5 220.5h-150q-90 0 -150 -38.5t-106 -124.5q-34 -70 -71 -139.5t-72 -139.5h-278q10 43 19 86t20 86h139q26 49 52 99.5
t55.5 95.5t64.5 80.5t78 54.5q-66 28 -98.5 82.5t-32.5 113.5q0 80 34.5 142.5t96 105.5t143.5 65.5t176 22.5h217v2h295zM381 715q0 -58 48 -90.5t130 -32.5h201q16 72 32.5 142.5t32.5 142.5h-200q-125 0 -184.5 -42t-59.5 -120z" />
    <glyph glyph-name="uni2116" unicode="&#x2116;" horiz-adv-x="2558" 
d="M1370 1516h492l-39 -173h-137l-308 -1343h-262l-414 1253l-247 -1081h151l-39 -172h-491l39 172h133l270 1171h-149l41 173h415l408 -1248l246 1075h-148zM1731 688q0 90 34.5 167t94 132t138.5 87t165 32q67 0 125.5 -23.5t101.5 -63.5t67.5 -94.5t24.5 -117.5
q0 -92 -32.5 -170t-90 -134.5t-137.5 -88t-172 -31.5q-70 0 -128 24.5t-101 66.5t-66.5 97.5t-23.5 116.5zM1704 172h491l-38 -172h-492zM1886 698q0 -77 50.5 -129.5t123.5 -52.5q54 0 103 19.5t86 56.5t58.5 88t21.5 115q0 82 -51.5 129t-127.5 47q-53 0 -100 -19.5
t-84 -54.5t-58.5 -85t-21.5 -114z" />
    <glyph glyph-name="cyr.dotlessi" horiz-adv-x="664" 
d="M348 1036h203l-201 -864h166l-39 -172h-368z" />
    <glyph glyph-name="estimated" unicode="&#x212e;" horiz-adv-x="1671" 
d="M829 -31q-153 0 -286 46t-230.5 132t-154 209t-56.5 277q0 164 60.5 289t160 208.5t230.5 126.5t272 43q168 0 301.5 -49t227.5 -139t146 -217t59 -281h-1160q-12 0 -20 -5t-8 -27v-338q0 -29 32.5 -67t93 -71.5t144.5 -58t188 -24.5q146 0 268 58t195 150h133
q-131 -141 -275 -201.5t-321 -60.5v0zM825 1247q-86 0 -168 -18.5t-145 -47t-102 -65.5t-39 -76v-340q0 -32 30 -32h852q23 0 29 8t6 24v340q0 39 -43 77t-110.5 66.5t-149.5 46t-160 17.5v0z" />
    <glyph glyph-name="uni2126" unicode="&#x2126;" horiz-adv-x="1849" 
d="M1610 172l43 182h192l-82 -354h-628l110 477q80 21 162 64t147.5 107.5t106.5 149.5t41 187q0 80 -33 150.5t-89 122t-134 81t-170 29.5q-117 0 -228.5 -43t-198.5 -116.5t-140.5 -172t-53.5 -211.5q0 -69 20.5 -126.5t56.5 -102.5t82 -74.5t99 -44.5l-110 -477h-629
l82 354h193l-43 -182h243l47 203q-32 12 -75 46t-82 88t-66 128t-27 166q0 151 73 286.5t195 238t278.5 161.5t324.5 59q129 0 238.5 -41t187.5 -112.5t122 -168t44 -208.5q0 -144 -57.5 -255.5t-137.5 -191t-164 -129t-137 -67.5l-47 -203h244z" />
    <glyph glyph-name="uni2206" unicode="&#x2206;" horiz-adv-x="1464" 
d="M1038 1583h95l292 -1534l-12 -49h-1401l13 49zM1217 172l-197 1061l-692 -1061h889z" />
    <glyph glyph-name="summation" unicode="&#x2211;" horiz-adv-x="1522" 
d="M1149 59h209l-123 -532h-1262l25 104l838 858l-412 926l25 101h1243l-121 -523h-207l80 350h-764l401 -901l-735 -743h719z" />
    <glyph glyph-name="Gamma" unicode="&#x393;" horiz-adv-x="1313" 
d="M113 172h131l272 1180h-129l39 164h1051l-93 -400h-204l53 236h-510l-270 -1180h151l-39 -172h-491z" />
    <glyph glyph-name="Ohm" horiz-adv-x="1849" 
d="M1610 172l43 182h192l-82 -354h-628l110 477q80 21 162 64t147.5 107.5t106.5 149.5t41 187q0 80 -33 150.5t-89 122t-134 81t-170 29.5q-117 0 -228.5 -43t-198.5 -116.5t-140.5 -172t-53.5 -211.5q0 -69 20.5 -126.5t56.5 -102.5t82 -74.5t99 -44.5l-110 -477h-629
l82 354h193l-43 -182h243l47 203q-32 12 -75 46t-82 88t-66 128t-27 166q0 151 73 286.5t195 238t278.5 161.5t324.5 59q129 0 238.5 -41t187.5 -112.5t122 -168t44 -208.5q0 -144 -57.5 -255.5t-137.5 -191t-164 -129t-137 -67.5l-47 -203h244z" />
    <glyph glyph-name="Pi" unicode="&#x3a0;" horiz-adv-x="1877" 
d="M419 1516h1493l-41 -173h-137l-268 -1171h137l-39 -172h-492l39 172h146l270 1171h-803l-268 -1171h141l-39 -172h-491l39 172h141l270 1171h-139z" />
    <glyph glyph-name="product" unicode="&#x220f;" horiz-adv-x="1536" 
d="M512 1556h1323l-39 -172h-133l-389 -1683h147l-39 -172h-491l39 172h135l389 1683h-639l-389 -1683h131l-39 -172h-491l39 172h151l389 1683h-133z" />
    <glyph glyph-name="pi" unicode="&#x3c0;" horiz-adv-x="1382" 
d="M1016 -16q-72 0 -123 18t-80 56t-35 97.5t13 139.5l131 569h-375l-160 -692h154l-39 -172h-492l39 172h135l160 692h-137l41 172h1141l-41 -172h-232l-123 -536q-10 -39 -15 -72t0 -55.5t24.5 -35.5t60.5 -13q35 0 62.5 6t62.5 20l-6 -160q-19 -8 -37.5 -14t-39 -11
t-43 -7t-46.5 -2z" />
    <glyph glyph-name="radical" unicode="&#x221a;" horiz-adv-x="1272" 
d="M209 864h-162l39 172h287l151 -846h4l877 1326h211l-985 -1516h-269z" />
    <glyph glyph-name="integral" unicode="&#x222b;" horiz-adv-x="1182" 
d="M266 -471q-96 0 -162.5 20.5t-101.5 40.5l102 154q27 -16 72 -29.5t98 -13.5q41 0 76 12.5t63.5 44t53.5 85t43 137.5l258 1124q27 127 64.5 217t91 146.5t126 83t171.5 26.5q96 0 162.5 -20.5t101.5 -40.5l-103 -154q-26 16 -71 29.5t-99 13.5q-79 0 -135.5 -44
t-81.5 -153l-303 -1321q-22 -96 -61 -163.5t-94.5 -110.5t-124 -63.5t-146.5 -20.5z" />
    <glyph glyph-name="infinity" unicode="&#x221e;" horiz-adv-x="1704" 
d="M397 373q-73 0 -133.5 26.5t-103.5 71.5t-65.5 106.5t-22.5 133.5q0 100 44 192t115.5 161t166 109.5t194.5 40.5q131 0 209 -64.5t117 -176.5q94 108 203.5 174.5t232.5 66.5q73 0 132.5 -26.5t101.5 -72.5t64.5 -108.5t22.5 -132.5q0 -100 -44 -191t-115.5 -159.5
t-165 -109.5t-191.5 -41q-131 0 -210 66.5t-118 183.5q-90 -111 -197.5 -180.5t-236.5 -69.5zM1307 1053q-109 0 -199 -72t-154 -178q13 -123 69 -195.5t163 -72.5q59 0 116.5 25.5t102.5 67.5t72.5 98t27.5 118q0 90 -54 149.5t-144 59.5zM436 535q111 0 200 74.5
t161 197.5q-4 49 -23.5 93t-50.5 78t-73 54.5t-93 20.5q-61 0 -117.5 -24.5t-101.5 -66.5t-71.5 -98.5t-26.5 -120.5q0 -86 53 -147t143 -61z" />
    <glyph glyph-name="notequal" unicode="&#x2260;" horiz-adv-x="989" 
d="M221 877h416l104 172h148l-105 -172h189l-39 -172h-254l-119 -197h328l-39 -172h-391l-119 -197h-147l118 197h-211l39 172h275l118 197h-348z" />
    <glyph glyph-name="approxequal" unicode="&#x2248;" horiz-adv-x="1229" 
d="M223 692q45 84 106 130t150 46q58 0 119.5 -22.5t119.5 -49t109 -49t89 -22.5q43 0 86.5 34.5t93.5 117.5l73 -115q-45 -84 -105.5 -130t-150.5 -46q-39 0 -79 10.5t-80.5 26.5t-79 34.5t-74 34.5t-67 26.5t-56.5 10.5q-43 0 -86.5 -34t-93.5 -117zM141 345
q45 84 106 130t150 46q58 0 119.5 -22.5t119.5 -49t109 -49t89 -22.5q43 0 86.5 34.5t93.5 117.5l73 -115q-45 -84 -105.5 -130t-150.5 -46q-39 0 -79 10.5t-80.5 26.5t-79 34.5t-74 34.5t-67 26.5t-56.5 10.5q-43 0 -86.5 -34t-93.5 -117z" />
    <glyph glyph-name="multiply" unicode="&#xd7;" horiz-adv-x="1221" 
d="M510 702l-256 426l160 117l244 -405l450 422l133 -140l-480 -452l273 -451l-164 -113l-257 425l-459 -431l-134 142z" />
    <glyph glyph-name="divide" unicode="&#xf7;" horiz-adv-x="1310" 
d="M225 614l39 172h946l-39 -172h-946zM650 1089q0 27 10.5 51t28.5 41.5t42 28t52 10.5q27 0 51 -10.5t41.5 -28t28 -41.5t10.5 -51t-10.5 -51.5t-28 -43t-41.5 -29.5t-51 -11q-28 0 -52 11t-42 29.5t-28.5 43t-10.5 51.5zM496 303q0 27 10.5 51t28.5 41.5t42 28t52 10.5
q27 0 51 -10.5t41.5 -28t28 -41.5t10.5 -51t-10.5 -51.5t-28 -43t-41.5 -29.5t-51 -11q-28 0 -52 11t-42 29.5t-28.5 43t-10.5 51.5z" />
    <glyph glyph-name="lozenge" unicode="&#x25ca;" horiz-adv-x="1182" 
d="M285 793l616 770h100l261 -772l-631 -791h-94zM635 258l430 549l-168 502l-418 -539z" />
    <glyph glyph-name="plus" unicode="+" horiz-adv-x="1270" 
d="M140 786h416l98 424h195l-98 -424h415l-39 -172h-416l-98 -428h-194l98 428h-416z" />
    <glyph glyph-name="plusminus" unicode="&#xb1;" horiz-adv-x="1105" 
d="M86 771h419l78 344h183l-78 -344h422l-43 -182h-421l-88 -354h-182l87 354h-420zM-57 172h1024l-39 -172h-1024z" />
    <glyph glyph-name="minus" unicode="&#x2212;" horiz-adv-x="1149" 
d="M123 614l39 172h846l-39 -172h-846z" />
    <glyph glyph-name="lessequal" unicode="&#x2264;" horiz-adv-x="1194" 
d="M154 965l850 295l-46 -187l-612 -192l522 -203l-37 -164l-710 305zM182 424h779l-39 -172h-779z" />
    <glyph glyph-name="greaterequal" unicode="&#x2265;" horiz-adv-x="1124" 
d="M840 811l-850 -295l45 186l612 191l-522 205l37 164l710 -306zM121 424h778l-39 -172h-778z" />
    <glyph glyph-name="logicalnot" unicode="&#xac;" horiz-adv-x="1382" 
d="M1273 999l-131 -567h-188l92 395h-905l39 172h1093z" />
    <glyph glyph-name="fraction" unicode="&#x2044;" horiz-adv-x="1444" 
d="M1511 1577h220l-1635 -1638h-219z" />
    <glyph glyph-name="onequarter" unicode="&#xbc;" horiz-adv-x="2058" 
d="M223 896h84l103 436l-161 -75l35 143l244 119h61l-142 -623h81l-26 -116h-304zM1716 1577h220l-1635 -1638h-219zM1169 303l387 457h148l-379 -455h182l39 164h135l-39 -164h113l-25 -110h-112l-46 -195h-135l45 195h-336z" />
    <glyph glyph-name="onehalf" unicode="&#xbd;" horiz-adv-x="1956" 
d="M223 896h84l103 436l-161 -75l35 143l244 119h61l-142 -623h81l-26 -116h-304zM1716 1577h220l-1635 -1638h-219zM1198 121l338 276q47 35 77 72t30 72q0 30 -20.5 50.5t-61.5 20.5q-49 0 -84 -28.5t-45 -71.5h-156q12 57 42 102t71 76t92 46.5t104 15.5q45 0 85 -14.5
t70 -39t47 -59.5t17 -78q0 -31 -4 -54.5t-13 -45t-27.5 -42t-45.5 -42.5l-282 -236h274l-33 -141h-503z" />
    <glyph glyph-name="threequarters" unicode="&#xbe;" horiz-adv-x="2214" 
d="M1736 1577h220l-1635 -1638h-219zM1190 303l387 457h148l-379 -455h182l39 164h135l-39 -164h113l-25 -110h-112l-46 -195h-135l45 195h-336zM479 1333q0 35 -27 60.5t-74 25.5q-110 0 -137 -98h-137q9 52 51 107.5t103 82.5t132 27q63 0 113 -25.5t78.5 -71.5t28.5 -98
q0 -117 -131 -171q75 -41 75 -128q0 -63 -36 -124t-107.5 -96.5t-157.5 -35.5q-58 0 -113 24t-84.5 71t-29.5 125h133q0 -99 107 -99q63 0 107 34t44 89q0 86 -106 86h-58l25 107h55q64 0 105 31t41 77z" />
    <glyph glyph-name="divisionslash" unicode="&#x2215;" horiz-adv-x="1423" 
d="M1161 1104h219l-1161 -1165h-219z" />
    <glyph glyph-name="one.fract" horiz-adv-x="539" 
d="M184 899h84l103 436l-160 -75l35 143l243 119h62l-143 -623h81l-26 -117h-303z" />
    <glyph glyph-name="two.fract" horiz-adv-x="717" 
d="M8 121l338 276q47 35 77 72t30 72q0 30 -20.5 50.5t-61.5 20.5q-49 0 -84 -28.5t-45 -71.5h-156q12 57 42 102t71 76t92 46.5t104 15.5q45 0 85 -14.5t70 -39t47 -59.5t17 -78q0 -31 -4 -54.5t-13 -45t-27.5 -42t-45.5 -42.5l-282 -236h274l-33 -141h-503z" />
    <glyph glyph-name="three.fract" horiz-adv-x="752" 
d="M612 1329q0 35 -26.5 60.5t-73.5 25.5t-87 -25.5t-50 -72.5h-137q24 96 101 156.5t185 60.5q51 0 91 -15.5t69 -42t44 -62.5t15 -75q0 -59 -32.5 -102t-98.5 -70q29 -16 52.5 -50t23.5 -77q0 -55 -23.5 -101t-63.5 -81t-95 -54.5t-119 -19.5q-49 0 -94 15.5t-78 43
t-49 68.5t-6 93h133q-4 -48 24.5 -73.5t81.5 -25.5q60 0 106 34t46 89q0 41 -28.5 63.5t-78.5 22.5h-57l25 107h55q33 0 59.5 9t46 23.5t29.5 34t10 41.5z" />
    <glyph glyph-name="four.fract" horiz-adv-x="711" 
d="M43 303l387 457h148l-379 -455h182l39 164h135l-39 -164h113l-25 -110h-112l-46 -195h-135l45 195h-336z" />
    <glyph glyph-name="foursuperior" unicode="&#x2074;" horiz-adv-x="866" 
d="M43 1145l387 457h147l-378 -455h183l38 164h135l-38 -164h112l-25 -110h-113l-46 -197h-135l46 197h-336z" />
    <glyph glyph-name="dagger" unicode="&#x2020;" horiz-adv-x="1126" 
d="M291 1036h416l110 477h207l-111 -477h402l-31 -172h-412l-307 -1335h-207l308 1335h-406z" />
    <glyph glyph-name="daggerdbl" unicode="&#x2021;" horiz-adv-x="1126" 
d="M254 885h418l145 628h207l-145 -628h401l-39 -168h-401l-127 -545h401l-39 -172h-401l-109 -471h-207l109 471h-416l39 172h416l127 545h-418z" />
    <glyph glyph-name="paragraph" unicode="&#xb6;" horiz-adv-x="1343" 
d="M519 702q-79 6 -142 32.5t-107.5 69t-68 99.5t-23.5 125q0 114 44 204.5t123.5 153.5t190 96.5t244.5 33.5h618l-41 -173h-94l-395 -1712h-187l395 1712h-223l-395 -1712h-186z" />
    <glyph glyph-name="section" unicode="&#xa7;" horiz-adv-x="1202" 
d="M-84 -25h260l-7 -37q-14 -69 4.5 -122.5t74.5 -80t123 -26.5q75 0 140.5 29t100.5 92t35 127q0 41 -14 71t-36.5 51.5t-50 35.5t-55.5 24l-149 54q-71 25 -130.5 73t-84.5 117t-25 143q0 131 70.5 225t201.5 146q-87 98 -87 240q0 91 32.5 166.5t95.5 130t156 84.5
t213 30q92 0 170 -24.5t133.5 -81t68.5 -129.5h89l-39 -166h-250l8 36q8 51 -19 99t-79.5 68t-105.5 20q-65 0 -114.5 -16t-83 -43.5t-50.5 -65t-17 -80.5q0 -36 13.5 -63t34.5 -47t48 -34.5t54 -25.5l158 -61q120 -47 187 -125t67 -197q0 -90 -32.5 -171.5t-91.5 -136
t-157 -92.5q86 -90 86 -226q0 -108 -39 -193t-107.5 -144t-162 -90.5t-203.5 -31.5q-109 0 -200.5 38.5t-132.5 108.5t-45 136h-93zM309 551q0 -50 20.5 -84t53 -53t104.5 -47l58 -23q69 2 124 20.5t93.5 51t59 76.5t20.5 96q0 40 -16 69t-42 49.5t-96 48.5l-50 17
q-81 -2 -142.5 -21t-103 -49.5t-62.5 -69.5t-21 -81z" />
    <glyph glyph-name="currency" unicode="&#xa4;" horiz-adv-x="1305" 
d="M235 680q0 103 42 192.5t113 158.5l-126 177l143 117l133 -190q56 27 116 42t122 15t116.5 -18t100.5 -50l190 166l113 -131l-188 -166q23 -42 35 -88.5t12 -97.5q0 -99 -39 -185t-105 -154l121 -169l-147 -113l-123 172q-59 -30 -122.5 -46.5t-129.5 -16.5
q-62 0 -117 18t-101 51l-206 -180l-113 133l205 179q-22 42 -33.5 88t-11.5 96zM411 694q0 -48 16 -89t45 -72t70 -48.5t92 -17.5q66 0 129.5 27t113 72.5t80 106t30.5 128.5q0 48 -16 89t-45.5 72t-71 48.5t-91.5 17.5q-67 0 -130 -27t-112.5 -72.5t-79.5 -106.5t-30 -128z
" />
    <glyph glyph-name="Euro" unicode="&#x20ac;" horiz-adv-x="1503" 
d="M1470 1116q-40 115 -126.5 178.5t-241.5 63.5q-96 0 -185.5 -30t-167 -83t-140 -125.5t-105.5 -158.5h618l-151 -187h-531q-4 -31 -8 -60.5t-4 -60.5h625l-152 -186h-448q39 -131 132 -217t240 -86q86 0 161 20.5t140.5 62.5t126 103.5t119.5 143.5l160 -82
q-68 -99 -150 -178.5t-176 -137t-200.5 -89.5t-223.5 -32q-133 0 -238.5 49.5t-178 133.5t-110.5 196.5t-38 241.5q0 184 76 356t203 303t296 210t353 79q94 0 167.5 -17.5t132 -50t103.5 -78.5t82 -104h96l-40 -178h-216z" />
    <glyph glyph-name="dollar" unicode="$" horiz-adv-x="1278" 
d="M384 -181l77 335q-28 4 -72.5 15.5t-88 40.5t-67.5 68.5t-30 84.5h-80q9 35 17.5 68.5t17.5 68.5h233q-4 -16 -8 -31t-7.5 -39.5t10 -50t41 -43t69.5 -26t96 -8.5q57 0 104 13t81.5 36.5t53.5 56t19 71.5q0 43 -29 70.5t-54 42t-64 22.5l-158 43q-53 14 -93.5 37
t-69 54.5t-43 71.5t-14.5 87q0 77 32.5 139.5t93.5 107t148 68.5q53 14 114 20l74 317h196l-75 -324q7 -2 40 -9.5t77.5 -32t74 -58t40.5 -73.5h82q-9 -35 -17.5 -68.5t-17.5 -68.5h-225q2 5 2.5 9.5t5.5 25.5t-6.5 48.5t-38.5 46.5t-66 29t-83 10q-61 0 -109.5 -12.5
t-82.5 -34t-52.5 -52t-18.5 -66.5q0 -32 14.5 -52.5t37.5 -33.5t50.5 -21t53.5 -16l153 -49q112 -35 168 -96t56 -157q0 -81 -35.5 -147t-99 -112.5t-132 -66t-121.5 -25.5l-77 -334h-197z" />
    <glyph glyph-name="yen" unicode="&#xa5;" horiz-adv-x="1384" 
d="M217 1516h491l-39 -173h-122l175 -473l411 473h-122l39 173h492l-39 -173h-123l-442 -495h163l-32 -141h-271l-34 -148h270l-33 -141h-270l-57 -246h141l-39 -172h-492l39 172h141l57 246h-270l33 141h270l33 148h-268l33 141h170l-197 495h-147z" />
    <glyph glyph-name="sterling" unicode="&#xa3;" horiz-adv-x="1006" 
d="M57 657l33 146h199q-6 43 -9.5 86.5t-3.5 87.5q0 96 24 175.5t68.5 139.5t108 99t123.5 51t116 12q75 0 134.5 -27t96 -74t48 -112t-9.5 -141l-166 -10q8 38 5.5 74t-16.5 64t-40 45t-64 17q-66 0 -111 -24.5t-72 -65t-38 -93.5t-9 -110q1 -38 3.5 -90.5t7.5 -103.5h278
l-32 -146h-235q3 -42 5 -80.5t2 -70.5q0 -99 -56.5 -187.5t-159.5 -150.5h483l-39 -168h-799l39 168h110q69 35 117 83.5t76.5 106t38 123t8 97t-10.5 79.5h-253v0z" />
    <glyph glyph-name="cent" unicode="&#xa2;" horiz-adv-x="1135" 
d="M352 -242l57 245q-100 38 -166.5 105.5t-101.5 154t-35 186.5q0 136 51 249.5t134 195.5t178 123.5t184 47.5l57 246h197l-62 -268q77 -26 122 -62t77 -78h125l-29 -172h-209q-16 40 -42.5 70t-60.5 50t-74 30t-83 10q-36 0 -76.5 -13t-80 -38t-75.5 -61.5t-63.5 -84.5
t-44 -106.5t-16.5 -126.5q0 -75 22 -132.5t59 -96.5t86 -58.5t103 -19.5q40 0 75 6.5t66.5 22t61.5 40.5t59 62l146 -109q-39 -55 -88 -93.5t-103.5 -62.5t-106 -33.5t-97.5 -11.5l-50 -217h-196z" />
    <glyph glyph-name="trademark" unicode="&#x2122;" horiz-adv-x="1706" 
d="M674 952h92l117 506h-92l28 121h295l57 -469l285 469h287l-29 -121h-94l-117 -506h94l-24 -112h-297l24 112h70l90 385l-243 -385h-164l-64 385l-90 -385h72l-25 -112h-297zM129 952h82l117 506h-113l-16 -74h-136l46 195h655l-45 -195h-133l16 74h-139l-117 -506h80
l-25 -112h-297z" />
    <glyph glyph-name="copyright" unicode="&#xa9;" horiz-adv-x="1919" 
d="M102 831q0 118 30.5 227.5t86 204.5t133.5 173t173 133.5t204.5 86t228.5 30.5q118 0 228 -30.5t205.5 -86t174 -133.5t134.5 -173t86.5 -204.5t30.5 -227.5q0 -119 -30.5 -228.5t-86.5 -204.5t-134.5 -173t-174 -133.5t-205.5 -86t-228 -30.5q-119 0 -228.5 30.5
t-204.5 86t-173 133.5t-133.5 173t-86 204.5t-30.5 228.5zM283 831q0 -142 52.5 -265.5t144 -215t214.5 -144t264 -52.5t263.5 52.5t215 144t145 215t52.5 265.5q0 140 -52.5 269.5t-145 215.5t-215 138.5t-263.5 52.5t-264 -52.5t-214.5 -138.5t-144 -215.5t-52.5 -269.5z
M1190 1059q-48 46 -100.5 67t-110.5 21q-64 0 -120 -24.5t-97.5 -67.5t-65.5 -100t-24 -121t24 -120t65.5 -98t97.5 -66t120 -24q56 0 108.5 22.5t83.5 57.5l134 -129q-23 -30 -59 -56.5t-79 -46t-91.5 -31t-96.5 -11.5q-105 0 -196.5 39t-159.5 107t-107 159.5t-39 196.5
q0 104 39 195.5t107 160t159.5 108t196.5 39.5q58 0 109.5 -12.5t96 -33t81 -47t65.5 -54.5z" />
    <glyph glyph-name="registered" unicode="&#xae;" horiz-adv-x="1919" 
d="M102 831q0 118 30.5 227.5t86 204.5t133.5 173t173 133.5t204.5 86t228.5 30.5q118 0 228 -30.5t205.5 -86t174 -133.5t134.5 -173t86.5 -204.5t30.5 -227.5q0 -119 -30.5 -228.5t-86.5 -204.5t-134.5 -173t-174 -133.5t-205.5 -86t-228 -30.5q-119 0 -228.5 30.5
t-204.5 86t-173 133.5t-133.5 173t-86 204.5t-30.5 228.5zM283 831q0 -142 52.5 -265.5t144 -215t214.5 -144t264 -52.5t263.5 52.5t215 144t145 215t52.5 265.5q0 94 -52.5 246.5t-145 238.5t-215 138.5t-263.5 52.5t-264 -52.5t-214.5 -138.5t-144 -215.5t-52.5 -269.5z
M555 518h98v670h-102v158h483q73 0 132 -21t100 -58t63.5 -87.5t22.5 -108.5q0 -49 -10 -87t-30.5 -67.5t-50.5 -51.5t-69 -39q31 -17 55.5 -52.5t36.5 -87.5l41 -168h82l2 -158h-256l-51 254q-14 84 -64 121t-129 37h-67v-254h92v-158h-379v158zM842 1188v-260h143
q74 0 118 30.5t44 98.5q0 62 -41.5 96.5t-128.5 34.5h-135z" />
    <glyph glyph-name="uni04B0" unicode="&#x4b0;" horiz-adv-x="1270" 
d="M1007 1516h491l-39 -173h-123l-570 -638h340l-39 -173h-353l-84 -360h141l-39 -172h-491l38 172h142l83 360h-332l39 173h324l-254 638h-147l39 173h492l-39 -173h-123l176 -473l410 473h-121z" />
    <glyph glyph-name="uni04B1" unicode="&#x4b1;" horiz-adv-x="1067" 
d="M142 1036h379l-41 -172h-82l69 -677l416 677h-98l41 172h379l-41 -172h-94l-558 -864h295l-39 -172h-296l-69 -299h-186l69 299h-296l39 172h297l-117 864h-108z" />
    <glyph glyph-name="uni0490" unicode="&#x490;" horiz-adv-x="1270" 
d="M170 172h131l272 1180h-137l39 164h848l61 266h203l-100 -430h-707l-270 -1180h152l-39 -172h-492z" />
    <glyph glyph-name="uni0491" unicode="&#x491;" horiz-adv-x="1022" 
d="M449 872h-162l39 164h694l66 285h194l-104 -449h-525l-162 -700h166l-39 -172h-368z" />
    <glyph glyph-name="uni040F" unicode="&#x40f;" horiz-adv-x="1882" 
d="M1425 1516h492l-41 -173h-138l-270 -1181h138l-37 -162h-642l-79 -348h-189l80 348h-672l37 162h143l272 1181h-148l41 173h493l-41 -173h-138l-270 -1181h803l273 1181h-148z" />
    <glyph glyph-name="uni045F" unicode="&#x45f;" horiz-adv-x="1401" 
d="M844 1036h336l-201 -864h156l-39 -172h-348l22 104q-61 -65 -142 -93.5t-147 -28.5q-67 0 -127.5 19t-101.5 58q-25 25 -46.5 59t-33.5 81t-11 108.5t19 143.5l94 413h-139l41 172h340l-123 -526q-43 -186 -3 -273t171 -87q60 0 127.5 34.5t118.5 112.5l131 567h-135z
M432 -135h189l-78 -336h-189z" />
    <glyph glyph-name="uni040A" unicode="&#x40a;" horiz-adv-x="2198" 
d="M1360 1516h491l-41 -173h-141l-104 -460h274q92 0 170 -27t134.5 -77t88 -120.5t31.5 -158.5q0 -105 -42 -196t-119 -158.5t-185.5 -106.5t-243.5 -39h-661l39 172h141l125 539h-662l-125 -539h150l-39 -172h-491l38 172h134l270 1171h-148l41 173h492l-41 -173h-137
l-105 -460h662l106 460h-143zM1526 711l-125 -539h305q74 0 136.5 22.5t108.5 64.5t72.5 101.5t26.5 133.5q0 94 -63.5 155.5t-188.5 61.5h-272z" />
    <glyph glyph-name="uni045A" unicode="&#x45a;" horiz-adv-x="1784" 
d="M338 1036h334l-84 -362h442l84 362h189l-84 -362h215q69 0 125.5 -19.5t96.5 -55.5t62.5 -86t22.5 -112q0 -90 -38 -163.5t-101.5 -126t-146.5 -82t-171 -29.5h-412l119 508h-442l-117 -508h-203l199 864h-131zM1178 502l-76 -330h229q41 0 80 13.5t68.5 39t48 62.5
t18.5 84q0 65 -40 98t-103 33h-225z" />
    <glyph glyph-name="uni0459" unicode="&#x459;" horiz-adv-x="1716" 
d="M457 1036h958l-41 -172h-135l-43 -190h215q70 0 126 -19.5t96 -55.5t62.5 -86t22.5 -112q0 -90 -38 -163.5t-101 -126t-146 -82t-171 -29.5h-412l201 864h-303l-89 -291q-30 -100 -64 -182t-74 -146.5t-86 -110.5t-99 -76.5t-113.5 -45t-130.5 -14.5h-57l39 168
q94 0 159.5 31.5t112.5 92t82 149.5t70 204l67 221h-149zM1155 502l-76 -330h230q41 0 79.5 13.5t68.5 39t48.5 62.5t18.5 84q0 65 -40 98t-104 33h-225z" />
    <glyph glyph-name="uni0409" unicode="&#x409;" horiz-adv-x="2189" 
d="M876 172h142l270 1171h-471l-174 -598q-60 -194 -123.5 -334.5t-137 -230.5t-162.5 -134t-196 -46h-147l71 311h189l-37 -155q63 14 111.5 57t88.5 115.5t74.5 176t75.5 236.5l180 602h-211l41 173h1239l-40 -173h-164l-105 -460h275q92 0 169.5 -27t134 -77t88.5 -120.5
t32 -158.5q0 -105 -42 -196t-119 -158.5t-185.5 -106.5t-243.5 -39h-662zM1351 711l-125 -539h306q73 0 135.5 22.5t108.5 64.5t73 101.5t27 133.5q0 94 -63.5 155.5t-188.5 61.5h-273z" />
    <glyph glyph-name="uni0454" unicode="&#x454;" horiz-adv-x="1116" 
d="M922 731q-33 80 -103.5 120t-156.5 40q-46 0 -96 -18.5t-96 -55.5t-85 -90t-59 -121h553l-35 -151h-539q0 -74 22.5 -130.5t59.5 -94t85 -57t103 -19.5q80 0 141.5 28.5t121.5 102.5l145 -109q-39 -55 -88 -93t-103.5 -62.5t-111.5 -35t-113 -10.5q-102 0 -188 37
t-149.5 100.5t-98.5 149.5t-35 187q0 135 51.5 248.5t134.5 195.5t187 128t211 46q102 0 196.5 -39t157.5 -125h125l-29 -172h-208z" />
    <glyph glyph-name="uni0404" unicode="&#x404;" horiz-adv-x="1473" 
d="M1288 1114q-43 105 -142 168.5t-239 63.5q-106 0 -199.5 -35t-169 -96.5t-131 -145.5t-83.5 -184h919l-39 -168h-909v-45q0 -115 36 -207t96 -156.5t139 -99.5t165 -35q152 0 266.5 62.5t200.5 187.5l193 -102q-117 -164 -285 -255.5t-397 -91.5q-138 0 -254.5 51.5
t-201.5 142.5t-133 216t-48 270q0 189 64.5 350.5t179 281.5t272 188.5t342.5 68.5q168 0 301 -68.5t217 -189.5h158l-41 -172h-277v0z" />
    <glyph glyph-name="uni0402" unicode="&#x402;" horiz-adv-x="1632" 
d="M1358 1116h-205l53 236h-299l-125 -549q103 47 204 74.5t187 27.5q103 0 185 -27.5t139 -76.5t88 -118t31 -148q0 -117 -46 -216.5t-126 -172t-189.5 -113.5t-234.5 -41h-22h-19l37 158q16 0 30.5 1t28.5 3q74 8 136.5 34.5t108.5 70.5t71.5 104.5t25.5 138.5
q0 53 -19.5 97t-56.5 77t-89 50t-116 17q-106 0 -208.5 -33.5t-184.5 -72.5l-106 -465h149l-39 -172h-491l39 172h133l272 1180h-307l-53 -236h-205l92 400h1223z" />
    <glyph glyph-name="uni0452" unicode="&#x452;" horiz-adv-x="1372" 
d="M465 1556h328l-39 -172l-23 -96h469l-35 -151h-469l-49 -215q80 55 168 94t182 39q166 0 243 -92.5t30 -294.5l-172 -748q-41 -180 -154 -283.5t-276 -107.5l8 139q92 13 148.5 84.5t82.5 188.5l164 704q29 119 -18 180.5t-160 61.5q-66 0 -138.5 -31t-140.5 -76
l-180 -780h-203l263 1137h-125l34 151h125l23 96h-125z" />
    <glyph glyph-name="uni040B" unicode="&#x40b;" horiz-adv-x="1717" 
d="M1151 172h158l75 322q19 81 12.5 131.5t-37 78t-86 37t-132.5 9.5q-113 0 -205 -20.5t-189 -53.5l-116 -504h151l-39 -172h-491l39 172h143l272 1180h-313l-53 -236h-205l92 400h1223l-92 -400h-205l53 236h-303l-119 -521q96 31 193.5 53.5t201.5 22.5q107 0 190 -16.5
t134 -60.5t66.5 -120.5t-11.5 -197.5l-80 -340h164l-39 -172h-491z" />
    <glyph glyph-name="uni045B" unicode="&#x45b;" horiz-adv-x="1319" 
d="M351 1556h328l-39 -172l-23 -96h469l-35 -151h-469l-49 -207q72 57 156 91t172 34q80 0 144.5 -24.5t105.5 -73t54 -121t-9 -170.5l-115 -494h148l-39 -172h-351l150 641q29 117 -17.5 177.5t-156.5 60.5q-68 0 -139.5 -30t-137.5 -77l-178 -772h-203l263 1137h-125
l34 151h125l23 96h-125z" />
    <glyph glyph-name="Lslash" unicode="&#x141;" horiz-adv-x="1374" 
d="M412 1516h491l-41 -173h-137l-88 -387l467 252l-55 -235l-465 -250l-127 -551h506q43 0 66.5 22.5t31.5 57.5l47 197h201l-105 -449h-1128l39 172h133l98 424l-262 -141l55 235l262 139l117 514h-147z" />
    <glyph glyph-name="lslash" unicode="&#x142;" horiz-adv-x="651" 
d="M264 1556h402l-138 -593l299 161l-55 -235l-297 -160l-129 -557h172l-39 -172h-375l140 604l-281 -149l55 235l279 150l125 544h-199z" />
    <glyph glyph-name="Aogonek" unicode="&#x104;" horiz-adv-x="1456" 
d="M-111 172h131l760 1344h324l158 -1344h149l-39 -172h-151q-80 -4 -142.5 -25.5t-105.5 -53.5t-65.5 -70.5t-22.5 -75.5q0 -41 30.5 -70t81.5 -29q39 0 74 6.5t55 16.5l43 -127q-26 -16 -73 -29.5t-105 -13.5q-61 0 -112.5 14.5t-88 41t-58 65.5t-21.5 90q0 90 51 154.5
t119 105.5l39 172h127l-37 342h-576l-190 -342h137l-39 -172h-492zM530 686h461l-76 688z" />
    <glyph glyph-name="aogonek" unicode="&#x105;" horiz-adv-x="1319" 
d="M1208 1036l-200 -864h161l-39 -172h-100q-49 -2 -95 -23.5t-83 -54.5t-59.5 -71.5t-22.5 -75.5q0 -41 30.5 -70t82.5 -29q39 0 73.5 6.5t55.5 16.5l43 -127q-27 -16 -74 -29.5t-104 -13.5q-62 0 -113 14.5t-88 41t-58.5 65.5t-21.5 90q0 92 52 155.5t120 104.5l16 70
q-67 -45 -134.5 -66.5t-139.5 -21.5q-86 0 -160 32.5t-128 90t-86 134t-32 167.5q0 145 51.5 266t138.5 208t203.5 135t247.5 48q76 0 141.5 -23.5t108.5 -58.5l13 55h200zM557 154q76 0 149.5 31.5t120.5 70.5l127 555q-26 33 -80.5 56.5t-142.5 23.5q-78 0 -152.5 -32
t-134 -91t-96.5 -145t-37 -197q0 -129 67.5 -200.5t178.5 -71.5z" />
    <glyph glyph-name="Eogonek" unicode="&#x118;" horiz-adv-x="1413" 
d="M412 1516h1099l-100 -433h-207l62 260h-541l-111 -485h447l-43 -172h-443l-118 -514h534l62 262h209l-101 -434h-18q-74 -2 -132.5 -23.5t-99.5 -54.5t-63.5 -71.5t-22.5 -75.5q0 -41 31 -70t82 -29q39 0 74 6.5t55 16.5l43 -127q-27 -16 -74 -29.5t-104 -13.5
q-62 0 -113 14.5t-88 41t-58.5 65.5t-21.5 90q0 92 41 155.5t107 104.5h-723l39 172h133l270 1171h-147z" />
    <glyph glyph-name="eogonek" unicode="&#x119;" horiz-adv-x="1169" 
d="M379 -260q0 74 35 132t86 103q-82 11 -153 47.5t-122 96t-79.5 141.5t-28.5 184q0 129 46 243t126 198t189.5 133t238.5 49q98 0 176 -34t132 -89t82 -127t28 -147q0 -52 -5.5 -99t-13.5 -88h-797q0 -14 -1 -23t-1 -20q0 -63 20.5 -116.5t57.5 -93.5t87 -62.5t110 -22.5
q80 0 152.5 33t121.5 94q37 -28 74 -53.5t74 -54.5q-74 -98 -207 -152q-62 -28 -109 -55t-79.5 -55.5t-49 -59t-16.5 -67.5q0 -41 30.5 -70t82.5 -29q39 0 73.5 6.5t55.5 16.5q10 -33 21 -63.5t22 -63.5q-27 -16 -74 -29.5t-105 -13.5q-61 0 -112 14.5t-88 41t-58.5 65.5
t-21.5 90zM690 897q-119 0 -208 -71.5t-130 -180.5h590q2 62 -16.5 109t-51 78.5t-79.5 48t-105 16.5z" />
    <glyph glyph-name="Iogonek" unicode="&#x12e;" horiz-adv-x="883" 
d="M426 1516h492l-41 -173h-142l-268 -1171h139l-39 -172h-139q-61 0 -120.5 -18.5t-105.5 -50t-75 -72.5t-29 -84q0 -41 31 -70t82 -29q39 0 73.5 6.5t55.5 16.5l43 -127q-27 -16 -74 -29.5t-104 -13.5q-62 0 -113 14.5t-88 41t-58.5 65.5t-21.5 90q0 86 45 150.5
t107 109.5l39 172h143l270 1171h-143z" />
    <glyph glyph-name="iogonek" unicode="&#x12f;" horiz-adv-x="725" 
d="M201 1036h387l-201 -864h166l-39 -172h-70q-61 -2 -113 -22.5t-90 -53.5t-58.5 -71.5t-20.5 -77.5q0 -41 30.5 -70t81.5 -29q39 0 74 6.5t55 16.5l43 -127q-26 -16 -73 -29.5t-105 -13.5q-61 0 -112.5 14.5t-88 41t-58 65.5t-21.5 90q0 88 46 152.5t111 107.5l199 864
h-184zM391 1401q0 53 39 92t94 39q27 0 50.5 -10.5t42 -28.5t28.5 -42t10 -50q0 -27 -10 -51.5t-28.5 -43t-42 -29.5t-50.5 -11q-55 0 -94 41t-39 94z" />
    <glyph glyph-name="Uogonek" unicode="&#x172;" horiz-adv-x="1579" 
d="M1229 1516h491l-39 -173h-133l-166 -722q-28 -125 -70 -223.5t-96.5 -172t-119 -124t-138.5 -78.5q-71 -29 -128.5 -56.5t-98.5 -58.5t-63.5 -63.5t-22.5 -69.5q0 -41 31 -70t82 -29q39 0 73.5 6.5t55.5 16.5l43 -127q-27 -16 -74 -29.5t-104 -13.5q-62 0 -113 14.5
t-88 41t-58.5 65.5t-21.5 90q0 76 44 136.5t106 105.5q-93 12 -170.5 49t-134 97t-86 142t-27.5 185q0 45 6 90t16 94l162 704h-143l39 173h491l-39 -173h-139l-162 -704q-8 -35 -14 -75t-6 -89q0 -55 17.5 -108.5t55 -96.5t97 -68.5t141.5 -25.5t152.5 23.5t128 78
t100.5 143.5t74 218l161 704h-151z" />
    <glyph glyph-name="uogonek" unicode="&#x173;" horiz-adv-x="1288" 
d="M979 172h156l-39 -172h-49q-62 -2 -114 -22.5t-89 -53.5t-58.5 -71.5t-21.5 -77.5q0 -41 30.5 -70t82.5 -29q38 0 73 6.5t56 16.5l43 -127q-27 -16 -74 -29.5t-105 -13.5q-61 0 -112 14.5t-88 41t-58.5 65.5t-21.5 90q0 88 46 152.5t112 107.5l22 104q-61 -65 -142 -93.5
t-147 -28.5q-67 0 -127.5 19t-101.5 58q-25 25 -46.5 59t-33.5 81t-11 108.5t19 143.5l94 413h-139l41 172h340l-123 -526q-43 -186 -3 -273t171 -87q60 0 127.5 34.5t118.5 112.5l131 567h-135l41 172h336z" />
    <glyph glyph-name="NOBREAKSPACE" unicode="&#xa0;" horiz-adv-x="449" 
 />
    <glyph glyph-name="uni2113" unicode="&#x2113;" horiz-adv-x="977" 
d="M707 55q-25 -14 -54.5 -27.5t-63.5 -24.5t-71 -17t-76 -6q-75 0 -134.5 22.5t-96.5 66.5t-47 111.5t10 157.5q4 18 8 37.5t8 38.5q-22 -17 -41.5 -33t-42.5 -33q-22 37 -41.5 73t-41.5 73q57 45 113.5 89t113.5 89q14 57 26.5 113.5t26.5 113.5q31 137 82 258t118.5 211
t152.5 142.5t186 52.5q106 0 162.5 -63.5t56.5 -172.5q0 -94 -36 -170t-113.5 -157.5t-200.5 -180t-297 -235.5q-15 -64 -29 -126.5t-29 -125.5q-12 -49 -9 -87t18.5 -63.5t45 -39t70.5 -13.5q56 0 102 18.5t83 38.5q10 -32 20 -65t21 -66zM535 893q86 68 147 125t101 107.5
t59.5 95.5t19.5 88q0 45 -18.5 57t-36.5 12q-47 0 -96 -41t-94.5 -112.5t-82 -169t-59.5 -209.5q17 12 30 23.5t30 23.5z" />
    <glyph glyph-name="florin" unicode="&#x192;" horiz-adv-x="729" 
d="M281 1036h200l37 162q21 90 60.5 157.5t94 111.5t122 66.5t143.5 22.5q106 0 165.5 -18t94.5 -39l-88 -133q-29 16 -77 28.5t-103 12.5q-84 0 -143.5 -51t-81.5 -152l-39 -168h239l-35 -151h-239l-232 -998q-20 -90 -60 -157.5t-93 -111.5t-121 -66.5t-143 -22.5
q-107 0 -167.5 18.5t-95.5 38.5l88 133q29 -16 78 -28.5t105 -12.5q84 0 143.5 51.5t81.5 151.5l231 1004h-200z" />
    <glyph glyph-name="partialdiff" unicode="&#x2202;" horiz-adv-x="1233" 
d="M895 1526l215 -668q18 -65 31.5 -136t13.5 -134q0 -127 -58.5 -235.5t-151.5 -187.5t-208.5 -124t-232.5 -45q-92 0 -171 27.5t-135.5 82t-89 132t-32.5 176.5q0 131 55 238.5t142 184t194.5 119.5t212.5 43q39 0 87 -4t103 -30l-208 561h233zM719 836q-86 0 -167 -27
t-145.5 -78t-103.5 -125t-39 -168q0 -59 20.5 -109t57.5 -85t87 -54.5t110 -19.5q86 0 163.5 28.5t138 84t95.5 134.5t35 181q0 16 -1 35.5t-3 36.5q-29 78 -90.5 122t-157.5 44z" />
    <glyph glyph-name="Agrave" unicode="&#xc0;" horiz-adv-x="1458" 
d="M919 172h127l-37 342h-574l-191 -342h136l-38 -172h-492l39 172h131l760 1344h323l158 -1344h150l-39 -172h-492zM531 686h459l-75 688zM829 1657l-287 282v17h248l184 -299h-145z" />
    <glyph glyph-name="agrave" unicode="&#xe0;" horiz-adv-x="1307" 
d="M783 70q-67 -45 -134.5 -66.5t-139.5 -21.5q-85 0 -159 33t-128.5 90t-86 134.5t-31.5 166.5q0 145 51 266t138.5 208t204 135t247.5 48q75 0 141 -22.5t108 -58.5l13 54h201l-200 -864h161l-39 -172h-363zM556 154q37 0 75.5 9t73.5 23t66 32.5t55 38.5l129 554
q-26 33 -81 56.5t-144 23.5q-77 0 -152 -31.5t-134 -91t-96 -146t-37 -196.5q0 -64 18 -114.5t50 -85.5t77.5 -53.5t99.5 -18.5zM694 1178l-287 282v17h248l184 -299h-145z" />
    <glyph glyph-name="Aacute" unicode="&#xc1;" horiz-adv-x="1458" 
d="M919 172h127l-37 342h-574l-191 -342h136l-38 -172h-492l39 172h131l760 1344h323l158 -1344h150l-39 -172h-492zM531 686h459l-75 688zM1028 1956h240v-17l-299 -282h-154z" />
    <glyph glyph-name="aacute" unicode="&#xe1;" horiz-adv-x="1307" 
d="M783 70q-67 -45 -134.5 -66.5t-139.5 -21.5q-85 0 -159 33t-128.5 90t-86 134.5t-31.5 166.5q0 145 51 266t138.5 208t204 135t247.5 48q75 0 141 -22.5t108 -58.5l13 54h201l-200 -864h161l-39 -172h-363zM556 154q37 0 75.5 9t73.5 23t66 32.5t55 38.5l129 554
q-26 33 -81 56.5t-144 23.5q-77 0 -152 -31.5t-134 -91t-96 -146t-37 -196.5q0 -64 18 -114.5t50 -85.5t77.5 -53.5t99.5 -18.5zM863 1477h240v-17l-299 -282h-154z" />
    <glyph glyph-name="Acircumflex" unicode="&#xc2;" horiz-adv-x="1458" 
d="M919 172h127l-37 342h-574l-191 -342h136l-38 -172h-492l39 172h131l760 1344h323l158 -1344h150l-39 -172h-492zM531 686h459l-75 688zM672 1650l297 273h111l151 -273h-170l-64 125l-119 -125h-206z" />
    <glyph glyph-name="acircumflex" unicode="&#xe2;" horiz-adv-x="1307" 
d="M783 70q-67 -45 -134.5 -66.5t-139.5 -21.5q-85 0 -159 33t-128.5 90t-86 134.5t-31.5 166.5q0 145 51 266t138.5 208t204 135t247.5 48q75 0 141 -22.5t108 -58.5l13 54h201l-200 -864h161l-39 -172h-363zM556 154q37 0 75.5 9t73.5 23t66 32.5t55 38.5l129 554
q-26 33 -81 56.5t-144 23.5q-77 0 -152 -31.5t-134 -91t-96 -146t-37 -196.5q0 -64 18 -114.5t50 -85.5t77.5 -53.5t99.5 -18.5zM552 1171l297 273h111l151 -273h-170l-64 125l-119 -125h-206z" />
    <glyph glyph-name="Atilde" unicode="&#xc3;" horiz-adv-x="1458" 
d="M919 172h127l-37 342h-574l-191 -342h136l-38 -172h-492l39 172h131l760 1344h323l158 -1344h150l-39 -172h-492zM531 686h459l-75 688zM869 1894q50 0 86.5 -16.5t68 -36t62.5 -35.5t70 -16q28 0 54.5 19t35.5 61l119 -35q-20 -85 -78 -131.5t-139 -46.5q-56 0 -95 15.5
t-71 33.5t-60 33.5t-61 15.5q-15 0 -30.5 -2t-30.5 -9.5t-27.5 -23t-19.5 -43.5l-109 53q13 47 37 78.5t54 50.5t64.5 27t69.5 8z" />
    <glyph glyph-name="atilde" unicode="&#xe3;" horiz-adv-x="1307" 
d="M771 70q-67 -45 -134.5 -66.5t-139.5 -21.5q-85 0 -159 33t-128.5 90t-86 134.5t-31.5 166.5q0 145 51 266t138.5 208t204 135t247.5 48q75 0 141 -22.5t108 -58.5l13 54h201l-200 -864h161l-39 -172h-363zM544 154q37 0 75.5 9t73.5 23t66 32.5t55 38.5l129 554
q-26 33 -81 56.5t-144 23.5q-77 0 -152 -31.5t-134 -91t-96 -146t-37 -196.5q0 -64 18 -114.5t50 -85.5t77.5 -53.5t99.5 -18.5zM653 1415q50 0 86.5 -16.5t68 -36t62.5 -35.5t70 -16q28 0 54.5 19t35.5 61l119 -35q-20 -85 -78 -131.5t-139 -46.5q-56 0 -95 15.5t-71 33.5
t-60 33.5t-61 15.5q-15 0 -30.5 -2t-30.5 -9.5t-27.5 -23t-19.5 -43.5l-109 53q13 47 37 78.5t54 50.5t64.5 27t69.5 8z" />
    <glyph glyph-name="Adieresis" unicode="&#xc4;" horiz-adv-x="1458" 
d="M919 172h127l-37 342h-574l-191 -342h136l-38 -172h-492l39 172h131l760 1344h323l158 -1344h150l-39 -172h-492zM531 686h459l-75 688zM625 1839q0 26 10.5 49.5t28 41t41 28t49.5 10.5q25 0 48 -10.5t40 -28t27 -41t10 -49.5q0 -27 -10 -51t-27 -42.5t-40 -29
t-48 -10.5q-26 0 -49.5 10.5t-41 29t-28 42.5t-10.5 51zM1084 1839q0 26 10.5 49.5t28 41t41 28t49.5 10.5q25 0 47.5 -10.5t40 -28t27.5 -41t10 -49.5q0 -27 -10 -51t-27.5 -42.5t-40 -29t-47.5 -10.5q-26 0 -49.5 10.5t-41 29t-28 42.5t-10.5 51z" />
    <glyph glyph-name="adieresis" unicode="&#xe4;" horiz-adv-x="1307" 
d="M783 70q-67 -45 -134.5 -66.5t-139.5 -21.5q-85 0 -159 33t-128.5 90t-86 134.5t-31.5 166.5q0 145 51 266t138.5 208t204 135t247.5 48q75 0 141 -22.5t108 -58.5l13 54h201l-200 -864h161l-39 -172h-363zM556 154q37 0 75.5 9t73.5 23t66 32.5t55 38.5l129 554
q-26 33 -81 56.5t-144 23.5q-77 0 -152 -31.5t-134 -91t-96 -146t-37 -196.5q0 -64 18 -114.5t50 -85.5t77.5 -53.5t99.5 -18.5zM451 1360q0 26 10.5 49.5t28 41t41 28t49.5 10.5q25 0 48 -10.5t40 -28t27 -41t10 -49.5q0 -27 -10 -51t-27 -42.5t-40 -29t-48 -10.5
q-26 0 -49.5 10.5t-41 29t-28 42.5t-10.5 51zM910 1360q0 26 10.5 49.5t28 41t41 28t49.5 10.5q25 0 47.5 -10.5t40 -28t27.5 -41t10 -49.5q0 -27 -10 -51t-27.5 -42.5t-40 -29t-47.5 -10.5q-26 0 -49.5 10.5t-41 29t-28 42.5t-10.5 51z" />
    <glyph glyph-name="Amacron" unicode="&#x100;" horiz-adv-x="1458" 
d="M919 172h127l-37 342h-574l-191 -342h136l-38 -172h-492l39 172h131l760 1344h323l158 -1344h150l-39 -172h-492zM531 686h459l-75 688zM1331 1708h-743l26 117h744z" />
    <glyph glyph-name="amacron" unicode="&#x101;" horiz-adv-x="1307" 
d="M771 70q-67 -45 -134.5 -66.5t-139.5 -21.5q-85 0 -159 33t-128.5 90t-86 134.5t-31.5 166.5q0 145 51 266t138.5 208t204 135t247.5 48q75 0 141 -22.5t108 -58.5l13 54h201l-200 -864h161l-39 -172h-363zM544 154q37 0 75.5 9t73.5 23t66 32.5t55 38.5l129 554
q-26 33 -81 56.5t-144 23.5q-77 0 -152 -31.5t-134 -91t-96 -146t-37 -196.5q0 -64 18 -114.5t50 -85.5t77.5 -53.5t99.5 -18.5zM1116 1229h-743l26 117h744z" />
    <glyph glyph-name="Abreve" unicode="&#x102;" horiz-adv-x="1458" 
d="M919 172h127l-37 342h-574l-191 -342h136l-38 -172h-492l39 172h131l760 1344h323l158 -1344h150l-39 -172h-492zM531 686h459l-75 688zM978 1629q-83 0 -150 23.5t-113 69.5t-66.5 105.5t-16.5 131.5h141q2 -92 50.5 -145.5t164.5 -53.5q98 0 161.5 55.5t86.5 143.5h145
q-13 -72 -50 -131.5t-87.5 -104.5t-122 -69.5t-143.5 -24.5v0z" />
    <glyph glyph-name="abreve" unicode="&#x103;" horiz-adv-x="1307" 
d="M771 70q-67 -45 -134.5 -66.5t-139.5 -21.5q-85 0 -159 33t-128.5 90t-86 134.5t-31.5 166.5q0 145 51 266t138.5 208t204 135t247.5 48q75 0 141 -22.5t108 -58.5l13 54h201l-200 -864h161l-39 -172h-363zM544 154q37 0 75.5 9t73.5 23t66 32.5t55 38.5l129 554
q-26 33 -81 56.5t-144 23.5q-77 0 -152 -31.5t-134 -91t-96 -146t-37 -196.5q0 -64 18 -114.5t50 -85.5t77.5 -53.5t99.5 -18.5zM763 1149q-83 0 -150 23.5t-113 69.5t-66.5 105.5t-16.5 131.5h141q2 -92 50.5 -145.5t164.5 -53.5q98 0 161.5 55.5t86.5 143.5h145
q-13 -72 -50 -131.5t-87.5 -104.5t-122 -69.5t-143.5 -24.5v0z" />
    <glyph glyph-name="Aring" unicode="&#xc5;" horiz-adv-x="1456" 
d="M920 172h127l-37 342h-576l-190 -342h137l-39 -172h-492l39 172h131l734 1298q-29 35 -46.5 78t-17.5 90q0 52 20.5 99t55.5 81.5t81 55t99 20.5q51 0 98.5 -20.5t82 -55t55 -81.5t20.5 -99q0 -59 -24.5 -109t-65.5 -85l150 -1272h149l-39 -172h-491zM530 686h461
l-76 688zM842 1638q0 -41 31.5 -72.5t72.5 -31.5t73 31.5t32 72.5t-32 73t-73 32t-72.5 -32t-31.5 -73z" />
    <glyph glyph-name="aring" unicode="&#xe5;" horiz-adv-x="1307" 
d="M771 70q-67 -45 -134.5 -66.5t-139.5 -21.5q-85 0 -159 33t-128.5 90t-86 134.5t-31.5 166.5q0 145 51 266t138.5 208t204 135t247.5 48q75 0 141 -22.5t108 -58.5l13 54h201l-200 -864h161l-39 -172h-363zM544 154q37 0 75.5 9t73.5 23t66 32.5t55 38.5l129 554
q-26 33 -81 56.5t-144 23.5q-77 0 -152 -31.5t-134 -91t-96 -146t-37 -196.5q0 -64 18 -114.5t50 -85.5t77.5 -53.5t99.5 -18.5zM713 1342q0 -21 8.5 -39.5t23 -33t33 -23t39.5 -8.5t40 8.5t33.5 23t23 33t8.5 39.5t-8.5 40t-23 33.5t-33.5 23t-40 8.5t-39.5 -8.5t-33 -23
t-23 -33.5t-8.5 -40zM817 1598q52 0 99 -20.5t81.5 -55t55 -81.5t20.5 -99t-20.5 -98.5t-55 -81.5t-81.5 -55.5t-99 -20.5t-98.5 20.5t-81.5 55.5t-55.5 81.5t-20.5 98.5t20.5 99t55.5 81.5t81.5 55t98.5 20.5z" />
    <glyph glyph-name="Ccedilla" unicode="&#xc7;" horiz-adv-x="1468" 
d="M1394 322q-58 -82 -129 -146.5t-156 -109t-184 -68t-213 -23.5q-137 0 -253.5 51.5t-201.5 142.5t-133.5 215.5t-48.5 270.5q0 125 29.5 240t83.5 213.5t131 179t172.5 137.5t207 88t234.5 31q170 0 302.5 -68.5t217.5 -189.5h156l-41 -172h-276q-22 51 -58.5 94
t-85 73.5t-108.5 47.5t-129 17q-132 0 -244 -53.5t-194 -145.5t-128 -214.5t-46 -260.5q0 -115 36 -207.5t96 -157t139 -99t165 -34.5q151 0 265.5 62.5t201.5 187.5zM551 -303q55 1 99.5 19.5t78 48.5t55 70.5t29.5 86.5l150 -45q-18 -73 -56 -130.5t-90.5 -97
t-117.5 -60.5t-137 -21z" />
    <glyph glyph-name="ccedilla" unicode="&#xe7;" horiz-adv-x="1135" 
d="M921 731q-16 40 -42.5 70t-60.5 50t-74 30t-83 10q-55 0 -117.5 -28.5t-116 -83.5t-88.5 -135t-35 -183q0 -75 22 -132.5t59 -96.5t86 -58.5t104 -19.5q40 0 75 6.5t66.5 22t61.5 40.5t59 62l145 -109q-39 -55 -88 -93.5t-103 -62.5t-111.5 -34.5t-113.5 -10.5
q-102 0 -188.5 36.5t-149 100.5t-98 150.5t-35.5 186.5q0 136 51 249.5t134 195.5t187.5 127.5t211.5 45.5q50 0 100 -9.5t96 -30t86 -51.5t72 -73h125l-28 -172h-209v0zM307 -303q55 1 99.5 19.5t78 48.5t55 70.5t29.5 86.5l150 -45q-18 -73 -56 -130.5t-90.5 -97
t-117.5 -60.5t-137 -21z" />
    <glyph glyph-name="Cacute" unicode="&#x106;" horiz-adv-x="1468" 
d="M1394 322q-58 -82 -129 -146.5t-156 -109t-184 -68t-213 -23.5q-137 0 -253.5 51.5t-201.5 142.5t-133.5 215.5t-48.5 270.5q0 125 29.5 240t83.5 213.5t131 179t172.5 137.5t207 88t234.5 31q170 0 302.5 -68.5t217.5 -189.5h156l-41 -172h-276q-22 51 -58.5 94
t-85 73.5t-108.5 47.5t-129 17q-132 0 -244 -53.5t-194 -145.5t-128 -214.5t-46 -260.5q0 -115 36 -207.5t96 -157t139 -99t165 -34.5q151 0 265.5 62.5t201.5 187.5zM997 1874h240v-17l-299 -282h-154z" />
    <glyph glyph-name="cacute" unicode="&#x107;" horiz-adv-x="1135" 
d="M921 731q-16 40 -42.5 70t-60.5 50t-74 30t-83 10q-55 0 -117.5 -28.5t-116 -83.5t-88.5 -135t-35 -183q0 -75 22 -132.5t59 -96.5t86 -58.5t104 -19.5q40 0 75 6.5t66.5 22t61.5 40.5t59 62l145 -109q-39 -55 -88 -93.5t-103 -62.5t-111.5 -34.5t-113.5 -10.5
q-102 0 -188.5 36.5t-149 100.5t-98 150.5t-35.5 186.5q0 136 51 249.5t134 195.5t187.5 127.5t211.5 45.5q50 0 100 -9.5t96 -30t86 -51.5t72 -73h125l-28 -172h-209v0zM817 1508h240v-17l-299 -282h-154z" />
    <glyph glyph-name="Ccaron" unicode="&#x10c;" horiz-adv-x="1468" 
d="M1394 322q-58 -82 -129 -146.5t-156 -109t-184 -68t-213 -23.5q-137 0 -253.5 51.5t-201.5 142.5t-133.5 215.5t-48.5 270.5q0 125 29.5 240t83.5 213.5t131 179t172.5 137.5t207 88t234.5 31q170 0 302.5 -68.5t217.5 -189.5h156l-41 -172h-276q-22 51 -58.5 94
t-85 73.5t-108.5 47.5t-129 17q-132 0 -244 -53.5t-194 -145.5t-128 -214.5t-46 -260.5q0 -115 36 -207.5t96 -157t139 -99t165 -34.5q151 0 265.5 62.5t201.5 187.5zM1402 1923l-297 -273h-113l-149 273h166l67 -129l129 129h197z" />
    <glyph glyph-name="ccaron" unicode="&#x10d;" horiz-adv-x="1135" 
d="M921 731q-16 40 -42.5 70t-60.5 50t-74 30t-83 10q-55 0 -117.5 -28.5t-116 -83.5t-88.5 -135t-35 -183q0 -75 22 -132.5t59 -96.5t86 -58.5t104 -19.5q40 0 75 6.5t66.5 22t61.5 40.5t59 62l145 -109q-39 -55 -88 -93.5t-103 -62.5t-111.5 -34.5t-113.5 -10.5
q-102 0 -188.5 36.5t-149 100.5t-98 150.5t-35.5 186.5q0 136 51 249.5t134 195.5t187.5 127.5t211.5 45.5q50 0 100 -9.5t96 -30t86 -51.5t72 -73h125l-28 -172h-209v0zM1126 1444l-297 -273h-113l-149 273h166l67 -129l129 129h197z" />
    <glyph glyph-name="Dcroat" unicode="&#x110;" horiz-adv-x="1561" 
d="M184 690l39 172h182l111 481h-131l40 173h549q133 0 240.5 -50.5t183 -138t116 -204.5t40.5 -249q0 -131 -31.5 -246.5t-89 -213t-139.5 -174t-182 -130t-216 -82t-243 -28.5h-578l39 172h132l119 518h-181zM723 1343l-110 -481h241l-39 -172h-242l-118 -518h220
q83 0 164 22t154.5 64t136 102t108 136t71.5 167t26 195q0 97 -27.5 184.5t-78 154.5t-122 106.5t-159.5 39.5h-225z" />
    <glyph glyph-name="dcroat" unicode="&#x111;" horiz-adv-x="1307" 
d="M1202 1139q-55 -242 -111.5 -483.5t-111.5 -483.5h172q-10 -43 -19.5 -86t-19.5 -86h-373q4 16 7.5 33.5t7.5 34.5q-56 -41 -119.5 -64.5t-134.5 -23.5q-88 0 -166 34.5t-135.5 94t-90 141.5t-32.5 176q0 137 49 255t133 204t197.5 134t240.5 48q39 0 77 -6t72 -17.5
t64.5 -27t55.5 -35.5q10 41 18 79t18 79h-186q10 43 19.5 86t19.5 86h186q4 18 8.5 36.5t8.5 36.5h-174l20 86t21 86h374q-14 -61 -28.5 -122.5t-28.5 -122.5h184q-10 -43 -19 -86t-20 -86h-184zM547 154q63 0 129.5 27.5t122.5 80.5q30 135 62 269.5t63 269.5
q-37 43 -95.5 66.5t-144.5 23.5q-76 0 -147.5 -32t-128 -90t-91 -140t-34.5 -185q0 -135 73.5 -212.5t190.5 -77.5z" />
    <glyph glyph-name="Dcaron" unicode="&#x10e;" horiz-adv-x="1561" 
d="M425 1516h549q133 0 240.5 -50.5t183 -138t116 -204.5t40.5 -249q0 -131 -31.5 -246.5t-89 -213t-139.5 -174t-182 -130t-216 -82t-243 -28.5h-578l39 172h132l270 1171h-131zM723 1343l-268 -1171h220q83 0 164 22t154.5 64t136 102t108 136t71.5 167t26 195
q0 97 -27.5 184.5t-78 154.5t-122 106.5t-159.5 39.5h-225zM1193 1842l-297 -273h-113l-149 273h166l67 -129l129 129h197z" />
    <glyph glyph-name="dcaron" unicode="&#x10f;" horiz-adv-x="1395" 
d="M923 1556h374l-319 -1384h172l-39 -172h-373l15 67q-57 -39 -119.5 -63t-134.5 -24q-89 0 -166 34t-134.5 94t-90.5 141.5t-33 176.5q0 138 49 255t133.5 203t197 134.5t240.5 48.5q80 0 149 -23t120 -63l93 403h-175zM546 154q63 0 130.5 28t122.5 82l124 537
q-37 43 -96 66.5t-144 23.5q-75 0 -147.5 -31.5t-128.5 -89.5t-90.5 -141t-34.5 -185q0 -67 19.5 -120.5t54.5 -91t83.5 -58t106.5 -20.5zM1461 1059h-125l71 510l183 12z" />
    <glyph glyph-name="Egrave" unicode="&#xc8;" horiz-adv-x="1415" 
d="M411 1516h1100l-100 -433h-207l61 260h-540l-111 -485h446l-43 -172h-442l-118 -514h534l61 262h209l-100 -434h-1086l39 172h134l270 1171h-148zM876 1658l-287 282v17h248l184 -299h-145z" />
    <glyph glyph-name="egrave" unicode="&#xe8;" horiz-adv-x="1171" 
d="M318 483q-1 -14 -2 -24t-1 -19q0 -63 20.5 -117t57 -93.5t87 -62t110.5 -22.5q80 0 152.5 32.5t121.5 94.5l148 -108q-34 -45 -81 -81t-104 -61.5t-121.5 -39t-131.5 -13.5q-96 0 -179.5 32t-146 93t-98 149.5t-35.5 200.5q0 129 45.5 242.5t126 198t190.5 133.5t238 49
q99 0 176.5 -33.5t131.5 -88.5t82 -127t28 -148q0 -51 -5.5 -98.5t-13.5 -88.5h-796zM688 897q-60 0 -112.5 -19t-95.5 -53t-76 -80t-54 -100h590q1 62 -16.5 109.5t-51 79t-80.5 47.5t-104 16zM610 1178l-287 282v17h248l184 -299h-145z" />
    <glyph glyph-name="Eacute" unicode="&#xc9;" horiz-adv-x="1415" 
d="M411 1516h1100l-100 -433h-207l61 260h-540l-111 -485h446l-43 -172h-442l-118 -514h534l61 262h209l-100 -434h-1086l39 172h134l270 1171h-148zM1075 1957h240v-17l-299 -282h-154z" />
    <glyph glyph-name="eacute" unicode="&#xe9;" horiz-adv-x="1171" 
d="M318 483q-1 -14 -2 -24t-1 -19q0 -63 20.5 -117t57 -93.5t87 -62t110.5 -22.5q80 0 152.5 32.5t121.5 94.5l148 -108q-34 -45 -81 -81t-104 -61.5t-121.5 -39t-131.5 -13.5q-96 0 -179.5 32t-146 93t-98 149.5t-35.5 200.5q0 129 45.5 242.5t126 198t190.5 133.5t238 49
q99 0 176.5 -33.5t131.5 -88.5t82 -127t28 -148q0 -51 -5.5 -98.5t-13.5 -88.5h-796zM688 897q-60 0 -112.5 -19t-95.5 -53t-76 -80t-54 -100h590q1 62 -16.5 109.5t-51 79t-80.5 47.5t-104 16zM809 1477h240v-17l-299 -282h-154z" />
    <glyph glyph-name="Ecircumflex" unicode="&#xca;" horiz-adv-x="1415" 
d="M411 1516h1100l-100 -433h-207l61 260h-540l-111 -485h446l-43 -172h-442l-118 -514h534l61 262h209l-100 -434h-1086l39 172h134l270 1171h-148zM753 1651l297 273h111l151 -273h-170l-64 125l-119 -125h-206z" />
    <glyph glyph-name="ecircumflex" unicode="&#xea;" horiz-adv-x="1171" 
d="M318 483q-1 -14 -2 -24t-1 -19q0 -63 20.5 -117t57 -93.5t87 -62t110.5 -22.5q80 0 152.5 32.5t121.5 94.5l148 -108q-34 -45 -81 -81t-104 -61.5t-121.5 -39t-131.5 -13.5q-96 0 -179.5 32t-146 93t-98 149.5t-35.5 200.5q0 129 45.5 242.5t126 198t190.5 133.5t238 49
q99 0 176.5 -33.5t131.5 -88.5t82 -127t28 -148q0 -51 -5.5 -98.5t-13.5 -88.5h-796zM688 897q-60 0 -112.5 -19t-95.5 -53t-76 -80t-54 -100h590q1 62 -16.5 109.5t-51 79t-80.5 47.5t-104 16zM487 1171l297 273h111l151 -273h-170l-64 125l-119 -125h-206z" />
    <glyph glyph-name="Edieresis" unicode="&#xcb;" horiz-adv-x="1415" 
d="M411 1516h1100l-100 -433h-207l61 260h-540l-111 -485h446l-43 -172h-442l-118 -514h534l61 262h209l-100 -434h-1086l39 172h134l270 1171h-148zM672 1840q0 26 10.5 49.5t28 41t41 28t49.5 10.5q25 0 48 -10.5t40 -28t27 -41t10 -49.5q0 -27 -10 -51t-27 -42.5t-40 -29
t-48 -10.5q-26 0 -49.5 10.5t-41 29t-28 42.5t-10.5 51zM1131 1840q0 26 10.5 49.5t28 41t41 28t49.5 10.5q25 0 47.5 -10.5t40 -28t27.5 -41t10 -49.5q0 -27 -10 -51t-27.5 -42.5t-40 -29t-47.5 -10.5q-26 0 -49.5 10.5t-41 29t-28 42.5t-10.5 51z" />
    <glyph glyph-name="edieresis" unicode="&#xeb;" horiz-adv-x="1171" 
d="M318 483q-1 -14 -2 -24t-1 -19q0 -63 20.5 -117t57 -93.5t87 -62t110.5 -22.5q80 0 152.5 32.5t121.5 94.5l148 -108q-34 -45 -81 -81t-104 -61.5t-121.5 -39t-131.5 -13.5q-96 0 -179.5 32t-146 93t-98 149.5t-35.5 200.5q0 129 45.5 242.5t126 198t190.5 133.5t238 49
q99 0 176.5 -33.5t131.5 -88.5t82 -127t28 -148q0 -51 -5.5 -98.5t-13.5 -88.5h-796zM688 897q-60 0 -112.5 -19t-95.5 -53t-76 -80t-54 -100h590q1 62 -16.5 109.5t-51 79t-80.5 47.5t-104 16zM406 1360q0 26 10.5 49.5t28 41t41 28t49.5 10.5q25 0 48 -10.5t40 -28t27 -41
t10 -49.5q0 -27 -10 -51t-27 -42.5t-40 -29t-48 -10.5q-26 0 -49.5 10.5t-41 29t-28 42.5t-10.5 51zM865 1360q0 26 10.5 49.5t28 41t41 28t49.5 10.5q25 0 47.5 -10.5t40 -28t27.5 -41t10 -49.5q0 -27 -10 -51t-27.5 -42.5t-40 -29t-47.5 -10.5q-26 0 -49.5 10.5t-41 29
t-28 42.5t-10.5 51z" />
    <glyph glyph-name="Ecaron" unicode="&#x11a;" horiz-adv-x="1415" 
d="M411 1516h1100l-100 -433h-207l61 260h-540l-111 -485h446l-43 -172h-442l-118 -514h534l61 262h209l-100 -434h-1086l39 172h134l270 1171h-148zM1414 1924l-297 -273h-113l-149 273h166l67 -129l129 129h197z" />
    <glyph glyph-name="ecaron" unicode="&#x11b;" horiz-adv-x="1171" 
d="M318 483q-1 -14 -2 -24t-1 -19q0 -63 20.5 -117t57 -93.5t87 -62t110.5 -22.5q80 0 152.5 32.5t121.5 94.5l148 -108q-34 -45 -81 -81t-104 -61.5t-121.5 -39t-131.5 -13.5q-96 0 -179.5 32t-146 93t-98 149.5t-35.5 200.5q0 129 45.5 242.5t126 198t190.5 133.5t238 49
q99 0 176.5 -33.5t131.5 -88.5t82 -127t28 -148q0 -51 -5.5 -98.5t-13.5 -88.5h-796zM688 897q-60 0 -112.5 -19t-95.5 -53t-76 -80t-54 -100h590q1 62 -16.5 109.5t-51 79t-80.5 47.5t-104 16zM1148 1444l-297 -273h-113l-149 273h166l67 -129l129 129h197z" />
    <glyph glyph-name="Emacron" unicode="&#x112;" horiz-adv-x="1415" 
d="M411 1516h1100l-100 -433h-207l61 260h-540l-111 -485h446l-43 -172h-442l-118 -514h534l61 262h209l-100 -434h-1086l39 172h134l270 1171h-148zM1378 1709h-743l26 117h744z" />
    <glyph glyph-name="emacron" unicode="&#x113;" horiz-adv-x="1171" 
d="M318 483q-1 -14 -2 -24t-1 -19q0 -63 20.5 -117t57 -93.5t87 -62t110.5 -22.5q80 0 152.5 32.5t121.5 94.5l148 -108q-34 -45 -81 -81t-104 -61.5t-121.5 -39t-131.5 -13.5q-96 0 -179.5 32t-146 93t-98 149.5t-35.5 200.5q0 129 45.5 242.5t126 198t190.5 133.5t238 49
q99 0 176.5 -33.5t131.5 -88.5t82 -127t28 -148q0 -51 -5.5 -98.5t-13.5 -88.5h-796zM688 897q-60 0 -112.5 -19t-95.5 -53t-76 -80t-54 -100h590q1 62 -16.5 109.5t-51 79t-80.5 47.5t-104 16zM1112 1229h-743l26 117h744z" />
    <glyph glyph-name="Edotaccent" unicode="&#x116;" horiz-adv-x="1415" 
d="M411 1516h1100l-100 -433h-207l61 260h-540l-111 -485h446l-43 -172h-442l-118 -514h534l61 262h209l-100 -434h-1086l39 172h134l270 1171h-148zM874 -1120q0 26 10.5 49.5t28 41t41.5 28t51 10.5q26 0 49.5 -10.5t41 -28t28 -41t10.5 -49.5q0 -27 -10.5 -51t-28 -42.5
t-41 -29t-49.5 -10.5q-27 0 -51 10.5t-41.5 29t-28 42.5t-10.5 51z" />
    <glyph glyph-name="edotaccent" unicode="&#x117;" horiz-adv-x="1171" 
d="M318 483q-1 -14 -2 -24t-1 -19q0 -63 20.5 -117t57 -93.5t87 -62t110.5 -22.5q80 0 152.5 32.5t121.5 94.5l148 -108q-34 -45 -81 -81t-104 -61.5t-121.5 -39t-131.5 -13.5q-96 0 -179.5 32t-146 93t-98 149.5t-35.5 200.5q0 129 45.5 242.5t126 198t190.5 133.5t238 49
q99 0 176.5 -33.5t131.5 -88.5t82 -127t28 -148q0 -51 -5.5 -98.5t-13.5 -88.5h-796zM688 897q-60 0 -112.5 -19t-95.5 -53t-76 -80t-54 -100h590q1 62 -16.5 109.5t-51 79t-80.5 47.5t-104 16zM670 -1600q0 26 10.5 49.5t28 41t41.5 28t51 10.5q26 0 49.5 -10.5t41 -28
t28 -41t10.5 -49.5q0 -27 -10.5 -51t-28 -42.5t-41 -29t-49.5 -10.5q-27 0 -51 10.5t-41.5 29t-28 42.5t-10.5 51z" />
    <glyph glyph-name="Gcommaaccent" unicode="&#x122;" horiz-adv-x="1616" 
d="M1155 0l50 222q-92 -126 -218.5 -186.5t-274.5 -60.5q-137 0 -254 52.5t-202 144.5t-133 216t-48 267q0 124 29 238t83 213t130.5 179.5t172 138t207.5 89t236 31.5q95 0 176 -22t147 -58t115.5 -82.5t81.5 -95.5h156l-41 -172h-276q-22 51 -58.5 94t-85 73.5
t-108.5 47.5t-129 17q-90 0 -170 -24t-148 -68.5t-122.5 -106t-92.5 -136.5t-58.5 -161t-20.5 -178q0 -109 34.5 -200.5t93.5 -157.5t138.5 -103t169.5 -37q91 0 171.5 25.5t147 74t118.5 118t86 157.5h-423l41 176h643l-164 -725h-200zM643 -41l211 -84l-180 -348l-144 53z
" />
    <glyph glyph-name="gcommaaccent" unicode="&#x123;" horiz-adv-x="1249" 
d="M783 64q-63 -44 -129.5 -63t-143.5 -19q-85 0 -159 33t-128.5 90t-86 134.5t-31.5 166.5q0 145 51 266t138.5 208t204 135t247.5 48q75 0 141 -22.5t108 -58.5l13 54h203l-238 -1024q-30 -130 -80 -221.5t-122 -149.5t-167.5 -85t-216.5 -27q-55 0 -114 9t-115.5 27.5
t-106.5 46.5t-88 66l129 146q24 -26 58 -47.5t75 -37.5t86.5 -25t92.5 -9q72 0 131 15.5t105.5 54t81 104t61.5 185.5zM557 154q78 0 146 28t125 76l128 552q-26 33 -81 57t-144 24q-77 0 -152 -31.5t-134 -91t-96 -146t-37 -196.5q0 -64 18 -114.5t50 -85.5t77.5 -53.5
t99.5 -18.5zM899 1138l-189 74l181 349l121 -44z" />
    <glyph glyph-name="Gbreve" unicode="&#x11e;" horiz-adv-x="1616" 
d="M1155 0l50 222q-92 -126 -218.5 -186.5t-274.5 -60.5q-137 0 -254 52.5t-202 144.5t-133 216t-48 267q0 124 29 238t83 213t130.5 179.5t172 138t207.5 89t236 31.5q95 0 176 -22t147 -58t115.5 -82.5t81.5 -95.5h156l-41 -172h-276q-22 51 -58.5 94t-85 73.5
t-108.5 47.5t-129 17q-90 0 -170 -24t-148 -68.5t-122.5 -106t-92.5 -136.5t-58.5 -161t-20.5 -178q0 -109 34.5 -200.5t93.5 -157.5t138.5 -103t169.5 -37q91 0 171.5 25.5t147 74t118.5 118t86 157.5h-423l41 176h643l-164 -725h-200zM972 1628q-83 0 -150 23.5t-113 69.5
t-66.5 105.5t-16.5 131.5h141q2 -92 50.5 -145.5t164.5 -53.5q98 0 161.5 55.5t86.5 143.5h145q-13 -72 -50 -131.5t-87.5 -104.5t-122 -69.5t-143.5 -24.5v0z" />
    <glyph glyph-name="gbreve" unicode="&#x11f;" horiz-adv-x="1249" 
d="M783 64q-63 -44 -129.5 -63t-143.5 -19q-85 0 -159 33t-128.5 90t-86 134.5t-31.5 166.5q0 145 51 266t138.5 208t204 135t247.5 48q75 0 141 -22.5t108 -58.5l13 54h203l-238 -1024q-30 -130 -80 -221.5t-122 -149.5t-167.5 -85t-216.5 -27q-55 0 -114 9t-115.5 27.5
t-106.5 46.5t-88 66l129 146q24 -26 58 -47.5t75 -37.5t86.5 -25t92.5 -9q72 0 131 15.5t105.5 54t81 104t61.5 185.5zM557 154q78 0 146 28t125 76l128 552q-26 33 -81 57t-144 24q-77 0 -152 -31.5t-134 -91t-96 -146t-37 -196.5q0 -64 18 -114.5t50 -85.5t77.5 -53.5
t99.5 -18.5zM790 1149q-83 0 -150 23.5t-113 69.5t-66.5 105.5t-16.5 131.5h141q2 -92 50.5 -145.5t164.5 -53.5q98 0 161.5 55.5t86.5 143.5h145q-13 -72 -50 -131.5t-87.5 -104.5t-122 -69.5t-143.5 -24.5v0z" />
    <glyph glyph-name="Igrave" unicode="&#xcc;" horiz-adv-x="883" 
d="M425 1516h492l-41 -173h-141l-268 -1171h139l-39 -172h-492l39 172h144l270 1171h-143zM612 1658l-287 282v17h248l184 -299h-145z" />
    <glyph glyph-name="igrave" unicode="&#xec;" horiz-adv-x="725" 
d="M198 1036h387l-200 -864h166l-39 -172h-369l200 864h-186zM412 1178l-287 282v17h248l184 -299h-145z" />
    <glyph glyph-name="Iacute" unicode="&#xcd;" horiz-adv-x="883" 
d="M425 1516h492l-41 -173h-141l-268 -1171h139l-39 -172h-492l39 172h144l270 1171h-143zM827 1957h240v-17l-299 -282h-154z" />
    <glyph glyph-name="iacute" unicode="&#xed;" horiz-adv-x="725" 
d="M198 1036h387l-200 -864h166l-39 -172h-369l200 864h-186zM545 1477h240v-17l-299 -282h-154z" />
    <glyph glyph-name="Icircumflex" unicode="&#xce;" horiz-adv-x="883" 
d="M425 1516h492l-41 -173h-141l-268 -1171h139l-39 -172h-492l39 172h144l270 1171h-143zM446 1651l267 273h112l120 -273h-160l-44 125l-105 -125h-190z" />
    <glyph glyph-name="icircumflex" unicode="&#xee;" horiz-adv-x="725" 
d="M198 1036h387l-200 -864h166l-39 -172h-369l200 864h-186zM198 1171l267 273h112l120 -273h-160l-44 125l-105 -125h-190z" />
    <glyph glyph-name="Idieresis" unicode="&#xcf;" horiz-adv-x="883" 
d="M425 1516h492l-41 -173h-141l-268 -1171h139l-39 -172h-492l39 172h144l270 1171h-143zM416 1840q0 53 38 91t91 38q25 0 48.5 -10.5t40 -27.5t26.5 -41t10 -50q0 -27 -10 -51.5t-26.5 -43t-40 -28.5t-48.5 -10q-53 0 -91 40t-38 93zM732 1840q0 53 38 91t91 38
q24 0 48 -10.5t40 -27.5t26.5 -41t10.5 -50q0 -27 -10.5 -51.5t-26.5 -43t-40 -28.5t-48 -10q-53 0 -91 40t-38 93z" />
    <glyph glyph-name="idieresis" unicode="&#xef;" horiz-adv-x="725" 
d="M198 1036h387l-200 -864h166l-39 -172h-369l200 864h-186zM201 1360q0 53 38 91t91 38q25 0 48.5 -10.5t40 -27.5t26.5 -41t10 -50q0 -27 -10 -51.5t-26.5 -43t-40 -28.5t-48.5 -10q-53 0 -91 40t-38 93zM517 1360q0 53 38 91t91 38q24 0 48 -10.5t40 -27.5t26.5 -41
t10.5 -50q0 -27 -10.5 -51.5t-26.5 -43t-40 -28.5t-48 -10q-53 0 -91 40t-38 93z" />
    <glyph glyph-name="Imacron" unicode="&#x12a;" horiz-adv-x="883" 
d="M425 1516h492l-41 -173h-141l-268 -1171h139l-39 -172h-492l39 172h144l270 1171h-143zM1064 1709h-743l26 117h744z" />
    <glyph glyph-name="imacron" unicode="&#x12b;" horiz-adv-x="725" 
d="M198 1036h387l-200 -864h166l-39 -172h-369l200 864h-186zM814 1229h-743l26 117h744z" />
    <glyph glyph-name="Kcommaaccent" unicode="&#x136;" horiz-adv-x="1642" 
d="M1390 1343l41 173h389l-41 -173h-94l-837 -589l468 -582h158l-39 -172h-407l39 172l-469 602zM411 1516h492l-41 -173h-137l-268 -1171h149l-39 -172h-492l39 172h134l270 1171h-148zM683 -41l211 -84l-180 -348l-144 53z" />
    <glyph glyph-name="kcommaaccent" unicode="&#x137;" 
d="M279 1556h387l-223 -964h112l340 288l37 156h336l-41 -172h-107l-389 -329l250 -365h125l-39 -170h-219l-311 469h-122l-108 -469h-202l318 1384h-185zM453 -41l211 -84l-180 -348l-144 53z" />
    <glyph glyph-name="Lcommaaccent" unicode="&#x13b;" horiz-adv-x="1376" 
d="M411 1516h492l-41 -173h-137l-268 -1171h505q43 0 66.5 23t31.5 57l47 197h201l-104 -449h-1129l39 172h134l270 1171h-148zM558 -41l211 -84l-180 -348l-144 53z" />
    <glyph glyph-name="lcommaaccent" unicode="&#x13c;" horiz-adv-x="653" 
d="M264 1556h402l-320 -1384h172l-39 -172h-374l318 1384h-200zM208 -41l211 -84l-180 -348l-144 53z" />
    <glyph glyph-name="Lacute" unicode="&#x139;" horiz-adv-x="1376" 
d="M411 1516h492l-41 -173h-137l-268 -1171h505q43 0 66.5 23t31.5 57l47 197h201l-104 -449h-1129l39 172h134l270 1171h-148zM777 1874h240v-17l-299 -282h-154z" />
    <glyph glyph-name="lacute" unicode="&#x13a;" horiz-adv-x="653" 
d="M264 1556h402l-320 -1384h172l-39 -172h-374l318 1384h-200zM637 1918h240v-17l-299 -282h-154z" />
    <glyph glyph-name="Lcaron" unicode="&#x13d;" horiz-adv-x="1376" 
d="M411 1516h492l-41 -173h-137l-268 -1171h505q43 0 66.5 23t31.5 57l47 197h201l-104 -449h-1129l39 172h134l270 1171h-148zM1131 1009h-125l71 510l183 12z" />
    <glyph glyph-name="lcaron" unicode="&#x13e;" horiz-adv-x="780" 
d="M264 1556h402l-320 -1384h172l-39 -172h-374l318 1384h-200zM824 1059h-125l71 510l183 12z" />
    <glyph glyph-name="Nacute" unicode="&#x143;" horiz-adv-x="1786" 
d="M1370 1516h491l-39 -173h-136l-308 -1343h-262l-413 1255l-249 -1083h152l-39 -172h-492l39 172h133l271 1171h-150l41 173h416l408 -1246l246 1073h-148zM1239 1957h240v-17l-299 -282h-154z" />
    <glyph glyph-name="nacute" unicode="&#x144;" horiz-adv-x="1368" 
d="M188 1036h391l-25 -106q71 59 155.5 92t178.5 33q80 0 144.5 -24t105.5 -73t54 -122t-9 -170l-114 -494h147l-39 -172h-350l149 641q28 118 -18 178t-156 60q-78 0 -148 -33.5t-133 -93.5l-173 -752h-203l200 864h-198zM946 1477h240v-17l-299 -282h-154z" />
    <glyph glyph-name="Ncaron" unicode="&#x147;" horiz-adv-x="1786" 
d="M1370 1516h491l-39 -173h-136l-308 -1343h-262l-413 1255l-249 -1083h152l-39 -172h-492l39 172h133l271 1171h-150l41 173h416l408 -1246l246 1073h-148zM1508 1923l-297 -273h-113l-149 273h166l67 -129l129 129h197z" />
    <glyph glyph-name="ncaron" unicode="&#x148;" horiz-adv-x="1368" 
d="M188 1036h391l-25 -106q71 59 155.5 92t178.5 33q80 0 144.5 -24t105.5 -73t54 -122t-9 -170l-114 -494h147l-39 -172h-350l149 641q28 118 -18 178t-156 60q-78 0 -148 -33.5t-133 -93.5l-173 -752h-203l200 864h-198zM1218 1444l-297 -273h-113l-149 273h166l67 -129
l129 129h197z" />
    <glyph glyph-name="Ntilde" unicode="&#xd1;" horiz-adv-x="1786" 
d="M1370 1516h491l-39 -173h-136l-308 -1343h-262l-413 1255l-249 -1083h152l-39 -172h-492l39 172h133l271 1171h-150l41 173h416l408 -1246l246 1073h-148zM1065 1895q50 0 86.5 -16.5t68 -36t62.5 -35.5t70 -16q28 0 54.5 19t35.5 61l119 -35q-20 -85 -78 -131.5
t-139 -46.5q-56 0 -95 15.5t-71 33.5t-60 33.5t-61 15.5q-15 0 -30.5 -2t-30.5 -9.5t-27.5 -23t-19.5 -43.5l-109 53q13 47 37 78.5t54 50.5t64.5 27t69.5 8z" />
    <glyph glyph-name="ntilde" unicode="&#xf1;" horiz-adv-x="1368" 
d="M188 1036h391l-25 -106q71 59 155.5 92t178.5 33q80 0 144.5 -24t105.5 -73t54 -122t-9 -170l-114 -494h147l-39 -172h-350l149 641q28 118 -18 178t-156 60q-78 0 -148 -33.5t-133 -93.5l-173 -752h-203l200 864h-198zM725 1415q50 0 86.5 -16.5t68 -36t62.5 -35.5
t70 -16q28 0 54.5 19t35.5 61l119 -35q-20 -85 -78 -131.5t-139 -46.5q-56 0 -95 15.5t-71 33.5t-60 33.5t-61 15.5q-15 0 -30.5 -2t-30.5 -9.5t-27.5 -23t-19.5 -43.5l-109 53q13 47 37 78.5t54 50.5t64.5 27t69.5 8z" />
    <glyph glyph-name="Ncommaaccent" unicode="&#x145;" horiz-adv-x="1786" 
d="M1370 1516h491l-39 -173h-136l-308 -1343h-262l-413 1255l-249 -1083h152l-39 -172h-492l39 172h133l271 1171h-150l41 173h416l408 -1246l246 1073h-148zM733 -41l211 -84l-180 -348l-144 53z" />
    <glyph glyph-name="ncommaaccent" unicode="&#x146;" horiz-adv-x="1368" 
d="M188 1036h391l-25 -106q71 59 155.5 92t178.5 33q80 0 144.5 -24t105.5 -73t54 -122t-9 -170l-114 -494h147l-39 -172h-350l149 641q28 118 -18 178t-156 60q-78 0 -148 -33.5t-133 -93.5l-173 -752h-203l200 864h-198zM473 -41l211 -84l-180 -348l-144 53z" />
    <glyph glyph-name="Ograve" unicode="&#xd2;" horiz-adv-x="1577" 
d="M712 -31q-128 0 -243.5 49t-203 138.5t-139 216t-51.5 282.5q0 131 31 247.5t87 215.5t134.5 178t174 134t204.5 84.5t227 29.5q128 0 243.5 -44.5t203 -129.5t139 -208.5t51.5 -280.5q0 -134 -30 -254t-84.5 -221t-132 -182t-173 -137.5t-206.5 -87t-232 -30.5zM735 172
q86 0 165 24t147 68.5t123.5 107t94.5 139.5t60.5 166t21.5 187q0 109 -32.5 197t-90.5 150.5t-138 96t-175 33.5q-124 0 -235 -50t-195 -139.5t-133 -212t-49 -267.5q0 -107 32.5 -198.5t90.5 -158.5t138 -105t175 -38zM856 1698l-287 282v17h248l184 -299h-145z" />
    <glyph glyph-name="ograve" unicode="&#xf2;" 
d="M75 449q0 86 21.5 165t61 148t95 125t122.5 96t143.5 62t158.5 22q103 0 191 -36.5t152 -100t100.5 -149t36.5 -183.5q0 -87 -22 -167t-61.5 -149t-94.5 -126t-122.5 -97t-144.5 -62t-160 -22q-104 0 -191 36.5t-151 100.5t-99.5 150.5t-35.5 186.5zM284 463
q0 -70 20.5 -127.5t57.5 -98t89 -63t114 -22.5q73 0 142.5 32t122.5 89t85.5 137t32.5 176q0 70 -21.5 126t-59.5 96t-89.5 61.5t-112.5 21.5q-74 0 -142.5 -31.5t-121.5 -88t-85 -135.5t-32 -173zM622 1178l-287 282v17h248l184 -299h-145z" />
    <glyph glyph-name="Oacute" unicode="&#xd3;" horiz-adv-x="1577" 
d="M712 -31q-128 0 -243.5 49t-203 138.5t-139 216t-51.5 282.5q0 131 31 247.5t87 215.5t134.5 178t174 134t204.5 84.5t227 29.5q128 0 243.5 -44.5t203 -129.5t139 -208.5t51.5 -280.5q0 -134 -30 -254t-84.5 -221t-132 -182t-173 -137.5t-206.5 -87t-232 -30.5zM735 172
q86 0 165 24t147 68.5t123.5 107t94.5 139.5t60.5 166t21.5 187q0 109 -32.5 197t-90.5 150.5t-138 96t-175 33.5q-124 0 -235 -50t-195 -139.5t-133 -212t-49 -267.5q0 -107 32.5 -198.5t90.5 -158.5t138 -105t175 -38zM1055 1997h240v-17l-299 -282h-154z" />
    <glyph glyph-name="oacute" unicode="&#xf3;" 
d="M75 449q0 86 21.5 165t61 148t95 125t122.5 96t143.5 62t158.5 22q103 0 191 -36.5t152 -100t100.5 -149t36.5 -183.5q0 -87 -22 -167t-61.5 -149t-94.5 -126t-122.5 -97t-144.5 -62t-160 -22q-104 0 -191 36.5t-151 100.5t-99.5 150.5t-35.5 186.5zM284 463
q0 -70 20.5 -127.5t57.5 -98t89 -63t114 -22.5q73 0 142.5 32t122.5 89t85.5 137t32.5 176q0 70 -21.5 126t-59.5 96t-89.5 61.5t-112.5 21.5q-74 0 -142.5 -31.5t-121.5 -88t-85 -135.5t-32 -173zM803 1477h240v-17l-299 -282h-154z" />
    <glyph glyph-name="Ocircumflex" unicode="&#xd4;" horiz-adv-x="1577" 
d="M712 -31q-128 0 -243.5 49t-203 138.5t-139 216t-51.5 282.5q0 131 31 247.5t87 215.5t134.5 178t174 134t204.5 84.5t227 29.5q128 0 243.5 -44.5t203 -129.5t139 -208.5t51.5 -280.5q0 -134 -30 -254t-84.5 -221t-132 -182t-173 -137.5t-206.5 -87t-232 -30.5zM735 172
q86 0 165 24t147 68.5t123.5 107t94.5 139.5t60.5 166t21.5 187q0 109 -32.5 197t-90.5 150.5t-138 96t-175 33.5q-124 0 -235 -50t-195 -139.5t-133 -212t-49 -267.5q0 -107 32.5 -198.5t90.5 -158.5t138 -105t175 -38zM733 1691l297 273h111l151 -273h-170l-64 125
l-119 -125h-206z" />
    <glyph glyph-name="ocircumflex" unicode="&#xf4;" 
d="M75 449q0 86 21.5 165t61 148t95 125t122.5 96t143.5 62t158.5 22q103 0 191 -36.5t152 -100t100.5 -149t36.5 -183.5q0 -87 -22 -167t-61.5 -149t-94.5 -126t-122.5 -97t-144.5 -62t-160 -22q-104 0 -191 36.5t-151 100.5t-99.5 150.5t-35.5 186.5zM284 463
q0 -70 20.5 -127.5t57.5 -98t89 -63t114 -22.5q73 0 142.5 32t122.5 89t85.5 137t32.5 176q0 70 -21.5 126t-59.5 96t-89.5 61.5t-112.5 21.5q-74 0 -142.5 -31.5t-121.5 -88t-85 -135.5t-32 -173zM457 1202l297 273h111l151 -273h-170l-64 125l-119 -125h-206z" />
    <glyph glyph-name="Otilde" unicode="&#xd5;" horiz-adv-x="1577" 
d="M712 -31q-128 0 -243.5 49t-203 138.5t-139 216t-51.5 282.5q0 131 31 247.5t87 215.5t134.5 178t174 134t204.5 84.5t227 29.5q128 0 243.5 -44.5t203 -129.5t139 -208.5t51.5 -280.5q0 -134 -30 -254t-84.5 -221t-132 -182t-173 -137.5t-206.5 -87t-232 -30.5zM735 172
q86 0 165 24t147 68.5t123.5 107t94.5 139.5t60.5 166t21.5 187q0 109 -32.5 197t-90.5 150.5t-138 96t-175 33.5q-124 0 -235 -50t-195 -139.5t-133 -212t-49 -267.5q0 -107 32.5 -198.5t90.5 -158.5t138 -105t175 -38zM895 1935q50 0 86.5 -16.5t68 -36t62.5 -35.5t70 -16
q28 0 54.5 19t35.5 61l119 -35q-20 -85 -78 -131.5t-139 -46.5q-56 0 -95 15.5t-71 33.5t-60 33.5t-61 15.5q-15 0 -30.5 -2t-30.5 -9.5t-27.5 -23t-19.5 -43.5l-109 53q13 47 37 78.5t54 50.5t64.5 27t69.5 8z" />
    <glyph glyph-name="otilde" unicode="&#xf5;" 
d="M75 449q0 86 21.5 165t61 148t95 125t122.5 96t143.5 62t158.5 22q103 0 191 -36.5t152 -100t100.5 -149t36.5 -183.5q0 -87 -22 -167t-61.5 -149t-94.5 -126t-122.5 -97t-144.5 -62t-160 -22q-104 0 -191 36.5t-151 100.5t-99.5 150.5t-35.5 186.5zM284 463
q0 -70 20.5 -127.5t57.5 -98t89 -63t114 -22.5q73 0 142.5 32t122.5 89t85.5 137t32.5 176q0 70 -21.5 126t-59.5 96t-89.5 61.5t-112.5 21.5q-74 0 -142.5 -31.5t-121.5 -88t-85 -135.5t-32 -173zM625 1446q50 0 86.5 -16.5t68 -36t62.5 -35.5t70 -16q28 0 54.5 19t35.5 61
l119 -35q-20 -85 -78 -131.5t-139 -46.5q-56 0 -95 15.5t-71 33.5t-60 33.5t-61 15.5q-15 0 -30.5 -2t-30.5 -9.5t-27.5 -23t-19.5 -43.5l-109 53q13 47 37 78.5t54 50.5t64.5 27t69.5 8z" />
    <glyph glyph-name="Odieresis" unicode="&#xd6;" horiz-adv-x="1577" 
d="M712 -31q-128 0 -243.5 49t-203 138.5t-139 216t-51.5 282.5q0 131 31 247.5t87 215.5t134.5 178t174 134t204.5 84.5t227 29.5q128 0 243.5 -44.5t203 -129.5t139 -208.5t51.5 -280.5q0 -134 -30 -254t-84.5 -221t-132 -182t-173 -137.5t-206.5 -87t-232 -30.5zM735 172
q86 0 165 24t147 68.5t123.5 107t94.5 139.5t60.5 166t21.5 187q0 109 -32.5 197t-90.5 150.5t-138 96t-175 33.5q-124 0 -235 -50t-195 -139.5t-133 -212t-49 -267.5q0 -107 32.5 -198.5t90.5 -158.5t138 -105t175 -38zM651 1880q0 26 10.5 49.5t28 41t41 28t49.5 10.5
q25 0 48 -10.5t40 -28t27 -41t10 -49.5q0 -27 -10 -51t-27 -42.5t-40 -29t-48 -10.5q-26 0 -49.5 10.5t-41 29t-28 42.5t-10.5 51zM1110 1880q0 26 10.5 49.5t28 41t41 28t49.5 10.5q25 0 47.5 -10.5t40 -28t27.5 -41t10 -49.5q0 -27 -10 -51t-27.5 -42.5t-40 -29
t-47.5 -10.5q-26 0 -49.5 10.5t-41 29t-28 42.5t-10.5 51z" />
    <glyph glyph-name="odieresis" unicode="&#xf6;" 
d="M75 449q0 86 21.5 165t61 148t95 125t122.5 96t143.5 62t158.5 22q103 0 191 -36.5t152 -100t100.5 -149t36.5 -183.5q0 -87 -22 -167t-61.5 -149t-94.5 -126t-122.5 -97t-144.5 -62t-160 -22q-104 0 -191 36.5t-151 100.5t-99.5 150.5t-35.5 186.5zM284 463
q0 -70 20.5 -127.5t57.5 -98t89 -63t114 -22.5q73 0 142.5 32t122.5 89t85.5 137t32.5 176q0 70 -21.5 126t-59.5 96t-89.5 61.5t-112.5 21.5q-74 0 -142.5 -31.5t-121.5 -88t-85 -135.5t-32 -173zM400 1391q0 26 10.5 49.5t28 41t41 28t49.5 10.5q25 0 48 -10.5t40 -28
t27 -41t10 -49.5q0 -27 -10 -51t-27 -42.5t-40 -29t-48 -10.5q-26 0 -49.5 10.5t-41 29t-28 42.5t-10.5 51zM859 1391q0 26 10.5 49.5t28 41t41 28t49.5 10.5q25 0 47.5 -10.5t40 -28t27.5 -41t10 -49.5q0 -27 -10 -51t-27.5 -42.5t-40 -29t-47.5 -10.5q-26 0 -49.5 10.5
t-41 29t-28 42.5t-10.5 51z" />
    <glyph glyph-name="Ohungarumlaut" unicode="&#x150;" horiz-adv-x="1577" 
d="M712 -31q-128 0 -243.5 49t-203 138.5t-139 216t-51.5 282.5q0 131 31 247.5t87 215.5t134.5 178t174 134t204.5 84.5t227 29.5q128 0 243.5 -44.5t203 -129.5t139 -208.5t51.5 -280.5q0 -134 -30 -254t-84.5 -221t-132 -182t-173 -137.5t-206.5 -87t-232 -30.5zM735 172
q86 0 165 24t147 68.5t123.5 107t94.5 139.5t60.5 166t21.5 187q0 109 -32.5 197t-90.5 150.5t-138 96t-175 33.5q-124 0 -235 -50t-195 -139.5t-133 -212t-49 -267.5q0 -107 32.5 -198.5t90.5 -158.5t138 -105t175 -38zM1431 2034l-243 -321h-140l201 321h182zM1146 2034
l-243 -321h-138l198 321h183z" />
    <glyph glyph-name="ohungarumlaut" unicode="&#x151;" 
d="M75 449q0 86 21.5 165t61 148t95 125t122.5 96t143.5 62t158.5 22q103 0 191 -36.5t152 -100t100.5 -149t36.5 -183.5q0 -87 -22 -167t-61.5 -149t-94.5 -126t-122.5 -97t-144.5 -62t-160 -22q-104 0 -191 36.5t-151 100.5t-99.5 150.5t-35.5 186.5zM284 463
q0 -70 20.5 -127.5t57.5 -98t89 -63t114 -22.5q73 0 142.5 32t122.5 89t85.5 137t32.5 176q0 70 -21.5 126t-59.5 96t-89.5 61.5t-112.5 21.5q-74 0 -142.5 -31.5t-121.5 -88t-85 -135.5t-32 -173zM1179 1545l-243 -321h-140l201 321h182zM894 1545l-243 -321h-138l198 321
h183z" />
    <glyph glyph-name="Omacron" unicode="&#x14c;" horiz-adv-x="1577" 
d="M712 -31q-128 0 -243.5 49t-203 138.5t-139 216t-51.5 282.5q0 131 31 247.5t87 215.5t134.5 178t174 134t204.5 84.5t227 29.5q128 0 243.5 -44.5t203 -129.5t139 -208.5t51.5 -280.5q0 -134 -30 -254t-84.5 -221t-132 -182t-173 -137.5t-206.5 -87t-232 -30.5zM735 172
q86 0 165 24t147 68.5t123.5 107t94.5 139.5t60.5 166t21.5 187q0 109 -32.5 197t-90.5 150.5t-138 96t-175 33.5q-124 0 -235 -50t-195 -139.5t-133 -212t-49 -267.5q0 -107 32.5 -198.5t90.5 -158.5t138 -105t175 -38zM1358 1749h-743l26 117h744z" />
    <glyph glyph-name="omacron" unicode="&#x14d;" 
d="M75 449q0 86 21.5 165t61 148t95 125t122.5 96t143.5 62t158.5 22q103 0 191 -36.5t152 -100t100.5 -149t36.5 -183.5q0 -87 -22 -167t-61.5 -149t-94.5 -126t-122.5 -97t-144.5 -62t-160 -22q-104 0 -191 36.5t-151 100.5t-99.5 150.5t-35.5 186.5zM284 463
q0 -70 20.5 -127.5t57.5 -98t89 -63t114 -22.5q73 0 142.5 32t122.5 89t85.5 137t32.5 176q0 70 -21.5 126t-59.5 96t-89.5 61.5t-112.5 21.5q-74 0 -142.5 -31.5t-121.5 -88t-85 -135.5t-32 -173zM1106 1260h-743l26 117h744z" />
    <glyph glyph-name="Racute" unicode="&#x154;" horiz-adv-x="1438" 
d="M409 1516h617q87 0 158 -26t121.5 -73t78 -112.5t27.5 -143.5q0 -81 -27.5 -149.5t-74 -122t-108 -92t-129.5 -60.5q39 -28 66 -84t29 -133l6 -348h129l-39 -172h-293l-6 461q-2 125 -57 183t-166 58h-163l-121 -530h149l-39 -172h-492l39 172h134l270 1171h-150z
M725 1343l-108 -473h237q75 0 138.5 17t109.5 52t72 88t26 124q0 42 -14 77.5t-43.5 61t-75 39.5t-107.5 14h-235zM995 1956h240v-17l-299 -282h-154z" />
    <glyph glyph-name="racute" unicode="&#x155;" horiz-adv-x="1053" 
d="M958 750h-203l29 122q-97 0 -165 -49.5t-112 -130.5l-120 -520h172l-39 -172h-375l200 864h-198l41 172h391l-33 -142q28 32 60 59.5t67.5 47.5t74 31.5t77.5 11.5q36 0 62 -1t55.5 -3.5t81.5 -9.5zM750 1477h240v-17l-299 -282h-154z" />
    <glyph glyph-name="Rcaron" unicode="&#x158;" horiz-adv-x="1438" 
d="M409 1516h617q87 0 158 -26t121.5 -73t78 -112.5t27.5 -143.5q0 -81 -27.5 -149.5t-74 -122t-108 -92t-129.5 -60.5q39 -28 66 -84t29 -133l6 -348h129l-39 -172h-293l-6 461q-2 125 -57 183t-166 58h-163l-121 -530h149l-39 -172h-492l39 172h134l270 1171h-150z
M725 1343l-108 -473h237q75 0 138.5 17t109.5 52t72 88t26 124q0 42 -14 77.5t-43.5 61t-75 39.5t-107.5 14h-235zM1334 1923l-297 -273h-113l-149 273h166l67 -129l129 129h197z" />
    <glyph glyph-name="rcaron" unicode="&#x159;" horiz-adv-x="1053" 
d="M958 750h-203l29 122q-97 0 -165 -49.5t-112 -130.5l-120 -520h172l-39 -172h-375l200 864h-198l41 172h391l-33 -142q28 32 60 59.5t67.5 47.5t74 31.5t77.5 11.5q36 0 62 -1t55.5 -3.5t81.5 -9.5zM1038 1444l-297 -273h-113l-149 273h166l67 -129l129 129h197z" />
    <glyph glyph-name="Rcommaaccent" unicode="&#x156;" horiz-adv-x="1438" 
d="M409 1516h617q87 0 158 -26t121.5 -73t78 -112.5t27.5 -143.5q0 -81 -27.5 -149.5t-74 -122t-108 -92t-129.5 -60.5q39 -28 66 -84t29 -133l6 -348h129l-39 -172h-293l-6 461q-2 125 -57 183t-166 58h-163l-121 -530h149l-39 -172h-492l39 172h134l270 1171h-150z
M725 1343l-108 -473h237q75 0 138.5 17t109.5 52t72 88t26 124q0 42 -14 77.5t-43.5 61t-75 39.5t-107.5 14h-235zM670 -41l211 -84l-180 -348l-144 53z" />
    <glyph glyph-name="rcommaaccent" unicode="&#x157;" horiz-adv-x="1053" 
d="M958 750h-203l29 122q-97 0 -165 -49.5t-112 -130.5l-120 -520h172l-39 -172h-375l200 864h-198l41 172h391l-33 -142q28 32 60 59.5t67.5 47.5t74 31.5t77.5 11.5q36 0 62 -1t55.5 -3.5t81.5 -9.5zM233 -41l211 -84l-180 -348l-144 53z" />
    <glyph glyph-name="Sacute" unicode="&#x15a;" horiz-adv-x="1278" 
d="M1080 1137q12 53 -4.5 94t-52.5 69.5t-87 43t-108 14.5q-83 0 -148.5 -22t-110.5 -60t-69 -88.5t-24 -106.5q0 -50 19 -81t48 -51t64.5 -32t68.5 -24l187 -68q72 -24 126 -57t90 -76.5t54 -99t18 -125.5q0 -111 -43 -203t-120.5 -157.5t-186.5 -101.5t-241 -36
q-119 0 -201.5 25.5t-135.5 69t-79.5 99.5t-33.5 118h-95l39 159h272l-18 -74q-14 -108 63 -161t223 -53q75 0 138 21t108.5 58.5t71.5 90t26 114.5q0 48 -17 83t-46.5 60.5t-69 44t-84.5 33.5l-174 56q-136 43 -206 128t-70 218q0 102 39 189.5t113.5 152t181 101
t241.5 36.5q85 0 156 -19t125.5 -53t92 -82t54.5 -106h101l-39 -160h-260zM947 1956h240v-17l-299 -282h-154z" />
    <glyph glyph-name="sacute" unicode="&#x15b;" horiz-adv-x="1012" 
d="M749 748q-1 39 -15.5 69t-40 50.5t-60 31t-74.5 10.5t-76 -9.5t-63 -28.5t-42.5 -46t-15.5 -61q0 -40 25.5 -66.5t80.5 -48.5l193 -69q88 -32 134 -99.5t46 -163.5q0 -86 -31.5 -151t-87.5 -109t-133.5 -66t-169.5 -22q-56 0 -107 9t-94.5 27.5t-76 46t-50.5 63.5h-106
l41 172h211q-5 -39 10 -69t43 -50.5t66.5 -30.5t81.5 -10t80.5 11t65.5 32t44.5 52t16.5 71q0 38 -27 69.5t-84 51.5l-184 67q-89 35 -137 102.5t-48 151.5q0 74 26 135t77 105t128 68t179 24q59 0 109 -11.5t89 -31.5t67 -46.5t45 -57.5h112l-41 -172h-207v0zM697 1477h240
v-17l-299 -282h-154z" />
    <glyph glyph-name="Scaron" unicode="&#x160;" horiz-adv-x="1278" 
d="M1080 1137q12 53 -4.5 94t-52.5 69.5t-87 43t-108 14.5q-83 0 -148.5 -22t-110.5 -60t-69 -88.5t-24 -106.5q0 -50 19 -81t48 -51t64.5 -32t68.5 -24l187 -68q72 -24 126 -57t90 -76.5t54 -99t18 -125.5q0 -111 -43 -203t-120.5 -157.5t-186.5 -101.5t-241 -36
q-119 0 -201.5 25.5t-135.5 69t-79.5 99.5t-33.5 118h-95l39 159h272l-18 -74q-14 -108 63 -161t223 -53q75 0 138 21t108.5 58.5t71.5 90t26 114.5q0 48 -17 83t-46.5 60.5t-69 44t-84.5 33.5l-174 56q-136 43 -206 128t-70 218q0 102 39 189.5t113.5 152t181 101
t241.5 36.5q85 0 156 -19t125.5 -53t92 -82t54.5 -106h101l-39 -160h-260zM1218 1923l-297 -273h-113l-149 273h166l67 -129l129 129h197z" />
    <glyph glyph-name="scaron" unicode="&#x161;" horiz-adv-x="1012" 
d="M749 748q-1 39 -15.5 69t-40 50.5t-60 31t-74.5 10.5t-76 -9.5t-63 -28.5t-42.5 -46t-15.5 -61q0 -40 25.5 -66.5t80.5 -48.5l193 -69q88 -32 134 -99.5t46 -163.5q0 -86 -31.5 -151t-87.5 -109t-133.5 -66t-169.5 -22q-56 0 -107 9t-94.5 27.5t-76 46t-50.5 63.5h-106
l41 172h211q-5 -39 10 -69t43 -50.5t66.5 -30.5t81.5 -10t80.5 11t65.5 32t44.5 52t16.5 71q0 38 -27 69.5t-84 51.5l-184 67q-89 35 -137 102.5t-48 151.5q0 74 26 135t77 105t128 68t179 24q59 0 109 -11.5t89 -31.5t67 -46.5t45 -57.5h112l-41 -172h-207v0zM968 1444
l-297 -273h-113l-149 273h166l67 -129l129 129h197z" />
    <glyph glyph-name="Scedilla" unicode="&#x15e;" horiz-adv-x="1278" 
d="M1080 1137q12 53 -4.5 94t-52.5 69.5t-87 43t-108 14.5q-83 0 -148.5 -22t-110.5 -60t-69 -88.5t-24 -106.5q0 -50 19 -81t48 -51t64.5 -32t68.5 -24l187 -68q72 -24 126 -57t90 -76.5t54 -99t18 -125.5q0 -111 -43 -203t-120.5 -157.5t-186.5 -101.5t-241 -36
q-119 0 -201.5 25.5t-135.5 69t-79.5 99.5t-33.5 118h-95l39 159h272l-18 -74q-14 -108 63 -161t223 -53q75 0 138 21t108.5 58.5t71.5 90t26 114.5q0 48 -17 83t-46.5 60.5t-69 44t-84.5 33.5l-174 56q-136 43 -206 128t-70 218q0 102 39 189.5t113.5 152t181 101
t241.5 36.5q85 0 156 -19t125.5 -53t92 -82t54.5 -106h101l-39 -160h-260zM182 -303q55 1 99.5 19.5t78 48.5t55 70.5t29.5 86.5l150 -45q-18 -73 -56 -130.5t-90.5 -97t-117.5 -60.5t-137 -21z" />
    <glyph glyph-name="scedilla" unicode="&#x15f;" horiz-adv-x="1012" 
d="M749 748q-1 39 -15.5 69t-40 50.5t-60 31t-74.5 10.5t-76 -9.5t-63 -28.5t-42.5 -46t-15.5 -61q0 -40 25.5 -66.5t80.5 -48.5l193 -69q88 -32 134 -99.5t46 -163.5q0 -86 -31.5 -151t-87.5 -109t-133.5 -66t-169.5 -22q-56 0 -107 9t-94.5 27.5t-76 46t-50.5 63.5h-106
l41 172h211q-5 -39 10 -69t43 -50.5t66.5 -30.5t81.5 -10t80.5 11t65.5 32t44.5 52t16.5 71q0 38 -27 69.5t-84 51.5l-184 67q-89 35 -137 102.5t-48 151.5q0 74 26 135t77 105t128 68t179 24q59 0 109 -11.5t89 -31.5t67 -46.5t45 -57.5h112l-41 -172h-207v0zM57 -303
q55 1 99.5 19.5t78 48.5t55 70.5t29.5 86.5l150 -45q-18 -73 -56 -130.5t-90.5 -97t-117.5 -60.5t-137 -21z" />
    <glyph glyph-name="Scommaaccent" unicode="&#x218;" horiz-adv-x="1278" 
d="M1080 1137q12 53 -4.5 94t-52.5 69.5t-87 43t-108 14.5q-83 0 -148.5 -22t-110.5 -60t-69 -88.5t-24 -106.5q0 -50 19 -81t48 -51t64.5 -32t68.5 -24l187 -68q72 -24 126 -57t90 -76.5t54 -99t18 -125.5q0 -111 -43 -203t-120.5 -157.5t-186.5 -101.5t-241 -36
q-119 0 -201.5 25.5t-135.5 69t-79.5 99.5t-33.5 118h-95l39 159h272l-18 -74q-14 -108 63 -161t223 -53q75 0 138 21t108.5 58.5t71.5 90t26 114.5q0 48 -17 83t-46.5 60.5t-69 44t-84.5 33.5l-174 56q-136 43 -206 128t-70 218q0 102 39 189.5t113.5 152t181 101
t241.5 36.5q85 0 156 -19t125.5 -53t92 -82t54.5 -106h101l-39 -160h-260zM433 -41l211 -84l-180 -348l-144 53z" />
    <glyph glyph-name="scommaaccent" unicode="&#x219;" horiz-adv-x="1012" 
d="M749 748q-1 39 -15.5 69t-40 50.5t-60 31t-74.5 10.5t-76 -9.5t-63 -28.5t-42.5 -46t-15.5 -61q0 -40 25.5 -66.5t80.5 -48.5l193 -69q88 -32 134 -99.5t46 -163.5q0 -86 -31.5 -151t-87.5 -109t-133.5 -66t-169.5 -22q-56 0 -107 9t-94.5 27.5t-76 46t-50.5 63.5h-106
l41 172h211q-5 -39 10 -69t43 -50.5t66.5 -30.5t81.5 -10t80.5 11t65.5 32t44.5 52t16.5 71q0 38 -27 69.5t-84 51.5l-184 67q-89 35 -137 102.5t-48 151.5q0 74 26 135t77 105t128 68t179 24q59 0 109 -11.5t89 -31.5t67 -46.5t45 -57.5h112l-41 -172h-207v0zM308 -41
l211 -84l-180 -348l-144 53z" />
    <glyph glyph-name="Tcommaaccent" unicode="&#x162;" horiz-adv-x="1362" 
d="M348 172h140l272 1180h-367l-53 -236h-205l92 400h1352l-93 -400h-204l53 236h-368l-270 -1180h142l-39 -172h-491zM418 -41l211 -84l-180 -348l-144 53z" />
    <glyph glyph-name="tcommaaccent" unicode="&#x163;" horiz-adv-x="778" 
d="M186 1036h173l61 248l211 86l-79 -334h218l-41 -172h-218l-132 -559q-5 -20 -9.5 -40.5t-4.5 -43.5q0 -45 24.5 -63.5t77.5 -18.5q57 0 137 33l17 -143q-53 -25 -102 -39.5t-109 -14.5q-63 0 -115 15.5t-86 51t-45 93t8 141.5l144 588h-171zM303 -41l211 -84l-180 -348
l-144 53z" />
    <glyph glyph-name="Tcaron" unicode="&#x164;" horiz-adv-x="1362" 
d="M348 172h140l272 1180h-367l-53 -236h-205l92 400h1352l-93 -400h-204l53 236h-368l-270 -1180h142l-39 -172h-491zM1258 1923l-297 -273h-113l-149 273h166l67 -129l129 129h197z" />
    <glyph glyph-name="tcaron" unicode="&#x165;" horiz-adv-x="780" 
d="M186 1036h173l61 248l211 86l-79 -334h218l-41 -172h-218l-132 -559q-5 -20 -9.5 -40.5t-4.5 -43.5q0 -45 24.5 -63.5t77.5 -18.5q57 0 137 33l17 -143q-53 -25 -102 -39.5t-109 -14.5q-63 0 -115 15.5t-86 51t-45 93t8 141.5l144 588h-171zM832 1059h-125l71 510l183 12
z" />
    <glyph glyph-name="Ugrave" unicode="&#xd9;" horiz-adv-x="1581" 
d="M282 1516h492l-39 -173h-140l-161 -704q-8 -35 -14.5 -74.5t-6.5 -89.5q-1 -55 17 -108.5t56 -96t97 -68.5t141 -26q83 0 153.5 23.5t127.5 78t100.5 143t73.5 218.5l162 704h-152l39 173h492l-39 -173h-133l-166 -722q-39 -171 -103.5 -293.5t-150.5 -201t-192 -115
t-230 -36.5q-109 0 -202.5 32.5t-161 94t-105 150.5t-35.5 203q0 45 6 89.5t17 94.5l162 704h-144zM893 1658l-287 282v17h248l184 -299h-145z" />
    <glyph glyph-name="ugrave" unicode="&#xf9;" horiz-adv-x="1290" 
d="M843 1036h336l-200 -864h155l-39 -172h-348l24 105q-32 -33 -69 -56.5t-75.5 -38t-76 -21.5t-69.5 -7q-68 0 -128.5 19.5t-101.5 57.5q-25 25 -46.5 58.5t-33.5 80.5t-11 109t20 144l95 413h-140l41 172h340l-123 -526q-44 -186 -3.5 -273t171.5 -87q58 0 102.5 19.5
t81 54.5t61.5 74l132 566h-136zM632 1178l-287 282v17h248l184 -299h-145z" />
    <glyph glyph-name="Uacute" unicode="&#xda;" horiz-adv-x="1581" 
d="M282 1516h492l-39 -173h-140l-161 -704q-8 -35 -14.5 -74.5t-6.5 -89.5q-1 -55 17 -108.5t56 -96t97 -68.5t141 -26q83 0 153.5 23.5t127.5 78t100.5 143t73.5 218.5l162 704h-152l39 173h492l-39 -173h-133l-166 -722q-39 -171 -103.5 -293.5t-150.5 -201t-192 -115
t-230 -36.5q-109 0 -202.5 32.5t-161 94t-105 150.5t-35.5 203q0 45 6 89.5t17 94.5l162 704h-144zM1107 1957h240v-17l-299 -282h-154z" />
    <glyph glyph-name="uacute" unicode="&#xfa;" horiz-adv-x="1290" 
d="M843 1036h336l-200 -864h155l-39 -172h-348l24 105q-32 -33 -69 -56.5t-75.5 -38t-76 -21.5t-69.5 -7q-68 0 -128.5 19.5t-101.5 57.5q-25 25 -46.5 58.5t-33.5 80.5t-11 109t20 144l95 413h-140l41 172h340l-123 -526q-44 -186 -3.5 -273t171.5 -87q58 0 102.5 19.5
t81 54.5t61.5 74l132 566h-136zM797 1477h240v-17l-299 -282h-154z" />
    <glyph glyph-name="Ucircumflex" unicode="&#xdb;" horiz-adv-x="1581" 
d="M282 1516h492l-39 -173h-140l-161 -704q-8 -35 -14.5 -74.5t-6.5 -89.5q-1 -55 17 -108.5t56 -96t97 -68.5t141 -26q83 0 153.5 23.5t127.5 78t100.5 143t73.5 218.5l162 704h-152l39 173h492l-39 -173h-133l-166 -722q-39 -171 -103.5 -293.5t-150.5 -201t-192 -115
t-230 -36.5q-109 0 -202.5 32.5t-161 94t-105 150.5t-35.5 203q0 45 6 89.5t17 94.5l162 704h-144zM770 1651l297 273h111l151 -273h-170l-64 125l-119 -125h-206z" />
    <glyph glyph-name="ucircumflex" unicode="&#xfb;" horiz-adv-x="1290" 
d="M843 1036h336l-200 -864h155l-39 -172h-348l24 105q-32 -33 -69 -56.5t-75.5 -38t-76 -21.5t-69.5 -7q-68 0 -128.5 19.5t-101.5 57.5q-25 25 -46.5 58.5t-33.5 80.5t-11 109t20 144l95 413h-140l41 172h340l-123 -526q-44 -186 -3.5 -273t171.5 -87q58 0 102.5 19.5
t81 54.5t61.5 74l132 566h-136zM454 1171l297 273h111l151 -273h-170l-64 125l-119 -125h-206z" />
    <glyph glyph-name="Udieresis" unicode="&#xdc;" horiz-adv-x="1581" 
d="M282 1516h492l-39 -173h-140l-161 -704q-8 -35 -14.5 -74.5t-6.5 -89.5q-1 -55 17 -108.5t56 -96t97 -68.5t141 -26q83 0 153.5 23.5t127.5 78t100.5 143t73.5 218.5l162 704h-152l39 173h492l-39 -173h-133l-166 -722q-39 -171 -103.5 -293.5t-150.5 -201t-192 -115
t-230 -36.5q-109 0 -202.5 32.5t-161 94t-105 150.5t-35.5 203q0 45 6 89.5t17 94.5l162 704h-144zM689 1840q0 26 10.5 49.5t28 41t41 28t49.5 10.5q25 0 48 -10.5t40 -28t27 -41t10 -49.5q0 -27 -10 -51t-27 -42.5t-40 -29t-48 -10.5q-26 0 -49.5 10.5t-41 29t-28 42.5
t-10.5 51zM1148 1840q0 26 10.5 49.5t28 41t41 28t49.5 10.5q25 0 47.5 -10.5t40 -28t27.5 -41t10 -49.5q0 -27 -10 -51t-27.5 -42.5t-40 -29t-47.5 -10.5q-26 0 -49.5 10.5t-41 29t-28 42.5t-10.5 51z" />
    <glyph glyph-name="udieresis" unicode="&#xfc;" horiz-adv-x="1290" 
d="M843 1036h336l-200 -864h155l-39 -172h-348l24 105q-32 -33 -69 -56.5t-75.5 -38t-76 -21.5t-69.5 -7q-68 0 -128.5 19.5t-101.5 57.5q-25 25 -46.5 58.5t-33.5 80.5t-11 109t20 144l95 413h-140l41 172h340l-123 -526q-44 -186 -3.5 -273t171.5 -87q58 0 102.5 19.5
t81 54.5t61.5 74l132 566h-136zM373 1360q0 26 10.5 49.5t28 41t41 28t49.5 10.5q25 0 48 -10.5t40 -28t27 -41t10 -49.5q0 -27 -10 -51t-27 -42.5t-40 -29t-48 -10.5q-26 0 -49.5 10.5t-41 29t-28 42.5t-10.5 51zM832 1360q0 26 10.5 49.5t28 41t41 28t49.5 10.5
q25 0 47.5 -10.5t40 -28t27.5 -41t10 -49.5q0 -27 -10 -51t-27.5 -42.5t-40 -29t-47.5 -10.5q-26 0 -49.5 10.5t-41 29t-28 42.5t-10.5 51z" />
    <glyph glyph-name="Umacron" unicode="&#x16a;" horiz-adv-x="1581" 
d="M282 1516h492l-39 -173h-140l-161 -704q-8 -35 -14.5 -74.5t-6.5 -89.5q-1 -55 17 -108.5t56 -96t97 -68.5t141 -26q83 0 153.5 23.5t127.5 78t100.5 143t73.5 218.5l162 704h-152l39 173h492l-39 -173h-133l-166 -722q-39 -171 -103.5 -293.5t-150.5 -201t-192 -115
t-230 -36.5q-109 0 -202.5 32.5t-161 94t-105 150.5t-35.5 203q0 45 6 89.5t17 94.5l162 704h-144zM1395 1709h-743l26 117h744z" />
    <glyph glyph-name="umacron" unicode="&#x16b;" horiz-adv-x="1290" 
d="M843 1036h336l-200 -864h155l-39 -172h-348l24 105q-32 -33 -69 -56.5t-75.5 -38t-76 -21.5t-69.5 -7q-68 0 -128.5 19.5t-101.5 57.5q-25 25 -46.5 58.5t-33.5 80.5t-11 109t20 144l95 413h-140l41 172h340l-123 -526q-44 -186 -3.5 -273t171.5 -87q58 0 102.5 19.5
t81 54.5t61.5 74l132 566h-136zM1079 1229h-743l26 117h744z" />
    <glyph glyph-name="Uring" unicode="&#x16e;" horiz-adv-x="1581" 
d="M282 1516h492l-39 -173h-140l-161 -704q-8 -35 -14.5 -74.5t-6.5 -89.5q-1 -55 17 -108.5t56 -96t97 -68.5t141 -26q83 0 153.5 23.5t127.5 78t100.5 143t73.5 218.5l162 704h-152l39 173h492l-39 -173h-133l-166 -722q-39 -171 -103.5 -293.5t-150.5 -201t-192 -115
t-230 -36.5q-109 0 -202.5 32.5t-161 94t-105 150.5t-35.5 203q0 45 6 89.5t17 94.5l162 704h-144zM992 1822q0 -21 8.5 -39.5t23 -33t33 -23t39.5 -8.5t40 8.5t33.5 23t23 33t8.5 39.5t-8.5 40t-23 33.5t-33.5 23t-40 8.5t-39.5 -8.5t-33 -23t-23 -33.5t-8.5 -40z
M1096 2078q52 0 99 -20.5t81.5 -55t55 -81.5t20.5 -99t-20.5 -98.5t-55 -81.5t-81.5 -55.5t-99 -20.5t-98.5 20.5t-81.5 55.5t-55.5 81.5t-20.5 98.5t20.5 99t55.5 81.5t81.5 55t98.5 20.5z" />
    <glyph glyph-name="uring" unicode="&#x16f;" horiz-adv-x="1290" 
d="M843 1036h336l-200 -864h155l-39 -172h-348l24 105q-32 -33 -69 -56.5t-75.5 -38t-76 -21.5t-69.5 -7q-68 0 -128.5 19.5t-101.5 57.5q-25 25 -46.5 58.5t-33.5 80.5t-11 109t20 144l95 413h-140l41 172h340l-123 -526q-44 -186 -3.5 -273t171.5 -87q58 0 102.5 19.5
t81 54.5t61.5 74l132 566h-136zM676 1342q0 -21 8.5 -39.5t23 -33t33 -23t39.5 -8.5t40 8.5t33.5 23t23 33t8.5 39.5t-8.5 40t-23 33.5t-33.5 23t-40 8.5t-39.5 -8.5t-33 -23t-23 -33.5t-8.5 -40zM780 1598q52 0 99 -20.5t81.5 -55t55 -81.5t20.5 -99t-20.5 -98.5t-55 -81.5
t-81.5 -55.5t-99 -20.5t-98.5 20.5t-81.5 55.5t-55.5 81.5t-20.5 98.5t20.5 99t55.5 81.5t81.5 55t98.5 20.5z" />
    <glyph glyph-name="Uhungarumlaut" unicode="&#x170;" horiz-adv-x="1581" 
d="M282 1516h492l-39 -173h-140l-161 -704q-8 -35 -14.5 -74.5t-6.5 -89.5q-1 -55 17 -108.5t56 -96t97 -68.5t141 -26q83 0 153.5 23.5t127.5 78t100.5 143t73.5 218.5l162 704h-152l39 173h492l-39 -173h-133l-166 -722q-39 -171 -103.5 -293.5t-150.5 -201t-192 -115
t-230 -36.5q-109 0 -202.5 32.5t-161 94t-105 150.5t-35.5 203q0 45 6 89.5t17 94.5l162 704h-144zM1468 1994l-243 -321h-140l201 321h182zM1183 1994l-243 -321h-138l198 321h183z" />
    <glyph glyph-name="uhungarumlaut" unicode="&#x171;" horiz-adv-x="1290" 
d="M843 1036h336l-200 -864h155l-39 -172h-348l24 105q-32 -33 -69 -56.5t-75.5 -38t-76 -21.5t-69.5 -7q-68 0 -128.5 19.5t-101.5 57.5q-25 25 -46.5 58.5t-33.5 80.5t-11 109t20 144l95 413h-140l41 172h340l-123 -526q-44 -186 -3.5 -273t171.5 -87q58 0 102.5 19.5
t81 54.5t61.5 74l132 566h-136zM1152 1514l-243 -321h-140l201 321h182zM867 1514l-243 -321h-138l198 321h183z" />
    <glyph glyph-name="Yacute" unicode="&#xdd;" horiz-adv-x="1323" 
d="M214 1516h491l-39 -173h-122l175 -473l411 473h-122l39 173h492l-39 -173h-123l-586 -656l-120 -515h141l-39 -172h-492l39 172h141l120 519l-259 652h-147zM957 1957h240v-17l-299 -282h-154z" />
    <glyph glyph-name="yacute" unicode="&#xfd;" horiz-adv-x="1165" 
d="M148 1036h379l-41 -172h-79l61 -639l408 639h-85l41 172h379l-41 -172h-87l-741 -1163h101l-43 -172h-410l43 172h101l185 290l-114 873h-98zM698 1508h240v-17l-299 -282h-154z" />
    <glyph glyph-name="Ydieresis" unicode="&#x178;" horiz-adv-x="1323" 
d="M214 1516h491l-39 -173h-122l175 -473l411 473h-122l39 173h492l-39 -173h-123l-586 -656l-120 -515h141l-39 -172h-492l39 172h141l120 519l-259 652h-147zM554 1840q0 26 10.5 49.5t28 41t41 28t49.5 10.5q25 0 48 -10.5t40 -28t27 -41t10 -49.5q0 -27 -10 -51
t-27 -42.5t-40 -29t-48 -10.5q-26 0 -49.5 10.5t-41 29t-28 42.5t-10.5 51zM1013 1840q0 26 10.5 49.5t28 41t41 28t49.5 10.5q25 0 47.5 -10.5t40 -28t27.5 -41t10 -49.5q0 -27 -10 -51t-27.5 -42.5t-40 -29t-47.5 -10.5q-26 0 -49.5 10.5t-41 29t-28 42.5t-10.5 51z" />
    <glyph glyph-name="ydieresis" unicode="&#xff;" horiz-adv-x="1165" 
d="M148 1036h379l-41 -172h-79l61 -639l408 639h-85l41 172h379l-41 -172h-87l-741 -1163h101l-43 -172h-410l43 172h101l185 290l-114 873h-98zM342 1391q0 26 10.5 49.5t28 41t41 28t49.5 10.5q25 0 48 -10.5t40 -28t27 -41t10 -49.5q0 -27 -10 -51t-27 -42.5t-40 -29
t-48 -10.5q-26 0 -49.5 10.5t-41 29t-28 42.5t-10.5 51zM801 1391q0 26 10.5 49.5t28 41t41 28t49.5 10.5q25 0 47.5 -10.5t40 -28t27.5 -41t10 -49.5q0 -27 -10 -51t-27.5 -42.5t-40 -29t-47.5 -10.5q-26 0 -49.5 10.5t-41 29t-28 42.5t-10.5 51z" />
    <glyph glyph-name="Zacute" unicode="&#x179;" horiz-adv-x="1298" 
d="M1390 1298l-1152 -1120h681l57 252h207l-98 -430h-1110l51 231l1135 1108h-660l-59 -258h-207l100 435h1102zM972 1956h240v-17l-299 -282h-154z" />
    <glyph glyph-name="zacute" unicode="&#x17a;" horiz-adv-x="995" 
d="M10 117l718 760h-337l-35 -148h-197l72 307h790l-26 -121l-714 -755h366l41 178h196l-78 -338h-821zM697 1477h240v-17l-299 -282h-154z" />
    <glyph glyph-name="Zdotaccent" unicode="&#x17b;" horiz-adv-x="1298" 
d="M1390 1298l-1152 -1120h681l57 252h207l-98 -430h-1110l51 231l1135 1108h-660l-59 -258h-207l100 435h1102zM809 -1121q0 26 10.5 49.5t28 41t41.5 28t51 10.5q26 0 49.5 -10.5t41 -28t28 -41t10.5 -49.5q0 -27 -10.5 -51t-28 -42.5t-41 -29t-49.5 -10.5q-27 0 -51 10.5
t-41.5 29t-28 42.5t-10.5 51z" />
    <glyph glyph-name="zdotaccent" unicode="&#x17c;" horiz-adv-x="995" 
d="M10 117l718 760h-337l-35 -148h-197l72 307h790l-26 -121l-714 -755h366l41 178h196l-78 -338h-821zM477 -1600q0 26 10.5 49.5t28 41t41.5 28t51 10.5q26 0 49.5 -10.5t41 -28t28 -41t10.5 -49.5q0 -27 -10.5 -51t-28 -42.5t-41 -29t-49.5 -10.5q-27 0 -51 10.5
t-41.5 29t-28 42.5t-10.5 51z" />
    <glyph glyph-name="Zcaron" unicode="&#x17d;" horiz-adv-x="1298" 
d="M1390 1298l-1152 -1120h681l57 252h207l-98 -430h-1110l51 231l1135 1108h-660l-59 -258h-207l100 435h1102zM1287 1923l-297 -273h-113l-149 273h166l67 -129l129 129h197z" />
    <glyph glyph-name="zcaron" unicode="&#x17e;" horiz-adv-x="995" 
d="M10 117l718 760h-337l-35 -148h-197l72 307h790l-26 -121l-714 -755h366l41 178h196l-78 -338h-821zM1019 1444l-297 -273h-113l-149 273h166l67 -129l129 129h197z" />
    <glyph glyph-name="uni0401" unicode="&#x401;" horiz-adv-x="1415" 
d="M411 1516h1100l-100 -433h-207l61 260h-540l-111 -485h446l-43 -172h-442l-118 -514h534l61 262h209l-100 -434h-1086l39 172h134l270 1171h-148zM672 1840q0 26 10.5 49.5t28 41t41 28t49.5 10.5q25 0 48 -10.5t40 -28t27 -41t10 -49.5q0 -27 -10 -51t-27 -42.5t-40 -29
t-48 -10.5q-26 0 -49.5 10.5t-41 29t-28 42.5t-10.5 51zM1131 1840q0 26 10.5 49.5t28 41t41 28t49.5 10.5q25 0 47.5 -10.5t40 -28t27.5 -41t10 -49.5q0 -27 -10 -51t-27.5 -42.5t-40 -29t-47.5 -10.5q-26 0 -49.5 10.5t-41 29t-28 42.5t-10.5 51z" />
    <glyph glyph-name="uni0451" unicode="&#x451;" horiz-adv-x="1171" 
d="M318 483q-1 -14 -2 -24t-1 -19q0 -63 20.5 -117t57 -93.5t87 -62t110.5 -22.5q80 0 152.5 32.5t121.5 94.5l148 -108q-34 -45 -81 -81t-104 -61.5t-121.5 -39t-131.5 -13.5q-96 0 -179.5 32t-146 93t-98 149.5t-35.5 200.5q0 129 45.5 242.5t126 198t190.5 133.5t238 49
q99 0 176.5 -33.5t131.5 -88.5t82 -127t28 -148q0 -51 -5.5 -98.5t-13.5 -88.5h-796zM688 897q-60 0 -112.5 -19t-95.5 -53t-76 -80t-54 -100h590q1 62 -16.5 109.5t-51 79t-80.5 47.5t-104 16zM406 1360q0 26 10.5 49.5t28 41t41 28t49.5 10.5q25 0 48 -10.5t40 -28t27 -41
t10 -49.5q0 -27 -10 -51t-27 -42.5t-40 -29t-48 -10.5q-26 0 -49.5 10.5t-41 29t-28 42.5t-10.5 51zM865 1360q0 26 10.5 49.5t28 41t41 28t49.5 10.5q25 0 47.5 -10.5t40 -28t27.5 -41t10 -49.5q0 -27 -10 -51t-27.5 -42.5t-40 -29t-47.5 -10.5q-26 0 -49.5 10.5t-41 29
t-28 42.5t-10.5 51z" />
    <glyph glyph-name="uni0403" unicode="&#x403;" horiz-adv-x="1313" 
d="M113 172h131l272 1180h-129l39 164h1051l-93 -400h-204l53 236h-510l-270 -1180h151l-39 -172h-491zM1067 1956h240v-17l-299 -282h-154z" />
    <glyph glyph-name="uni0453" unicode="&#x453;" horiz-adv-x="1065" 
d="M172 758q10 43 20.5 86t20.5 86h98q54 57 142 97t217 40q78 0 139 -19.5t103 -53t64.5 -80t22.5 -97.5q0 -78 -21.5 -128t-61 -84t-97 -57.5t-129.5 -47t-155.5 -53t-178.5 -76.5q-53 -27 -73.5 -58.5t-20.5 -72.5q0 -56 50 -84.5t124 -28.5q41 0 84 8t80 26.5t64.5 48.5
t37.5 73h213l-20 -86t-21 -86h-104q-59 -64 -142 -103t-210 -39q-80 0 -145.5 18.5t-111.5 52.5t-70.5 81t-24.5 102q0 58 20 111t62 99t106.5 83t155.5 64q116 36 193 60t121 47.5t61.5 50t17.5 67.5q0 49 -39 76.5t-119 27.5q-61 0 -125.5 -21.5t-105.5 -64.5
q-15 -14 -24 -30.5t-13 -34.5h-205zM746 1476h240v-17l-299 -282h-154z" />
    <glyph glyph-name="uni0407" unicode="&#x407;" horiz-adv-x="883" 
d="M425 1516h492l-41 -173h-141l-268 -1171h139l-39 -172h-492l39 172h144l270 1171h-143zM421 1840q0 53 38 91t91 38q25 0 48.5 -10.5t40 -27.5t26.5 -41t10 -50q0 -27 -10 -51.5t-26.5 -43t-40 -28.5t-48.5 -10q-53 0 -91 40t-38 93zM737 1840q0 53 38 91t91 38
q24 0 48 -10.5t40 -27.5t26.5 -41t10.5 -50q0 -27 -10.5 -51.5t-26.5 -43t-40 -28.5t-48 -10q-53 0 -91 40t-38 93z" />
    <glyph glyph-name="uni0457" unicode="&#x457;" horiz-adv-x="725" 
d="M198 1036h387l-200 -864h166l-39 -172h-369l200 864h-186zM212 1360q0 53 38 91t91 38q25 0 48.5 -10.5t40 -27.5t26.5 -41t10 -50q0 -27 -10 -51.5t-26.5 -43t-40 -28.5t-48.5 -10q-53 0 -91 40t-38 93zM528 1360q0 53 38 91t91 38q24 0 48 -10.5t40 -27.5t26.5 -41
t10.5 -50q0 -27 -10.5 -51.5t-26.5 -43t-40 -28.5t-48 -10q-53 0 -91 40t-38 93z" />
    <glyph glyph-name="uni040C" unicode="&#x40c;" horiz-adv-x="1642" 
d="M1390 1343l41 173h389l-41 -173h-94l-837 -589l468 -582h158l-39 -172h-407l39 172l-469 602zM411 1516h492l-41 -173h-137l-268 -1171h149l-39 -172h-492l39 172h134l270 1171h-148zM1207 1909h240v-17l-299 -282h-154z" />
    <glyph glyph-name="uni045C" unicode="&#x45c;" horiz-adv-x="1257" 
d="M184 1036h355l-103 -444h150l325 276l41 168h336l-41 -172h-96l-389 -329l250 -365h125l-39 -170h-219l-312 469h-159l-109 -469h-203l199 864h-152zM827 1477h240v-17l-299 -282h-154z" />
    <glyph glyph-name="uni040E" unicode="&#x40e;" horiz-adv-x="1293" 
d="M987 1343l39 173h492l-39 -173h-140q-163 -247 -326 -490t-327 -491q-96 -145 -181 -242t-188 -128q-20 -6 -41.5 -9t-44.5 -3q-34 0 -75 5t-74 15h-84q18 78 35.5 155.5t36.5 155.5h188q-10 -45 -20.5 -89t-20.5 -89q35 0 63.5 6t62.5 35t80 90.5t91 127.5l-230 951
h-127l39 173h491l-39 -173h-161l166 -736l467 736h-133zM914 1628q-83 0 -150 23.5t-113 69.5t-66.5 105.5t-16.5 131.5h141q2 -92 50.5 -145.5t164.5 -53.5q98 0 161.5 55.5t86.5 143.5h145q-13 -72 -50 -131.5t-87.5 -104.5t-122 -69.5t-143.5 -24.5v0z" />
    <glyph glyph-name="uni045E" unicode="&#x45e;" horiz-adv-x="999" 
d="M650 1149q-83 0 -150 23.5t-113 69.5t-66.5 105.5t-16.5 131.5h141q2 -92 50.5 -145.5t164.5 -53.5q98 0 161.5 55.5t86.5 143.5h145q-13 -72 -50 -131.5t-87.5 -104.5t-122 -69.5t-143.5 -24.5v0zM303 -2q-35 217 -71.5 433t-71.5 433h-78q10 43 20.5 86t20.5 86h379
q-10 -43 -20.5 -86t-20.5 -86h-113q23 -166 45.5 -329.5t44.5 -329.5q103 166 203 329.5t203 329.5h-123q10 43 20.5 86t20.5 86h379q-11 -43 -21 -86l-20 -86h-62q-137 -217 -272 -434t-272 -434q-74 -117 -144.5 -204t-146.5 -145.5t-161 -88t-185 -29.5h-29v172h84
q96 0 191.5 62.5t185.5 209.5q4 7 7 13t7 12v0z" />
    <glyph glyph-name="uni0419" unicode="&#x419;" horiz-adv-x="1935" 
d="M413 1516h516l-41 -173h-159l-250 -1079l1110 1252h379l-41 -173h-135l-268 -1171h148l-39 -172h-493l39 172h135l252 1088l-1114 -1260h-377l41 176h137l268 1167h-149zM1213 1628q-83 0 -150 23.5t-113 69.5t-66.5 105.5t-16.5 131.5h141q2 -92 50.5 -145.5
t164.5 -53.5q98 0 161.5 55.5t86.5 143.5h145q-13 -72 -50 -131.5t-87.5 -104.5t-122 -69.5t-143.5 -24.5v0z" />
    <glyph glyph-name="uni0439" unicode="&#x439;" horiz-adv-x="1290" 
d="M843 1036h336l-200 -864h155l-39 -172h-348l24 105q-32 -33 -69 -56.5t-75.5 -38t-76 -21.5t-69.5 -7q-68 0 -128.5 19.5t-101.5 57.5q-25 25 -46.5 58.5t-33.5 80.5t-11 109t20 144l95 413h-140l41 172h340l-123 -526q-44 -186 -3.5 -273t171.5 -87q58 0 102.5 19.5
t81 54.5t61.5 74l132 566h-136zM713 1149q-83 0 -150 23.5t-113 69.5t-66.5 105.5t-16.5 131.5h141q2 -92 50.5 -145.5t164.5 -53.5q98 0 161.5 55.5t86.5 143.5h145q-13 -72 -50 -131.5t-87.5 -104.5t-122 -69.5t-143.5 -24.5v0z" />
    <glyph glyph-name="uni021A" unicode="&#x21a;" horiz-adv-x="1362" 
d="M348 172h140l272 1180h-367l-53 -236h-205l92 400h1352l-93 -400h-204l53 236h-368l-270 -1180h142l-39 -172h-491zM418 -41l211 -84l-180 -348l-144 53z" />
    <glyph glyph-name="uni021B" unicode="&#x21b;" horiz-adv-x="778" 
d="M186 1036h173l61 248l211 86l-79 -334h218l-41 -172h-218l-132 -559q-5 -20 -9.5 -40.5t-4.5 -43.5q0 -45 24.5 -63.5t77.5 -18.5q57 0 137 33l17 -143q-53 -25 -102 -39.5t-109 -14.5q-63 0 -115 15.5t-86 51t-45 93t8 141.5l144 588h-171zM215 -41l211 -84l-180 -348
l-144 53z" />
    <glyph glyph-name="uni0400" unicode="&#x400;" horiz-adv-x="1415" 
d="M411 1516h1100l-100 -433h-207l61 260h-540l-111 -485h446l-43 -172h-442l-118 -514h534l61 262h209l-100 -434h-1086l39 172h134l270 1171h-148zM876 1658l-287 282v17h248l184 -299h-145z" />
    <glyph glyph-name="uni0450" unicode="&#x450;" horiz-adv-x="1171" 
d="M318 483q-1 -14 -2 -24t-1 -19q0 -63 20.5 -117t57 -93.5t87 -62t110.5 -22.5q80 0 152.5 32.5t121.5 94.5l148 -108q-34 -45 -81 -81t-104 -61.5t-121.5 -39t-131.5 -13.5q-96 0 -179.5 32t-146 93t-98 149.5t-35.5 200.5q0 129 45.5 242.5t126 198t190.5 133.5t238 49
q99 0 176.5 -33.5t131.5 -88.5t82 -127t28 -148q0 -51 -5.5 -98.5t-13.5 -88.5h-796zM688 897q-60 0 -112.5 -19t-95.5 -53t-76 -80t-54 -100h590q1 62 -16.5 109.5t-51 79t-80.5 47.5t-104 16zM610 1178l-287 282v17h248l184 -299h-145z" />
    <glyph glyph-name="uni040D" unicode="&#x40d;" horiz-adv-x="1935" 
d="M413 1516h516l-41 -173h-159l-250 -1079l1110 1252h379l-41 -173h-135l-268 -1171h148l-39 -172h-493l39 172h135l252 1088l-1114 -1260h-377l41 176h137l268 1167h-149zM1137 1657l-287 282v17h248l184 -299h-145z" />
    <glyph glyph-name="uni045D" unicode="&#x45d;" horiz-adv-x="1290" 
d="M843 1036h336l-200 -864h155l-39 -172h-348l24 105q-32 -33 -69 -56.5t-75.5 -38t-76 -21.5t-69.5 -7q-68 0 -128.5 19.5t-101.5 57.5q-25 25 -46.5 58.5t-33.5 80.5t-11 109t20 144l95 413h-140l41 172h340l-123 -526q-44 -186 -3.5 -273t171.5 -87q58 0 102.5 19.5
t81 54.5t61.5 74l132 566h-136zM610 1178l-287 282v17h248l184 -299h-145z" />
    <glyph glyph-name="uni0405" unicode="&#x405;" horiz-adv-x="1278" 
d="M1080 1137q12 53 -4.5 94t-52.5 69.5t-87 43t-108 14.5q-83 0 -148.5 -22t-110.5 -60t-69 -88.5t-24 -106.5q0 -50 19 -81t48 -51t64.5 -32t68.5 -24l187 -68q72 -24 126 -57t90 -76.5t54 -99t18 -125.5q0 -111 -43 -203t-120.5 -157.5t-186.5 -101.5t-241 -36
q-119 0 -201.5 25.5t-135.5 69t-79.5 99.5t-33.5 118h-95l39 159h272l-18 -74q-14 -108 63 -161t223 -53q75 0 138 21t108.5 58.5t71.5 90t26 114.5q0 48 -17 83t-46.5 60.5t-69 44t-84.5 33.5l-174 56q-136 43 -206 128t-70 218q0 102 39 189.5t113.5 152t181 101
t241.5 36.5q85 0 156 -19t125.5 -53t92 -82t54.5 -106h101l-39 -160h-260z" />
    <glyph glyph-name="uni0455" unicode="&#x455;" horiz-adv-x="1012" 
d="M749 748q-1 39 -15.5 69t-40 50.5t-60 31t-74.5 10.5t-76 -9.5t-63 -28.5t-42.5 -46t-15.5 -61q0 -40 25.5 -66.5t80.5 -48.5l193 -69q88 -32 134 -99.5t46 -163.5q0 -86 -31.5 -151t-87.5 -109t-133.5 -66t-169.5 -22q-56 0 -107 9t-94.5 27.5t-76 46t-50.5 63.5h-106
l41 172h211q-5 -39 10 -69t43 -50.5t66.5 -30.5t81.5 -10t80.5 11t65.5 32t44.5 52t16.5 71q0 38 -27 69.5t-84 51.5l-184 67q-89 35 -137 102.5t-48 151.5q0 74 26 135t77 105t128 68t179 24q59 0 109 -11.5t89 -31.5t67 -46.5t45 -57.5h112l-41 -172h-207v0z" />
    <glyph glyph-name="uni0406" unicode="&#x406;" horiz-adv-x="780" 
d="M425 1516h492l-41 -173h-141l-268 -1171h139l-39 -172h-492l39 172h144l270 1171h-143z" />
    <glyph glyph-name="uni0456" unicode="&#x456;" horiz-adv-x="725" 
d="M200 1036h387l-200 -864h166l-39 -172h-369l200 864h-186zM391 1401q0 27 10.5 51t28.5 41.5t42 28t52 10.5q27 0 51 -10.5t41.5 -28t28 -41.5t10.5 -51t-10.5 -51.5t-28 -43t-41.5 -29.5t-51 -11q-28 0 -52 11t-42 29.5t-28.5 43t-10.5 51.5z" />
    <glyph glyph-name="uni0408" unicode="&#x408;" horiz-adv-x="762" 
d="M390 1516h491l-41 -173h-141l-271 -1171q-14 -42 -61 -103.5t-117 -142t-157 -164.5l-168 15q80 90 140 168.5t109.5 150t61.5 109.5l263 1138h-150z" />
    <glyph glyph-name="uni0458" unicode="&#x458;" horiz-adv-x="668" 
d="M185 1036h405l-258 -1112q-21 -91 -61 -163.5t-97 -123t-128.5 -78.5t-155.5 -30l16 145q90 13 146 83t82 186l214 921h-204zM396 1401q0 27 10.5 51t28.5 41.5t42 28t52 10.5q27 0 51 -10.5t41.5 -28t28 -41.5t10.5 -51t-10.5 -51.5t-28 -43t-41.5 -29.5t-51 -11
q-28 0 -52 11t-42 29.5t-28.5 43t-10.5 51.5z" />
    <glyph glyph-name="SOFTHYPHEN" unicode="&#xad;" horiz-adv-x="0" 
 />
    <glyph glyph-name="Idotaccent" unicode="&#x130;" horiz-adv-x="883" 
d="M425 1516h492l-41 -173h-141l-268 -1171h139l-39 -172h-492l39 172h144l270 1171h-143zM600 -1120q0 26 10.5 49.5t28 41t41.5 28t51 10.5q26 0 49.5 -10.5t41 -28t28 -41t10.5 -49.5q0 -27 -10.5 -51t-28 -42.5t-41 -29t-49.5 -10.5q-27 0 -51 10.5t-41.5 29t-28 42.5
t-10.5 51z" />
    <glyph glyph-name="napostrophe" unicode="&#x149;" horiz-adv-x="1368" 
d="M188 1036h391l-25 -106q71 59 155.5 92t178.5 33q80 0 144.5 -24t105.5 -73t54 -122t-9 -170l-114 -494h147l-39 -172h-350l149 641q28 118 -18 178t-156 60q-78 0 -148 -33.5t-133 -93.5l-173 -752h-203l200 864h-198zM503 1520l211 -84l-180 -349l-144 54z" />
    <glyph glyph-name="glyph449" horiz-adv-x="2075" 
d="M814 0q-155 0 -288 59.5t-231.5 163t-154 242.5t-55.5 297q0 156 55.5 294t154 239.5t231.5 161t288 59.5h1170v-429h-205v256h-541v-485h455v-172h-455v-514h541v256h205v-428h-1170zM294 762q0 -123 40 -230.5t108.5 -187.5t162 -126t197.5 -46h240v1171h-240
q-104 0 -197.5 -45t-162 -123.5t-108.5 -184t-40 -228.5v0z" />
    </font>
</defs>
</svg>
