<?xml version="1.0" standalone="no"?>
<!DOCTYPE svg PUBLIC "-//W3C//DTD SVG 1.1//EN" "http://www.w3.org/Graphics/SVG/1.1/DTD/svg11.dtd" >
<svg>
<metadata>
Created by FontForge 20110222 at Sat May 24 10:44:14 2014
 By Orthosie Webhosting
Copyright (c) 2013 by Anton Koovit.
</metadata>
<defs>
<font id="Arvo-Bold" horiz-adv-x="1245" >
  <font-face 
    font-family="Arvo"
    font-weight="700"
    font-stretch="normal"
    units-per-em="2048"
    panose-1="2 6 9 3 4 2 2 2 3 4"
    ascent="1638"
    descent="-410"
    x-height="1036"
    cap-height="1516"
    bbox="-209 -512 2605 2028"
    underline-thickness="50"
    underline-position="-50"
    unicode-range="U+0020-FB02"
  />
    <missing-glyph />
    <glyph glyph-name="fourinferior" horiz-adv-x="1141" 
d="M102 1516h936v-1516h-936v1516zM205 102h731v1311h-731v-1311z" />
    <glyph glyph-name="space" unicode=" " horiz-adv-x="410" 
 />
    <glyph glyph-name="exclam" unicode="!" horiz-adv-x="696" 
d="M139 145q0 37 13.5 69.5t37.5 57t56.5 38.5t70.5 14q36 0 68.5 -14t56.5 -38.5t38 -57t14 -69.5t-14 -69.5t-38 -56.5t-56.5 -38t-68.5 -14q-38 0 -70.5 14t-56.5 38t-37.5 56.5t-13.5 69.5zM139 1577h369l-41 -1067h-287z" />
    <glyph glyph-name="quotesingle" unicode="'" horiz-adv-x="340" 
d="M256 1059h-219v518l287 16z" />
    <glyph glyph-name="quotedbl" unicode="&#x22;" horiz-adv-x="651" 
d="M289 1059h-207l-41 518h266zM588 1059h-199l-14 518h260z" />
    <glyph glyph-name="numbersign" unicode="#" horiz-adv-x="1538" 
d="M166 1198h181l63 318h331l-62 -318h326l62 318h332l-62 -318h160l-63 -283h-152l-69 -354h188l-64 -280h-179l-54 -281h-334l55 281h-322l-54 -281h-338l55 281h-158l64 280h149l70 354h-189zM557 561h323l69 354h-324z" />
    <glyph glyph-name="percent" unicode="%" horiz-adv-x="1833" 
d="M211 1167q0 75 28 142t78.5 117.5t120 80t152.5 29.5t152.5 -29.5t120 -80t78.5 -117.5t28 -142q0 -74 -27.5 -140.5t-77 -117t-119.5 -80.5t-155 -30q-86 0 -155.5 29.5t-119.5 80t-77 117.5t-27 141zM590 1305q-29 0 -54.5 -10t-44.5 -28t-29.5 -43.5t-10.5 -56.5
q0 -28 10.5 -53.5t29.5 -44.5t44.5 -30t54.5 -11t54.5 11t44 29.5t29.5 44t11 54.5q0 31 -11 56.5t-29.5 43.5t-44 28t-54.5 10zM1370 1540h266l-1025 -1540h-266zM1024 379q0 75 28 142t78.5 117.5t120 80t152.5 29.5t152.5 -29.5t120 -80t78.5 -117.5t28 -142
q0 -74 -27.5 -141t-77 -117.5t-119.5 -80.5t-155 -30t-155 29.5t-119.5 80t-77 117.5t-27.5 142zM1403 516q-29 0 -54.5 -10t-44.5 -28t-29.5 -43t-10.5 -56q0 -29 10.5 -54t29.5 -44t44.5 -30t54.5 -11t54.5 10.5t44 29.5t29.5 44.5t11 54.5q0 31 -11 56t-29.5 43t-44 28
t-54.5 10z" />
    <glyph glyph-name="perthousand" unicode="&#x2030;" horiz-adv-x="2681" 
d="M211 1167q0 74 27.5 141.5t79 118t120 80t152.5 29.5q82 0 151.5 -29.5t120.5 -80t79 -118t28 -141.5q0 -73 -28 -139.5t-77 -118t-118.5 -81t-155.5 -29.5t-155.5 29.5t-119 79.5t-77 118t-27.5 141v0zM590 1305q-60 0 -99.5 -38t-39.5 -100q0 -57 39.5 -98t99.5 -41
q28 0 54 11.5t44.5 29.5t29.5 44t11 54q0 62 -40 100t-99 38v0zM1370 1540h266l-1040 -1556h-266zM1847 379q0 74 28 141.5t79 117.5t119.5 80t152.5 30q82 0 151.5 -30t121 -80t79 -117.5t27.5 -141.5t-27.5 -140.5t-77 -117.5t-119 -81t-155.5 -30t-155.5 30t-118.5 80
t-77 117.5t-28 141.5v0zM2226 516q-59 0 -99 -38t-40 -99q0 -57 40 -98t99 -41q29 0 54.5 11t44 29.5t29.5 44t11 54.5q0 61 -39.5 99t-99.5 38v0zM1024 379q0 74 27.5 141.5t79 117.5t120 80t152.5 30q82 0 151.5 -30t120.5 -80t79 -117.5t28 -141.5t-28 -140.5t-77 -117.5
t-118.5 -81t-155.5 -30t-155.5 30t-119 80t-77 117.5t-27.5 141.5v0zM1403 516q-60 0 -99.5 -38t-39.5 -99q0 -57 39.5 -98t99.5 -41q29 0 54.5 11t44 29.5t29.5 44t11 54.5q0 61 -40 99t-99 38v0z" />
    <glyph glyph-name="ampersand" unicode="&#x26;" horiz-adv-x="1337" 
d="M1196 -49l-201 206q-82 -78 -185.5 -124.5t-231.5 -46.5q-102 0 -191 36t-155 99t-104 149t-38 185q0 127 59 225t164 172q1 0 3 2l-19 20q-62 66 -95.5 143t-33.5 173q0 82 33 156t91.5 130.5t137 89.5t170.5 33q97 0 176 -34t135 -90.5t86.5 -130t30.5 -152.5
q0 -56 -14.5 -108t-40 -97t-59.5 -82.5t-72 -64.5q-17 -12 -33 -23.5t-33 -22.5l164 -162q14 45 23.5 86.5t15.5 78.5h299q-7 -97 -33.5 -197.5t-72.5 -195.5l255 -250zM406 461q0 -33 13 -63.5t36.5 -54.5t56.5 -38t74 -14q63 0 112.5 21.5t89.5 57.5l-262 268
q-27 -17 -49.5 -35t-38 -39t-24 -46.5t-8.5 -56.5zM674 1063q32 23 45.5 54.5t13.5 74.5q0 27 -10.5 51t-29 42.5t-42.5 29t-51 10.5q-32 0 -58 -10t-45 -28t-29.5 -42.5t-10.5 -52.5q0 -40 14.5 -77.5t40.5 -61.5l56 -55q31 17 58 33t48 32z" />
    <glyph glyph-name="parenleft" unicode="(" horiz-adv-x="721" 
d="M510 -467q-98 120 -172.5 252t-125.5 273t-77 289t-26 300q0 308 103 594t302 528l246 -172q-77 -101 -137.5 -214t-102.5 -234.5t-64 -248t-22 -253.5q0 -128 22 -255t64 -248.5t102 -235.5t136 -215z" />
    <glyph glyph-name="parenright" unicode=")" horiz-adv-x="721" 
d="M6 -295q77 100 137.5 213.5t102.5 235t64 248t22 253.5t-22 254.5t-64 249t-102 235.5t-136 216l248 159q196 -241 298.5 -524.5t102.5 -589.5q0 -307 -103 -593t-302 -529z" />
    <glyph glyph-name="asterisk" unicode="*" horiz-adv-x="1008" 
d="M629 1364l239 78l78 -238l-241 -77l149 -205l-203 -148l-148 206l-147 -206l-202 148l148 205l-241 77l78 238l240 -78v252h250v-252z" />
    <glyph glyph-name="comma" unicode="," horiz-adv-x="532" 
d="M205 283l305 -107l-285 -541l-205 78z" />
    <glyph glyph-name="hyphen" unicode="-" horiz-adv-x="770" 
d="M61 449v274h627v-274h-627z" />
    <glyph glyph-name="period" unicode="." horiz-adv-x="529" 
d="M70 162q0 40 14.5 75t41 62t62.5 42.5t77 15.5q39 0 74.5 -15.5t62 -42t41.5 -62.5t15 -75q0 -40 -15.5 -76t-41.5 -62t-61 -41.5t-75 -15.5q-42 0 -77.5 15.5t-62 41.5t-41 61.5t-14.5 76.5z" />
    <glyph glyph-name="slash" unicode="/" horiz-adv-x="807" 
d="M633 1556h256l-578 -1556h-262z" />
    <glyph glyph-name="zero" unicode="0" horiz-adv-x="1296" 
d="M672 -14q-160 0 -272 59t-182.5 162.5t-103 244t-32.5 302.5q0 160 31 301.5t101 248t183 168.5t277 62q162 0 274.5 -61t182.5 -166t101.5 -245.5t31.5 -299.5q0 -161 -32.5 -302.5t-103 -246.5t-183.5 -166t-273 -61zM672 293q89 0 141.5 35.5t80.5 98t36 148.5t8 187
q0 99 -8 184.5t-35.5 149t-80 99.5t-140.5 36q-89 0 -142 -36t-81 -99.5t-36.5 -149t-8.5 -184.5q0 -101 8.5 -187t36 -148.5t80 -98t141.5 -35.5z" />
    <glyph glyph-name="one" unicode="1" horiz-adv-x="815" 
d="M115 274h159v791l-233 -139v348l418 246l145 -2v-1244h160v-274h-649v274z" />
    <glyph glyph-name="two" unicode="2" horiz-adv-x="1178" 
d="M127 260l524 557q68 66 105 132t37 134q0 29 -12 57.5t-34.5 51t-55 36t-73.5 13.5q-49 0 -85.5 -15.5t-61 -42.5t-37.5 -63t-14 -76h-301q0 118 39 210.5t107.5 156t160.5 96.5t197 33q99 0 188.5 -30t158 -88t108.5 -143t40 -196q0 -89 -36.5 -164.5t-98.5 -144.5
l-432 -467h565v-307h-989v260z" />
    <glyph glyph-name="three" unicode="3" horiz-adv-x="1087" 
d="M727 1083q0 30 -13.5 60t-39 54t-61 39t-78.5 15q-37 0 -70.5 -12.5t-59 -33.5t-40.5 -48.5t-15 -93.5l-311 2q1 97 37 185t100.5 155t155.5 106t203 39q106 0 198 -36.5t160 -98.5t106.5 -143t38.5 -170q0 -97 -40 -176.5t-109 -128.5q36 -20 67 -53t54.5 -76t37 -94
t13.5 -107q0 -98 -40 -186t-110.5 -154.5t-166.5 -105.5t-207 -39q-105 0 -195.5 33t-158.5 91.5t-109.5 138t-49 132.5t-8.5 110h314q6 -105 60.5 -154.5t150.5 -49.5q43 0 80.5 14.5t65.5 39t44.5 57.5t16.5 71q0 40 -14.5 74.5t-41.5 59t-66 38.5t-87 14h-140v273h142
q44 0 78.5 12t58.5 33t36.5 50t12.5 64z" />
    <glyph glyph-name="four" unicode="4" horiz-adv-x="1231" 
d="M10 670l539 846h334l-531 -848h320v293l313 4v-297h211v-254h-211v-140h193v-274h-650v274h144v140h-662v256z" />
    <glyph glyph-name="five" unicode="5" horiz-adv-x="1206" 
d="M436 926q48 18 103.5 30.5t119.5 12.5q102 0 193.5 -31.5t161 -93t110.5 -151.5t41 -208q0 -127 -45 -223.5t-119 -161.5t-168.5 -98t-193.5 -33q-98 0 -185.5 25.5t-157.5 76.5t-118.5 127.5t-66.5 178.5l309 84q6 -47 25 -84t47.5 -63t66 -40t80.5 -14q48 0 88 18
t68 49.5t43.5 73.5t15.5 91q0 41 -16 80t-46 69t-72 48t-93 18q-65 0 -112.5 -12.5t-96.5 -35.5l-271 50v807h963v-306h-674v-284z" />
    <glyph glyph-name="six" unicode="6" horiz-adv-x="1163" 
d="M913 1518l-309 -541q27 2 52.5 -0.5t50.5 -7.5q85 -16 159 -58.5t128.5 -105t86 -141.5t31.5 -168q0 -109 -41.5 -202t-113.5 -161t-167.5 -106.5t-203.5 -38.5q-106 0 -200.5 38.5t-165.5 105t-112.5 157.5t-41.5 196q0 50 10 95.5t27 89t39 85.5t46 85l375 678h350z
M582 694q-61 0 -110.5 -22.5t-81.5 -64.5q-13 -25 -21.5 -54t-8.5 -64t13.5 -71.5t41.5 -67t71 -50t102 -19.5q40 0 81 14t73 40t52.5 64.5t20.5 87.5q0 47 -18.5 85t-50.5 65t-74 42t-90 15z" />
    <glyph glyph-name="seven" unicode="7" horiz-adv-x="1190" 
d="M229 274h106q51 118 105 240t107.5 241t105 232.5t98.5 216.5h-423v-172h-287v484h1108v-226q-118 -242 -240.5 -499.5t-237.5 -516.5h99v-274h-541v274z" />
    <glyph glyph-name="eight" unicode="8" horiz-adv-x="1180" 
d="M639 1544q102 0 192 -36t157 -97t106 -142t39 -171q0 -88 -40.5 -166t-109.5 -137q84 -60 133 -145.5t49 -188.5q0 -98 -40.5 -186t-111 -155.5t-167 -107t-207.5 -39.5q-74 0 -142 18.5t-126.5 51.5t-106 79t-81 99.5t-52 113.5t-18.5 122q0 106 50 193.5t135 147.5
q-69 58 -108.5 134t-39.5 160q0 93 38.5 175t105 143.5t155.5 97.5t190 36zM403 465q0 -41 18 -78t50 -64.5t75 -44t93 -16.5q49 0 91.5 16.5t74 44t49.5 64.5t18 78q0 40 -18 75.5t-49.5 62.5t-74 43t-91.5 16q-50 0 -93 -16t-75 -43t-50 -62.5t-18 -75.5zM440 1081
q0 -34 15 -64.5t42 -53.5t63.5 -36.5t78.5 -13.5t78.5 13.5t63.5 36.5t43 53.5t16 64.5q0 35 -16 66.5t-43 55.5t-63.5 38t-78.5 14t-78.5 -14t-63.5 -38t-42 -55.5t-15 -66.5z" />
    <glyph glyph-name="nine" unicode="9" horiz-adv-x="1151" 
d="M305 -2l307 540q-27 -2 -52 1t-48 8q-85 16 -159 58.5t-129 105t-86.5 141.5t-31.5 168q0 109 41.5 202t112.5 161t167 106.5t204 38.5q106 0 201 -38.5t166.5 -105.5t113 -158t41.5 -196q0 -50 -10 -95.5t-27.5 -88.5t-39.5 -85t-46 -85l-375 -678h-350zM637 821
q58 0 106 20.5t80 61.5q14 26 23.5 56.5t9.5 66.5q0 34 -13.5 71t-41 68t-70 50.5t-100.5 19.5q-42 0 -82.5 -14t-73 -40.5t-52.5 -65t-20 -87.5q0 -47 18.5 -85t50 -65t74.5 -42t91 -15z" />
    <glyph glyph-name="colon" unicode=":" horiz-adv-x="539" 
d="M72 907q0 37 13.5 69.5t37.5 56.5t56.5 38t70.5 14q36 0 68 -14t56 -38t38 -56.5t14 -69.5t-14 -69.5t-38 -56.5t-56 -38t-68 -14q-38 0 -70.5 14t-56.5 38t-37.5 56.5t-13.5 69.5zM72 145q0 37 13.5 69.5t37.5 57t56.5 38.5t70.5 14q36 0 68 -14t56 -38.5t38 -57
t14 -69.5t-14 -69.5t-38 -56.5t-56 -38t-68 -14q-38 0 -70.5 14t-56.5 38t-37.5 56.5t-13.5 69.5z" />
    <glyph glyph-name="semicolon" unicode=";" horiz-adv-x="539" 
d="M72 907q0 37 13.5 69.5t37.5 56.5t56.5 38t70.5 14q36 0 68 -14t56 -38t38 -56.5t14 -69.5t-14 -69.5t-38 -56.5t-56 -38t-68 -14q-38 0 -70.5 14t-56.5 38t-37.5 56.5t-13.5 69.5zM123 283l305 -107l-285 -541l-204 78z" />
    <glyph glyph-name="less" unicode="&#x3c;" horiz-adv-x="868" 
d="M31 674l755 274v-256l-448 -134l448 -144v-250l-755 287v223z" />
    <glyph glyph-name="equal" unicode="=" horiz-adv-x="995" 
d="M61 567h873v-286h-873v286zM61 997h873v-286h-873v286z" />
    <glyph glyph-name="greater" unicode="&#x3e;" horiz-adv-x="827" 
d="M797 451l-756 -287v250l448 144l-448 134v256l756 -274v-223z" />
    <glyph glyph-name="question" unicode="?" horiz-adv-x="1192" 
d="M301 145q0 37 13.5 69.5t37.5 57t56.5 38.5t70.5 14q36 0 68 -14t56 -38.5t38 -57t14 -69.5t-14 -69.5t-38 -56.5t-56 -38t-68 -14q-38 0 -70.5 14t-56.5 38t-37.5 56.5t-13.5 69.5zM324 391q0 70 2 123t8.5 94.5t19 74t33 60.5t50.5 54.5t73 56.5q46 38 76 69.5t47 62.5
t24 64t7 74q0 59 -29.5 96t-79.5 37q-31 0 -57.5 -7t-46.5 -26t-31.5 -52t-11.5 -85l-318 31q2 110 38.5 191.5t100 135.5t150 80.5t188.5 26.5q95 0 178 -28t144.5 -83t97 -135t35.5 -184q0 -109 -50 -200t-153 -172q-53 -38 -88 -71t-56 -72t-29.5 -90t-8.5 -126h-313z
" />
    <glyph glyph-name="at" unicode="@" horiz-adv-x="2267" 
d="M1608 956v-647q0 -43 16.5 -70.5t50.5 -27.5q49 0 81 30t50.5 78t25.5 106.5t7 115.5q0 86 -24.5 167t-69.5 152.5t-108 131t-140 102.5t-166 66.5t-186 23.5q-96 0 -184 -24.5t-165 -69.5t-139.5 -108.5t-107.5 -140t-69.5 -164.5t-24.5 -183q0 -144 54 -270t147.5 -220
t219 -148.5t269.5 -54.5q99 0 197 31.5t192 87.5l137 -227q-124 -75 -258 -115.5t-268 -40.5q-132 0 -254.5 34t-229 96t-193.5 149.5t-149.5 193.5t-96.5 228.5t-34 255.5q0 132 34 254t96.5 228t149.5 193t193.5 149t229 96t254.5 34q133 0 256 -33t229.5 -92.5
t193.5 -143t149 -184t96 -215t34 -237.5q0 -102 -30 -202t-88.5 -180t-145 -129.5t-199.5 -49.5q-80 0 -140 28t-101 79q-57 -49 -129 -77t-140 -28q-110 0 -203 40t-160.5 108t-105.5 157.5t-38 189.5q0 97 36 186t100.5 156.5t154 107.5t196.5 40q59 0 111 -12t100 -32v31
h287zM1130 276q60 0 110.5 31.5t80.5 88.5v159q-13 29 -32.5 53t-44 41.5t-53 27t-58.5 9.5q-42 0 -80 -16t-66 -44t-44.5 -66t-16.5 -81q0 -45 16 -82.5t44 -64.5t65 -41.5t79 -14.5z" />
    <glyph glyph-name="A" unicode="A" horiz-adv-x="1491" 
d="M893 274h151l-68 218h-466l-68 -218h160v-274h-575v274h113l413 1242h401l404 -1242h110v-274h-575v274zM589 748h306l-154 493z" />
    <glyph glyph-name="B" unicode="B" horiz-adv-x="1386" 
d="M113 274h155v967h-155v277l739 -2q103 0 188.5 -36.5t147.5 -99t96.5 -146t34.5 -177.5q0 -110 -38.5 -182t-109.5 -116q75 -48 118.5 -118.5t43.5 -171.5q0 -103 -35.5 -189t-97 -148.5t-145.5 -97t-181 -34.5h-761v274zM600 627v-353h252q29 0 54.5 15t44 39.5t29.5 57
t11 67.5q0 37 -11 68.5t-30 55t-44.5 37t-53.5 13.5h-252zM600 1241v-340h238q28 0 53 14t43.5 37.5t29.5 53t11 61.5q0 31 -11 62t-29.5 56t-43.5 40.5t-53 15.5h-238z" />
    <glyph glyph-name="C" unicode="C" horiz-adv-x="1554" 
d="M1106 1055q-56 80 -101 113.5t-97 48t-109 14.5q-84 0 -156 -37.5t-124.5 -102t-82.5 -150t-30 -181.5q0 -97 29.5 -182.5t81.5 -149.5t124 -101.5t158 -37.5q60 0 112 19.5t94.5 51.5t74.5 73.5t50 86.5l322 -90q-31 -98 -91 -181.5t-144.5 -144.5t-190 -96t-227.5 -35
q-103 0 -197 28t-175.5 79t-148 123t-113.5 159.5t-73 188t-26 209.5q0 163 57 305.5t156 249t232.5 168t287.5 61.5q123 0 207 -30.5t185 -120.5h224v-338h-309z" />
    <glyph glyph-name="D" unicode="D" horiz-adv-x="1468" 
d="M82 1516h582q104 0 199.5 -27t178 -76t150 -117.5t115.5 -152.5t74 -181t26 -202t-26 -202t-74 -181.5t-115.5 -154t-150 -119t-178 -76.5t-199.5 -27h-582v274h121v967h-121v275zM535 1241v-967h127q81 0 153 38t125 103.5t84 154t31 190.5q0 101 -31 189t-84 153
t-125 102t-153 37h-127z" />
    <glyph glyph-name="E" unicode="E" horiz-adv-x="1380" 
d="M113 1516h1206v-517h-326v215h-389v-299h301v-290h-301v-351h389v269h326v-543h-1206v274h159v940h-159v302z" />
    <glyph glyph-name="F" unicode="F" horiz-adv-x="1286" 
d="M113 1516h1173v-517h-325v213h-359v-319h311v-291h-311v-328h160v-274h-649v274h157v938h-157v304z" />
    <glyph glyph-name="G" unicode="G" horiz-adv-x="1636" 
d="M1212 0v260q-62 -109 -121 -160t-133.5 -82t-199.5 -30q-62 1 -124 14.5t-120 38t-113.5 59t-100.5 79.5q-111 112 -172.5 259.5t-61.5 321.5q0 107 26 207t73 187t113.5 158.5t148 122.5t175.5 79t197 28q118 0 205 -31.5t187 -117.5h224v-338h-309q-46 71 -86.5 103
t-88 53t-132.5 21q-84 0 -156 -38t-124.5 -102.5t-82.5 -152t-30 -179.5q0 -91 27 -173t82 -147.5t128 -100.5t156 -35q106 0 185 62t114 169h-289v274h702v-809h-299z" />
    <glyph glyph-name="H" unicode="H" horiz-adv-x="1890" 
d="M1128 1516h650v-275h-160v-967h160v-274h-650v274h158v388h-684v-388h160v-274h-649v274h157v967h-157v275h649v-275h-160v-315h684v315h-158v275z" />
    <glyph glyph-name="I" unicode="I" horiz-adv-x="874" 
d="M113 1516h649v-274h-160v-968h160v-274h-649v274h157v968h-157v274z" />
    <glyph glyph-name="J" unicode="J" horiz-adv-x="686" 
d="M82 1516h573v-304h-106v-1040q-22 -81 -64 -148.5t-82.5 -122.5t-113.5 -139l-279 15q59 90 92.5 148.5t67.5 129t53 150.5v1007h-141v304z" />
    <glyph glyph-name="K" unicode="K" horiz-adv-x="1655" 
d="M113 1516h649v-275h-160v-441l485 423v293h517v-295h-113l-505 -434l484 -490h123v-297h-503v297l-488 488v-511h160v-274h-649v274h157v967h-157v275z" />
    <glyph glyph-name="L" unicode="L" horiz-adv-x="1346" 
d="M113 1516h649v-275h-160v-967h330q13 0 25.5 7.5t22 19.5t15.5 26t6 27v203h324v-557h-1212v274h157v967h-157v275z" />
    <glyph glyph-name="M" unicode="M" horiz-adv-x="2345" 
d="M113 274h141v967h-141v275h624l447 -1094l415 1094h633v-275h-141v-967h139v-274h-567v274h104v872l-454 -1128h-281l-462 1098v-842h113v-274h-570v274z" />
    <glyph glyph-name="N" unicode="N" horiz-adv-x="1698" 
d="M1071 1516h576v-275h-123v-1241h-332l-631 980v-706h127v-274h-575v274h125v967h-123v275h458l627 -993v718h-129v275z" />
    <glyph glyph-name="O" unicode="O" horiz-adv-x="1620" 
d="M799 -27q-103 0 -197 28t-175.5 79t-148 122.5t-113.5 159t-73 187.5t-26 209t26 209.5t73 188t113.5 159t148 122.5t175.5 79t197 28t197.5 -28t176 -79t148 -122.5t114 -159t73.5 -188t26 -209.5q0 -108 -26 -208.5t-73.5 -188t-114 -159t-148 -122.5t-176 -79
t-197.5 -28zM799 287q87 0 159.5 37.5t124.5 102t80.5 150t28.5 181.5q0 97 -29 183t-81.5 150.5t-124.5 102t-158 37.5t-158 -37.5t-124 -102t-81.5 -150.5t-29.5 -183q0 -96 29.5 -181.5t81.5 -150t124 -102t158 -37.5z" />
    <glyph glyph-name="P" unicode="P" horiz-adv-x="1400" 
d="M113 1516h700q117 0 215 -36.5t169 -98.5t111 -143t40 -169q0 -106 -31.5 -198.5t-97.5 -160.5t-167 -107.5t-239 -39.5h-211v-289h139v-274h-628v274h157v967h-157v275zM602 1241v-407h137q114 0 181 48t67 152q0 97 -63 152t-185 55h-137z" />
    <glyph glyph-name="Q" unicode="Q" horiz-adv-x="1634" 
d="M659 -12q-128 26 -236.5 95.5t-188 171.5t-124 230.5t-44.5 272.5q0 109 26 209.5t73 188t113.5 159t148 122.5t175.5 79t197 28t197.5 -28t176 -79t148 -122.5t114 -159t73.5 -188t26 -209.5q0 -146 -46 -276t-127.5 -233t-193.5 -172t-243 -92q31 -13 61.5 -28.5
t61.5 -29t61.5 -23t62.5 -10.5q31 0 60.5 8t53.5 25t41.5 44t23.5 66l223 -111q-9 -73 -41.5 -132t-83.5 -101t-116 -65t-138 -23q-59 0 -118.5 22.5t-115 49t-104.5 49t-86 22.5q-16 0 -28.5 0.5t-24.5 0t-26.5 -3t-33.5 -9.5zM799 287q87 0 159.5 37.5t124.5 102t80.5 150
t28.5 181.5q0 97 -29 183t-81.5 150.5t-124.5 102t-158 37.5t-158 -37.5t-124 -102t-81.5 -150.5t-29.5 -183q0 -96 29.5 -181.5t81.5 -150t124 -102t158 -37.5z" />
    <glyph glyph-name="R" unicode="R" horiz-adv-x="1530" 
d="M113 1516h802q117 0 209 -35t155 -93.5t96.5 -136t33.5 -161.5q0 -77 -16.5 -135t-48 -103t-77.5 -79.5t-105 -62.5q51 -26 90 -79.5t59 -138.5l51 -197h125l2 -295h-440l-60 360q-9 64 -27.5 110.5t-49.5 76t-75.5 43.5t-105.5 14h-129v-330h139v-274h-628v274h157v967
h-157v275zM602 1241v-367h199q57 0 102.5 10.5t78 33t50 56.5t17.5 81q0 88 -63 137t-185 49h-199z" />
    <glyph glyph-name="S" unicode="S" 
d="M842 1089q-5 35 -24.5 66t-50 53.5t-69 35.5t-80.5 13q-38 0 -71 -8t-57.5 -24.5t-39 -42.5t-14.5 -62q0 -45 19.5 -71.5t50 -43.5t67.5 -27t72 -22l275 -92q57 -20 107 -55t86.5 -85t57.5 -115t21 -146q0 -110 -40.5 -201t-113.5 -156t-175 -101t-226 -36
q-87 0 -164.5 19.5t-141.5 56.5t-112 88.5t-75 116.5h-103v301h362v-62q0 -45 14.5 -83t43.5 -66t73 -43.5t103 -15.5q90 0 137 41.5t47 115.5q0 38 -16.5 63.5t-42.5 43t-58 29.5t-63 22l-229 74q-65 20 -125.5 56t-107 90t-74 126.5t-27.5 165.5q0 108 40 192.5t112 142.5
t171 88t217 30q93 0 172 -21.5t141.5 -57.5t106 -82.5t66.5 -96.5h100v-302h-362v88z" />
    <glyph glyph-name="T" unicode="T" horiz-adv-x="1419" 
d="M373 274h157v977h-184v-196h-326v461h1379v-461h-328v196h-209v-977h160v-274h-649v274z" />
    <glyph glyph-name="U" unicode="U" horiz-adv-x="1561" 
d="M51 1516h608v-275h-139v-629q0 -86 19.5 -146t54.5 -98t83 -55.5t105 -17.5q59 0 107.5 15t83 51.5t53 97.5t18.5 153v629h-161v275h608v-275h-121v-590q0 -160 -46 -284.5t-126.5 -210.5t-189 -131t-232.5 -45q-123 0 -230 44.5t-186.5 129t-125.5 205.5t-46 274v608
h-137v275z" />
    <glyph glyph-name="V" unicode="V" horiz-adv-x="1530" 
d="M860 1516h649v-275h-135l-405 -1241h-410l-393 1241h-146v275h650v-275h-162l264 -860l263 860h-175v275z" />
    <glyph glyph-name="W" unicode="W" horiz-adv-x="2357" 
d="M1688 1516h649v-275h-137l-349 -1241h-432l-229 946l-234 -946h-428l-355 1241h-153v275h650v-275h-158l223 -817l269 1089h372l264 -1089l224 817h-176v275z" />
    <glyph glyph-name="X" unicode="X" horiz-adv-x="1577" 
d="M878 1516h643v-275h-65l-456 -487l454 -480h63v-274h-643v274h158l-240 258l-242 -258h146v-274h-643v274h81l449 480l-455 487h-71v275h643v-275h-158l249 -265l245 265h-158v275z" />
    <glyph glyph-name="Y" unicode="Y" horiz-adv-x="1536" 
d="M47 1516h649v-275h-127l203 -348l215 348h-145v275h649v-275h-112l-451 -612v-355h184v-274h-676v274h168v359l-424 608h-133v275z" />
    <glyph glyph-name="Z" unicode="Z" horiz-adv-x="1290" 
d="M1214 1202l-755 -905h428v235h325v-532h-1151v313l737 906h-409v-240h-326v537h1151v-314z" />
    <glyph glyph-name="bracketleft" unicode="[" horiz-adv-x="670" 
d="M82 1612h547v-246h-223v-1630h223v-248h-547v2124z" />
    <glyph glyph-name="backslash" unicode="\" horiz-adv-x="778" 
d="M6 1384h236l571 -1677h-242z" />
    <glyph glyph-name="bracketright" unicode="]" horiz-adv-x="670" 
d="M266 1366h-223v246h547v-2124h-547v248h223v1630z" />
    <glyph glyph-name="asciicircum" unicode="^" horiz-adv-x="1229" 
d="M771 1513l404 -790h-296l-263 528l-274 -528h-290l416 790h303z" />
    <glyph glyph-name="underscore" unicode="_" horiz-adv-x="1024" 
d="M0 -90h1024v-256h-1024v256z" />
    <glyph glyph-name="grave" unicode="`" horiz-adv-x="774" 
d="M461 1178l-293 286v25h326l196 -311h-229z" />
    <glyph glyph-name="a" unicode="a" horiz-adv-x="1280" 
d="M717 56q-35 -22 -64 -37.5t-58 -25t-60 -14t-68 -4.5q-93 0 -166.5 25.5t-124 70t-77.5 105t-27 131.5q0 72 27.5 133t79.5 104.5t127.5 68t172.5 24.5q71 0 129.5 -7.5t108.5 -18.5v32q0 39 -15 67.5t-42 47t-65 27t-83 8.5q-94 0 -165.5 -18.5t-137.5 -53.5l-96 194
q102 70 213.5 107t236.5 37q97 0 179.5 -21.5t141.5 -70t92.5 -126.5t33.5 -190v-377h139v-274h-432v56zM489 211q71 0 129 23t99 56v132h-240q-23 0 -45 -7t-39.5 -20t-28 -32t-10.5 -44q0 -46 33.5 -77t101.5 -31z" />
    <glyph glyph-name="b" unicode="b" horiz-adv-x="1305" 
d="M29 1556h452v-543q54 26 111 40t117 14q115 0 213 -43t169 -117t111.5 -173t40.5 -210q0 -112 -39.5 -211t-110.5 -172.5t-169 -116t-215 -42.5q-63 0 -120 12t-108 34v-28h-307v1282h-145v274zM688 791q-66 0 -118.5 -30t-88.5 -86v-310q32 -48 85.5 -77.5t119.5 -29.5
q51 0 97 18.5t80.5 53t54.5 83t20 109.5q0 62 -20 112t-54 85t-79.5 53.5t-96.5 18.5z" />
    <glyph glyph-name="c" unicode="c" horiz-adv-x="1180" 
d="M856 678q-43 54 -96 81.5t-125 23.5q-58 4 -105.5 -16t-82 -56t-53.5 -85.5t-19 -111.5q0 -55 20 -104t54.5 -84.5t82 -55.5t103.5 -24q47 4 85.5 19.5t68.5 40t51.5 55t33.5 57.5l275 -76q-17 -60 -58.5 -125t-108 -118.5t-158 -88.5t-208.5 -35q-119 0 -219 43.5
t-172 118.5t-112.5 176t-40.5 217q0 115 41.5 213.5t114.5 172t173.5 114.5t218.5 37q84 4 163 -19t150 -69h199v-301h-276z" />
    <glyph glyph-name="d" unicode="d" horiz-adv-x="1400" 
d="M693 1556h453v-1282h202v-274h-510v40q-54 -28 -110.5 -44t-114.5 -16q-119 0 -218.5 42.5t-171 116.5t-111.5 173.5t-40 213.5t39.5 212.5t110 171.5t169 115t216.5 42q65 0 122 -12.5t109 -35.5v263h-145v274zM630 256q66 2 119.5 34t88.5 84v305q-35 53 -90.5 82.5
t-117.5 28.5q-52 1 -97.5 -18t-80 -54t-54.5 -84t-20 -111q0 -61 20 -110.5t54.5 -84t80 -52.5t97.5 -20z" />
    <glyph glyph-name="e" unicode="e" horiz-adv-x="1186" 
d="M349 453l3 -31q11 -45 37.5 -79t62.5 -57t80 -34.5t89 -11.5t85.5 5.5t78.5 15t74 22t73 26.5l110 -205q-57 -35 -104.5 -59.5t-95.5 -40.5t-102 -23.5t-126 -7.5q-135 0 -240 44.5t-176.5 120.5t-109 178t-37.5 216t39.5 214t111.5 174.5t172 117.5t222 43t216.5 -40.5
t159.5 -112t100 -168t38 -207.5q3 -25 3.5 -49.5t-1.5 -50.5h-763zM588 831q-56 0 -95.5 -13.5t-66.5 -37t-43 -53.5t-25 -63h433q-7 34 -20 64t-36 53t-58.5 36.5t-88.5 13.5z" />
    <glyph glyph-name="f" unicode="f" horiz-adv-x="815" 
d="M530 1036h189v-262h-189v-500h191v-274h-643v274h155v500h-157v262h157v172q0 91 32 160t85.5 116t123.5 71t147 24q57 0 102 -8.5t79 -21.5t57.5 -28t37.5 -28l-115 -211q-23 17 -52 27t-71 10q-27 0 -50.5 -9t-41 -26t-27.5 -42.5t-10 -59.5v-146z" />
    <glyph glyph-name="g" unicode="g" horiz-adv-x="1295" 
d="M849 54q-56 -32 -112 -46t-114 -14q-120 0 -221 41t-174.5 113.5t-114.5 171.5t-41 215q0 109 39.5 205.5t110.5 169t170 114.5t215 43q71 -1 130.5 -15t111.5 -38v22h303v-993q0 -131 -45 -226.5t-120.5 -158t-175.5 -93t-210 -30.5q-136 0 -251.5 37t-205.5 100
l125 222q69 -44 150 -69.5t180 -25.5q54 0 99.5 12t79 40.5t52.5 76.5t19 121v5zM633 271q70 0 126.5 35.5t89.5 93.5l2 252q-34 63 -93 100t-128 38q-49 -1 -96 -19.5t-81.5 -52.5t-54.5 -80.5t-20 -103.5q0 -60 20 -109t54 -83t80.5 -52.5t100.5 -18.5z" />
    <glyph glyph-name="h" unicode="h" horiz-adv-x="1386" 
d="M57 1556h467v-616q59 54 129.5 84.5t155.5 30.5q187 0 286 -104.5t99 -305.5v-371h152v-274h-463v575q0 87 -43 137t-111 50q-45 0 -98 -25t-107 -73v-390h152v-274h-619v274h160v1008h-160v274z" />
    <glyph glyph-name="i" unicode="i" horiz-adv-x="790" 
d="M80 1036h465v-762h144v-274h-609v274h156v488h-156v274zM220 1370q0 37 13.5 69.5t37.5 56.5t56.5 38t70.5 14q36 0 68 -14t56 -38t38 -56.5t14 -69.5t-14 -69.5t-38 -56.5t-56 -38t-68 -14q-38 0 -70.5 14t-56.5 38t-37.5 56.5t-13.5 69.5z" />
    <glyph glyph-name="j" unicode="j" horiz-adv-x="621" 
d="M51 1036h455v-1054q0 -119 -29.5 -204t-86 -140t-139.5 -81t-190 -26l-4 227q72 3 107 57.5t35 145.5v801h-148v274zM182 1370q0 37 13.5 69.5t37.5 56.5t56.5 38t70.5 14q36 0 68.5 -14t57 -38t39 -56.5t14.5 -69.5t-14.5 -69.5t-39 -56.5t-57 -38t-68.5 -14
q-38 0 -70.5 14t-56.5 38t-37.5 56.5t-13.5 69.5z" />
    <glyph glyph-name="k" unicode="k" horiz-adv-x="1450" 
d="M57 1556h467v-897h175l72 103v274h536v-274h-186l-193 -223l197 -238h172v-301h-281l-336 444h-156v-170h106v-274h-573v274h160v1008h-160v274z" />
    <glyph glyph-name="l" unicode="l" horiz-adv-x="780" 
d="M59 1556h467v-1282h160v-274h-627v274h160v1008h-160v274z" />
    <glyph glyph-name="m" unicode="m" horiz-adv-x="2156" 
d="M82 1036h474v-90q64 51 144 81t165 30q118 0 202.5 -41.5t132.5 -126.5q33 37 74.5 67.5t88.5 53t98.5 35t105.5 12.5q190 0 292 -105t102 -307v-371h147v-274h-473v594q0 88 -45.5 138t-126.5 50q-56 0 -105.5 -26.5t-98.5 -91.5q1 -11 1 -22.5v-23.5v-344h150v-274
h-473v596q0 42 -13 76t-36 58t-54.5 37.5t-69.5 14.5q-50 1 -103.5 -22t-102.5 -85v-401h166v-274h-644v274h154v488h-152v274z" />
    <glyph glyph-name="n" unicode="n" horiz-adv-x="1460" 
d="M932 596q0 87 -46 136.5t-122 49.5q-52 0 -105 -23t-103 -86v-399h168v-274h-644v274h152v488h-150v274h472v-91q65 51 145.5 80.5t169.5 29.5q187 0 288 -104.5t101 -305.5v-371h147v-274h-473v596z" />
    <glyph glyph-name="o" unicode="o" 
d="M72 522q0 113 41 212t114 173t174 117t222 43t222.5 -43t174.5 -117t113.5 -173t40.5 -212t-39.5 -212.5t-112 -174t-174 -117.5t-225.5 -43q-125 0 -226.5 43t-173.5 117t-111.5 173.5t-39.5 213.5zM371 522q0 -59 20 -108.5t54.5 -85.5t80 -56t97.5 -20q53 0 98.5 19.5
t79 55.5t52.5 85.5t19 109.5q0 62 -19 112t-52.5 85t-79 53.5t-98.5 17.5q-52 1 -97.5 -17.5t-80 -53.5t-54.5 -85t-20 -112z" />
    <glyph glyph-name="p" unicode="p" horiz-adv-x="1368" 
d="M119 1036h452v-15q48 21 98 33.5t103 12.5q114 0 212 -43t170 -117t112.5 -173t40.5 -210q0 -112 -39.5 -211t-110.5 -172.5t-169.5 -116t-215.5 -42.5q-66 0 -123 12.5t-110 35.5v-227h198v-274h-676v274h170v959h-112v274zM750 791q-63 0 -118 -33t-93 -93v-292
q32 -51 87 -83t124 -32q51 0 97 19.5t80 55t54 84t20 105.5q0 63 -19.5 113t-53.5 84.5t-80 53t-98 18.5z" />
    <glyph glyph-name="q" unicode="q" horiz-adv-x="1333" 
d="M606 -197h215v234q-53 -26 -107.5 -41.5t-111.5 -15.5q-119 0 -218.5 42.5t-171 117t-111.5 174.5t-40 214q0 111 39.5 209t110 171.5t169 116t216.5 42.5q63 0 118.5 -12t106.5 -34v46h307v-1264h154v-274h-676v274zM621 258q62 0 113.5 28.5t86.5 78.5v321
q-35 49 -89 77t-114 28q-51 0 -97 -19t-80 -54t-54 -84t-20 -110q0 -62 20 -111.5t54.5 -84t80.5 -52.5t99 -18z" />
    <glyph glyph-name="r" unicode="r" horiz-adv-x="1110" 
d="M1020 659h-281v107q-41 0 -75 -5.5t-59.5 -18.5t-43 -36t-24.5 -57v-375h211v-274h-676v274h155v488h-153v274h461v-73q44 35 99 54t120 19q66 0 136 -1t130 -1v-375z" />
    <glyph glyph-name="s" unicode="s" horiz-adv-x="1102" 
d="M725.5 765q-15.5 22 -45.5 38.5t-73.5 26.5t-98.5 10q-21 0 -45 -3.5t-44.5 -12.5t-34 -24.5t-13.5 -39.5q0 -12 3.5 -23t13.5 -21t27.5 -18.5t45.5 -13.5l188 -37q102 -20 171 -50t111 -70t60.5 -89t18.5 -106q0 -89 -41.5 -156t-109 -111.5t-152 -67t-170.5 -22.5
q-56 0 -101.5 7t-82 19t-65 28.5t-52.5 36.5h-181v278h283v-6q1 -29 18 -50.5t44.5 -36.5t62.5 -22.5t74 -7.5q90 0 131 23.5t41 60.5q0 29 -20 49.5t-71 32.5l-192 41q-181 35 -273 116.5t-92 209.5q0 75 35 136.5t95 105t140.5 67.5t172.5 24q63 0 112 -7.5t88 -19.5
t68.5 -28.5t52.5 -34.5h174v-278h-258q0 24 -15.5 46z" />
    <glyph glyph-name="t" unicode="t" horiz-adv-x="800" 
d="M471 1036h207v-262h-209l-2 -438q0 -38 6 -61.5t17.5 -37.5t27.5 -19t37 -5q38 0 67 7.5t58 17.5l43 -193q-51 -32 -113.5 -51t-148.5 -19q-61 0 -116.5 21t-97.5 63.5t-67 106.5t-24 149l3 459h-149v262h150l2 248l311 148z" />
    <glyph glyph-name="u" unicode="u" horiz-adv-x="1410" 
d="M723 1036h490v-762h125v-274h-439v88q-53 -48 -124 -74t-164 -26q-86 0 -162 27t-132.5 81.5t-89 136.5t-32.5 193v336h-135v274h458v-610q0 -104 53 -155.5t138 -51.5q60 0 109 37t71 100v406h-166v274z" />
    <glyph glyph-name="v" unicode="v" horiz-adv-x="1257" 
d="M41 1036h541v-274h-126l169 -445l163 445h-112v274h541v-274h-138l-309 -766h-305l-309 766h-115v274z" />
    <glyph glyph-name="w" unicode="w" horiz-adv-x="1898" 
d="M41 1036h541v-274h-117l110 -369l213 643h293l215 -676l132 402h-111v274h541v-274h-139l-277 -766h-299l-217 661l-221 -661h-291l-257 766h-116v274z" />
    <glyph glyph-name="x" unicode="x" horiz-adv-x="1235" 
d="M686 274h59l-129 123l-134 -123h67v-274h-488v274h103l257 252l-238 236h-122v274h488v-274h-47l121 -107l116 107h-55v274h487v-274h-114l-239 -237l253 -251h103v-274h-488v274z" />
    <glyph glyph-name="y" unicode="y" horiz-adv-x="1241" 
d="M51 1036h508v-274h-80l149 -388l153 388h-89v274h508v-274h-113l-401 -959h178v-274h-643v274h181l78 197l-324 762h-105v274z" />
    <glyph glyph-name="z" unicode="z" horiz-adv-x="1140" 
d="M94 164l429 606h-201v-156h-261v422h908v-180l-451 -588h230v199h262v-467h-916v164z" />
    <glyph glyph-name="braceleft" unicode="{" horiz-adv-x="897" 
d="M102 797q35 6 66.5 7t58 5t47.5 14t35.5 33.5t22.5 63t8 102.5v401q0 97 19 164t57 108t94 59t131 18q47 0 83 -1.5t61 -3.5q29 -2 51 -4v-307q-47 -2 -75.5 -9.5t-44.5 -24.5t-21 -46t-5 -73v-410q0 -33 -4.5 -60.5t-16.5 -50.5t-34 -42.5t-57 -35.5q36 -15 58 -36.5
t34 -47.5t16 -55.5t4 -60.5v-371q0 -51 5 -82.5t21 -48.5t44.5 -24t75.5 -9v-327q-22 -3 -51 -5q-25 -2 -61 -3t-83 -1q-75 0 -131 18t-94 59t-57 107.5t-19 164.5v475q-7 62 -28 90.5t-53 39.5t-72 11.5t-85 7.5v191z" />
    <glyph glyph-name="bar" unicode="|" horiz-adv-x="594" 
d="M123 1729h252v-1999h-252v1999z" />
    <glyph glyph-name="braceright" unicode="}" horiz-adv-x="897" 
d="M61 -358v327q47 2 75.5 9t44.5 24t21 48.5t5 82.5v371q0 31 4 60.5t16 55.5t34 47.5t58 36.5q-35 16 -57 35.5t-34 42.5t-16.5 50.5t-4.5 60.5v410q0 44 -5 73t-21 46t-44.5 24.5t-75.5 9.5v307q22 2 51 4q25 2 60.5 3.5t83.5 1.5q62 0 111.5 -12.5t86.5 -40t60.5 -71.5
t34.5 -108q5 -26 6.5 -55.5t1.5 -61.5v-321q0 -86 6 -140t18.5 -85.5t31.5 -45.5t45.5 -19.5t60.5 -7t76 -7.5v-191q-45 -7 -85 -7.5t-72 -11.5t-53 -39.5t-28 -90.5v-475q0 -32 -1.5 -61.5t-6.5 -55.5q-11 -64 -34.5 -108t-60.5 -71.5t-86.5 -40t-111.5 -12.5
q-48 0 -83.5 1t-60.5 3q-29 2 -51 5z" />
    <glyph glyph-name="asciitilde" unicode="~" horiz-adv-x="905" 
d="M-8 512q0 30 5 66t16.5 72.5t31.5 70.5t50 60.5t72 42.5t97 16q24 0 55.5 -11t66.5 -27t72 -35t71.5 -35t64 -26t51.5 -10q47 0 69.5 27.5t30.5 87.5l185 -41q0 -45 -12.5 -100.5t-45.5 -104.5t-90 -84t-147 -35q-55 0 -108 23.5t-101.5 50t-90.5 48.5t-75 22
q-19 0 -36 -5.5t-30 -19t-21 -35.5t-9 -55z" />
    <glyph glyph-name="ellipsis" unicode="&#x2026;" horiz-adv-x="1315" 
d="M31 143q0 37 14.5 69t40 55t59.5 36.5t72 13.5q37 0 72 -13.5t61 -36.5t42 -55t16 -69q0 -35 -16 -66.5t-42 -55.5t-61 -38t-72 -14q-38 0 -72 14t-59.5 38t-40 55.5t-14.5 66.5zM469 143q0 37 14.5 69t40 55t59.5 36.5t72 13.5t72.5 -13.5t61 -36.5t42 -55t15.5 -69
q0 -35 -15.5 -66.5t-42 -55.5t-61 -38t-72.5 -14t-72 14t-59.5 38t-40 55.5t-14.5 66.5zM907 143q0 37 14.5 69t40 55t59.5 36.5t73 13.5q37 0 71.5 -13.5t61 -36.5t42 -55t15.5 -69q0 -35 -15.5 -66.5t-42 -55.5t-61 -38t-71.5 -14q-39 0 -73 14t-59.5 38t-40 55.5
t-14.5 66.5z" />
    <glyph glyph-name="quoteleft" unicode="&#x2018;" horiz-adv-x="530" 
d="M305 1651l205 -78l-184 -569l-306 106z" />
    <glyph glyph-name="quoteright" unicode="&#x2019;" horiz-adv-x="532" 
d="M205 1634l305 -106l-285 -541l-205 78z" />
    <glyph glyph-name="quotedblleft" unicode="&#x201c;" horiz-adv-x="938" 
d="M737 1657l221 -84l-215 -584l-284 107zM274 1663l222 -92l-242 -572l-285 107z" />
    <glyph glyph-name="quotedblright" unicode="&#x201d;" horiz-adv-x="981" 
d="M215 995l-221 84l215 584l285 -107zM678 989l-221 92l241 572l285 -107z" />
    <glyph glyph-name="quotesinglbase" unicode="&#x201a;" horiz-adv-x="532" 
d="M205 283l305 -107l-285 -541l-205 78z" />
    <glyph glyph-name="quotedblbase" unicode="&#x201e;" horiz-adv-x="981" 
d="M215 -392l-221 84l215 584l285 -107zM678 -398l-221 92l241 572l285 -107z" />
    <glyph glyph-name="commabelow" horiz-adv-x="532" 
d="M139 -29l289 -104l-197 -338l-206 72z" />
    <glyph glyph-name="apostrophe" unicode="&#x2bc;" horiz-adv-x="340" 
d="M111 1493l288 -104l-196 -338l-207 71z" />
    <glyph glyph-name="commaaccent" horiz-adv-x="340" 
d="M285 1112l-289 105l197 337l206 -71z" />
    <glyph glyph-name="endash" unicode="&#x2013;" horiz-adv-x="1229" 
d="M102 733h1024v-274h-1024v274z" />
    <glyph glyph-name="emdash" unicode="&#x2014;" horiz-adv-x="1843" 
d="M0 733h1843v-274h-1843v274z" />
    <glyph glyph-name="brokenbar" unicode="&#xa6;" horiz-adv-x="594" 
d="M123 1729h252v-758h-252v758zM123 487h252v-757h-252v757z" />
    <glyph glyph-name="guilsinglleft" unicode="&#x2039;" horiz-adv-x="598" 
d="M567 223h-229l-256 370v74l260 369h223l-211 -406z" />
    <glyph glyph-name="guilsinglright" unicode="&#x203a;" horiz-adv-x="594" 
d="M244 630l-211 406h223l260 -369v-74l-256 -370h-229z" />
    <glyph glyph-name="guillemotleft" unicode="&#xab;" horiz-adv-x="1038" 
d="M567 223h-229l-256 370v74l260 369h223l-211 -406zM1008 223h-230l-256 370v74l260 369h224l-211 -406z" />
    <glyph glyph-name="guillemotright" unicode="&#xbb;" horiz-adv-x="1100" 
d="M244 630l-211 406h223l260 -369v-74l-256 -370h-229zM684 630l-211 406h223l260 -369v-74l-256 -370h-229z" />
    <glyph glyph-name="degree" unicode="&#xb0;" horiz-adv-x="815" 
d="M410 1706q64 0 120 -23.5t97 -65t64.5 -98.5t23.5 -124q0 -65 -23.5 -121.5t-64.5 -99t-97 -67t-120 -24.5q-65 0 -121.5 24.5t-98 67t-65 100t-23.5 122.5q0 64 24 120t66 98t98 66.5t120 24.5zM258 1389q0 -29 12 -56t32 -47.5t46 -32.5t55 -12q34 0 62.5 11t48.5 31
t31.5 48t11.5 62t-11 63t-31 49t-47.5 31.5t-59.5 11.5t-59 -12t-47.5 -33.5t-32 -50.5t-11.5 -63z" />
    <glyph glyph-name="periodcentered" unicode="&#xb7;" horiz-adv-x="721" 
d="M201 633q0 37 13.5 69.5t37.5 56.5t56.5 38t70.5 14q36 0 68 -14t56 -38t38 -56.5t14 -69.5t-14 -69.5t-38 -56.5t-56 -38t-68 -14q-38 0 -70.5 14t-56.5 38t-37.5 56.5t-13.5 69.5z" />
    <glyph glyph-name="bullet" unicode="&#x2022;" horiz-adv-x="1024" 
d="M180 778q0 69 26.5 129t71.5 104.5t105.5 70.5t128.5 26t128 -26t105 -70.5t71 -104.5t26 -129q0 -68 -26 -128.5t-71 -105.5t-105 -71.5t-128 -26.5t-128.5 26.5t-105.5 71.5t-71.5 105.5t-26.5 128.5z" />
    <glyph glyph-name="circumflex" unicode="&#x2c6;" horiz-adv-x="827" 
d="M86 1176l272 325h240l274 -325h-245l-148 153l-145 -153h-248z" />
    <glyph glyph-name="tilde" unicode="&#x2dc;" horiz-adv-x="903" 
d="M295 1479q42 0 81 -14.5t76.5 -32t73 -32t70.5 -14.5q42 0 74.5 15t58.5 53l158 -70q-15 -45 -42.5 -84t-63.5 -68.5t-79 -46t-90 -16.5q-52 0 -94 13.5t-79.5 30t-73.5 30.5t-76 14q-45 0 -76 -18.5t-51 -44.5l-152 70q14 54 47.5 94t74.5 67t84.5 40.5t78.5 13.5z" />
    <glyph glyph-name="macron" unicode="&#xaf;" horiz-adv-x="831" 
d="M770 1176h-688v215h688v-215z" />
    <glyph glyph-name="breve" unicode="&#x2d8;" horiz-adv-x="987" 
d="M483 1157q-95 0 -167 21.5t-125 63t-89.5 101.5t-60.5 138h252q20 -60 67.5 -91.5t122.5 -31.5q72 0 118 29t71 94h250q-22 -77 -58 -137t-89.5 -101.5t-125.5 -63.5t-166 -22z" />
    <glyph glyph-name="cedilla" unicode="&#xb8;" horiz-adv-x="926" 
d="M182 -293q41 3 77.5 19.5t66 46.5t51 73.5t31.5 100.5l243 -86q-23 -79 -65 -138t-100 -98t-128.5 -59t-150.5 -21z" />
    <glyph glyph-name="hungarumlaut" unicode="&#x2dd;" horiz-adv-x="1317" 
d="M1167 1511l-280 -319h-189l209 319h260zM770 1511l-256 -319h-186l184 319h258z" />
    <glyph glyph-name="ogonek" unicode="&#x2db;" horiz-adv-x="0" 
d="M469 29q-66 -29 -111 -56t-73 -55.5t-40 -58.5t-12 -64q0 -19 8 -32t21 -20.5t29.5 -11t34.5 -3.5q38 0 65 6.5t47 15.5l49 -166q-11 -6 -31 -13t-45 -13.5t-52 -10.5t-50 -4q-61 0 -112 13.5t-88.5 39.5t-58.5 64.5t-21 89.5t18 95.5t47.5 81.5t67.5 66.5t77.5 52
t77 37.5t66.5 23z" />
    <glyph glyph-name="caron" unicode="&#x2c7;" horiz-adv-x="1100" 
d="M872 1462l-272 -325h-240l-274 325h246l147 -153l146 153h247z" />
    <glyph glyph-name="acute" unicode="&#xb4;" horiz-adv-x="680" 
d="M256 1489h326v-25l-306 -286h-235z" />
    <glyph glyph-name="dieresis" unicode="&#xa8;" horiz-adv-x="940" 
d="M47 1343q0 37 13.5 69.5t37.5 57t56.5 38.5t70.5 14q36 0 68 -14t56 -38.5t38 -57t14 -69.5t-14 -69.5t-38 -56.5t-56 -38t-68 -14q-38 0 -70.5 14t-56.5 38t-37.5 56.5t-13.5 69.5zM526 1343q0 37 14 69.5t38 57t56.5 38.5t70.5 14q36 0 68 -14t56 -38.5t38 -57
t14 -69.5t-14 -69.5t-38 -56.5t-56 -38t-68 -14q-38 0 -70.5 14t-56.5 38t-38 56.5t-14 69.5z" />
    <glyph glyph-name="ring" unicode="&#x2da;" horiz-adv-x="1200" 
d="M606 1736q65 0 123 -25t101.5 -68t68.5 -101t25 -123t-25 -123t-68.5 -101.5t-101.5 -68.5t-123 -25t-123 25t-101 68.5t-68 101.5t-25 123t25 123t68 101t101 68t123 25zM481 1419q0 -26 10 -49t27 -40t39.5 -26.5t48.5 -9.5t48.5 9.5t39 26.5t26 40t9.5 49t-9.5 48.5
t-26 39t-39 26t-48.5 9.5t-48.5 -9.5t-39.5 -26t-27 -39t-10 -48.5z" />
    <glyph glyph-name="dotaccent" unicode="&#x2d9;" horiz-adv-x="539" 
d="M92 1370q0 37 13.5 69.5t37.5 56.5t56.5 38t70.5 14q36 0 68 -14t56 -38t38 -56.5t14 -69.5t-14 -69.5t-38 -56.5t-56 -38t-68 -14q-38 0 -70.5 14t-56.5 38t-37.5 56.5t-13.5 69.5z" />
    <glyph glyph-name="macron#1" horiz-adv-x="831" 
d="M770 1176h-688v215h688v-215z" />
    <glyph glyph-name="dieresis.i" horiz-adv-x="940" 
d="M115 1343q0 66 46 113t113 47q33 0 62 -12t50.5 -33.5t33.5 -51.5t12 -63q0 -32 -12 -62t-33.5 -51.5t-50.5 -33.5t-62 -12q-67 0 -113 47t-46 112v0zM492 1343q0 66 46 113t113 47q33 0 61.5 -12t50 -33.5t34 -51.5t12.5 -63q0 -32 -12.5 -62t-34 -51.5t-50 -33.5
t-61.5 -12q-67 0 -113 47t-46 112v0z" />
    <glyph glyph-name="circumflex.i" horiz-adv-x="827" 
d="M86 1176l229 325h203l232 -325h-207l-125 153l-123 -153h-209z" />
    <glyph glyph-name="breve.i" horiz-adv-x="987" 
d="M483 1157q-96 0 -167.5 21.5t-124 62.5t-89 101.5t-61.5 138.5h252q20 -60 67.5 -91.5t122.5 -31.5q72 0 118 28.5t71 94.5h250q-23 -78 -59 -137.5t-89 -101.5t-124.5 -63.5t-166.5 -21.5v0z" />
    <glyph glyph-name="caron.i" horiz-adv-x="1100" 
d="M872 1462l-272 -325h-240l-274 325h246l147 -153l146 153h247z" />
    <glyph glyph-name="AE" unicode="&#xc6;" horiz-adv-x="2093" 
d="M-34 274h126l791 1242h1149v-517h-326v215h-370v-305h290v-274h-290v-361h370v269h326v-543h-1149v274h121v138h-497l-83 -138h116v-274h-574v274zM671 686h333v568z" />
    <glyph glyph-name="ae" unicode="&#xe6;" horiz-adv-x="1851" 
d="M711 643q0 79 -54 114.5t-145 35.5q-94 0 -165.5 -18.5t-137.5 -53.5l-96 194q102 70 213.5 107t236.5 37q97 0 178 -21.5t153 -83.5q60 51 137 84q100 43 222 43t216.5 -40.5t159.5 -112t100 -168t38 -164.5t3.5 -92.5t-1.5 -50.5h-763l3 -31q11 -45 37.5 -79t62.5 -57
t80 -34.5t89 -11.5t85.5 5.5t78.5 15t74 22t73 26.5l110 -205q-57 -35 -104.5 -59.5t-95.5 -40.5t-102 -23.5t-126 -7.5q-135 0 -240 44.5t-176 119.5q-28 -28 -64 -56.5t-84.5 -52.5t-108 -38.5t-131.5 -14.5q-93 0 -166.5 25.5t-124 70t-77.5 105t-27 131.5q0 72 27.5 133
t79.5 104.5t127.5 68t172.5 24.5q76 0 138 -8q50 -7 94 -16v30zM432 415q-22 -7 -39.5 -20t-28 -32t-10.5 -44q0 -46 33.5 -77t101.5 -31q93 0 159 30q55 26 101 64q-2 5 -4 11q-19 51 -28 106h-240q-23 0 -45 -7zM1245 831q-56 0 -95.5 -13.5t-66.5 -37t-43 -53.5t-25 -63
h433q-7 34 -20 64t-36 53t-58.5 36.5t-88.5 13.5z" />
    <glyph glyph-name="OE" unicode="&#x152;" horiz-adv-x="2314" 
d="M799 -27q-154 0 -288 61.5t-232.5 168t-155.5 249t-57 306.5t57 307t155.5 249.5t232.5 168t288 61.5q112 0 214.5 -33.5t190.5 -95.5v101h1049v-517h-326v215h-389v-299h301v-290h-301v-351h389v269h326v-543h-1049v100q-88 -59 -190.5 -93t-214.5 -34v0zM799 287
q88 0 159.5 37.5t124 102.5t81 150t28.5 181t-29.5 182t-82 150.5t-124 102.5t-157.5 38t-158 -38t-124 -102.5t-81.5 -150.5t-29.5 -182t29.5 -181t81.5 -150t124 -102.5t158 -37.5v0z" />
    <glyph glyph-name="oe" unicode="&#x153;" horiz-adv-x="2015" 
d="M72 522q0 113 41 212t114 173t174 117t222 43q123 0 222.5 -43.5t171.5 -119.5q36 41 80.5 73.5t96 55.5t109.5 35.5t122 12.5q93 0 168.5 -23.5t135 -65.5t102 -100.5t69.5 -128.5t37 -148.5t5 -161.5h-763q4 -49 28 -88.5t61 -67t84 -42.5t98 -15q45 0 85.5 5.5
t78.5 15t74 22t73 26.5l111 -205q-58 -35 -105.5 -59.5t-95.5 -40.5t-102 -23.5t-125 -7.5q-138 0 -243.5 45.5t-177.5 123.5q-71 -78 -171.5 -122.5t-228.5 -44.5q-125 0 -226.5 43t-173.5 117t-111.5 173.5t-39.5 213.5zM371 522q0 -59 20 -108.5t54.5 -85.5t80 -56
t97.5 -20q53 0 99.5 19.5t81.5 55.5t55.5 85.5t20.5 109.5q0 62 -20.5 112t-55.5 85t-81.5 53.5t-99.5 18.5q-52 0 -97.5 -18.5t-80 -53.5t-54.5 -85t-20 -112zM1417 831q-56 0 -95.5 -13.5t-66.5 -37t-43 -53.5t-24 -63h432q-7 34 -19.5 64t-35.5 53t-59 36.5t-89 13.5z
" />
    <glyph glyph-name="thorn" unicode="&#xfe;" horiz-adv-x="1305" 
d="M29 1556h451v-538q54 27 109 43t108 16q119 0 219 -43.5t172.5 -118t113 -174t40.5 -211.5q0 -113 -39.5 -212.5t-110.5 -173.5t-169 -117t-215 -43q-124 0 -228 46v-227h225v-274h-676v274h144v1478h-144v275zM687 786q-63 0 -116.5 -28.5t-90.5 -79.5v-307
q32 -48 85.5 -77.5t119.5 -29.5q51 0 97 19.5t80.5 54.5t54.5 83.5t20 106.5q0 59 -20 107t-54 81.5t-79.5 51.5t-96.5 18z" />
    <glyph glyph-name="Thorn" unicode="&#xde;" horiz-adv-x="1450" 
d="M112 1516h649v-275h-158v-47h210q117 0 215 -33.5t169 -92.5t111 -139t40 -173q0 -85 -31.5 -163t-97.5 -138t-167 -95.5t-239 -35.5h-210v-50h158v-274h-649v274h159v967h-159v275zM603 920v-326h136q114 0 181 38.5t67 121.5q0 78 -63 122t-185 44h-136z" />
    <glyph glyph-name="Oslash" unicode="&#xd8;" horiz-adv-x="1591" 
d="M256 229q-90 105 -140 240t-50 289q0 109 26 209.5t73 188t113.5 159t148 122.5t175.5 79t197 28q105 0 199.5 -29t177.5 -81l130 170h256l-230 -303q94 -106 148 -245t54 -298q0 -108 -26 -208.5t-73.5 -188t-114 -159t-148 -122.5t-176 -79t-197.5 -28
q-108 0 -205.5 30.5t-182.5 86.5l-94 -124h-262zM799 287q87 0 159.5 37.5t124.5 102t80.5 150t28.5 181.5q0 75 -18 143.5t-50 126.5l-519 -683q42 -28 91 -43t103 -15zM406 758q0 -70 15.5 -134.5t44.5 -119.5l516 675q-41 25 -86.5 38.5t-96.5 13.5q-86 0 -158 -37.5
t-124 -102t-81.5 -150.5t-29.5 -183z" />
    <glyph glyph-name="oslash" unicode="&#xf8;" horiz-adv-x="1196" 
d="M194 155q-63 73 -97.5 166.5t-34.5 200.5q0 113 41 212t114 173t174 117t222 43q66 0 125.5 -13t113.5 -37l114 150h256l-204 -269q69 -74 107.5 -170t38.5 -206q0 -113 -39.5 -212.5t-112 -174t-174 -117.5t-225.5 -43q-71 0 -134 14t-119 40l-68 -90h-262zM862 522
q0 74 -28 133l-296 -392q36 -11 75 -11q53 0 98.5 19.5t79 55.5t52.5 85.5t19 109.5zM361 522q0 -66 24 -118l289 380q-26 7 -61 7q-52 0 -97.5 -18.5t-80 -53.5t-54.5 -85t-20 -112z" />
    <glyph glyph-name="Eth" unicode="&#xd0;" horiz-adv-x="1468" 
d="M82 1516h582q104 0 199.5 -27t178 -76t150 -117.5t115.5 -152.5t74 -181t26 -202t-26 -202t-74 -181.5t-115.5 -154t-150 -119t-178 -76.5t-199.5 -27h-582v274h121v347h-138v274h138v346h-121v275zM535 621v-347h127q81 0 153 38t125 103.5t84 154t31 190.5
q0 101 -31 189t-84 153t-125 102t-153 37h-127v-346h157v-274h-157z" />
    <glyph glyph-name="eth" unicode="&#xf0;" horiz-adv-x="1220" 
d="M955 1213l-135 -33l180 -324q24 -43 46 -85t39.5 -85t27.5 -88.5t10 -95.5q0 -105 -41.5 -196t-113 -158t-166.5 -105.5t-201 -38.5q-108 0 -204 38.5t-167 106.5t-112.5 161t-41.5 202q0 89 31.5 168t86.5 141.5t129 105t159 58.5q23 5 48 7.5t52 1.5l-65 114l-219 -53
l-64 268l142 34l-101 177h350l57 -104l209 50zM607 711q-48 0 -91 -15t-74.5 -42t-50 -65t-18.5 -85q0 -49 20 -87.5t52.5 -65t73 -40.5t82.5 -14q58 0 100.5 19.5t70 50.5t41 67.5t13.5 71.5q0 50 -17 88.5t-46 64.5t-69.5 39t-86.5 13z" />
    <glyph glyph-name="fi" unicode="&#xfb01;" horiz-adv-x="1536" 
d="M76 1036h157v172q0 90 32 160t85 117t123 70.5t148 23.5q114 0 180.5 -29.5t95.5 -56.5l-115 -211q-22 16 -52 26.5t-71 10.5q-53 0 -91 -35t-38 -102v-146h189v-262h-189v-500h191v-274h-643v274h155v500h-157v262zM877 1036h464v-762h144v-274h-608v274h155v488h-155
v274zM1016 1370q0 74 51 126t127 52q37 0 68.5 -14t55 -37.5t38 -56.5t14.5 -70t-14.5 -69.5t-38 -56t-55 -38t-68.5 -14.5q-76 0 -127 52t-51 126v0z" />
    <glyph glyph-name="fl" unicode="&#xfb02;" horiz-adv-x="1300" 
d="M530 1036h189v-262h-189v-500h191v-274h-643v274h155v500h-157v262h157v172q0 90 32 160t85 117t123 70.5t148 23.5q49 0 89 -7t72 -18v2h308v-1282h159v-274h-467v1282q-22 16 -52 26.5t-71 10.5q-53 0 -91 -35t-38 -102v-146z" />
    <glyph glyph-name="mu" unicode="&#xb5;" horiz-adv-x="1350" 
d="M1183 274h125v-274h-438v88q-53 -48 -124.5 -74t-164.5 -26q-50 0 -95 9v-468h-332v1507h335v-610q0 -104 53 -155.5t137 -51.5q60 0 109.5 37.5t71.5 99.5v680h323v-762z" />
    <glyph glyph-name="germandbls" unicode="&#xdf;" horiz-adv-x="1354" 
d="M682 979h72q37 1 59 16.5t37.5 37.5t24 47.5t8.5 47.5q0 79 -46.5 128t-129.5 49q-36 0 -65.5 -12.5t-50.5 -36t-32.5 -56.5t-11.5 -74v-1124h-37v-2h-473v274h207v908q0 70 31 141t90 128t145 92.5t197 35.5q107 0 193.5 -32.5t147 -88.5t93.5 -130.5t33 -158.5
q0 -50 -8.5 -91t-23.5 -74.5t-34.5 -59.5t-41.5 -46q105 -64 163.5 -168t58.5 -236q0 -128 -41 -223t-112.5 -158t-169 -94t-211.5 -31q-20 0 -37 1.5t-37 4.5l14 276q16 -3 28 -3.5t28 -0.5q45 0 84 16.5t67.5 45.5t45 68.5t16.5 86.5q0 44 -16.5 82.5t-45 67t-67 45
t-82.5 16.5h-68z" />
    <glyph glyph-name="dotlessi" unicode="&#x131;" horiz-adv-x="790" 
d="M80 1037l467 -1v-762h142v-274h-608v274h156v488h-157v275z" />
    <glyph glyph-name="onesuperior" unicode="&#xb9;" horiz-adv-x="539" 
d="M51 1034h131v250l-141 -67v233l238 127h112v-543h121v-194h-461v194z" />
    <glyph glyph-name="twosuperior" unicode="&#xb2;" horiz-adv-x="721" 
d="M86 1034l270 201q22 17 33.5 30.5t17 24.5t6.5 19.5t1 15.5q0 17 -13 29t-39 12q-20 0 -31.5 -7.5t-17 -18t-7 -21t-1.5 -16.5h-225q-1 71 21.5 123t62.5 86t94.5 50.5t118.5 16.5q50 0 100 -14t90.5 -43t66 -72.5t25.5 -103.5q0 -30 -6.5 -53.5t-18.5 -43t-28.5 -36
t-36.5 -33.5l-159 -133h249v-205h-573v192z" />
    <glyph glyph-name="threesuperior" unicode="&#xb3;" horiz-adv-x="721" 
d="M410 1339q0 19 -14 36t-42 17q-25 0 -43 -15.5t-18 -55.5h-219q-2 57 15 106.5t53 86t91 57t128 20.5q55 0 106 -18.5t90 -50.5t62 -75.5t23 -93.5q0 -46 -15.5 -78.5t-32.5 -52.5q18 -16 33.5 -39.5t22 -51t6.5 -56.5q0 -48 -22 -94t-62 -81.5t-94.5 -56t-118.5 -20.5
q-74 0 -130 21.5t-94 59t-57.5 88.5t-19.5 110h219q0 -24 7.5 -41t23 -29t45.5 -12q26 0 41 9.5t22.5 24.5t7.5 33q0 29 -19 44.5t-52 15.5h-99v133h108q20 0 34 16t14 43z" />
    <glyph glyph-name="ordmasculine" unicode="&#xba;" horiz-adv-x="883" 
d="M61 1210q0 73 28.5 139.5t79 117t120.5 80.5t153 30q82 0 152 -30t120 -81t78.5 -117.5t28.5 -138.5q0 -73 -27.5 -139.5t-77.5 -117.5t-119.5 -81t-154.5 -30q-86 0 -156 30t-120 81t-77.5 117.5t-27.5 139.5zM287 1210q0 -25 12 -50t33 -44.5t49.5 -32t60.5 -12.5
t60 12.5t48.5 32t32 44.5t11.5 50q0 28 -11.5 52.5t-32 43t-48.5 29.5t-60 11t-60.5 -11t-49.5 -29.5t-33 -43t-12 -52.5z" />
    <glyph glyph-name="ordfeminine" unicode="&#xaa;" horiz-adv-x="1006" 
d="M571 909q-35 -18 -71 -25t-76 -7q-65 0 -114.5 16t-84 44.5t-52 67t-17.5 103.5q0 44 13 79t43 63.5t78.5 46.5t119.5 18q45 0 84 -5t74 -10q-4 52 -38.5 65t-87.5 13q-58 0 -102.5 -8t-93.5 -33l-72 141q74 50 148.5 74.5t162.5 24.5q65 0 121 -13.5t97 -43.5
t64.5 -79.5t23.5 -121.5v-224h94v-203h-314v17zM432 1050q85 0 138 33v70h-160q-11 0 -26 -7.5t-15 -32.5q0 -34 14 -48.5t49 -14.5z" />
    <glyph glyph-name="exclamdown" unicode="&#xa1;" horiz-adv-x="696" 
d="M139 985q0 37 13.5 69.5t37.5 56.5t56.5 38t70.5 14q36 0 68 -14t56 -38t38 -56.5t14 -69.5t-14 -69.5t-38 -56.5t-56 -38t-68 -14q-38 0 -70.5 14t-56.5 38t-37.5 56.5t-13.5 69.5zM180 596h287l41 -1067h-369z" />
    <glyph glyph-name="questiondown" unicode="&#xbf;" horiz-adv-x="1100" 
d="M380 964q0 37 13.5 69.5t37.5 56.5t56.5 38t70.5 14q36 0 68 -14t56 -38t38 -56.5t14 -69.5t-14 -69.5t-38 -56.5t-56 -38t-68 -14q-38 0 -70.5 14t-56.5 38t-37.5 56.5t-13.5 69.5zM748 709q0 -70 -2 -123t-8.5 -94.5t-19 -74t-33 -60.5t-51 -54.5t-72.5 -56.5
q-46 -38 -76 -69.5t-47 -62.5t-24 -64t-7 -74q0 -59 29.5 -96t79.5 -37q31 0 57.5 7t46.5 26t31.5 52t11.5 85l318 -31q-2 -110 -38.5 -191.5t-100 -135.5t-150 -80.5t-188.5 -26.5q-95 0 -178 28t-144.5 83t-97 135t-35.5 184q0 109 50 200t153 172q53 38 88 71t56 72
t29.5 90t8.5 126h313z" />
    <glyph glyph-name="nonmarkingreturn" horiz-adv-x="0" 
 />
    <glyph glyph-name=".null" horiz-adv-x="0" 
 />
    <glyph glyph-name="uni0410" unicode="&#x410;" horiz-adv-x="1491" 
d="M893 274h151l-68 218h-466l-68 -218h160v-274h-575v274h113l413 1242h401l404 -1242h110v-274h-575v274zM589 748h306l-154 493z" />
    <glyph glyph-name="uni0411" unicode="&#x411;" horiz-adv-x="1386" 
d="M113 274h155v977h-151v265h1186v-461h-328v196h-375v-299h213q137 0 238.5 -39t167 -103.5t97.5 -148t32 -176.5q0 -102 -40 -191t-111 -154.5t-169 -102.5t-215 -37h-700v274zM600 678v-404h139q123 0 185.5 53.5t62.5 151.5q0 51 -17.5 89t-50 62.5t-77.5 36t-103 11.5
h-139z" />
    <glyph glyph-name="uni0412" unicode="&#x412;" horiz-adv-x="1386" 
d="M113 274h155v967h-155v277l739 -2q103 0 188.5 -36.5t147.5 -99t96.5 -146t34.5 -177.5q0 -110 -38.5 -182t-109.5 -116q75 -48 118.5 -118.5t43.5 -171.5q0 -103 -35.5 -189t-97 -148.5t-145.5 -97t-181 -34.5h-761v274zM600 627v-353h252q29 0 54.5 15t44 39.5t29.5 57
t11 67.5q0 37 -11 68.5t-30 55t-44.5 37t-53.5 13.5h-252zM600 1241v-340h238q28 0 53 14t43.5 37.5t29.5 53t11 61.5q0 31 -11 62t-29.5 56t-43.5 40.5t-53 15.5h-238z" />
    <glyph glyph-name="uni0413" unicode="&#x413;" horiz-adv-x="1305" 
d="M113 274h157v977h-157v265h1185v-461h-327v196h-369v-977h160v-274h-649v274z" />
    <glyph glyph-name="uni0414" unicode="&#x414;" horiz-adv-x="1890" 
d="M164 272h166q55 21 88 58t50 91t22.5 122.5t5.5 150.5l2 549h-195v273h1411v-273h-160v-971h193v-620h-332v348h-919v-348h-332v620zM807 760q0 -139 -20.5 -264t-75.5 -224h512v971h-416v-483z" />
    <glyph glyph-name="uni0415" unicode="&#x415;" horiz-adv-x="1380" 
d="M113 1516h1206v-517h-326v215h-389v-299h301v-290h-301v-351h389v269h326v-543h-1206v274h159v940h-159v302z" />
    <glyph glyph-name="uni0416" unicode="&#x416;" horiz-adv-x="2237" 
d="M796 274h158v371h-142l-248 -370v-275h-504v275h123l384 511l-394 455h-123v275h514v-273l251 -323h139v321h-158v275h649v-275h-159v-321h137l250 323v273h514v-275h-124l-394 -455l385 -511h123v-275h-504v275l-248 370h-139v-371h159v-274h-649v274z" />
    <glyph glyph-name="uni0417" unicode="&#x417;" horiz-adv-x="1167" 
d="M61 563h363v-155q22 -66 71.5 -95.5t125.5 -29.5q43 0 80.5 14t65.5 38.5t44 58.5t16 71q0 41 -14 74.5t-42 58.5t-65.5 39t-87.5 14h-139v273h142q45 0 79.5 12t58 33.5t36 50.5t12.5 63q0 31 -13.5 61t-39 53.5t-61.5 38.5t-79 15q-36 0 -70 -12t-58.5 -33.5t-40 -49.5
t-15.5 -58v-97h-362v302h112q60 110 171.5 178.5t262.5 68.5q107 0 199 -36.5t159.5 -98t106.5 -143.5t39 -170q0 -98 -40 -178t-109 -127q71 -41 121.5 -129t50.5 -201q0 -98 -40 -186t-110.5 -155t-167 -105.5t-207.5 -38.5q-79 0 -153 20.5t-136.5 57t-109.5 88
t-74 114.5h-82v301z" />
    <glyph glyph-name="uni0418" unicode="&#x418;" horiz-adv-x="1894" 
d="M113 1516h613v-275h-123v-769l684 1046h494v-277h-167v-967h167v-274h-624v274h129v755l-684 -1029h-489v274h157v967h-157v275z" />
    <glyph glyph-name="uni041A" unicode="&#x41a;" horiz-adv-x="1655" 
d="M113 1516h649v-275h-160v-441l485 423v293h517v-295h-113l-505 -434l484 -490h123v-297h-503v297l-488 488v-511h160v-274h-649v274h157v967h-157v275z" />
    <glyph glyph-name="uni041B" unicode="&#x41b;" horiz-adv-x="1829" 
d="M1067 274h156v969h-416v-475q0 -137 -21.5 -274.5t-74 -247t-142.5 -178t-227 -68.5h-270v414h278v-152q49 23 81 63t48.5 94t22.5 122.5t6 152.5v549h-205v273h1411v-273h-160v-969h162v-274h-649v274z" />
    <glyph glyph-name="uni041C" unicode="&#x41c;" horiz-adv-x="2345" 
d="M113 274h141v967h-141v275h624l447 -1094l415 1094h633v-275h-141v-967h139v-274h-567v274h104v872l-454 -1128h-281l-462 1098v-842h113v-274h-570v274z" />
    <glyph glyph-name="uni041D" unicode="&#x41d;" horiz-adv-x="1890" 
d="M1128 1516h650v-275h-160v-967h160v-274h-650v274h158v388h-684v-388h160v-274h-649v274h157v967h-157v275h649v-275h-160v-315h684v315h-158v275z" />
    <glyph glyph-name="uni041E" unicode="&#x41e;" horiz-adv-x="1599" 
d="M799 -27q-103 0 -197 28t-175.5 79t-148 122.5t-113.5 159t-73 187.5t-26 209t26 209.5t73 188t113.5 159t148 122.5t175.5 79t197 28t197.5 -28t176 -79t148 -122.5t114 -159t73.5 -188t26 -209.5q0 -108 -26 -208.5t-73.5 -188t-114 -159t-148 -122.5t-176 -79
t-197.5 -28zM799 287q87 0 159.5 37.5t124.5 102t80.5 150t28.5 181.5q0 97 -29 183t-81.5 150.5t-124.5 102t-158 37.5t-158 -37.5t-124 -102t-81.5 -150.5t-29.5 -183q0 -96 29.5 -181.5t81.5 -150t124 -102t158 -37.5z" />
    <glyph glyph-name="uni041F" unicode="&#x41f;" horiz-adv-x="1829" 
d="M113 1516h1603v-273h-160v-969h160v-274h-649v274h158v969h-623v-969h160v-274h-649v274h157v969h-157v273z" />
    <glyph glyph-name="uni0420" unicode="&#x420;" horiz-adv-x="1401" 
d="M113 1516h700q117 0 215 -36.5t169 -98.5t111 -143t40 -169q0 -106 -31.5 -198.5t-97.5 -160.5t-167 -107.5t-239 -39.5h-211v-289h139v-274h-628v274h157v967h-157v275zM602 1241v-407h137q114 0 181 48t67 152q0 97 -63 152t-185 55h-137z" />
    <glyph glyph-name="uni0421" unicode="&#x421;" horiz-adv-x="1554" 
d="M1106 1055q-56 80 -101 113.5t-97 48t-109 14.5q-84 0 -156 -37.5t-124.5 -102t-82.5 -150t-30 -181.5q0 -97 29.5 -182.5t81.5 -149.5t124 -101.5t158 -37.5q60 0 112 19.5t94.5 51.5t74.5 73.5t50 86.5l322 -90q-31 -98 -91 -181.5t-144.5 -144.5t-190 -96t-227.5 -35
q-103 0 -197 28t-175.5 79t-148 123t-113.5 159.5t-73 188t-26 209.5q0 163 57 305.5t156 249t232.5 168t287.5 61.5q123 0 207 -30.5t185 -120.5h224v-338h-309z" />
    <glyph glyph-name="uni0422" unicode="&#x422;" horiz-adv-x="1419" 
d="M373 274h157v977h-184v-196h-326v461h1379v-461h-328v196h-209v-977h160v-274h-649v274z" />
    <glyph glyph-name="uni0423" unicode="&#x423;" horiz-adv-x="1479" 
d="M825 1516h623v-275h-125l-430 -946q-39 -84 -83 -142.5t-95 -95.5t-109.5 -53t-124.5 -16q-45 0 -83 3t-72 9h-209v414h309v-172q33 2 59.5 8t50 20.5t42 35t34.5 48.5l-63 127q-96 193 -189.5 381.5t-189.5 378.5h-129v275h643v-275h-125l205 -504l194 504h-133v275z
" />
    <glyph glyph-name="uni0424" unicode="&#x424;" horiz-adv-x="1599" 
d="M514 1587h594v-219h-129v-90h10q127 0 235.5 -26.5t188.5 -81t125 -139.5t45 -202q0 -114 -42 -199t-120 -140.5t-186.5 -83t-241.5 -27.5h-14v-105h170v-274h-676v274h174v105h-10q-127 0 -234.5 27.5t-186.5 83t-123 140.5t-44 199q0 117 45 201t123 139.5t185.5 82
t230.5 26.5h14v90h-133v219zM979 1051v-441h27q45 0 89 12.5t78.5 38t55 67.5t20.5 101q0 62 -21.5 105t-56 68.5t-77.5 37t-88 11.5h-27zM402.5 728q21.5 -42 55.5 -67.5t78 -38t87 -12.5h24v441h-24q-43 0 -87 -11.5t-78 -37t-55.5 -68.5t-21.5 -105q0 -59 21.5 -101z" />
    <glyph glyph-name="uni0425" unicode="&#x425;" horiz-adv-x="1577" 
d="M878 1516h643v-275h-65l-456 -487l454 -480h63v-274h-643v274h158l-240 258l-242 -258h146v-274h-643v274h81l449 480l-455 487h-71v275h643v-275h-158l249 -265l245 265h-158v275z" />
    <glyph glyph-name="uni0426" unicode="&#x426;" horiz-adv-x="1890" 
d="M1067 1516h649v-275h-160v-967h304v-622h-310v348h-1437v274h157v967h-157v275h649v-275h-160v-967h623v967h-158v275z" />
    <glyph glyph-name="uni0427" unicode="&#x427;" horiz-adv-x="1708" 
d="M41 1516h649v-275h-147v-209q0 -78 19.5 -126t56 -74.5t90 -35t120.5 -8.5q72 0 139.5 6.5t135.5 18.5v428h-158v275h649v-275h-159v-967h159v-274h-649v274h158v246q-78 -14 -160 -21t-158 -7q-124 0 -229.5 21.5t-181.5 78.5t-119 156.5t-43 255.5v237h-172v275z" />
    <glyph glyph-name="uni0428" unicode="&#x428;" horiz-adv-x="2638" 
d="M113 1516h643v-275h-162v-967h514v967h-156v275h643v-275h-155v-967h504v967h-152v275h643v-275h-160v-967h162v-274h-2322v274h147v967h-149v275z" />
    <glyph glyph-name="uni0429" unicode="&#x429;" horiz-adv-x="2605" 
d="M1792 1516h643v-275h-160v-967h308v-622h-310v348h-2160v274h149v967h-149v275h643v-275h-162v-967h514v967h-156v275h643v-275h-155v-967h504v967h-152v275z" />
    <glyph glyph-name="uni042A" unicode="&#x42a;" horiz-adv-x="1634" 
d="M360 274h156v977h-168v-196h-328v461h1004v-265h-176v-299h213q137 0 238.5 -39t167 -103.5t97 -148t31.5 -176.5q0 -102 -40 -191t-110.5 -154.5t-169 -102.5t-214.5 -37h-701v274zM848 678v-404h139q123 0 185.5 53.5t62.5 151.5q0 51 -17.5 89t-50.5 62.5t-78 36
t-102 11.5h-139z" />
    <glyph glyph-name="uni042B" unicode="&#x42b;" horiz-adv-x="2130" 
d="M115 1516h676v-275h-191v-289h213q137 0 238.5 -39t167 -103.5t97.5 -148t32 -176.5q0 -102 -40 -191t-111 -154.5t-169 -102.5t-215 -37h-700v274h155v967h-153v275zM1356 1516h649v-275h-160v-967h160v-274h-649v274h157v967h-157v275zM600 678v-404h139
q123 0 185.5 53.5t62.5 151.5q0 51 -17.5 89t-50 62.5t-77.5 36t-103 11.5h-139z" />
    <glyph glyph-name="uni042C" unicode="&#x42c;" horiz-adv-x="1386" 
d="M115 1516h676v-275h-191v-289h213q137 0 238.5 -39t167 -103.5t97.5 -148t32 -176.5q0 -102 -40 -191t-111 -154.5t-169 -102.5t-215 -37h-700v274h155v967h-153v275zM600 678v-404h139q123 0 185.5 53.5t62.5 151.5q0 51 -17.5 89t-50 62.5t-77.5 36t-103 11.5h-139z
" />
    <glyph glyph-name="uni042D" unicode="&#x42d;" horiz-adv-x="1599" 
d="M477 915h705q-15 62 -48.5 119.5t-83 100.5t-113 69.5t-136.5 26.5q-53 0 -99.5 -14.5t-86.5 -39t-70.5 -56t-50.5 -66.5h-310v338h176q41 32 93.5 60t108.5 48.5t117.5 31.5t121.5 11q155 0 289.5 -61.5t232.5 -167t154.5 -248.5t56.5 -307q0 -166 -56.5 -309.5
t-154.5 -249t-232.5 -167t-289.5 -61.5q-123 0 -228.5 35t-189.5 96.5t-144.5 144.5t-91.5 181l322 90q18 -45 50 -87t75 -73.5t95 -51t112 -19.5q80 0 146.5 29.5t116.5 78.5t82 112.5t42 131.5h-711v274z" />
    <glyph glyph-name="uni042E" unicode="&#x42e;" horiz-adv-x="2342" 
d="M113 1516h649v-275h-160v-293h227q29 129 95.5 237.5t160 188.5t210 125t247.5 45q154 0 288 -61.5t233.5 -168t156.5 -249.5t57 -307t-57 -306.5t-156.5 -249t-233.5 -168t-288 -61.5q-143 0 -270 54.5t-223.5 148.5t-159 222t-76.5 276h-211v-400h160v-274h-649v274
h157v967h-157v275zM1542 287q88 0 160 37.5t124 102.5t80.5 150t28.5 181t-29.5 182t-81.5 150.5t-124 102.5t-158 38t-157.5 -38t-124 -102.5t-82 -150.5t-29.5 -182t29.5 -181t82 -150t124 -102.5t157.5 -37.5v0z" />
    <glyph glyph-name="uni042F" unicode="&#x42f;" horiz-adv-x="1530" 
d="M842 274h157v330h-153q-117 -4 -173.5 -60.5t-72.5 -183.5l-59 -360h-428l2 274h125l51 218q18 86 58 139t89 80q-59 28 -105 62t-77 79t-47 103.5t-16 134.5q0 84 33.5 161.5t96 136t154.5 93.5t209 35h789v-275h-144v-967h139v-274h-628v274zM553 1055
q0 -94 66.5 -137.5t181.5 -43.5h198v367h-198q-123 0 -185.5 -49t-62.5 -137v0z" />
    <glyph glyph-name="uni0430" unicode="&#x430;" horiz-adv-x="1280" 
d="M717 56q-35 -22 -64 -37.5t-58 -25t-60 -14t-68 -4.5q-93 0 -166.5 25.5t-124 70t-77.5 105t-27 131.5q0 72 27.5 133t79.5 104.5t127.5 68t172.5 24.5q71 0 129.5 -7.5t108.5 -18.5v32q0 39 -15 67.5t-42 47t-65 27t-83 8.5q-94 0 -165.5 -18.5t-137.5 -53.5l-96 194
q102 70 213.5 107t236.5 37q97 0 179.5 -21.5t141.5 -70t92.5 -126.5t33.5 -190v-377h139v-274h-432v56zM489 211q71 0 129 23t99 56v132h-240q-23 0 -45 -7t-39.5 -20t-28 -32t-10.5 -44q0 -46 33.5 -77t101.5 -31z" />
    <glyph glyph-name="uni0431" unicode="&#x431;" horiz-adv-x="1237" 
d="M375 971q45 39 120.5 65.5t166.5 26.5q112 0 206.5 -38t162 -107.5t105.5 -171t38 -226.5q0 -112 -40 -211.5t-112 -173.5t-174.5 -117t-226.5 -43q-123 0 -223.5 41t-171 112t-109.5 166t-39 206v183v183q0 156 47 269.5t132 190.5t200.5 119t255.5 52l110 8v49h279
v-325l-342 -8q-105 -2 -178.5 -23.5t-119.5 -54.5t-66.5 -75t-20.5 -87v-10zM621 252q51 0 97 19.5t79.5 54t53 85t19.5 109.5q0 64 -18 114t-50 85t-77 53.5t-98 18.5q-49 0 -96.5 -21.5t-82 -55.5t-56 -76t-21.5 -85v-31q0 -55 20.5 -104t54 -86t79.5 -58.5t96 -21.5v0z
" />
    <glyph glyph-name="uni0432" unicode="&#x432;" horiz-adv-x="1370" 
d="M113 0v252h137v522h-137v262h708q207 0 327 -82t120 -221q0 -78 -32 -128t-93 -83q65 -30 102 -80.5t37 -126.5q0 -71 -31.5 -129.5t-90 -99.5t-139.5 -63.5t-177 -22.5h-731zM545 422v-170h276q60 0 100 20.5t40 65.5q0 49 -41 66.5t-99 17.5h-276zM545 774v-160h262
q67 0 102 15.5t35 56.5q0 39 -32.5 63.5t-104.5 24.5h-262z" />
    <glyph glyph-name="uni0433" unicode="&#x433;" horiz-adv-x="1214" 
d="M113 274h178v498h-178v264h1071v-461h-307v197h-277v-498h162v-274h-649v274z" />
    <glyph glyph-name="uni0434" unicode="&#x434;" horiz-adv-x="1614" 
d="M94 250l82 10q76 16 120 52t68.5 90.5t35 128t16.5 165.5l4 68h-152v272h1200v-272h-153v-492h207v-579h-332v307h-787v-307h-311zM705 625q-5 -70 -23 -165t-66 -188h390v492h-295z" />
    <glyph glyph-name="uni0435" unicode="&#x435;" horiz-adv-x="1206" 
d="M369 453l3 -31q11 -45 37.5 -79t62.5 -57t80 -34.5t89 -11.5t85.5 5.5t78.5 15t74 22t73 26.5l110 -205q-57 -35 -104.5 -59.5t-95.5 -40.5t-102 -23.5t-126 -7.5q-135 0 -240 44.5t-176.5 120.5t-109 178t-37.5 216t39.5 214t111.5 174.5t172 117.5t222 43t216.5 -40.5
t159.5 -112t100 -168t38 -207.5q3 -25 3.5 -49.5t-1.5 -50.5h-763zM608 831q-56 0 -95.5 -13.5t-66.5 -37t-43 -53.5t-25 -63h433q-7 34 -20 64t-36 53t-58.5 36.5t-88.5 13.5z" />
    <glyph glyph-name="uni0436" unicode="&#x436;" horiz-adv-x="1931" 
d="M829 401h-139l-108 -127h2v-274h-514v274h149l223 252l-200 236h-172v274h514v-274h-6l94 -131h157v131h-133v274h441v-405h120l91 131v274h514v-274h-176l-199 -236l225 -252h148v-274h-281l-340 401h-102v-127h133v-274h-441v401z" />
    <glyph glyph-name="uni0437" unicode="&#x437;" horiz-adv-x="1147" 
d="M719 729q0 53 -45 75.5t-119 22.5q-41 0 -75 -12t-58.5 -30.5t-42 -41t-25.5 -43.5q-4 0 -5 1t-5 1h-274v302h194q58 34 134.5 55.5t174.5 21.5q134 0 222 -26.5t141 -70.5t75.5 -100.5t22.5 -113.5q0 -37 -6 -75t-24.5 -70.5t-51 -58t-88.5 -38.5q54 -12 88.5 -38.5
t55 -58.5t28.5 -66.5t8 -63.5q0 -72 -29.5 -132t-90 -104.5t-153.5 -70t-220 -25.5q-123 0 -211 29t-147.5 78t-93 115.5t-48.5 142.5l283 47q10 -72 68.5 -117t154.5 -45q33 0 64.5 4t56 15.5t39 30t14.5 48.5q0 29 -10 50.5t-32.5 35t-57.5 20.5t-84 7h-88v193h88
q88 0 130 22.5t42 83.5v0z" />
    <glyph glyph-name="uni0438" unicode="&#x438;" horiz-adv-x="1550" 
d="M92 1036h561v-274h-123v-366l501 640h404v-276h-123v-486h123v-274h-561v274h129v356l-501 -630h-408v274h127v488h-129v274z" />
    <glyph glyph-name="uni043A" unicode="&#x43a;" horiz-adv-x="1365" 
d="M92 1036h469v-422h120l105 152v270h500v-274h-170l-203 -254l221 -234h150v-274h-281l-340 399h-102v-125h106v-274h-575v274h161v488h-161v274z" />
    <glyph glyph-name="uni043B" unicode="&#x43b;" horiz-adv-x="1565" 
d="M803 274h153v490h-270v-70q0 -57 -4 -129.5t-19.5 -149.5t-46 -152t-84 -133t-133.5 -94t-194 -36h-154v272q111 0 176 28t101 81t44 133t8 182v68h-149v272h1178v-272h-143v-490h186v-274h-649v274z" />
    <glyph glyph-name="uni043C" unicode="&#x43c;" horiz-adv-x="1997" 
d="M1280 274h111v309h-2l-396 -498l-397 498h-2v-309h121v-274h-602v274h172v488h-170v274h467l411 -530l410 530h479v-274h-182v-488h182v-274h-602v274z" />
    <glyph glyph-name="uni043D" unicode="&#x43d;" horiz-adv-x="1542" 
d="M848 1036h602v-274h-147v-488h147v-274h-602v274h145v156h-440v-156h141v-274h-602v274h152v488h-152v274h602v-274h-141v-121h440v121h-145v274z" />
    <glyph glyph-name="uni043E" unicode="&#x43e;" 
d="M72 522q0 113 41 212t114 173t174 117t222 43t222.5 -43t174.5 -117t113.5 -173t40.5 -212t-39.5 -212.5t-112 -174t-174 -117.5t-225.5 -43q-125 0 -226.5 43t-173.5 117t-111.5 173.5t-39.5 213.5zM371 522q0 -59 20 -108.5t54.5 -85.5t80 -56t97.5 -20q53 0 98.5 19.5
t79 55.5t52.5 85.5t19 109.5q0 62 -19 112t-52.5 85t-79 53.5t-98.5 17.5q-52 1 -97.5 -17.5t-80 -53.5t-54.5 -85t-20 -112z" />
    <glyph glyph-name="uni043F" unicode="&#x43f;" horiz-adv-x="1495" 
d="M92 1036h1311v-272h-154v-490h152v-274h-602v274h141v490h-387v-490h141v-274h-602v274h152v490h-152v272z" />
    <glyph glyph-name="uni0440" unicode="&#x440;" horiz-adv-x="1368" 
d="M119 1036h452v-15q48 21 98 33.5t103 12.5q114 0 212 -43t170 -117t112.5 -173t40.5 -210q0 -112 -39.5 -211t-110.5 -172.5t-169.5 -116t-215.5 -42.5q-66 0 -123 12.5t-110 35.5v-227h198v-274h-676v274h170v959h-112v274zM750 791q-63 0 -118 -33t-93 -93v-292
q32 -51 87 -83t124 -32q51 0 97 19.5t80 55t54 84t20 105.5q0 63 -19.5 113t-53.5 84.5t-80 53t-98 18.5z" />
    <glyph glyph-name="uni0441" unicode="&#x441;" horiz-adv-x="1180" 
d="M856 678q-43 54 -96 81.5t-125 23.5q-58 4 -105.5 -16t-82 -56t-53.5 -85.5t-19 -111.5q0 -55 20 -104t54.5 -84.5t82 -55.5t103.5 -24q47 4 85.5 19.5t68.5 40t51.5 55t33.5 57.5l275 -76q-17 -60 -58.5 -125t-108 -118.5t-158 -88.5t-208.5 -35q-119 0 -219 43.5
t-172 118.5t-112.5 176t-40.5 217q0 115 41.5 213.5t114.5 172t173.5 114.5t218.5 37q84 4 163 -19t150 -69h199v-301h-276z" />
    <glyph glyph-name="uni0442" unicode="&#x442;" horiz-adv-x="1331" 
d="M344 274h162v498h-160v-197h-305v461h1249v-461h-307v197h-168v-498h178v-274h-649v274z" />
    <glyph glyph-name="uni0443" unicode="&#x443;" horiz-adv-x="1241" 
d="M692 1036h508v-274h-125l-278 -780q-41 -113 -83 -198t-98.5 -141.5t-133 -85t-187.5 -28.5h-125v274h98q68 0 126.5 38t86.5 120l6 21l-331 780h-105v274h508v-274h-80l150 -389l139 389h-76v274z" />
    <glyph glyph-name="uni0444" unicode="&#x444;" horiz-adv-x="1896" 
d="M651 1556h453v-524q49 23 100 34t101 11q112 0 208.5 -43t165 -117.5t107.5 -174t39 -212.5q0 -114 -37 -213.5t-103.5 -173t-160.5 -115.5t-209 -42q-60 0 -112 7t-99 23v-213h190v-274h-676v274h179v222q-52 -21 -104 -32t-105 -11q-117 0 -212 42t-163 115.5
t-104.5 173t-36.5 213.5q0 113 36.5 212.5t104.5 172t162 114.5t207 42q59 0 112.5 -8t102.5 -25v248h-146v274zM1290 807q-55 0 -103 -21.5t-83 -60.5v-406q29 -34 77 -54.5t107 -20.5q47 0 89 22.5t74 61.5t50.5 90t18.5 110q0 60 -18.5 111t-49.5 88t-73 58.5t-89 21.5v0
zM608 258q60 0 108 14.5t81 51.5v399q-33 39 -83 53.5t-106 14.5q-47 0 -89 -18.5t-73.5 -53.5t-50 -84t-18.5 -111q0 -61 18.5 -111.5t50 -84t73.5 -52t89 -18.5v0z" />
    <glyph glyph-name="uni0445" unicode="&#x445;" horiz-adv-x="1235" 
d="M686 274h59l-129 123l-134 -123h67v-274h-488v274h103l257 252l-238 236h-122v274h488v-274h-47l121 -107l116 107h-55v274h487v-274h-114l-239 -237l253 -251h103v-274h-488v274z" />
    <glyph glyph-name="uni0446" unicode="&#x446;" horiz-adv-x="1518" 
d="M797 1036h602v-274h-150v-488h189v-581h-310v307h-1036v274h152v488h-152v274h602v-274h-141v-488h387v488h-143v274z" />
    <glyph glyph-name="uni0447" unicode="&#x447;" horiz-adv-x="1413" 
d="M16 1036h576v-274h-133v-21q0 -39 11 -67.5t34.5 -47t61.5 -27.5t91 -9q41 0 90.5 4t90.5 10v158h-138v274h594v-274h-147v-488h147v-274h-622v274h166v115q-47 -6 -99.5 -10t-117.5 -4q-117 0 -205 17.5t-147.5 59.5t-89 111.5t-29.5 175.5v23h-134v274z" />
    <glyph glyph-name="uni0448" unicode="&#x448;" horiz-adv-x="2000" 
d="M92 1036h460v-762h297v488h-142v274h451v-762h290v488h-135v274h593v-274h-148v-488h150v-274h-1816v274h150v488h-150v274z" />
    <glyph glyph-name="uni0449" unicode="&#x449;" horiz-adv-x="2036" 
d="M1313 1036h592v-274h-147v-488h198v-581h-309v307h-1555v274h150v488h-150v274h460v-762h297v488h-142v274h451v-762h290v488h-135v274z" />
    <glyph glyph-name="uni044A" unicode="&#x44a;" horiz-adv-x="1479" 
d="M289 264h162v510h-175v-196h-260v458h910v-262h-166v-90h188q101 0 189 -16.5t152.5 -56.5t101 -104.5t36.5 -158.5t-37.5 -159.5t-103 -107.5t-152.5 -61.5t-186 -19.5h-659v264zM760 455v-191h258q47 0 71.5 27.5t24.5 64.5q0 33 -24.5 66t-71.5 33h-258z" />
    <glyph glyph-name="uni044B" unicode="&#x44b;" horiz-adv-x="2058" 
d="M137 1036h623v-274h-176v-78h188q100 0 188.5 -16.5t153 -56.5t101 -104.5t36.5 -158.5t-37.5 -159.5t-103.5 -107.5t-153 -61.5t-185 -19.5h-659v264h161v498h-137v274zM584 455v-191h258q47 0 71.5 27.5t24.5 64.5q0 33 -24.5 66t-71.5 33h-258zM1323 1036h623v-274
h-158v-488h158v-274h-623v274h156v488h-156v274z" />
    <glyph glyph-name="uni044C" unicode="&#x44c;" horiz-adv-x="1303" 
d="M137 1036h623v-274h-176v-78h188q100 0 188.5 -16.5t153 -56.5t101 -104.5t36.5 -158.5t-37.5 -159.5t-103.5 -107.5t-153 -61.5t-185 -19.5h-659v264h161v498h-137v274zM584 455v-191h258q47 0 71.5 27.5t24.5 64.5q0 33 -24.5 66t-71.5 33h-258z" />
    <glyph glyph-name="uni044D" unicode="&#x44d;" horiz-adv-x="1180" 
d="M483 659h406q-15 39 -41.5 72t-62 56.5t-78.5 36t-91 12.5q-92 0 -158.5 -41t-95.5 -103h-247v301h198q72 41 151 64.5t163 23.5q116 0 216.5 -42t173.5 -116.5t113.5 -175t40.5 -217.5q0 -116 -40.5 -216.5t-112.5 -176.5t-172.5 -119t-218.5 -43q-115 0 -207 32
t-161 83t-113 113.5t-60 124.5l246 69q12 -35 35.5 -66.5t58.5 -56t80 -39t98 -14.5q117 0 193.5 59.5t97.5 153.5h-412v225z" />
    <glyph glyph-name="uni044E" unicode="&#x44e;" horiz-adv-x="1843" 
d="M92 1036h576v-274h-111v-121h172q19 94 64 172t113.5 134.5t157.5 88t198 31.5q112 0 209.5 -43t169 -116.5t111.5 -173t40 -212.5q0 -112 -39 -211.5t-109.5 -174.5t-169 -118t-217.5 -43q-114 0 -206 34t-161.5 97t-107.5 146t-53 178h-172v-156h111v-274h-576v274h156
v488h-156v274zM995 522q0 -59 19.5 -108t53.5 -85t79 -56.5t94 -20.5q53 0 98 19.5t79 55t53.5 86t19.5 109.5q0 62 -19.5 112t-53.5 85t-79 53.5t-98 18.5q-49 0 -94 -18.5t-79 -53.5t-53.5 -85t-19.5 -112v0z" />
    <glyph glyph-name="uni044F" unicode="&#x44f;" horiz-adv-x="1247" 
d="M614 274h117v117h-100q-78 -4 -119 -36.5t-57 -106.5l-54 -248h-374v274h118l19 64q14 47 37.5 83t56.5 56q-39 21 -67.5 45.5t-47 54t-28 66.5t-9.5 80q0 68 25 126t74 100t120.5 66.5t166.5 24.5v0h663v-270h-127v-496h127v-274h-541v274zM397 682q0 -45 45 -63.5
t115 -18.5h174v170h-174q-76 0 -118 -17.5t-42 -70.5v0z" />
    <glyph glyph-name="uni2116" unicode="&#x2116;" horiz-adv-x="2580" 
d="M1094 1516h675v-275h-245v-1241h-332l-631 979v-705h250v-274h-676v274h103v967h-123v277h458l627 -996v719h-106v275zM1767.5 901.5q28.5 65.5 78.5 116.5t120 80.5t154 29.5q82 0 151.5 -30.5t119.5 -80.5t79 -116.5t29 -138.5q0 -74 -28 -140.5t-78 -116.5t-119.5 -81
t-153.5 -31q-86 0 -157 31t-120 81t-76.5 116.5t-27.5 140.5t28.5 139.5zM1745 274h743v-274h-743v274zM2009 667q45 -44 111 -44q65 0 108 44t43 95q0 55 -43 95t-108 40q-66 0 -111 -40t-45 -95q0 -51 45 -95z" />
    <glyph glyph-name="cyr.dotlessi" horiz-adv-x="721" 
d="M61 1036h623v-274h-158v-488h158v-274h-623v274h156v488h-156v274z" />
    <glyph glyph-name="estimated" unicode="&#x212e;" horiz-adv-x="1671" 
d="M829 -31q-153 0 -286 46t-230.5 132t-154 209t-56.5 277q0 164 60.5 289t160 208.5t230.5 126.5t272 43q168 0 301.5 -49t227.5 -139t146 -217t59 -281h-1160q-12 0 -20 -5t-8 -27v-338q0 -29 32.5 -67t93 -71.5t144.5 -58t188 -24.5q146 0 268 58t195 150h133
q-131 -141 -275 -201.5t-321 -60.5v0zM825 1247q-86 0 -168 -18.5t-145 -47t-102 -65.5t-39 -76v-340q0 -32 30 -32h852q23 0 29 8t6 24v340q0 39 -43 77t-110.5 66.5t-149.5 46t-160 17.5v0z" />
    <glyph glyph-name="uni2126" unicode="&#x2126;" horiz-adv-x="1933" 
d="M1571 274v142h260v-416h-746v596q21 8 67 27.5t92 55.5t82 92t36 140q0 80 -39 140.5t-97.5 100.5t-127 60.5t-129.5 20.5q-60 0 -128.5 -20.5t-127 -60.5t-98.5 -100.5t-40 -140.5q0 -86 36 -142t82 -92t92 -54.5t67 -26.5v-596h-746v416h261v-142h194v181
q-55 22 -114.5 65t-106.5 102.5t-78 133t-31 155.5q0 154 59.5 273t161 199.5t235.5 122.5t282 42q147 0 281 -42t235.5 -122.5t161 -199.5t59.5 -273q0 -82 -30.5 -155.5t-78 -133t-106.5 -102.5t-115 -65v-181h195z" />
    <glyph glyph-name="uni2206" unicode="&#x2206;" horiz-adv-x="1556" 
d="M600 1583h350l557 -1479v-104h-1460v102zM1061 326l-287 757l-278 -757h565z" />
    <glyph glyph-name="summation" unicode="&#x2211;" horiz-adv-x="1618" 
d="M1182 72h301v-543h-1401v268l530 738l-520 737v244h1391v-517h-322v240h-659l493 -700l-522 -734h709v267z" />
    <glyph glyph-name="Gamma" unicode="&#x393;" horiz-adv-x="1305" 
d="M113 274h157v977h-157v265h1185v-461h-327v196h-369v-977h160v-274h-649v274z" />
    <glyph glyph-name="Ohm" horiz-adv-x="1933" 
d="M1571 274v142h260v-416h-746v596q21 8 67 27.5t92 55.5t82 92t36 140q0 80 -39 140.5t-97.5 100.5t-127 60.5t-129.5 20.5q-60 0 -128.5 -20.5t-127 -60.5t-98.5 -100.5t-40 -140.5q0 -86 36 -142t82 -92t92 -54.5t67 -26.5v-596h-746v416h261v-142h194v181
q-55 22 -114.5 65t-106.5 102.5t-78 133t-31 155.5q0 154 59.5 273t161 199.5t235.5 122.5t282 42q147 0 281 -42t235.5 -122.5t161 -199.5t59.5 -273q0 -82 -30.5 -155.5t-78 -133t-106.5 -102.5t-115 -65v-181h195z" />
    <glyph glyph-name="Pi" unicode="&#x3a0;" horiz-adv-x="1829" 
d="M113 1516h1603v-273h-160v-969h160v-274h-649v274h158v969h-623v-969h160v-274h-649v274h157v969h-157v273z" />
    <glyph glyph-name="product" unicode="&#x220f;" horiz-adv-x="1706" 
d="M129 1516h1384v-275h-141v-1438h141v-274h-608v274h135v1438h-438v-1438h135v-274h-608v274h141v1438h-141v275z" />
    <glyph glyph-name="pi" unicode="&#x3c0;" horiz-adv-x="1450" 
d="M1130 -18q-77 0 -135.5 14t-97.5 54t-59.5 107.5t-20.5 176.5v428h-242v-488h144v-274h-608v274h155v488h-155v274h1171v-274h-158v-404q0 -28 6.5 -48.5t17.5 -33t27.5 -18.5t36.5 -6q21 0 38.5 3t29.5 7l47 -254q-29 -10 -82 -18t-115 -8v0z" />
    <glyph glyph-name="radical" unicode="&#x221a;" horiz-adv-x="1481" 
d="M248 760h-211v274h452l117 -313q12 -33 27.5 -79t32.5 -87q18 -49 36 -100h3q16 49 32 100q15 41 30 88t30 82l297 788h387l-629 -1513h-320z" />
    <glyph glyph-name="integral" unicode="&#x222b;" horiz-adv-x="815" 
d="M530 -100q0 -90 -31.5 -160t-85 -117t-124 -70.5t-146.5 -23.5q-114 0 -180.5 29.5t-95.5 56.5l115 211q22 -16 51.5 -26.5t70.5 -10.5q54 0 91.5 35t37.5 102v1282q0 90 32 160t85 117t123 70.5t148 23.5q114 0 180.5 -29.5t95.5 -56.5l-115 -211q-22 16 -52 26.5
t-71 10.5q-53 0 -91 -35t-38 -102v-1282z" />
    <glyph glyph-name="infinity" unicode="&#x221e;" horiz-adv-x="1706" 
d="M498 352q-92 0 -172 34t-138.5 93.5t-92.5 140t-34 175.5q0 92 34 173t92.5 141t138.5 95t172 35q120 0 204 -59.5t150 -153.5q72 98 160 155.5t202 57.5q89 0 165.5 -36t134 -96t90 -141t32.5 -171t-32.5 -170t-90 -140.5t-134 -96.5t-165.5 -36q-124 0 -211.5 57.5
t-156.5 157.5q-66 -98 -149 -156.5t-199 -58.5v0zM1192 969q-78 0 -127 -45t-88 -123q0 -2 4 -6q45 -93 94 -132.5t117 -39.5q35 0 65.5 13t54 36.5t38 55.5t14.5 67q0 36 -14.5 68t-38 55.5t-54 37t-65.5 13.5v0zM502 623q71 0 118.5 41t92.5 131l4 8q-17 31 -39.5 61.5
t-51 53t-60 37t-64.5 14.5q-37 0 -68 -13.5t-53.5 -37t-34.5 -55.5t-12 -68q0 -35 12 -67t34.5 -55.5t53.5 -36.5t68 -13v0z" />
    <glyph glyph-name="notequal" unicode="&#x2260;" horiz-adv-x="995" 
d="M61 997h414l109 299h278l-108 -299h180v-286h-283l-51 -144h334v-286h-436l-76 -215h-283l78 215h-156v286h258l54 144h-312v286z" />
    <glyph glyph-name="approxequal" unicode="&#x2248;" horiz-adv-x="905" 
d="M-8 345q0 30 5 66t16.5 72.5t31.5 70.5t50 60.5t72 42.5t97 16q24 0 55.5 -11t66.5 -27t72 -35t71.5 -35t64 -26t51.5 -10q47 0 69.5 27.5t30.5 87.5l185 -41q0 -45 -12.5 -100.5t-45.5 -104.5t-90 -84t-147 -35q-55 0 -108 23.5t-101.5 50t-90.5 48.5t-75 22
q-19 0 -36 -5.5t-30 -19t-21 -35.5t-9 -55zM-15 774q0 30 5 66t16.5 72.5t31.5 70.5t50 60.5t72 42.5t97 16q24 0 55.5 -11t66.5 -27t72 -35t71.5 -35t64 -26t51.5 -10q47 0 69.5 27.5t30.5 87.5l185 -41q0 -45 -12.5 -100.5t-45.5 -104.5t-90 -84t-147 -35q-55 0 -108 23.5
t-101.5 50t-90.5 48.5t-75 22q-19 0 -36 -5.5t-30 -19t-21 -35.5t-9 -55z" />
    <glyph glyph-name="multiply" unicode="&#xd7;" horiz-adv-x="1239" 
d="M417 666l-356 387l222 200l336 -366l337 366l222 -200l-356 -387l343 -373l-221 -199l-325 352l-324 -352l-221 199z" />
    <glyph glyph-name="divide" unicode="&#xf7;" horiz-adv-x="1270" 
d="M99 668h1125v-274h-1125v274zM445 907q0 37 13.5 69.5t37.5 56.5t56.5 38t70.5 14q36 0 68 -14t56 -38t38 -56.5t14 -69.5t-14 -69.5t-38 -56.5t-56 -38t-68 -14q-38 0 -70.5 14t-56.5 38t-37.5 56.5t-13.5 69.5zM445 145q0 37 13.5 69.5t37.5 57t56.5 38.5t70.5 14
q36 0 68 -14t56 -38.5t38 -57t14 -69.5t-14 -69.5t-38 -56.5t-56 -38t-68 -14q-38 0 -70.5 14t-56.5 38t-37.5 56.5t-13.5 69.5z" />
    <glyph glyph-name="lozenge" unicode="&#x25ca;" horiz-adv-x="1296" 
d="M80 774l442 744h228l454 -744l-461 -774h-219zM627 406l223 358l-223 344l-195 -344z" />
    <glyph glyph-name="plus" unicode="+" horiz-adv-x="1229" 
d="M102 733h363v363h297v-363h364v-297h-364v-364h-297v364h-363v297z" />
    <glyph glyph-name="plusminus" unicode="&#xb1;" horiz-adv-x="1229" 
d="M102 948h363v363h297v-363h364v-297h-364v-323h-297v323h-363v297zM102 274h1024v-274h-1024v274z" />
    <glyph glyph-name="minus" unicode="&#x2212;" horiz-adv-x="1229" 
d="M102 733h1024v-274h-1024v274z" />
    <glyph glyph-name="lessequal" unicode="&#x2264;" horiz-adv-x="956" 
d="M31 1034l755 275v-256l-448 -135l448 -144v-250l-755 287v223zM29 422h772v-267h-772v267z" />
    <glyph glyph-name="greaterequal" unicode="&#x2265;" horiz-adv-x="979" 
d="M899 811l-756 -287v250l449 144l-449 135v256l756 -275v-223zM129 422h780v-267h-780v267z" />
    <glyph glyph-name="logicalnot" unicode="&#xac;" horiz-adv-x="1597" 
d="M1526 1036v-788h-287v534h-1188v254h1475z" />
    <glyph glyph-name="fraction" unicode="&#x2044;" horiz-adv-x="1670" 
d="M1322 1577h256l-1245 -1638h-262z" />
    <glyph glyph-name="onequarter" unicode="&#xbc;" horiz-adv-x="2145" 
d="M1517 1577h256l-1245 -1638h-262zM1264 348l280 416h215l-282 -422h168v166h202v-166h105v-160h-105v-182h-202v182h-379zM290 1034h129v248l-139 -65v233l237 129l113 -2v-543h121v-194h-461v194z" />
    <glyph glyph-name="onehalf" unicode="&#xbd;" horiz-adv-x="2145" 
d="M1517 1577h256l-1245 -1638h-262zM290 1034h129v248l-139 -65v233l237 129l113 -2v-543h121v-194h-461v194zM1291 193l270 221q43 35 50.5 54t7.5 26q0 22 -11.5 32.5t-36.5 10.5q-34 0 -47.5 -20.5t-13.5 -43.5h-225q0 72 21.5 124t61.5 86t95 50.5t119 16.5
q49 0 100 -13.5t91 -42t65.5 -74t25.5 -110.5q0 -53 -20.5 -78.5t-26.5 -32.5l-203 -174h250v-225h-573v193z" />
    <glyph glyph-name="threequarters" unicode="&#xbe;" horiz-adv-x="2145" 
d="M1517 1577h256l-1245 -1638h-262zM1249 348l280 416h215l-282 -422h168v166h202v-166h105v-160h-105v-182h-202v182h-379zM590 1386q0 21 -11 37t-48 16q-23 0 -40.5 -15t-17.5 -56h-219q-2 57 15.5 106t53.5 86t90 57.5t128 20.5q55 0 106.5 -18.5t89 -50t61.5 -75.5
t24 -94q0 -47 -15.5 -79.5t-32.5 -53.5q25 -20 43.5 -62t18.5 -83q0 -47 -22.5 -93t-61.5 -81t-94.5 -56.5t-118.5 -21.5q-74 0 -130 21.5t-94 58.5t-57.5 88t-19.5 111h219q0 -29 19.5 -55.5t56.5 -26.5q35 0 53 23.5t18 47.5q0 17 -13 36.5t-54 19.5h-103v133h113
q25 0 34 18.5t9 40.5v0z" />
    <glyph glyph-name="divisionslash" unicode="&#x2215;" horiz-adv-x="1300" 
d="M1042 1577h256l-1245 -1638h-262z" />
    <glyph glyph-name="one.fract" horiz-adv-x="2800" 
d="M672 1034h129v248l-139 -65v233l237 129l113 -2v-543h121v-194h-461v194z" />
    <glyph glyph-name="two.fract" horiz-adv-x="2800" 
d="M1659 193l270 221q43 35 50.5 54t7.5 26q0 22 -11.5 32.5t-36.5 10.5q-34 0 -47.5 -20.5t-13.5 -43.5h-225q0 72 21.5 124t61.5 86t95 50.5t119 16.5q49 0 100 -13.5t91 -42t65.5 -74t25.5 -110.5q0 -53 -20.5 -78.5t-26.5 -32.5l-203 -174h250v-225h-573v193z" />
    <glyph glyph-name="three.fract" horiz-adv-x="1000" 
d="M590 1335q0 21 -11 37t-48 16q-23 0 -40.5 -15t-17.5 -56h-219q-2 57 15.5 106t53.5 86t90 57.5t128 20.5q55 0 106.5 -18.5t89 -50t61.5 -75.5t24 -94q0 -47 -15.5 -79.5t-32.5 -53.5q25 -20 43.5 -62t18.5 -83q0 -47 -22.5 -93t-61.5 -81t-94.5 -56.5t-118.5 -21.5
q-74 0 -130 21.5t-94 58.5t-57.5 88t-19.5 111h219q0 -29 19.5 -55.5t56.5 -26.5q35 0 53 23.5t18 47.5q0 17 -13 36.5t-54 19.5h-103v133h113q25 0 34 18.5t9 40.5v0z" />
    <glyph glyph-name="four.fract" horiz-adv-x="2800" 
d="M1604 348l280 416h215l-282 -422h168v166h202v-166h105v-160h-105v-182h-202v182h-379z" />
    <glyph glyph-name="foursuperior" unicode="&#x2074;" horiz-adv-x="1145" 
d="M238 1178l260 397h215l-264 -404h169v148h183v-148h104v-159h-104v-172h-183v172h-378z" />
    <glyph glyph-name="dagger" unicode="&#x2020;" horiz-adv-x="1300" 
d="M139 1036h348v480h330v-480h346v-274h-346v-1233h-330v1233h-348v274z" />
    <glyph glyph-name="daggerdbl" unicode="&#x2021;" horiz-adv-x="1300" 
d="M139 1036h348v480h330v-480h346v-274h-346v-488h346v-274h-346v-471h-330v471h-348v274h348v488h-348v274z" />
    <glyph glyph-name="paragraph" unicode="&#xb6;" horiz-adv-x="1417" 
d="M436 532q-77 21 -145 62t-119 101.5t-81 140t-30 178.5q0 105 42 196.5t119 159.5t186 107t243 39h684v-275h-141v-1603h-293v1603h-172v-1603h-293v894z" />
    <glyph glyph-name="section" unicode="&#xa7;" horiz-adv-x="1169" 
d="M49 72h348v-91q3 -20 12 -46t33.5 -50.5t62.5 -38.5t90 -14q75 0 113.5 34t38.5 93q0 30 -14 50t-36 33.5t-49 23t-53 18.5l-213 68q-57 18 -111.5 51t-97 82.5t-68.5 116t-26 151.5q0 100 33.5 169.5t82.5 115.5q-15 14 -43.5 47t-54.5 99t-26 151q0 101 38 178.5
t104.5 129.5t158 78.5t199.5 26.5q95 0 174 -23.5t138.5 -62t89.5 -77.5t44 -68h95v-295h-349v49h-2q6 37 -7 72t-39 61t-63 42t-79 16q-29 0 -56 -5t-48 -17.5t-33.5 -33t-12.5 -51.5q0 -39 17 -62t44 -37t59.5 -23t64.5 -19l264 -88q46 -16 87.5 -47.5t72.5 -76.5t49 -104
t18 -131q0 -102 -31.5 -174t-74.5 -121q26 -23 53 -60.5t45.5 -96t18.5 -129.5q0 -102 -37 -186t-104.5 -144t-162 -92.5t-208.5 -32.5q-90 0 -172 24t-146.5 68.5t-93 87.5t-39.5 66h-98v295zM432 571q0 -38 16.5 -61t42.5 -37t58 -23t63 -20l31 -11q35 9 57 29
q37 35 37 95q0 30 -13.5 50t-34.5 33.5t-47 23t-51 18.5l-31 10q-21 -1 -43 -5.5t-41.5 -17t-31.5 -33t-12 -51.5z" />
    <glyph glyph-name="currency" unicode="&#xa4;" horiz-adv-x="1438" 
d="M182 741q0 69 16.5 132.5t47.5 120.5l-195 212l264 242l194 -212q49 21 102 32.5t110 11.5q56 0 109 -11.5t101 -31.5l193 211l265 -242l-194 -211q31 -57 48 -121t17 -133t-17 -133.5t-48 -121.5l179 -191l-264 -240l-178 191q-100 -43 -211 -43q-57 0 -111 11.5
t-104 33.5l-176 -193l-264 240l178 195q-29 57 -45.5 119.5t-16.5 131.5zM469 750q0 -53 19.5 -99t53.5 -80t80 -53.5t99 -19.5q52 0 98 19.5t80 53.5t54 80t20 99t-20 99t-54 79.5t-80 53t-98 19.5q-53 0 -99 -19.5t-80 -53.5t-53.5 -80t-19.5 -98z" />
    <glyph glyph-name="Euro" unicode="&#x20ac;" horiz-adv-x="1554" 
d="M1106 1055q-41 71 -122 123.5t-185 52.5q-49 0 -94.5 -13.5t-85 -38t-74.5 -58.5t-62 -77h471l-147 -284h-401v-31t2 -31h493l-147 -284h-226q52 -60 120.5 -92.5t150.5 -32.5q59 0 111.5 19.5t95.5 51t74.5 73.5t49.5 87l322 -90q-31 -98 -91.5 -181t-144 -144.5
t-189 -96.5t-228.5 -35q-154 0 -288 61.5t-232.5 168t-155.5 250t-57 307.5q0 162 57 305t155.5 249.5t232.5 168t288 61.5q59 0 120.5 -11t118 -31.5t108.5 -48.5t93 -60h176v-338h-309z" />
    <glyph glyph-name="dollar" unicode="$" 
d="M461 -188v322q-54 16 -100.5 42t-82.5 64h-176v301h342q0 -36 12 -65.5t35 -51t56.5 -33.5t77.5 -12q52 0 79 21t27 55q0 16 -10 29.5t-26 24.5t-36.5 19.5t-40.5 14.5l-186 57q-56 17 -105.5 43.5t-86.5 65.5t-58.5 92.5t-21.5 124.5q0 70 22 125.5t62 96.5t95.5 67.5
t121.5 39.5v324h332v-341q42 -14 77 -32t62 -39h180v-301h-342q-1 37 -12 63.5t-32 45.5t-51 30t-69 11q-49 0 -75.5 -18t-26.5 -50q0 -18 11 -31.5t30 -25t45 -21t55 -18.5l178 -57q134 -42 198 -117.5t64 -196.5q0 -64 -20.5 -119t-58.5 -100t-92 -77.5t-121 -51.5v-321
h-332z" />
    <glyph glyph-name="yen" unicode="&#xa5;" horiz-adv-x="1536" 
d="M842 1516h649v-275h-113l-246 -313h160v-258h-362l-2 -3v-57h364v-258h-364v-78h184v-274h-676v274h168v78h-360v258h360v60h-360v258h169l-232 313h-134v275h649v-275h-125l201 -307l214 307h-144v275z" />
    <glyph glyph-name="sterling" unicode="&#xa3;" horiz-adv-x="1065" 
d="M41 829h100q-9 43 -14.5 90.5t-5.5 104.5q0 100 34.5 180t94.5 136.5t140.5 87t172.5 30.5q209 0 326.5 -111t134.5 -329l-336 -12q-3 80 -35.5 119.5t-83.5 39.5q-46 0 -79 -33t-33 -106q0 -31 5.5 -65t16 -64.5t24.5 -67.5h269v-245h-173q7 -39 7.5 -81.5t-4 -83.5
t-14.5 -78.5t-23 -66.5h420v-274h-899v274h160q15 54 17.5 118t-8.5 100t-17 54.5t-14 37.5h-183v245z" />
    <glyph glyph-name="cent" unicode="&#xa2;" 
d="M461 -188v348q-88 24 -159.5 74.5t-122.5 120.5t-79 156.5t-28 182.5q0 97 28 183t79.5 155t123 118.5t158.5 73.5v355h332v-361q35 -11 69.5 -26t66.5 -35h199v-301h-276q-43 50 -96 77.5t-125 27.5q-58 0 -105.5 -20t-82 -56t-53.5 -85.5t-19 -107.5q0 -59 20 -108
t54.5 -84.5t82 -55.5t103.5 -20q47 0 85.5 15.5t68.5 40t51.5 55t33.5 61.5l275 -80q-14 -48 -42.5 -100.5t-72.5 -100.5t-103.5 -87.5t-133.5 -62.5v-353h-332z" />
    <glyph glyph-name="trademark" unicode="&#x2122;" horiz-adv-x="2165" 
d="M805 1034h113v318h-66v204h383l197 -241l233 241h360v-204h-106v-318h106v-194h-440v194h94v248l-194 -238h-133l-195 228l-2 -238h90v-194h-440v194zM152 1034h135v330h-82v-92h-195v284h795v-284h-197v92h-82v-330h86v-194h-460v194z" />
    <glyph glyph-name="copyright" unicode="&#xa9;" horiz-adv-x="1919" 
d="M102 831q0 118 30.5 227.5t86 204.5t133.5 173t173 133.5t204.5 86t228.5 30.5q118 0 228 -30.5t205.5 -86t174 -133.5t134.5 -173t86.5 -204.5t30.5 -227.5q0 -119 -30.5 -228.5t-86.5 -204.5t-134.5 -173t-174 -133.5t-205.5 -86t-228 -30.5q-119 0 -228.5 30.5
t-204.5 86t-173 133.5t-133.5 173t-86 204.5t-30.5 228.5zM330 831q0 -88 22 -169t62.5 -151t97.5 -127.5t127 -98t150.5 -62.5t168.5 -22t169 22t150.5 62.5t126.5 98t97.5 127.5t62.5 151t22 169t-22 169t-62.5 150.5t-97.5 127t-126.5 98t-150.5 62.5t-169 22
q-87 0 -168 -22t-151 -62.5t-127 -98t-97.5 -127t-62.5 -150.5t-22 -169zM1148 973q-32 42 -78.5 64.5t-100.5 22.5q-49 0 -90 -17.5t-71.5 -49t-48.5 -73.5t-18 -89t18 -89t48.5 -73t71.5 -48.5t90 -17.5q53 0 99 20.5t81 62.5l190 -191q-70 -74 -164.5 -117.5
t-205.5 -43.5q-103 0 -193.5 39t-158 106.5t-106.5 157.5t-39 194t39 194.5t106.5 157.5t158 106t193.5 39q112 0 207.5 -43t164.5 -117z" />
    <glyph glyph-name="registered" unicode="&#xae;" horiz-adv-x="1919" 
d="M528 585h95v497h-91v211h532q79 0 138 -25t98.5 -64.5t59.5 -87.5t20 -93q0 -52 -17.5 -96t-55.5 -79t-86 -54q35 -14 56 -41t33 -88l15 -80h78v-212h-328l-15 194q-5 63 -14.5 85t-29.5 34t-69 12h-66v-113h79v-212h-432v212zM881 1082v-182h66q69 0 109 19.5t40 69.5
q0 44 -38 68.5t-102 24.5h-75zM102 831q0 118 30.5 227.5t86 204.5t133.5 173t173 133.5t204.5 86t228.5 30.5q118 0 228 -30.5t205.5 -86t174 -133.5t134.5 -173t86.5 -204.5t30.5 -227.5q0 -119 -30.5 -228.5t-86.5 -204.5t-134.5 -173t-174 -133.5t-205.5 -86t-228 -30.5
q-119 0 -228.5 30.5t-204.5 86t-173 133.5t-133.5 173t-86 204.5t-30.5 228.5zM317 831q0 -90 22.5 -172.5t64 -154t99.5 -130t129.5 -100t153.5 -64t172 -22.5t172.5 22.5t153.5 64t129 100t99.5 130t64 154t22.5 172.5t-22.5 172.5t-64 153.5t-99.5 129.5t-129 100
t-153.5 64t-172.5 22.5q-89 0 -171.5 -22.5t-154 -64t-129.5 -100t-99.5 -129.5t-64 -153.5t-22.5 -172.5z" />
    <glyph glyph-name="uni04B0" unicode="&#x4b0;" horiz-adv-x="1536" 
d="M842 1516h649v-275h-113l-450 -612v-4h422v-265h-422v-86h184v-274h-676v274h168v86h-397v265h397v8l-424 608h-133v275h649v-275h-127l203 -348l215 348h-145v275z" />
    <glyph glyph-name="uni04B1" unicode="&#x4b1;" horiz-adv-x="1257" 
d="M676 1036h541v-274h-138l-307 -758h383v-234h-385v-241h-305v241h-363v234h359l-305 758h-115v274h541v-274h-125l168 -445l163 445h-112v274z" />
    <glyph glyph-name="uni0490" unicode="&#x490;" horiz-adv-x="1305" 
d="M113 274h157v977h-157v265h833v296h307v-561h-651v-977h160v-274h-649v274z" />
    <glyph glyph-name="uni0491" unicode="&#x491;" horiz-adv-x="1235" 
d="M113 274h178v498h-178v264h721v307h307v-571h-541v-498h162v-274h-649v274z" />
    <glyph glyph-name="uni040F" unicode="&#x40f;" horiz-adv-x="1829" 
d="M1067 1516h649v-275h-160v-969h160v-272h-645v-348h-309v348h-649v272h157v969h-157v275h649v-275h-160v-969h623v969h-158v275z" />
    <glyph glyph-name="uni045F" unicode="&#x45f;" horiz-adv-x="1491" 
d="M797 1036h602v-274h-150v-490h150v-272h-498v-348h-309v348h-500v272h152v490h-152v274h602v-274h-141v-490h387v490h-143v274z" />
    <glyph glyph-name="uni040A" unicode="&#x40a;" horiz-adv-x="2280" 
d="M111 1516h649v-275h-160v-291h549v291h-160v275h676v-275h-184v-289h211q137 0 238.5 -39t167 -103.5t97 -148t31.5 -176.5q0 -102 -40 -191t-110.5 -154.5t-169 -102.5t-214.5 -37h-701v274h158v412h-549v-412h162v-274h-649v274h155v967h-157v275zM1481 678v-404h137
q123 0 185.5 53.5t62.5 151.5q0 51 -17.5 89t-50.5 62.5t-78 36t-102 11.5h-137z" />
    <glyph glyph-name="uni045A" unicode="&#x45a;" horiz-adv-x="2040" 
d="M850 264h162v191h-459v-181h141v-274h-602v274h152v488h-152v274h602v-274h-141v-82h459v82h-162v274h602v-274h-131v-78h188q101 0 189 -16.5t152.5 -56.5t101.5 -104.5t37 -158.5t-38 -159.5t-103.5 -107.5t-152.5 -61.5t-186 -19.5h-659v264zM1321 455v-191h258
q47 0 71.5 27.5t24.5 64.5q0 33 -24.5 66t-71.5 33h-258z" />
    <glyph glyph-name="uni0459" unicode="&#x459;" horiz-adv-x="1931" 
d="M231 1036h1178v-272h-197v-80h189q100 0 188 -16.5t152.5 -56.5t101.5 -104.5t37 -158.5t-38 -159.5t-103.5 -107.5t-152.5 -61.5t-185 -19.5h-660v264h162v500h-217v-70q0 -57 -4 -131t-19.5 -150.5t-46 -150.5t-84 -132t-133.5 -94t-194 -36h-77h-77v272h21.5h22.5
t21.5 1t18.5 3q72 9 115 36.5t66.5 84t30.5 145.5t7 222h-123v272zM1212 455v-191h207q72 0 110 17.5t38 74.5q0 33 -24.5 66t-72.5 33h-258z" />
    <glyph glyph-name="uni0409" unicode="&#x409;" horiz-adv-x="2257" 
d="M983 274h156v969h-332v-475q0 -137 -21.5 -274.5t-74 -247t-142.5 -178t-229 -68.5h-268v414h278v-152q49 23 81 63t48.5 94t22.5 122.5t6 152.5v549h-205v273h1411v-273h-244v-291h213q138 0 239 -39t166.5 -103.5t97.5 -148t32 -176.5q0 -102 -40 -191t-110.5 -154.5
t-169 -102.5t-215.5 -37h-700v274zM1470 678v-404h140q61 0 107 13.5t77 40t47.5 64.5t16.5 87q0 51 -17.5 89t-50.5 62.5t-78 36t-102 11.5h-140z" />
    <glyph glyph-name="uni0454" unicode="&#x454;" horiz-adv-x="1180" 
d="M852 692q-43 49 -96.5 77t-124.5 28q-80 0 -140.5 -38t-91.5 -102h314v-262h-312q17 -30 40.5 -56t53 -43t64.5 -26.5t72 -9.5q47 0 86 15.5t68.5 40t51 55t33.5 61.5l275 -80q-17 -61 -59 -127.5t-108.5 -122t-156.5 -91.5t-205 -36q-118 0 -218.5 43t-172 119
t-112.5 176.5t-41 216.5q0 117 41 217.5t113.5 175t173 116.5t216.5 42q84 0 162 -23.5t150 -64.5h200v-301h-139h-68.5h-68.5v0v0v0z" />
    <glyph glyph-name="uni0404" unicode="&#x404;" horiz-adv-x="1554" 
d="M1106 1055q-41 71 -122 123.5t-185 52.5q-66 0 -124.5 -22.5t-105.5 -63.5t-82.5 -97.5t-56.5 -121.5h635v-264h-651q12 -80 46 -149t85 -118t115.5 -77.5t138.5 -28.5q59 0 111.5 19.5t95.5 51t74.5 73.5t49.5 87l322 -90q-31 -98 -91.5 -181t-144 -144.5t-189 -96.5
t-228.5 -35q-154 0 -288 61.5t-232.5 168t-155.5 250t-57 307.5q0 162 57 305t155.5 249.5t232.5 168t288 61.5q59 0 120.5 -11t118 -31.5t108.5 -48.5t93 -60h176v-338h-309z" />
    <glyph glyph-name="uni0402" unicode="&#x402;" horiz-adv-x="1784" 
d="M1743 444q0 -116 -41 -203t-105.5 -144.5t-144.5 -86t-160 -28.5h-32.5t-30.5 2v288h14h14q31 0 64 7.5t60.5 26t46 51t18.5 85.5q0 52 -21.5 87.5t-56.5 58t-77 32t-81 9.5q-80 0 -159.5 -20.5t-143.5 -47.5v-287h158v-274h-649v274h159v977h-208v-196h-326v461h1391
v-461h-328v196h-197v-403q76 24 159 40.5t165 16.5q123 0 219 -39t160.5 -102.5t98.5 -147.5t34 -172v0z" />
    <glyph glyph-name="uni0452" unicode="&#x452;" horiz-adv-x="1386" 
d="M51 1556h473v-272h507v-168h-507v-214q60 53 134.5 83.5t179.5 30.5q186 0 286.5 -104.5t100.5 -304.5v-625q0 -238 -122 -344.5t-335 -106.5l-8 227q71 4 106 57.5t35 145.5v584q0 89 -46 139t-122 50q-47 0 -98 -21.5t-111 -83.5v-355h181v-274h-644v274h156v822h-166
v168h166v59h-166v233z" />
    <glyph glyph-name="uni040B" unicode="&#x40b;" horiz-adv-x="2060" 
d="M1298 274h158l2 91q0 77 -19.5 125.5t-56 74t-90 34.5t-121.5 9q-71 0 -138.5 -6t-135.5 -18v-310h160v-274h-649v274h157v977h-198v-196h-326v461h1393v-461h-328v196h-209v-374q76 12 158 20t159 8q125 0 230.5 -21.5t181.5 -78.5t119 -156.5t43 -255.5v-119h160v-274
h-650v274z" />
    <glyph glyph-name="uni045B" unicode="&#x45b;" horiz-adv-x="1386" 
d="M51 1556h473v-272h497v-168h-497v-216q60 53 129.5 84t155.5 31q174 0 279.5 -104.5t105.5 -305.5v-331h152v-274h-462v274v10l-1 251q0 87 -43 137t-111 50q-45 0 -98 -25.5t-107 -72.5v-350h152v-274h-608v274h149v822h-166v168h166v59h-166v233z" />
    <glyph glyph-name="Lslash" unicode="&#x141;" horiz-adv-x="1346" 
d="M113 1516h649v-275h-160v-274l490 231v-315l-490 -232v-377h330q26 0 47.5 27t21.5 53v203h324v-557h-1212v274h157v222l-159 -76v315l159 76v430h-157v275z" />
    <glyph glyph-name="lslash" unicode="&#x142;" horiz-adv-x="737" 
d="M61 1556h467v-274h-2v-207l158 113v-336l-158 -113v-465h160v-274h-623v274h156v244l-153 -108v335l153 109v428h-158v274z" />
    <glyph glyph-name="Aogonek" unicode="&#x104;" horiz-adv-x="1491" 
d="M27 274h112l414 1242h401l404 -1242h110v-274h-178q-45 0 -80.5 -13.5t-61.5 -36t-39 -52t-13 -62.5q0 -59 45 -88t104 -29q27 0 54.5 6.5t48.5 16.5l49 -186q-23 -13 -77 -27t-101 -14q-97 0 -168.5 21.5t-119.5 58t-71.5 88t-23.5 110.5q0 68 27.5 120t64.5 77v284h116
l-69 218h-465l-68 -218h160v-274h-575v274zM588 748h307l-154 493z" />
    <glyph glyph-name="aogonek" unicode="&#x105;" horiz-adv-x="1280" 
d="M1098 0q-66 0 -113 -18.5t-76.5 -48t-44 -65.5t-14.5 -71q0 -53 29.5 -75.5t70.5 -22.5q33 0 58.5 6t46.5 16l49 -165q-10 -7 -30.5 -14t-46.5 -13t-52.5 -10t-48.5 -4q-62 0 -113 14t-88 44t-58.5 77t-21.5 112q0 39 10.5 74t28.5 64.5t45 55.5t59 44v0v92
q-57 -45 -140 -81t-181 -36q-92 0 -166 26t-125 70t-77.5 104.5t-26.5 131.5q0 72 27.5 132.5t79.5 104.5t128 68.5t172 24.5q23 0 44.5 -1t43.5 -3q41 -4 78 -9.5t72 -13.5v33q0 78 -56.5 114t-148.5 36q-94 0 -166 -18.5t-137 -53.5l-96 194q102 70 213.5 107t236.5 37
q99 0 180.5 -21.5t141 -69.5t92.5 -126t33 -191v-188v-189h137v-274h-49zM489 211q70 0 128.5 22.5t99.5 55.5v133h-193q-28 0 -58 -3t-54.5 -13.5t-41 -31t-16.5 -55.5q0 -47 34 -77.5t101 -30.5v0z" />
    <glyph glyph-name="Eogonek" unicode="&#x118;" horiz-adv-x="1380" 
d="M113 1516h1206v-517h-326v215h-389v-299h301v-290h-301v-351h389v269h326v-543h-23q-102 -53 -156.5 -100t-54.5 -115q0 -39 25 -53.5t47 -14.5q39 0 65.5 6.5t47.5 16.5l49 -170q-23 -12 -74 -26.5t-104 -14.5q-62 0 -114 14.5t-92 41t-62.5 65.5t-22.5 90
q0 86 42 150.5t105 109.5h-884v274h159v940h-159v302z" />
    <glyph glyph-name="eogonek" unicode="&#x119;" horiz-adv-x="1186" 
d="M936 37q-49 -35 -88 -71t-61.5 -74.5t-22.5 -79.5q0 -50 33.5 -72.5t74.5 -22.5q29 0 54.5 8.5t46.5 18.5q12 -43 24.5 -85t24.5 -85q-23 -12 -76 -28.5t-123 -16.5q-145 0 -220 57.5t-75 159.5q0 59 27 116.5t70 110.5h-11q-135 0 -239.5 44t-177 121t-109.5 178.5
t-37 215.5q0 113 40 213.5t111.5 175t172 117.5t221.5 43q137 0 237.5 -49t165 -135t93 -200.5t20.5 -243.5h-764q10 -54 34 -92.5t59.5 -66.5t80.5 -41t99 -13q92 0 164.5 20.5t146.5 48.5q29 -51 55.5 -102t54.5 -103q-24 -14 -46 -27q-31 -19 -60 -40zM588 831
q-56 0 -95.5 -14t-67.5 -36.5t-43 -53.5t-24 -63h433q-7 32 -20 63t-35.5 54.5t-58.5 36.5t-89 13z" />
    <glyph glyph-name="Iogonek" unicode="&#x12e;" horiz-adv-x="874" 
d="M119 1516h676v-275h-193v-967h193v-274h-25q-39 0 -82 -14.5t-80 -41t-61.5 -62.5t-24.5 -81q0 -47 30 -65.5t58 -18.5q31 0 56.5 6.5t46.5 16.5l49 -170q-23 -12 -74 -26.5t-104 -14.5q-131 0 -211 54.5t-80 156.5q0 86 42 150.5t105 109.5h-321v274h151v967h-151v275z
" />
    <glyph glyph-name="iogonek" unicode="&#x12f;" horiz-adv-x="791" 
d="M82 1036h465v-762h144v-274h-86q-39 -2 -81 -16.5t-78 -41t-58.5 -62.5t-22.5 -79q0 -47 29.5 -65.5t58.5 -18.5q31 0 56.5 6.5t46.5 16.5l49 -170q-23 -12 -74 -26.5t-104 -14.5q-132 0 -211.5 54.5t-79.5 156.5q0 86 42 150.5t105 109.5h-201v274h156v488h-156v274z
" />
    <glyph glyph-name="Uogonek" unicode="&#x172;" horiz-adv-x="1561" 
d="M883 1516h608v-275h-121v-590q0 -186 -60.5 -322t-164.5 -223q-37 -36 -67.5 -70t-53.5 -69t-35 -74.5t-12 -87.5q0 -47 30.5 -67.5t67.5 -20.5q39 0 70 11.5t51 21.5l49 -166q-26 -18 -81.5 -36.5t-125.5 -18.5q-53 0 -106 11t-95 39t-69 72t-27 111q0 60 22.5 115
t59.5 105q-12 0 -23.5 -1t-23.5 -1q-123 0 -230.5 45t-186 129t-125 204.5t-46.5 274.5v608h-137v275h608v-275h-139v-629q0 -86 19.5 -146t54.5 -98t83 -55.5t105 -17.5q60 0 108 15.5t83 51t53 97t18 153.5v629h-161v275z" />
    <glyph glyph-name="uogonek" unicode="&#x173;" horiz-adv-x="1384" 
d="M31 1036h458v-610q0 -104 52.5 -155.5t138.5 -51.5q59 0 108.5 37t71.5 100v406h-166v274h490v-762h125v-274h-138q-102 -53 -156 -100t-54 -115q0 -39 24.5 -53.5t46.5 -14.5q39 0 65.5 6.5t47.5 16.5l49 -170q-10 -6 -29.5 -13.5t-44.5 -13.5q-24 -6 -51 -10t-53 -4
q-62 0 -114 14.5t-92 41t-62.5 65.5t-22.5 90q0 86 42 150.5t105 109.5h-2v88q-53 -47 -124.5 -73.5t-163.5 -26.5q-86 0 -162 26.5t-132.5 82t-89 137t-32.5 192.5v336h-135v274z" />
    <glyph glyph-name="NOBREAKSPACE" unicode="&#xa0;" horiz-adv-x="410" 
 />
    <glyph glyph-name="uni2113" unicode="&#x2113;" horiz-adv-x="1130" 
d="M571 356q0 -67 38 -91.5t91 -24.5q41 0 82 22.5t66 42.5l115 -211q-15 -12 -42.5 -31.5t-69.5 -38t-97.5 -31.5t-122.5 -13q-62 0 -120 17t-105.5 52t-81 90.5t-45.5 132.5l-76 -71l-162 207l233 225v254q0 137 33 259t93.5 212t145.5 143t189 53q72 0 129.5 -18
t98.5 -56t63.5 -96.5t22.5 -136.5q0 -80 -19.5 -145.5t-59.5 -129t-100.5 -131t-146.5 -147.5l-152 -143v-195zM647 991q15 15 35 41.5t39.5 57t33 59.5t13.5 47q0 8 -1 16.5t-5 18.5q-6 16 -18.5 29.5t-34.5 13.5q-25 0 -49.5 -17.5t-44 -58.5t-32 -109.5t-12.5 -170.5z
" />
    <glyph glyph-name="florin" unicode="&#x192;" horiz-adv-x="815" 
d="M258 1036h158l30 172q17 90 61 160t105.5 117t135 70.5t151.5 23.5q115 0 177.5 -29.5t84.5 -56.5l-153 -211q-21 16 -47.5 26.5t-67.5 10.5q-53 0 -98 -35t-56 -102l-26 -146h188l-45 -262h-190l-154 -874q-16 -90 -59 -160t-105.5 -117t-137.5 -70.5t-151 -23.5
q-114 0 -175.5 29.5t-84.5 56.5l152 211q20 -16 48 -26.5t69 -10.5q53 0 97 35t56 102l148 848h-156z" />
    <glyph glyph-name="partialdiff" unicode="&#x2202;" horiz-adv-x="1260" 
d="M305 1534l307 -539.901q-27 1.99902 -52 -1t-48 -7.99805q-85 -15.9971 -159 -58.4893t-129 -104.981q-55 -62.4883 -86.5 -141.474t-31.5 -167.97q0 -108.979 41.5 -201.963t112.5 -160.971t167 -106.48t204 -38.4932q106 0 201 38.4932t166.5 105.481
q71.5 66.9873 113 157.971t41.5 195.964q0 49.9912 -10 95.4824q-10 45.4922 -27.5 88.4844t-39.5 84.9844t-46 84.9844l-375 677.876h-350zM637 711.15q58 0 106 -20.4961t80 -61.4893q14 -25.9951 23.5 -56.4893t9.5 -66.4883q0 -33.9932 -13.5 -70.9863t-41 -67.9883
q-27.5 -30.9941 -70 -50.4902t-100.5 -19.4961q-42 0 -82.5 13.9971t-73 40.4922t-52.5 64.9883t-20 87.4844q0 46.9912 18.5 84.9844t50 64.9883t74.5 41.9922t91 14.9971z" />
    <glyph glyph-name="Agrave" unicode="&#xc0;" horiz-adv-x="1491" 
d="M893 274h151l-68 218h-466l-68 -218h160v-274h-575v274h113l413 1242h401l404 -1242h110v-274h-575v274zM589 748h306l-154 493zM658 1657l-293 286v25h326l196 -311h-229z" />
    <glyph glyph-name="agrave" unicode="&#xe0;" horiz-adv-x="1280" 
d="M717 56q-35 -22 -64 -37.5t-58 -25t-60 -14t-68 -4.5q-93 0 -166.5 25.5t-124 70t-77.5 105t-27 131.5q0 72 27.5 133t79.5 104.5t127.5 68t172.5 24.5q71 0 129.5 -7.5t108.5 -18.5v32q0 39 -15 67.5t-42 47t-65 27t-83 8.5q-94 0 -165.5 -18.5t-137.5 -53.5l-96 194
q102 70 213.5 107t236.5 37q97 0 179.5 -21.5t141.5 -70t92.5 -126.5t33.5 -190v-377h139v-274h-432v56zM489 211q71 0 129 23t99 56v132h-240q-23 0 -45 -7t-39.5 -20t-28 -32t-10.5 -44q0 -46 33.5 -77t101.5 -31zM439 1178l-293 286v25h326l196 -311h-229z" />
    <glyph glyph-name="Aacute" unicode="&#xc1;" horiz-adv-x="1491" 
d="M893 274h151l-68 218h-466l-68 -218h160v-274h-575v274h113l413 1242h401l404 -1242h110v-274h-575v274zM589 748h306l-154 493zM852 1968h326v-25l-306 -286h-235z" />
    <glyph glyph-name="aacute" unicode="&#xe1;" horiz-adv-x="1280" 
d="M717 56q-35 -22 -64 -37.5t-58 -25t-60 -14t-68 -4.5q-93 0 -166.5 25.5t-124 70t-77.5 105t-27 131.5q0 72 27.5 133t79.5 104.5t127.5 68t172.5 24.5q71 0 129.5 -7.5t108.5 -18.5v32q0 39 -15 67.5t-42 47t-65 27t-83 8.5q-94 0 -165.5 -18.5t-137.5 -53.5l-96 194
q102 70 213.5 107t236.5 37q97 0 179.5 -21.5t141.5 -70t92.5 -126.5t33.5 -190v-377h139v-274h-432v56zM489 211q71 0 129 23t99 56v132h-240q-23 0 -45 -7t-39.5 -20t-28 -32t-10.5 -44q0 -46 33.5 -77t101.5 -31zM633 1489h326v-25l-306 -286h-235z" />
    <glyph glyph-name="Acircumflex" unicode="&#xc2;" horiz-adv-x="1491" 
d="M893 274h151l-68 218h-466l-68 -218h160v-274h-575v274h113l413 1242h401l404 -1242h110v-274h-575v274zM589 748h306l-154 493zM383 1655l272 325h240l274 -325h-245l-148 153l-145 -153h-248z" />
    <glyph glyph-name="acircumflex" unicode="&#xe2;" horiz-adv-x="1280" 
d="M717 56q-35 -22 -64 -37.5t-58 -25t-60 -14t-68 -4.5q-93 0 -166.5 25.5t-124 70t-77.5 105t-27 131.5q0 72 27.5 133t79.5 104.5t127.5 68t172.5 24.5q71 0 129.5 -7.5t108.5 -18.5v32q0 39 -15 67.5t-42 47t-65 27t-83 8.5q-94 0 -165.5 -18.5t-137.5 -53.5l-96 194
q102 70 213.5 107t236.5 37q97 0 179.5 -21.5t141.5 -70t92.5 -126.5t33.5 -190v-377h139v-274h-432v56zM489 211q71 0 129 23t99 56v132h-240q-23 0 -45 -7t-39.5 -20t-28 -32t-10.5 -44q0 -46 33.5 -77t101.5 -31zM164 1176l272 325h240l274 -325h-245l-148 153l-145 -153
h-248z" />
    <glyph glyph-name="Atilde" unicode="&#xc3;" horiz-adv-x="1491" 
d="M893 274h151l-68 218h-466l-68 -218h160v-274h-575v274h113l413 1242h401l404 -1242h110v-274h-575v274zM589 748h306l-154 493zM571 1958q42 0 81 -14.5t76.5 -32t73 -32t70.5 -14.5q42 0 74.5 15t58.5 53l158 -70q-15 -45 -42.5 -84t-63.5 -68.5t-79 -46t-90 -16.5
q-52 0 -94 13.5t-79.5 30t-73.5 30.5t-76 14q-45 0 -76 -18.5t-51 -44.5l-152 70q14 54 47.5 94t74.5 67t84.5 40.5t78.5 13.5z" />
    <glyph glyph-name="atilde" unicode="&#xe3;" horiz-adv-x="1280" 
d="M717 56q-35 -22 -64 -37.5t-58 -25t-60 -14t-68 -4.5q-93 0 -166.5 25.5t-124 70t-77.5 105t-27 131.5q0 72 27.5 133t79.5 104.5t127.5 68t172.5 24.5q71 0 129.5 -7.5t108.5 -18.5v32q0 39 -15 67.5t-42 47t-65 27t-83 8.5q-94 0 -165.5 -18.5t-137.5 -53.5l-96 194
q102 70 213.5 107t236.5 37q97 0 179.5 -21.5t141.5 -70t92.5 -126.5t33.5 -190v-377h139v-274h-432v56zM489 211q71 0 129 23t99 56v132h-240q-23 0 -45 -7t-39.5 -20t-28 -32t-10.5 -44q0 -46 33.5 -77t101.5 -31zM352 1479q42 0 81 -14.5t76.5 -32t73 -32t70.5 -14.5
q42 0 74.5 15t58.5 53l158 -70q-15 -45 -42.5 -84t-63.5 -68.5t-79 -46t-90 -16.5q-52 0 -94 13.5t-79.5 30t-73.5 30.5t-76 14q-45 0 -76 -18.5t-51 -44.5l-152 70q14 54 47.5 94t74.5 67t84.5 40.5t78.5 13.5z" />
    <glyph glyph-name="Adieresis" unicode="&#xc4;" horiz-adv-x="1491" 
d="M893 274h151l-68 218h-466l-68 -218h160v-274h-575v274h113l413 1242h401l404 -1242h110v-274h-575v274zM589 748h306l-154 493zM323 1820q0 37 13.5 69.5t37.5 57t56.5 38.5t70.5 14q36 0 68 -14t56 -38.5t38 -57t14 -69.5t-14 -69.5t-38 -56.5t-56 -38t-68 -14
q-38 0 -70.5 14t-56.5 38t-37.5 56.5t-13.5 69.5zM802 1820q0 37 14 69.5t38 57t56.5 38.5t70.5 14q36 0 68 -14t56 -38.5t38 -57t14 -69.5t-14 -69.5t-38 -56.5t-56 -38t-68 -14q-38 0 -70.5 14t-56.5 38t-38 56.5t-14 69.5z" />
    <glyph glyph-name="adieresis" unicode="&#xe4;" horiz-adv-x="1280" 
d="M717 56q-35 -22 -64 -37.5t-58 -25t-60 -14t-68 -4.5q-93 0 -166.5 25.5t-124 70t-77.5 105t-27 131.5q0 72 27.5 133t79.5 104.5t127.5 68t172.5 24.5q71 0 129.5 -7.5t108.5 -18.5v32q0 39 -15 67.5t-42 47t-65 27t-83 8.5q-94 0 -165.5 -18.5t-137.5 -53.5l-96 194
q102 70 213.5 107t236.5 37q97 0 179.5 -21.5t141.5 -70t92.5 -126.5t33.5 -190v-377h139v-274h-432v56zM489 211q71 0 129 23t99 56v132h-240q-23 0 -45 -7t-39.5 -20t-28 -32t-10.5 -44q0 -46 33.5 -77t101.5 -31zM104 1342q0 37 13.5 69.5t37.5 57t56.5 38.5t70.5 14
q36 0 68 -14t56 -38.5t38 -57t14 -69.5t-14 -69.5t-38 -56.5t-56 -38t-68 -14q-38 0 -70.5 14t-56.5 38t-37.5 56.5t-13.5 69.5zM583 1342q0 37 14 69.5t38 57t56.5 38.5t70.5 14q36 0 68 -14t56 -38.5t38 -57t14 -69.5t-14 -69.5t-38 -56.5t-56 -38t-68 -14q-38 0 -70.5 14
t-56.5 38t-38 56.5t-14 69.5z" />
    <glyph glyph-name="Amacron" unicode="&#x100;" horiz-adv-x="1491" 
d="M893 274h151l-68 218h-466l-68 -218h160v-274h-575v274h113l413 1242h401l404 -1242h110v-274h-575v274zM589 748h306l-154 493zM1087 1655h-688v215h688v-215z" />
    <glyph glyph-name="amacron" unicode="&#x101;" horiz-adv-x="1280" 
d="M717 56q-35 -22 -64 -37.5t-58 -25t-60 -14t-68 -4.5q-93 0 -166.5 25.5t-124 70t-77.5 105t-27 131.5q0 72 27.5 133t79.5 104.5t127.5 68t172.5 24.5q71 0 129.5 -7.5t108.5 -18.5v32q0 39 -15 67.5t-42 47t-65 27t-83 8.5q-94 0 -165.5 -18.5t-137.5 -53.5l-96 194
q102 70 213.5 107t236.5 37q97 0 179.5 -21.5t141.5 -70t92.5 -126.5t33.5 -190v-377h139v-274h-432v56zM489 211q71 0 129 23t99 56v132h-240q-23 0 -45 -7t-39.5 -20t-28 -32t-10.5 -44q0 -46 33.5 -77t101.5 -31zM868 1176h-688v215h688v-215z" />
    <glyph glyph-name="Abreve" unicode="&#x102;" horiz-adv-x="1491" 
d="M893 274h151l-68 218h-466l-68 -218h160v-274h-575v274h113l413 1242h401l404 -1242h110v-274h-575v274zM589 748h306l-154 493zM743 1636q-95 0 -167 21.5t-125 63t-89.5 101.5t-60.5 138h252q20 -60 67.5 -91.5t122.5 -31.5q72 0 118 29t71 94h250q-22 -77 -58 -137
t-89.5 -101.5t-125.5 -63.5t-166 -22z" />
    <glyph glyph-name="abreve" unicode="&#x103;" horiz-adv-x="1280" 
d="M717 56q-35 -22 -64 -37.5t-58 -25t-60 -14t-68 -4.5q-93 0 -166.5 25.5t-124 70t-77.5 105t-27 131.5q0 72 27.5 133t79.5 104.5t127.5 68t172.5 24.5q71 0 129.5 -7.5t108.5 -18.5v32q0 39 -15 67.5t-42 47t-65 27t-83 8.5q-94 0 -165.5 -18.5t-137.5 -53.5l-96 194
q102 70 213.5 107t236.5 37q97 0 179.5 -21.5t141.5 -70t92.5 -126.5t33.5 -190v-377h139v-274h-432v56zM489 211q71 0 129 23t99 56v132h-240q-23 0 -45 -7t-39.5 -20t-28 -32t-10.5 -44q0 -46 33.5 -77t101.5 -31zM524 1157q-95 0 -167 21.5t-125 63t-89.5 101.5
t-60.5 138h252q20 -60 67.5 -91.5t122.5 -31.5q72 0 118 29t71 94h250q-22 -77 -58 -137t-89.5 -101.5t-125.5 -63.5t-166 -22z" />
    <glyph glyph-name="Aring" unicode="&#xc5;" horiz-adv-x="1491" 
d="M893 274h151l-69 218h-465l-68 -218h160v-274h-575v274h112l398 1192q-52 45 -81.5 107.5t-29.5 134.5q0 66 25.5 123t68.5 100t100.5 68.5t122.5 25.5q66 0 123.5 -25.5t100.5 -68.5t68.5 -100t25.5 -123t-25.5 -125t-70.5 -102l393 -1207h110v-274h-575v274zM588 748
h307l-154 493zM618 1708q0 -53 36 -89t89 -36q54 0 88.5 36t34.5 89t-34.5 88t-88.5 35q-53 0 -89 -35t-36 -88v0z" />
    <glyph glyph-name="aring" unicode="&#xe5;" horiz-adv-x="1280" 
d="M717 56q-35 -22 -64 -37.5t-58 -25t-60 -14t-68 -4.5q-93 0 -166.5 25.5t-124 70t-77.5 105t-27 131.5q0 72 27.5 133t79.5 104.5t127.5 68t172.5 24.5q71 0 129.5 -7.5t108.5 -18.5v32q0 39 -15 67.5t-42 47t-65 27t-83 8.5q-94 0 -165.5 -18.5t-137.5 -53.5l-96 194
q102 70 213.5 107t236.5 37q97 0 179.5 -21.5t141.5 -70t92.5 -126.5t33.5 -190v-377h139v-274h-432v56zM489 211q71 0 129 23t99 56v132h-240q-23 0 -45 -7t-39.5 -20t-28 -32t-10.5 -44q0 -46 33.5 -77t101.5 -31zM525 1736q65 0 123 -25t101.5 -68t68.5 -101t25 -123
t-25 -123t-68.5 -101.5t-101.5 -68.5t-123 -25t-123 25t-101 68.5t-68 101.5t-25 123t25 123t68 101t101 68t123 25zM400 1419q0 -26 10 -49t27 -40t39.5 -26.5t48.5 -9.5t48.5 9.5t39 26.5t26 40t9.5 49t-9.5 48.5t-26 39t-39 26t-48.5 9.5t-48.5 -9.5t-39.5 -26t-27 -39
t-10 -48.5z" />
    <glyph glyph-name="Ccedilla" unicode="&#xc7;" horiz-adv-x="1554" 
d="M1106 1055q-56 80 -101 113.5t-97 48t-109 14.5q-84 0 -156 -37.5t-124.5 -102t-82.5 -150t-30 -181.5q0 -97 29.5 -182.5t81.5 -149.5t124 -101.5t158 -37.5q60 0 112 19.5t94.5 51.5t74.5 73.5t50 86.5l322 -90q-31 -98 -91 -181.5t-144.5 -144.5t-190 -96t-227.5 -35
q-103 0 -197 28t-175.5 79t-148 123t-113.5 159.5t-73 188t-26 209.5q0 163 57 305.5t156 249t232.5 168t287.5 61.5q123 0 207 -30.5t185 -120.5h224v-338h-309zM475 -293q41 3 77.5 19.5t66 46.5t51 73.5t31.5 100.5l243 -86q-23 -79 -65 -138t-100 -98t-128.5 -59
t-150.5 -21z" />
    <glyph glyph-name="ccedilla" unicode="&#xe7;" horiz-adv-x="1180" 
d="M856 678q-43 54 -96 81.5t-125 23.5q-58 4 -105.5 -16t-82 -56t-53.5 -85.5t-19 -111.5q0 -55 20 -104t54.5 -84.5t82 -55.5t103.5 -24q47 4 85.5 19.5t68.5 40t51.5 55t33.5 57.5l275 -76q-17 -60 -58.5 -125t-108 -118.5t-158 -88.5t-208.5 -35q-119 0 -219 43.5
t-172 118.5t-112.5 176t-40.5 217q0 115 41.5 213.5t114.5 172t173.5 114.5t218.5 37q84 4 163 -19t150 -69h199v-301h-276zM295 -293q41 3 77.5 19.5t66 46.5t51 73.5t31.5 100.5l243 -86q-23 -79 -65 -138t-100 -98t-128.5 -59t-150.5 -21z" />
    <glyph glyph-name="Cacute" unicode="&#x106;" horiz-adv-x="1554" 
d="M1106 1055q-56 80 -101 113.5t-97 48t-109 14.5q-84 0 -156 -37.5t-124.5 -102t-82.5 -150t-30 -181.5q0 -97 29.5 -182.5t81.5 -149.5t124 -101.5t158 -37.5q60 0 112 19.5t94.5 51.5t74.5 73.5t50 86.5l322 -90q-31 -98 -91 -181.5t-144.5 -144.5t-190 -96t-227.5 -35
q-103 0 -197 28t-175.5 79t-148 123t-113.5 159.5t-73 188t-26 209.5q0 163 57 305.5t156 249t232.5 168t287.5 61.5q123 0 207 -30.5t185 -120.5h224v-338h-309zM905 1968h326v-25l-306 -286h-235z" />
    <glyph glyph-name="cacute" unicode="&#x107;" horiz-adv-x="1180" 
d="M856 678q-43 54 -96 81.5t-125 23.5q-58 4 -105.5 -16t-82 -56t-53.5 -85.5t-19 -111.5q0 -55 20 -104t54.5 -84.5t82 -55.5t103.5 -24q47 4 85.5 19.5t68.5 40t51.5 55t33.5 57.5l275 -76q-17 -60 -58.5 -125t-108 -118.5t-158 -88.5t-208.5 -35q-119 0 -219 43.5
t-172 118.5t-112.5 176t-40.5 217q0 115 41.5 213.5t114.5 172t173.5 114.5t218.5 37q84 4 163 -19t150 -69h199v-301h-276zM727 1489h326v-25l-306 -286h-235z" />
    <glyph glyph-name="Ccaron" unicode="&#x10c;" horiz-adv-x="1554" 
d="M1106 1055q-56 80 -101 113.5t-97 48t-109 14.5q-84 0 -156 -37.5t-124.5 -102t-82.5 -150t-30 -181.5q0 -97 29.5 -182.5t81.5 -149.5t124 -101.5t158 -37.5q60 0 112 19.5t94.5 51.5t74.5 73.5t50 86.5l322 -90q-31 -98 -91 -181.5t-144.5 -144.5t-190 -96t-227.5 -35
q-103 0 -197 28t-175.5 79t-148 123t-113.5 159.5t-73 188t-26 209.5q0 163 57 305.5t156 249t232.5 168t287.5 61.5q123 0 207 -30.5t185 -120.5h224v-338h-309zM1189 1941l-272 -325h-240l-274 325h246l147 -153l146 153h247z" />
    <glyph glyph-name="ccaron" unicode="&#x10d;" horiz-adv-x="1180" 
d="M856 678q-43 54 -96 81.5t-125 23.5q-58 4 -105.5 -16t-82 -56t-53.5 -85.5t-19 -111.5q0 -55 20 -104t54.5 -84.5t82 -55.5t103.5 -24q47 4 85.5 19.5t68.5 40t51.5 55t33.5 57.5l275 -76q-17 -60 -58.5 -125t-108 -118.5t-158 -88.5t-208.5 -35q-119 0 -219 43.5
t-172 118.5t-112.5 176t-40.5 217q0 115 41.5 213.5t114.5 172t173.5 114.5t218.5 37q84 4 163 -19t150 -69h199v-301h-276zM1011 1462l-272 -325h-240l-274 325h246l147 -153l146 153h247z" />
    <glyph glyph-name="Dcroat" unicode="&#x110;" horiz-adv-x="1468" 
d="M82 1516h582q104 0 199.5 -27t178 -76t150 -117.5t115.5 -152.5t74 -181t26 -202t-26 -202t-74 -181.5t-115.5 -154t-150 -119t-178 -76.5t-199.5 -27h-582v274h121v347h-138v274h138v346h-121v275zM535 621v-347h127q81 0 153 38t125 103.5t84 154t31 190.5
q0 101 -31 189t-84 153t-125 102t-153 37h-127v-346h157v-274h-157z" />
    <glyph glyph-name="dcroat" unicode="&#x111;" horiz-adv-x="1401" 
d="M1145 1174v-900h203v-274h-510v39q-54 -29 -110 -44t-116 -15q-118 0 -217.5 43t-171 116.5t-111.5 173t-40 213.5q0 113 39 212.5t109.5 172t168.5 114.5t217 42q66 0 122 -13.5t110 -35.5v156h-207v208h207v86v0v88h307v-174h203v-208h-203zM629 258q65 0 119.5 32
t89.5 85v303q-35 53 -91.5 83t-117.5 30q-51 0 -97.5 -18.5t-80 -53.5t-54 -84t-20.5 -111q0 -61 20.5 -111.5t54 -84t80 -52t97.5 -18.5v0z" />
    <glyph glyph-name="Dcaron" unicode="&#x10e;" horiz-adv-x="1468" 
d="M82 1516h582q104 0 199.5 -27t178 -76t150 -117.5t115.5 -152.5t74 -181t26 -202t-26 -202t-74 -181.5t-115.5 -154t-150 -119t-178 -76.5t-199.5 -27h-582v274h121v967h-121v275zM535 1241v-967h127q81 0 153 38t125 103.5t84 154t31 190.5q0 101 -31 189t-84 153
t-125 102t-153 37h-127zM1110 1859l-272 -325h-240l-274 325h246l147 -153l146 153h247z" />
    <glyph glyph-name="dcaron" unicode="&#x10f;" horiz-adv-x="1741" 
d="M693 1556h453v-1282h202v-274h-510v40q-54 -28 -110.5 -44t-114.5 -16q-119 0 -218.5 42.5t-171 116.5t-111.5 173.5t-40 213.5t39.5 212.5t110 171.5t169 115t216.5 42q65 0 122 -12.5t109 -35.5v263h-145v274zM630 256q66 2 119.5 34t88.5 84v305q-35 53 -90.5 82.5
t-117.5 28.5q-52 1 -97.5 -18t-80 -54t-54.5 -84t-20 -111q0 -61 20 -110.5t54.5 -84t80 -52.5t97.5 -20zM1495 1059h-219v518l287 16z" />
    <glyph glyph-name="Egrave" unicode="&#xc8;" horiz-adv-x="1380" 
d="M113 1516h1206v-517h-326v215h-389v-299h301v-290h-301v-351h389v269h326v-543h-1206v274h159v940h-159v302zM660 1657l-293 286v25h326l196 -311h-229z" />
    <glyph glyph-name="egrave" unicode="&#xe8;" horiz-adv-x="1186" 
d="M349 453l3 -31q11 -45 37.5 -79t62.5 -57t80 -34.5t89 -11.5t85.5 5.5t78.5 15t74 22t73 26.5l110 -205q-57 -35 -104.5 -59.5t-95.5 -40.5t-102 -23.5t-126 -7.5q-135 0 -240 44.5t-176.5 120.5t-109 178t-37.5 216t39.5 214t111.5 174.5t172 117.5t222 43t216.5 -40.5
t159.5 -112t100 -168t38 -207.5q3 -25 3.5 -49.5t-1.5 -50.5h-763zM588 831q-56 0 -95.5 -13.5t-66.5 -37t-43 -53.5t-25 -63h433q-7 34 -20 64t-36 53t-58.5 36.5t-88.5 13.5zM500 1178l-293 286v25h326l196 -311h-229z" />
    <glyph glyph-name="Eacute" unicode="&#xc9;" horiz-adv-x="1380" 
d="M113 1516h1206v-517h-326v215h-389v-299h301v-290h-301v-351h389v269h326v-543h-1206v274h159v940h-159v302zM854 1968h326v-25l-306 -286h-235z" />
    <glyph glyph-name="eacute" unicode="&#xe9;" horiz-adv-x="1186" 
d="M349 453l3 -31q11 -45 37.5 -79t62.5 -57t80 -34.5t89 -11.5t85.5 5.5t78.5 15t74 22t73 26.5l110 -205q-57 -35 -104.5 -59.5t-95.5 -40.5t-102 -23.5t-126 -7.5q-135 0 -240 44.5t-176.5 120.5t-109 178t-37.5 216t39.5 214t111.5 174.5t172 117.5t222 43t216.5 -40.5
t159.5 -112t100 -168t38 -207.5q3 -25 3.5 -49.5t-1.5 -50.5h-763zM588 831q-56 0 -95.5 -13.5t-66.5 -37t-43 -53.5t-25 -63h433q-7 34 -20 64t-36 53t-58.5 36.5t-88.5 13.5zM694 1489h326v-25l-306 -286h-235z" />
    <glyph glyph-name="Ecircumflex" unicode="&#xca;" horiz-adv-x="1380" 
d="M113 1516h1206v-517h-326v215h-389v-299h301v-290h-301v-351h389v269h326v-543h-1206v274h159v940h-159v302zM385 1655l272 325h240l274 -325h-245l-148 153l-145 -153h-248z" />
    <glyph glyph-name="ecircumflex" unicode="&#xea;" horiz-adv-x="1186" 
d="M349 453l3 -31q11 -45 37.5 -79t62.5 -57t80 -34.5t89 -11.5t85.5 5.5t78.5 15t74 22t73 26.5l110 -205q-57 -35 -104.5 -59.5t-95.5 -40.5t-102 -23.5t-126 -7.5q-135 0 -240 44.5t-176.5 120.5t-109 178t-37.5 216t39.5 214t111.5 174.5t172 117.5t222 43t216.5 -40.5
t159.5 -112t100 -168t38 -207.5q3 -25 3.5 -49.5t-1.5 -50.5h-763zM588 831q-56 0 -95.5 -13.5t-66.5 -37t-43 -53.5t-25 -63h433q-7 34 -20 64t-36 53t-58.5 36.5t-88.5 13.5zM225 1176l272 325h240l274 -325h-245l-148 153l-145 -153h-248z" />
    <glyph glyph-name="Edieresis" unicode="&#xcb;" horiz-adv-x="1380" 
d="M113 1516h1206v-517h-326v215h-389v-299h301v-290h-301v-351h389v269h326v-543h-1206v274h159v940h-159v302zM326 1820q0 37 13.5 69.5t37.5 57t56.5 38.5t70.5 14q36 0 68 -14t56 -38.5t38 -57t14 -69.5t-14 -69.5t-38 -56.5t-56 -38t-68 -14q-38 0 -70.5 14t-56.5 38
t-37.5 56.5t-13.5 69.5zM805 1820q0 37 14 69.5t38 57t56.5 38.5t70.5 14q36 0 68 -14t56 -38.5t38 -57t14 -69.5t-14 -69.5t-38 -56.5t-56 -38t-68 -14q-38 0 -70.5 14t-56.5 38t-38 56.5t-14 69.5z" />
    <glyph glyph-name="edieresis" unicode="&#xeb;" horiz-adv-x="1186" 
d="M349 453l3 -31q11 -45 37.5 -79t62.5 -57t80 -34.5t89 -11.5t85.5 5.5t78.5 15t74 22t73 26.5l110 -205q-57 -35 -104.5 -59.5t-95.5 -40.5t-102 -23.5t-126 -7.5q-135 0 -240 44.5t-176.5 120.5t-109 178t-37.5 216t39.5 214t111.5 174.5t172 117.5t222 43t216.5 -40.5
t159.5 -112t100 -168t38 -207.5q3 -25 3.5 -49.5t-1.5 -50.5h-763zM588 831q-56 0 -95.5 -13.5t-66.5 -37t-43 -53.5t-25 -63h433q-7 34 -20 64t-36 53t-58.5 36.5t-88.5 13.5zM166 1342q0 37 13.5 69.5t37.5 57t56.5 38.5t70.5 14q36 0 68 -14t56 -38.5t38 -57t14 -69.5
t-14 -69.5t-38 -56.5t-56 -38t-68 -14q-38 0 -70.5 14t-56.5 38t-37.5 56.5t-13.5 69.5zM645 1342q0 37 14 69.5t38 57t56.5 38.5t70.5 14q36 0 68 -14t56 -38.5t38 -57t14 -69.5t-14 -69.5t-38 -56.5t-56 -38t-68 -14q-38 0 -70.5 14t-56.5 38t-38 56.5t-14 69.5z" />
    <glyph glyph-name="Ecaron" unicode="&#x11a;" horiz-adv-x="1380" 
d="M113 1516h1206v-517h-326v215h-389v-299h301v-290h-301v-351h389v269h326v-543h-1206v274h159v940h-159v302zM1138 1941l-272 -325h-240l-274 325h246l147 -153l146 153h247z" />
    <glyph glyph-name="ecaron" unicode="&#x11b;" horiz-adv-x="1186" 
d="M349 453l3 -31q11 -45 37.5 -79t62.5 -57t80 -34.5t89 -11.5t85.5 5.5t78.5 15t74 22t73 26.5l110 -205q-57 -35 -104.5 -59.5t-95.5 -40.5t-102 -23.5t-126 -7.5q-135 0 -240 44.5t-176.5 120.5t-109 178t-37.5 216t39.5 214t111.5 174.5t172 117.5t222 43t216.5 -40.5
t159.5 -112t100 -168t38 -207.5q3 -25 3.5 -49.5t-1.5 -50.5h-763zM588 831q-56 0 -95.5 -13.5t-66.5 -37t-43 -53.5t-25 -63h433q-7 34 -20 64t-36 53t-58.5 36.5t-88.5 13.5zM978 1462l-272 -325h-240l-274 325h246l147 -153l146 153h247z" />
    <glyph glyph-name="Emacron" unicode="&#x112;" horiz-adv-x="1380" 
d="M113 1516h1206v-517h-326v215h-389v-299h301v-290h-301v-351h389v269h326v-543h-1206v274h159v940h-159v302zM1089 1655h-688v215h688v-215z" />
    <glyph glyph-name="emacron" unicode="&#x113;" horiz-adv-x="1186" 
d="M349 453l3 -31q11 -45 37.5 -79t62.5 -57t80 -34.5t89 -11.5t85.5 5.5t78.5 15t74 22t73 26.5l110 -205q-57 -35 -104.5 -59.5t-95.5 -40.5t-102 -23.5t-126 -7.5q-135 0 -240 44.5t-176.5 120.5t-109 178t-37.5 216t39.5 214t111.5 174.5t172 117.5t222 43t216.5 -40.5
t159.5 -112t100 -168t38 -207.5q3 -25 3.5 -49.5t-1.5 -50.5h-763zM588 831q-56 0 -95.5 -13.5t-66.5 -37t-43 -53.5t-25 -63h433q-7 34 -20 64t-36 53t-58.5 36.5t-88.5 13.5zM930 1176h-688v215h688v-215z" />
    <glyph glyph-name="Edotaccent" unicode="&#x116;" horiz-adv-x="1380" 
d="M113 1516h1206v-517h-326v215h-389v-299h301v-290h-301v-351h389v269h326v-543h-1206v274h159v940h-159v302zM565 1849q0 37 13.5 69.5t37.5 56.5t56.5 38t70.5 14q36 0 68 -14t56 -38t38 -56.5t14 -69.5t-14 -69.5t-38 -56.5t-56 -38t-68 -14q-38 0 -70.5 14t-56.5 38
t-37.5 56.5t-13.5 69.5z" />
    <glyph glyph-name="edotaccent" unicode="&#x117;" horiz-adv-x="1186" 
d="M349 453l3 -31q11 -45 37.5 -79t62.5 -57t80 -34.5t89 -11.5t85.5 5.5t78.5 15t74 22t73 26.5l110 -205q-57 -35 -104.5 -59.5t-95.5 -40.5t-102 -23.5t-126 -7.5q-135 0 -240 44.5t-176.5 120.5t-109 178t-37.5 216t39.5 214t111.5 174.5t172 117.5t222 43t216.5 -40.5
t159.5 -112t100 -168t38 -207.5q3 -25 3.5 -49.5t-1.5 -50.5h-763zM588 831q-56 0 -95.5 -13.5t-66.5 -37t-43 -53.5t-25 -63h433q-7 34 -20 64t-36 53t-58.5 36.5t-88.5 13.5zM405 1370q0 37 13.5 69.5t37.5 56.5t56.5 38t70.5 14q36 0 68 -14t56 -38t38 -56.5t14 -69.5
t-14 -69.5t-38 -56.5t-56 -38t-68 -14q-38 0 -70.5 14t-56.5 38t-37.5 56.5t-13.5 69.5z" />
    <glyph glyph-name="Gcommaaccent" unicode="&#x122;" horiz-adv-x="1636" 
d="M1212 0v260q-62 -109 -121 -160t-133.5 -82t-199.5 -30q-62 1 -124 14.5t-120 38t-113.5 59t-100.5 79.5q-111 112 -172.5 259.5t-61.5 321.5q0 107 26 207t73 187t113.5 158.5t148 122.5t175.5 79t197 28q118 0 205 -31.5t187 -117.5h224v-338h-309q-46 71 -86.5 103
t-88 53t-132.5 21q-84 0 -156 -38t-124.5 -102.5t-82.5 -152t-30 -179.5q0 -91 27 -173t82 -147.5t128 -100.5t156 -35q106 0 185 62t114 169h-289v274h702v-809h-299zM731 -29l289 -104l-197 -338l-206 72z" />
    <glyph glyph-name="gcommaaccent" unicode="&#x123;" horiz-adv-x="1284" 
d="M849 54q-56 -32 -112 -46t-114 -14q-120 0 -221 41t-174.5 113.5t-114.5 171.5t-41 215q0 109 39.5 205.5t110.5 169t170 114.5t215 43q71 -1 130.5 -15t111.5 -38v22h303v-993q0 -131 -45 -226.5t-120.5 -158t-175.5 -93t-210 -30.5q-136 0 -251.5 37t-205.5 100
l125 222q69 -44 150 -69.5t180 -25.5q54 0 99.5 12t79 40.5t52.5 76.5t19 121v5zM633 271q70 0 126.5 35.5t89.5 93.5l2 252q-34 63 -93 100t-128 38q-49 -1 -96 -19.5t-81.5 -52.5t-54.5 -80.5t-20 -103.5q0 -60 20 -109t54 -83t80.5 -52.5t100.5 -18.5zM770 1109l-289 105
l197 337l206 -71z" />
    <glyph glyph-name="Gbreve" unicode="&#x11e;" horiz-adv-x="1636" 
d="M1212 0v260q-62 -109 -121 -160t-133.5 -82t-199.5 -30q-62 1 -124 14.5t-120 38t-113.5 59t-100.5 79.5q-111 112 -172.5 259.5t-61.5 321.5q0 107 26 207t73 187t113.5 158.5t148 122.5t175.5 79t197 28q118 0 205 -31.5t187 -117.5h224v-338h-309q-46 71 -86.5 103
t-88 53t-132.5 21q-84 0 -156 -38t-124.5 -102.5t-82.5 -152t-30 -179.5q0 -91 27 -173t82 -147.5t128 -100.5t156 -35q106 0 185 62t114 169h-289v274h702v-809h-299zM819 1636q-95 0 -167 21.5t-125 63t-89.5 101.5t-60.5 138h252q20 -60 67.5 -91.5t122.5 -31.5
q72 0 118 29t71 94h250q-22 -77 -58 -137t-89.5 -101.5t-125.5 -63.5t-166 -22z" />
    <glyph glyph-name="gbreve" unicode="&#x11f;" horiz-adv-x="1284" 
d="M849 54q-56 -32 -112 -46t-114 -14q-120 0 -221 41t-174.5 113.5t-114.5 171.5t-41 215q0 109 39.5 205.5t110.5 169t170 114.5t215 43q71 -1 130.5 -15t111.5 -38v22h303v-993q0 -131 -45 -226.5t-120.5 -158t-175.5 -93t-210 -30.5q-136 0 -251.5 37t-205.5 100
l125 222q69 -44 150 -69.5t180 -25.5q54 0 99.5 12t79 40.5t52.5 76.5t19 121v5zM633 271q70 0 126.5 35.5t89.5 93.5l2 252q-34 63 -93 100t-128 38q-49 -1 -96 -19.5t-81.5 -52.5t-54.5 -80.5t-20 -103.5q0 -60 20 -109t54 -83t80.5 -52.5t100.5 -18.5zM643 1157
q-95 0 -167 21.5t-125 63t-89.5 101.5t-60.5 138h252q20 -60 67.5 -91.5t122.5 -31.5q72 0 118 29t71 94h250q-22 -77 -58 -137t-89.5 -101.5t-125.5 -63.5t-166 -22z" />
    <glyph glyph-name="Igrave" unicode="&#xcc;" horiz-adv-x="874" 
d="M113 1516h649v-274h-160v-968h160v-274h-649v274h157v968h-157v274zM349 1657l-293 286v25h326l196 -311h-229z" />
    <glyph glyph-name="igrave" unicode="&#xec;" horiz-adv-x="791" 
d="M80 1037l467 -1v-762h142v-274h-608v274h156v488h-157v275zM335 1178l-293 286v25h326l196 -311h-229z" />
    <glyph glyph-name="Iacute" unicode="&#xcd;" horiz-adv-x="874" 
d="M113 1516h649v-274h-160v-968h160v-274h-649v274h157v968h-157v274zM543 1968h326v-25l-306 -286h-235z" />
    <glyph glyph-name="iacute" unicode="&#xed;" horiz-adv-x="791" 
d="M80 1037l467 -1v-762h142v-274h-608v274h156v488h-157v275zM528 1489h326v-25l-306 -286h-235z" />
    <glyph glyph-name="Icircumflex" unicode="&#xce;" horiz-adv-x="874" 
d="M113 1516h649v-274h-160v-968h160v-274h-649v274h157v968h-157v274zM75 1655l272 325h240l274 -325h-245l-148 153l-145 -153h-248z" />
    <glyph glyph-name="icircumflex" unicode="&#xee;" horiz-adv-x="791" 
d="M80 1037l467 -1v-762h142v-274h-608v274h156v488h-157v275zM40 1176l229 325h203l232 -325h-207l-125 153l-123 -153h-209z" />
    <glyph glyph-name="Idieresis" unicode="&#xcf;" horiz-adv-x="874" 
d="M113 1516h649v-274h-160v-968h160v-274h-649v274h157v968h-157v274zM83 1820q0 66 46 113t113 47q33 0 62 -12t50.5 -33.5t33.5 -51.5t12 -63q0 -32 -12 -62t-33.5 -51.5t-50.5 -33.5t-62 -12q-67 0 -113 47t-46 112v0zM460 1820q0 66 46 113t113 47q33 0 61.5 -12
t50 -33.5t34 -51.5t12.5 -63q0 -32 -12.5 -62t-34 -51.5t-50 -33.5t-61.5 -12q-67 0 -113 47t-46 112v0z" />
    <glyph glyph-name="idieresis" unicode="&#xef;" horiz-adv-x="791" 
d="M80 1037l467 -1v-762h142v-274h-608v274h156v488h-157v275zM28 1342q0 66 46 113t113 47q33 0 62 -12t50.5 -33.5t33.5 -51.5t12 -63q0 -32 -12 -62t-33.5 -51.5t-50.5 -33.5t-62 -12q-67 0 -113 47t-46 112v0zM405 1342q0 66 46 113t113 47q33 0 61.5 -12t50 -33.5
t34 -51.5t12.5 -63q0 -32 -12.5 -62t-34 -51.5t-50 -33.5t-61.5 -12q-67 0 -113 47t-46 112v0z" />
    <glyph glyph-name="Imacron" unicode="&#x12a;" horiz-adv-x="874" 
d="M113 1516h649v-274h-160v-968h160v-274h-649v274h157v968h-157v274zM778 1655h-688v215h688v-215z" />
    <glyph glyph-name="imacron" unicode="&#x12b;" horiz-adv-x="791" 
d="M80 1037l467 -1v-762h142v-274h-608v274h156v488h-157v275zM724 1176h-688v215h688v-215z" />
    <glyph glyph-name="Kcommaaccent" unicode="&#x136;" horiz-adv-x="1655" 
d="M113 1516h649v-275h-160v-441l485 423v293h517v-295h-113l-505 -434l484 -490h123v-297h-503v297l-488 488v-511h160v-274h-649v274h157v967h-157v275zM739 -29l289 -104l-197 -338l-206 72z" />
    <glyph glyph-name="kcommaaccent" unicode="&#x137;" horiz-adv-x="1450" 
d="M57 1556h467v-897h175l72 103v274h536v-274h-186l-193 -223l197 -238h172v-301h-281l-336 444h-156v-170h106v-274h-573v274h160v1008h-160v274zM637 -29l289 -104l-197 -338l-206 72z" />
    <glyph glyph-name="Lcommaaccent" unicode="&#x13b;" horiz-adv-x="1346" 
d="M113 1516h649v-275h-160v-967h330q13 0 25.5 7.5t22 19.5t15.5 26t6 27v203h324v-557h-1212v274h157v967h-157v275zM585 -29l289 -104l-197 -338l-206 72z" />
    <glyph glyph-name="lcommaaccent" unicode="&#x13c;" horiz-adv-x="780" 
d="M59 1556h467v-1282h160v-274h-627v274h160v1008h-160v274zM303 -29l289 -104l-197 -338l-206 72z" />
    <glyph glyph-name="Lacute" unicode="&#x139;" horiz-adv-x="1346" 
d="M113 1516h649v-275h-160v-967h330q13 0 25.5 7.5t22 19.5t15.5 26t6 27v203h324v-557h-1212v274h157v967h-157v275zM537 1886h326v-25l-306 -286h-235z" />
    <glyph glyph-name="lacute" unicode="&#x13a;" horiz-adv-x="780" 
d="M59 1556h467v-1282h160v-274h-627v274h160v1008h-160v274zM414 1940h326v-25l-306 -286h-235z" />
    <glyph glyph-name="Lcaron" unicode="&#x13d;" horiz-adv-x="1686" 
d="M113 1516h649v-275h-160v-967h330q13 0 25.5 7.5t22 19.5t15.5 26t6 27v203h324v-557h-1212v274h157v967h-157v275zM1233 1013h-219v518l287 16z" />
    <glyph glyph-name="lcaron" unicode="&#x13e;" horiz-adv-x="1016" 
d="M59 1556h467v-1282h160v-274h-627v274h160v1008h-160v274zM887 1059h-219v518l287 16z" />
    <glyph glyph-name="Nacute" unicode="&#x143;" horiz-adv-x="1698" 
d="M1071 1516h576v-275h-123v-1241h-332l-631 980v-706h127v-274h-575v274h125v967h-123v275h458l627 -993v718h-129v275zM967 1968h326v-25l-306 -286h-235z" />
    <glyph glyph-name="nacute" unicode="&#x144;" horiz-adv-x="1460" 
d="M932 596q0 87 -46 136.5t-122 49.5q-52 0 -105 -23t-103 -86v-399h168v-274h-644v274h152v488h-150v274h472v-91q65 51 145.5 80.5t169.5 29.5q187 0 288 -104.5t101 -305.5v-371h147v-274h-473v596zM846 1489h326v-25l-306 -286h-235z" />
    <glyph glyph-name="Ncaron" unicode="&#x147;" horiz-adv-x="1698" 
d="M1071 1516h576v-275h-123v-1241h-332l-631 980v-706h127v-274h-575v274h125v967h-123v275h458l627 -993v718h-129v275zM1251 1941l-272 -325h-240l-274 325h246l147 -153l146 153h247z" />
    <glyph glyph-name="ncaron" unicode="&#x148;" horiz-adv-x="1460" 
d="M932 596q0 87 -46 136.5t-122 49.5q-52 0 -105 -23t-103 -86v-399h168v-274h-644v274h152v488h-150v274h472v-91q65 51 145.5 80.5t169.5 29.5q187 0 288 -104.5t101 -305.5v-371h147v-274h-473v596zM1151 1462l-272 -325h-240l-274 325h246l147 -153l146 153h247z" />
    <glyph glyph-name="Ntilde" unicode="&#xd1;" horiz-adv-x="1698" 
d="M1071 1516h576v-275h-123v-1241h-332l-631 980v-706h127v-274h-575v274h125v967h-123v275h458l627 -993v718h-129v275zM686 1958q42 0 81 -14.5t76.5 -32t73 -32t70.5 -14.5q42 0 74.5 15t58.5 53l158 -70q-15 -45 -42.5 -84t-63.5 -68.5t-79 -46t-90 -16.5
q-52 0 -94 13.5t-79.5 30t-73.5 30.5t-76 14q-45 0 -76 -18.5t-51 -44.5l-152 70q14 54 47.5 94t74.5 67t84.5 40.5t78.5 13.5z" />
    <glyph glyph-name="ntilde" unicode="&#xf1;" horiz-adv-x="1460" 
d="M932 596q0 87 -46 136.5t-122 49.5q-52 0 -105 -23t-103 -86v-399h168v-274h-644v274h152v488h-150v274h472v-91q65 51 145.5 80.5t169.5 29.5q187 0 288 -104.5t101 -305.5v-371h147v-274h-473v596zM666 1479q42 0 81 -14.5t76.5 -32t73 -32t70.5 -14.5q42 0 74.5 15
t58.5 53l158 -70q-15 -45 -42.5 -84t-63.5 -68.5t-79 -46t-90 -16.5q-52 0 -94 13.5t-79.5 30t-73.5 30.5t-76 14q-45 0 -76 -18.5t-51 -44.5l-152 70q14 54 47.5 94t74.5 67t84.5 40.5t78.5 13.5z" />
    <glyph glyph-name="Ncommaaccent" unicode="&#x145;" horiz-adv-x="1698" 
d="M1071 1516h576v-275h-123v-1241h-332l-631 980v-706h127v-274h-575v274h125v967h-123v275h458l627 -993v718h-129v275zM762 -29l289 -104l-197 -338l-206 72z" />
    <glyph glyph-name="ncommaaccent" unicode="&#x146;" horiz-adv-x="1460" 
d="M932 596q0 87 -46 136.5t-122 49.5q-52 0 -105 -23t-103 -86v-399h168v-274h-644v274h152v488h-150v274h472v-91q65 51 145.5 80.5t169.5 29.5q187 0 288 -104.5t101 -305.5v-371h147v-274h-473v596zM643 -29l289 -104l-197 -338l-206 72z" />
    <glyph glyph-name="Ograve" unicode="&#xd2;" horiz-adv-x="1599" 
d="M799 -27q-103 0 -197 28t-175.5 79t-148 122.5t-113.5 159t-73 187.5t-26 209t26 209.5t73 188t113.5 159t148 122.5t175.5 79t197 28t197.5 -28t176 -79t148 -122.5t114 -159t73.5 -188t26 -209.5q0 -108 -26 -208.5t-73.5 -188t-114 -159t-148 -122.5t-176 -79
t-197.5 -28zM799 287q87 0 159.5 37.5t124.5 102t80.5 150t28.5 181.5q0 97 -29 183t-81.5 150.5t-124.5 102t-158 37.5t-158 -37.5t-124 -102t-81.5 -150.5t-29.5 -183q0 -96 29.5 -181.5t81.5 -150t124 -102t158 -37.5zM711 1657l-293 286v25h326l196 -311h-229z" />
    <glyph glyph-name="ograve" unicode="&#xf2;" 
d="M72 522q0 113 41 212t114 173t174 117t222 43t222.5 -43t174.5 -117t113.5 -173t40.5 -212t-39.5 -212.5t-112 -174t-174 -117.5t-225.5 -43q-125 0 -226.5 43t-173.5 117t-111.5 173.5t-39.5 213.5zM371 522q0 -59 20 -108.5t54.5 -85.5t80 -56t97.5 -20q53 0 98.5 19.5
t79 55.5t52.5 85.5t19 109.5q0 62 -19 112t-52.5 85t-79 53.5t-98.5 17.5q-52 1 -97.5 -17.5t-80 -53.5t-54.5 -85t-20 -112zM529 1178l-293 286v25h326l196 -311h-229z" />
    <glyph glyph-name="Oacute" unicode="&#xd3;" horiz-adv-x="1599" 
d="M799 -27q-103 0 -197 28t-175.5 79t-148 122.5t-113.5 159t-73 187.5t-26 209t26 209.5t73 188t113.5 159t148 122.5t175.5 79t197 28t197.5 -28t176 -79t148 -122.5t114 -159t73.5 -188t26 -209.5q0 -108 -26 -208.5t-73.5 -188t-114 -159t-148 -122.5t-176 -79
t-197.5 -28zM799 287q87 0 159.5 37.5t124.5 102t80.5 150t28.5 181.5q0 97 -29 183t-81.5 150.5t-124.5 102t-158 37.5t-158 -37.5t-124 -102t-81.5 -150.5t-29.5 -183q0 -96 29.5 -181.5t81.5 -150t124 -102t158 -37.5zM905 1968h326v-25l-306 -286h-235z" />
    <glyph glyph-name="oacute" unicode="&#xf3;" 
d="M72 522q0 113 41 212t114 173t174 117t222 43t222.5 -43t174.5 -117t113.5 -173t40.5 -212t-39.5 -212.5t-112 -174t-174 -117.5t-225.5 -43q-125 0 -226.5 43t-173.5 117t-111.5 173.5t-39.5 213.5zM371 522q0 -59 20 -108.5t54.5 -85.5t80 -56t97.5 -20q53 0 98.5 19.5
t79 55.5t52.5 85.5t19 109.5q0 62 -19 112t-52.5 85t-79 53.5t-98.5 17.5q-52 1 -97.5 -17.5t-80 -53.5t-54.5 -85t-20 -112zM723 1489h326v-25l-306 -286h-235z" />
    <glyph glyph-name="Ocircumflex" unicode="&#xd4;" horiz-adv-x="1599" 
d="M799 -27q-103 0 -197 28t-175.5 79t-148 122.5t-113.5 159t-73 187.5t-26 209t26 209.5t73 188t113.5 159t148 122.5t175.5 79t197 28t197.5 -28t176 -79t148 -122.5t114 -159t73.5 -188t26 -209.5q0 -108 -26 -208.5t-73.5 -188t-114 -159t-148 -122.5t-176 -79
t-197.5 -28zM799 287q87 0 159.5 37.5t124.5 102t80.5 150t28.5 181.5q0 97 -29 183t-81.5 150.5t-124.5 102t-158 37.5t-158 -37.5t-124 -102t-81.5 -150.5t-29.5 -183q0 -96 29.5 -181.5t81.5 -150t124 -102t158 -37.5zM436 1655l272 325h240l274 -325h-245l-148 153
l-145 -153h-248z" />
    <glyph glyph-name="ocircumflex" unicode="&#xf4;" 
d="M72 522q0 113 41 212t114 173t174 117t222 43t222.5 -43t174.5 -117t113.5 -173t40.5 -212t-39.5 -212.5t-112 -174t-174 -117.5t-225.5 -43q-125 0 -226.5 43t-173.5 117t-111.5 173.5t-39.5 213.5zM371 522q0 -59 20 -108.5t54.5 -85.5t80 -56t97.5 -20q53 0 98.5 19.5
t79 55.5t52.5 85.5t19 109.5q0 62 -19 112t-52.5 85t-79 53.5t-98.5 17.5q-52 1 -97.5 -17.5t-80 -53.5t-54.5 -85t-20 -112zM254 1176l272 325h240l274 -325h-245l-148 153l-145 -153h-248z" />
    <glyph glyph-name="Otilde" unicode="&#xd5;" horiz-adv-x="1599" 
d="M799 -27q-103 0 -197 28t-175.5 79t-148 122.5t-113.5 159t-73 187.5t-26 209t26 209.5t73 188t113.5 159t148 122.5t175.5 79t197 28t197.5 -28t176 -79t148 -122.5t114 -159t73.5 -188t26 -209.5q0 -108 -26 -208.5t-73.5 -188t-114 -159t-148 -122.5t-176 -79
t-197.5 -28zM799 287q87 0 159.5 37.5t124.5 102t80.5 150t28.5 181.5q0 97 -29 183t-81.5 150.5t-124.5 102t-158 37.5t-158 -37.5t-124 -102t-81.5 -150.5t-29.5 -183q0 -96 29.5 -181.5t81.5 -150t124 -102t158 -37.5zM625 1958q42 0 81 -14.5t76.5 -32t73 -32
t70.5 -14.5q42 0 74.5 15t58.5 53l158 -70q-15 -45 -42.5 -84t-63.5 -68.5t-79 -46t-90 -16.5q-52 0 -94 13.5t-79.5 30t-73.5 30.5t-76 14q-45 0 -76 -18.5t-51 -44.5l-152 70q14 54 47.5 94t74.5 67t84.5 40.5t78.5 13.5z" />
    <glyph glyph-name="otilde" unicode="&#xf5;" 
d="M72 522q0 113 41 212t114 173t174 117t222 43t222.5 -43t174.5 -117t113.5 -173t40.5 -212t-39.5 -212.5t-112 -174t-174 -117.5t-225.5 -43q-125 0 -226.5 43t-173.5 117t-111.5 173.5t-39.5 213.5zM371 522q0 -59 20 -108.5t54.5 -85.5t80 -56t97.5 -20q53 0 98.5 19.5
t79 55.5t52.5 85.5t19 109.5q0 62 -19 112t-52.5 85t-79 53.5t-98.5 17.5q-52 1 -97.5 -17.5t-80 -53.5t-54.5 -85t-20 -112zM442 1479q42 0 81 -14.5t76.5 -32t73 -32t70.5 -14.5q42 0 74.5 15t58.5 53l158 -70q-15 -45 -42.5 -84t-63.5 -68.5t-79 -46t-90 -16.5
q-52 0 -94 13.5t-79.5 30t-73.5 30.5t-76 14q-45 0 -76 -18.5t-51 -44.5l-152 70q14 54 47.5 94t74.5 67t84.5 40.5t78.5 13.5z" />
    <glyph glyph-name="Odieresis" unicode="&#xd6;" horiz-adv-x="1599" 
d="M799 -27q-103 0 -197 28t-175.5 79t-148 122.5t-113.5 159t-73 187.5t-26 209t26 209.5t73 188t113.5 159t148 122.5t175.5 79t197 28t197.5 -28t176 -79t148 -122.5t114 -159t73.5 -188t26 -209.5q0 -108 -26 -208.5t-73.5 -188t-114 -159t-148 -122.5t-176 -79
t-197.5 -28zM799 287q87 0 159.5 37.5t124.5 102t80.5 150t28.5 181.5q0 97 -29 183t-81.5 150.5t-124.5 102t-158 37.5t-158 -37.5t-124 -102t-81.5 -150.5t-29.5 -183q0 -96 29.5 -181.5t81.5 -150t124 -102t158 -37.5zM377 1820q0 37 13.5 69.5t37.5 57t56.5 38.5
t70.5 14q36 0 68 -14t56 -38.5t38 -57t14 -69.5t-14 -69.5t-38 -56.5t-56 -38t-68 -14q-38 0 -70.5 14t-56.5 38t-37.5 56.5t-13.5 69.5zM856 1820q0 37 14 69.5t38 57t56.5 38.5t70.5 14q36 0 68 -14t56 -38.5t38 -57t14 -69.5t-14 -69.5t-38 -56.5t-56 -38t-68 -14
q-38 0 -70.5 14t-56.5 38t-38 56.5t-14 69.5z" />
    <glyph glyph-name="odieresis" unicode="&#xf6;" 
d="M72 522q0 113 41 212t114 173t174 117t222 43t222.5 -43t174.5 -117t113.5 -173t40.5 -212t-39.5 -212.5t-112 -174t-174 -117.5t-225.5 -43q-125 0 -226.5 43t-173.5 117t-111.5 173.5t-39.5 213.5zM371 522q0 -59 20 -108.5t54.5 -85.5t80 -56t97.5 -20q53 0 98.5 19.5
t79 55.5t52.5 85.5t19 109.5q0 62 -19 112t-52.5 85t-79 53.5t-98.5 17.5q-52 1 -97.5 -17.5t-80 -53.5t-54.5 -85t-20 -112zM194 1342q0 37 13.5 69.5t37.5 57t56.5 38.5t70.5 14q36 0 68 -14t56 -38.5t38 -57t14 -69.5t-14 -69.5t-38 -56.5t-56 -38t-68 -14
q-38 0 -70.5 14t-56.5 38t-37.5 56.5t-13.5 69.5zM673 1342q0 37 14 69.5t38 57t56.5 38.5t70.5 14q36 0 68 -14t56 -38.5t38 -57t14 -69.5t-14 -69.5t-38 -56.5t-56 -38t-68 -14q-38 0 -70.5 14t-56.5 38t-38 56.5t-14 69.5z" />
    <glyph glyph-name="Ohungarumlaut" unicode="&#x150;" horiz-adv-x="1599" 
d="M799 -27q-103 0 -197 28t-175.5 79t-148 122.5t-113.5 159t-73 187.5t-26 209t26 209.5t73 188t113.5 159t148 122.5t175.5 79t197 28t197.5 -28t176 -79t148 -122.5t114 -159t73.5 -188t26 -209.5q0 -108 -26 -208.5t-73.5 -188t-114 -159t-148 -122.5t-176 -79
t-197.5 -28zM799 287q87 0 159.5 37.5t124.5 102t80.5 150t28.5 181.5q0 97 -29 183t-81.5 150.5t-124.5 102t-158 37.5t-158 -37.5t-124 -102t-81.5 -150.5t-29.5 -183q0 -96 29.5 -181.5t81.5 -150t124 -102t158 -37.5zM1360 1990l-280 -319h-189l209 319h260zM963 1990
l-256 -319h-186l184 319h258z" />
    <glyph glyph-name="ohungarumlaut" unicode="&#x151;" 
d="M72 522q0 113 41 212t114 173t174 117t222 43t222.5 -43t174.5 -117t113.5 -173t40.5 -212t-39.5 -212.5t-112 -174t-174 -117.5t-225.5 -43q-125 0 -226.5 43t-173.5 117t-111.5 173.5t-39.5 213.5zM371 522q0 -59 20 -108.5t54.5 -85.5t80 -56t97.5 -20q53 0 98.5 19.5
t79 55.5t52.5 85.5t19 109.5q0 62 -19 112t-52.5 85t-79 53.5t-98.5 17.5q-52 1 -97.5 -17.5t-80 -53.5t-54.5 -85t-20 -112zM1177 1511l-280 -319h-189l209 319h260zM780 1511l-256 -319h-186l184 319h258z" />
    <glyph glyph-name="Omacron" unicode="&#x14c;" horiz-adv-x="1599" 
d="M799 -27q-103 0 -197 28t-175.5 79t-148 122.5t-113.5 159t-73 187.5t-26 209t26 209.5t73 188t113.5 159t148 122.5t175.5 79t197 28t197.5 -28t176 -79t148 -122.5t114 -159t73.5 -188t26 -209.5q0 -108 -26 -208.5t-73.5 -188t-114 -159t-148 -122.5t-176 -79
t-197.5 -28zM799 287q87 0 159.5 37.5t124.5 102t80.5 150t28.5 181.5q0 97 -29 183t-81.5 150.5t-124.5 102t-158 37.5t-158 -37.5t-124 -102t-81.5 -150.5t-29.5 -183q0 -96 29.5 -181.5t81.5 -150t124 -102t158 -37.5zM1141 1655h-688v215h688v-215z" />
    <glyph glyph-name="omacron" unicode="&#x14d;" 
d="M72 522q0 113 41 212t114 173t174 117t222 43t222.5 -43t174.5 -117t113.5 -173t40.5 -212t-39.5 -212.5t-112 -174t-174 -117.5t-225.5 -43q-125 0 -226.5 43t-173.5 117t-111.5 173.5t-39.5 213.5zM371 522q0 -59 20 -108.5t54.5 -85.5t80 -56t97.5 -20q53 0 98.5 19.5
t79 55.5t52.5 85.5t19 109.5q0 62 -19 112t-52.5 85t-79 53.5t-98.5 17.5q-52 1 -97.5 -17.5t-80 -53.5t-54.5 -85t-20 -112zM958 1176h-688v215h688v-215z" />
    <glyph glyph-name="Racute" unicode="&#x154;" horiz-adv-x="1530" 
d="M113 1516h802q117 0 209 -35t155 -93.5t96.5 -136t33.5 -161.5q0 -77 -16.5 -135t-48 -103t-77.5 -79.5t-105 -62.5q51 -26 90 -79.5t59 -138.5l51 -197h125l2 -295h-440l-60 360q-9 64 -27.5 110.5t-49.5 76t-75.5 43.5t-105.5 14h-129v-330h139v-274h-628v274h157v967
h-157v275zM602 1241v-367h199q57 0 102.5 10.5t78 33t50 56.5t17.5 81q0 88 -63 137t-185 49h-199zM864 1970h326v-25l-306 -286h-235z" />
    <glyph glyph-name="racute" unicode="&#x155;" horiz-adv-x="1110" 
d="M1020 659h-281v107q-41 0 -75 -5.5t-59.5 -18.5t-43 -36t-24.5 -57v-375h211v-274h-676v274h155v488h-153v274h461v-73q44 35 99 54t120 19q66 0 136 -1t130 -1v-375zM662 1489h326v-25l-306 -286h-235z" />
    <glyph glyph-name="Rcaron" unicode="&#x158;" horiz-adv-x="1530" 
d="M113 1516h802q117 0 209 -35t155 -93.5t96.5 -136t33.5 -161.5q0 -77 -16.5 -135t-48 -103t-77.5 -79.5t-105 -62.5q51 -26 90 -79.5t59 -138.5l51 -197h125l2 -295h-440l-60 360q-9 64 -27.5 110.5t-49.5 76t-75.5 43.5t-105.5 14h-129v-330h139v-274h-628v274h157v967
h-157v275zM602 1241v-367h199q57 0 102.5 10.5t78 33t50 56.5t17.5 81q0 88 -63 137t-185 49h-199zM1148 1943l-272 -325h-240l-274 325h246l147 -153l146 153h247z" />
    <glyph glyph-name="rcaron" unicode="&#x159;" horiz-adv-x="1110" 
d="M1020 659h-281v107q-41 0 -75 -5.5t-59.5 -18.5t-43 -36t-24.5 -57v-375h211v-274h-676v274h155v488h-153v274h461v-73q44 35 99 54t120 19q66 0 136 -1t130 -1v-375zM946 1462l-272 -325h-240l-274 325h246l147 -153l146 153h247z" />
    <glyph glyph-name="Rcommaaccent" unicode="&#x156;" horiz-adv-x="1530" 
d="M113 1516h802q117 0 209 -35t155 -93.5t96.5 -136t33.5 -161.5q0 -77 -16.5 -135t-48 -103t-77.5 -79.5t-105 -62.5q51 -26 90 -79.5t59 -138.5l51 -197h125l2 -295h-440l-60 360q-9 64 -27.5 110.5t-49.5 76t-75.5 43.5t-105.5 14h-129v-330h139v-274h-628v274h157v967
h-157v275zM602 1241v-367h199q57 0 102.5 10.5t78 33t50 56.5t17.5 81q0 88 -63 137t-185 49h-199zM678 -29l289 -104l-197 -338l-206 72z" />
    <glyph glyph-name="rcommaaccent" unicode="&#x157;" horiz-adv-x="1110" 
d="M1020 659h-281v107q-41 0 -75 -5.5t-59.5 -18.5t-43 -36t-24.5 -57v-375h211v-274h-676v274h155v488h-153v274h461v-73q44 35 99 54t120 19q66 0 136 -1t130 -1v-375zM332 -29l289 -104l-197 -338l-206 72z" />
    <glyph glyph-name="Sacute" unicode="&#x15a;" 
d="M842 1089q-5 35 -24.5 66t-50 53.5t-69 35.5t-80.5 13q-38 0 -71 -8t-57.5 -24.5t-39 -42.5t-14.5 -62q0 -45 19.5 -71.5t50 -43.5t67.5 -27t72 -22l275 -92q57 -20 107 -55t86.5 -85t57.5 -115t21 -146q0 -110 -40.5 -201t-113.5 -156t-175 -101t-226 -36
q-87 0 -164.5 19.5t-141.5 56.5t-112 88.5t-75 116.5h-103v301h362v-62q0 -45 14.5 -83t43.5 -66t73 -43.5t103 -15.5q90 0 137 41.5t47 115.5q0 38 -16.5 63.5t-42.5 43t-58 29.5t-63 22l-229 74q-65 20 -125.5 56t-107 90t-74 126.5t-27.5 165.5q0 108 40 192.5t112 142.5
t171 88t217 30q93 0 172 -21.5t141.5 -57.5t106 -82.5t66.5 -96.5h100v-302h-362v88zM731 1968h326v-25l-306 -286h-235z" />
    <glyph glyph-name="sacute" unicode="&#x15b;" horiz-adv-x="1102" 
d="M725.5 765q-15.5 22 -45.5 38.5t-73.5 26.5t-98.5 10q-21 0 -45 -3.5t-44.5 -12.5t-34 -24.5t-13.5 -39.5q0 -12 3.5 -23t13.5 -21t27.5 -18.5t45.5 -13.5l188 -37q102 -20 171 -50t111 -70t60.5 -89t18.5 -106q0 -89 -41.5 -156t-109 -111.5t-152 -67t-170.5 -22.5
q-56 0 -101.5 7t-82 19t-65 28.5t-52.5 36.5h-181v278h283v-6q1 -29 18 -50.5t44.5 -36.5t62.5 -22.5t74 -7.5q90 0 131 23.5t41 60.5q0 29 -20 49.5t-71 32.5l-192 41q-181 35 -273 116.5t-92 209.5q0 75 35 136.5t95 105t140.5 67.5t172.5 24q63 0 112 -7.5t88 -19.5
t68.5 -28.5t52.5 -34.5h174v-278h-258q0 24 -15.5 46zM600 1489h326v-25l-306 -286h-235z" />
    <glyph glyph-name="Scaron" unicode="&#x160;" 
d="M842 1089q-5 35 -24.5 66t-50 53.5t-69 35.5t-80.5 13q-38 0 -71 -8t-57.5 -24.5t-39 -42.5t-14.5 -62q0 -45 19.5 -71.5t50 -43.5t67.5 -27t72 -22l275 -92q57 -20 107 -55t86.5 -85t57.5 -115t21 -146q0 -110 -40.5 -201t-113.5 -156t-175 -101t-226 -36
q-87 0 -164.5 19.5t-141.5 56.5t-112 88.5t-75 116.5h-103v301h362v-62q0 -45 14.5 -83t43.5 -66t73 -43.5t103 -15.5q90 0 137 41.5t47 115.5q0 38 -16.5 63.5t-42.5 43t-58 29.5t-63 22l-229 74q-65 20 -125.5 56t-107 90t-74 126.5t-27.5 165.5q0 108 40 192.5t112 142.5
t171 88t217 30q93 0 172 -21.5t141.5 -57.5t106 -82.5t66.5 -96.5h100v-302h-362v88zM1015 1941l-272 -325h-240l-274 325h246l147 -153l146 153h247z" />
    <glyph glyph-name="scaron" unicode="&#x161;" horiz-adv-x="1102" 
d="M725.5 765q-15.5 22 -45.5 38.5t-73.5 26.5t-98.5 10q-21 0 -45 -3.5t-44.5 -12.5t-34 -24.5t-13.5 -39.5q0 -12 3.5 -23t13.5 -21t27.5 -18.5t45.5 -13.5l188 -37q102 -20 171 -50t111 -70t60.5 -89t18.5 -106q0 -89 -41.5 -156t-109 -111.5t-152 -67t-170.5 -22.5
q-56 0 -101.5 7t-82 19t-65 28.5t-52.5 36.5h-181v278h283v-6q1 -29 18 -50.5t44.5 -36.5t62.5 -22.5t74 -7.5q90 0 131 23.5t41 60.5q0 29 -20 49.5t-71 32.5l-192 41q-181 35 -273 116.5t-92 209.5q0 75 35 136.5t95 105t140.5 67.5t172.5 24q63 0 112 -7.5t88 -19.5
t68.5 -28.5t52.5 -34.5h174v-278h-258q0 24 -15.5 46zM884 1462l-272 -325h-240l-274 325h246l147 -153l146 153h247z" />
    <glyph glyph-name="Scedilla" unicode="&#x15e;" 
d="M842 1089q-5 35 -24.5 66t-50 53.5t-69 35.5t-80.5 13q-38 0 -71 -8t-57.5 -24.5t-39 -42.5t-14.5 -62q0 -45 19.5 -71.5t50 -43.5t67.5 -27t72 -22l275 -92q57 -20 107 -55t86.5 -85t57.5 -115t21 -146q0 -110 -40.5 -201t-113.5 -156t-175 -101t-226 -36
q-87 0 -164.5 19.5t-141.5 56.5t-112 88.5t-75 116.5h-103v301h362v-62q0 -45 14.5 -83t43.5 -66t73 -43.5t103 -15.5q90 0 137 41.5t47 115.5q0 38 -16.5 63.5t-42.5 43t-58 29.5t-63 22l-229 74q-65 20 -125.5 56t-107 90t-74 126.5t-27.5 165.5q0 108 40 192.5t112 142.5
t171 88t217 30q93 0 172 -21.5t141.5 -57.5t106 -82.5t66.5 -96.5h100v-302h-362v88zM329 -293q41 3 77.5 19.5t66 46.5t51 73.5t31.5 100.5l243 -86q-23 -79 -65 -138t-100 -98t-128.5 -59t-150.5 -21z" />
    <glyph glyph-name="scedilla" unicode="&#x15f;" horiz-adv-x="1102" 
d="M725.5 765q-15.5 22 -45.5 38.5t-73.5 26.5t-98.5 10q-21 0 -45 -3.5t-44.5 -12.5t-34 -24.5t-13.5 -39.5q0 -12 3.5 -23t13.5 -21t27.5 -18.5t45.5 -13.5l188 -37q102 -20 171 -50t111 -70t60.5 -89t18.5 -106q0 -89 -41.5 -156t-109 -111.5t-152 -67t-170.5 -22.5
q-56 0 -101.5 7t-82 19t-65 28.5t-52.5 36.5h-181v278h283v-6q1 -29 18 -50.5t44.5 -36.5t62.5 -22.5t74 -7.5q90 0 131 23.5t41 60.5q0 29 -20 49.5t-71 32.5l-192 41q-181 35 -273 116.5t-92 209.5q0 75 35 136.5t95 105t140.5 67.5t172.5 24q63 0 112 -7.5t88 -19.5
t68.5 -28.5t52.5 -34.5h174v-278h-258q0 24 -15.5 46zM315 -293q41 3 77.5 19.5t66 46.5t51 73.5t31.5 100.5l243 -86q-23 -79 -65 -138t-100 -98t-128.5 -59t-150.5 -21z" />
    <glyph glyph-name="Scommaaccent" unicode="&#x218;" 
d="M842 1089q-5 35 -24.5 66t-50 53.5t-69 35.5t-80.5 13q-38 0 -71 -8t-57.5 -24.5t-39 -42.5t-14.5 -62q0 -45 19.5 -71.5t50 -43.5t67.5 -27t72 -22l275 -92q57 -20 107 -55t86.5 -85t57.5 -115t21 -146q0 -110 -40.5 -201t-113.5 -156t-175 -101t-226 -36
q-87 0 -164.5 19.5t-141.5 56.5t-112 88.5t-75 116.5h-103v301h362v-62q0 -45 14.5 -83t43.5 -66t73 -43.5t103 -15.5q90 0 137 41.5t47 115.5q0 38 -16.5 63.5t-42.5 43t-58 29.5t-63 22l-229 74q-65 20 -125.5 56t-107 90t-74 126.5t-27.5 165.5q0 108 40 192.5t112 142.5
t171 88t217 30q93 0 172 -21.5t141.5 -57.5t106 -82.5t66.5 -96.5h100v-302h-362v88zM534 -29l289 -104l-197 -338l-206 72z" />
    <glyph glyph-name="scommaaccent" unicode="&#x219;" horiz-adv-x="1102" 
d="M725.5 765q-15.5 22 -45.5 38.5t-73.5 26.5t-98.5 10q-21 0 -45 -3.5t-44.5 -12.5t-34 -24.5t-13.5 -39.5q0 -12 3.5 -23t13.5 -21t27.5 -18.5t45.5 -13.5l188 -37q102 -20 171 -50t111 -70t60.5 -89t18.5 -106q0 -89 -41.5 -156t-109 -111.5t-152 -67t-170.5 -22.5
q-56 0 -101.5 7t-82 19t-65 28.5t-52.5 36.5h-181v278h283v-6q1 -29 18 -50.5t44.5 -36.5t62.5 -22.5t74 -7.5q90 0 131 23.5t41 60.5q0 29 -20 49.5t-71 32.5l-192 41q-181 35 -273 116.5t-92 209.5q0 75 35 136.5t95 105t140.5 67.5t172.5 24q63 0 112 -7.5t88 -19.5
t68.5 -28.5t52.5 -34.5h174v-278h-258q0 24 -15.5 46zM463 -29l289 -104l-197 -338l-206 72z" />
    <glyph glyph-name="Tcommaaccent" unicode="&#x162;" horiz-adv-x="1419" 
d="M373 274h157v977h-184v-196h-326v461h1379v-461h-328v196h-209v-977h160v-274h-649v274zM622 -29l289 -104l-197 -338l-206 72z" />
    <glyph glyph-name="tcommaaccent" unicode="&#x163;" horiz-adv-x="801" 
d="M471 1036h207v-262h-209l-2 -438q0 -38 6 -61.5t17.5 -37.5t27.5 -19t37 -5q38 0 67 7.5t58 17.5l43 -193q-51 -32 -113.5 -51t-148.5 -19q-61 0 -116.5 21t-97.5 63.5t-67 106.5t-24 149l3 459h-149v262h150l2 248l311 148zM313 -29l289 -104l-197 -338l-206 72z" />
    <glyph glyph-name="Tcaron" unicode="&#x164;" horiz-adv-x="1419" 
d="M373 274h157v977h-184v-196h-326v461h1379v-461h-328v196h-209v-977h160v-274h-649v274zM1097 1941l-272 -325h-240l-274 325h246l147 -153l146 153h247z" />
    <glyph glyph-name="tcaron" unicode="&#x165;" horiz-adv-x="963" 
d="M471 1036h207v-262h-209l-2 -438q0 -38 6 -61.5t17.5 -37.5t27.5 -19t37 -5q38 0 67 7.5t58 17.5l43 -193q-51 -32 -113.5 -51t-148.5 -19q-61 0 -116.5 21t-97.5 63.5t-67 106.5t-24 149l3 459h-149v262h150l2 248l311 148zM791 1079h-219v518l287 16z" />
    <glyph glyph-name="Ugrave" unicode="&#xd9;" horiz-adv-x="1561" 
d="M51 1516h608v-275h-139v-629q0 -86 19.5 -146t54.5 -98t83 -55.5t105 -17.5q59 0 107.5 15t83 51.5t53 97.5t18.5 153v629h-161v275h608v-275h-121v-590q0 -160 -46 -284.5t-126.5 -210.5t-189 -131t-232.5 -45q-123 0 -230 44.5t-186.5 129t-125.5 205.5t-46 274v608
h-137v275zM694 1657l-293 286v25h326l196 -311h-229z" />
    <glyph glyph-name="ugrave" unicode="&#xf9;" horiz-adv-x="1409" 
d="M723 1036h490v-762h125v-274h-439v88q-53 -48 -124 -74t-164 -26q-86 0 -162 27t-132.5 81.5t-89 136.5t-32.5 193v336h-135v274h458v-610q0 -104 53 -155.5t138 -51.5q60 0 109 37t71 100v406h-166v274zM559 1178l-293 286v25h326l196 -311h-229z" />
    <glyph glyph-name="Uacute" unicode="&#xda;" horiz-adv-x="1561" 
d="M51 1516h608v-275h-139v-629q0 -86 19.5 -146t54.5 -98t83 -55.5t105 -17.5q59 0 107.5 15t83 51.5t53 97.5t18.5 153v629h-161v275h608v-275h-121v-590q0 -160 -46 -284.5t-126.5 -210.5t-189 -131t-232.5 -45q-123 0 -230 44.5t-186.5 129t-125.5 205.5t-46 274v608
h-137v275zM889 1968h326v-25l-306 -286h-235z" />
    <glyph glyph-name="uacute" unicode="&#xfa;" horiz-adv-x="1409" 
d="M723 1036h490v-762h125v-274h-439v88q-53 -48 -124 -74t-164 -26q-86 0 -162 27t-132.5 81.5t-89 136.5t-32.5 193v336h-135v274h458v-610q0 -104 53 -155.5t138 -51.5q60 0 109 37t71 100v406h-166v274zM754 1489h326v-25l-306 -286h-235z" />
    <glyph glyph-name="Ucircumflex" unicode="&#xdb;" horiz-adv-x="1561" 
d="M51 1516h608v-275h-139v-629q0 -86 19.5 -146t54.5 -98t83 -55.5t105 -17.5q59 0 107.5 15t83 51.5t53 97.5t18.5 153v629h-161v275h608v-275h-121v-590q0 -160 -46 -284.5t-126.5 -210.5t-189 -131t-232.5 -45q-123 0 -230 44.5t-186.5 129t-125.5 205.5t-46 274v608
h-137v275zM420 1655l272 325h240l274 -325h-245l-148 153l-145 -153h-248z" />
    <glyph glyph-name="ucircumflex" unicode="&#xfb;" horiz-adv-x="1409" 
d="M723 1036h490v-762h125v-274h-439v88q-53 -48 -124 -74t-164 -26q-86 0 -162 27t-132.5 81.5t-89 136.5t-32.5 193v336h-135v274h458v-610q0 -104 53 -155.5t138 -51.5q60 0 109 37t71 100v406h-166v274zM285 1176l272 325h240l274 -325h-245l-148 153l-145 -153h-248z
" />
    <glyph glyph-name="Udieresis" unicode="&#xdc;" horiz-adv-x="1561" 
d="M51 1516h608v-275h-139v-629q0 -86 19.5 -146t54.5 -98t83 -55.5t105 -17.5q59 0 107.5 15t83 51.5t53 97.5t18.5 153v629h-161v275h608v-275h-121v-590q0 -160 -46 -284.5t-126.5 -210.5t-189 -131t-232.5 -45q-123 0 -230 44.5t-186.5 129t-125.5 205.5t-46 274v608
h-137v275zM360 1820q0 37 13.5 69.5t37.5 57t56.5 38.5t70.5 14q36 0 68 -14t56 -38.5t38 -57t14 -69.5t-14 -69.5t-38 -56.5t-56 -38t-68 -14q-38 0 -70.5 14t-56.5 38t-37.5 56.5t-13.5 69.5zM839 1820q0 37 14 69.5t38 57t56.5 38.5t70.5 14q36 0 68 -14t56 -38.5t38 -57
t14 -69.5t-14 -69.5t-38 -56.5t-56 -38t-68 -14q-38 0 -70.5 14t-56.5 38t-38 56.5t-14 69.5z" />
    <glyph glyph-name="udieresis" unicode="&#xfc;" horiz-adv-x="1409" 
d="M723 1036h490v-762h125v-274h-439v88q-53 -48 -124 -74t-164 -26q-86 0 -162 27t-132.5 81.5t-89 136.5t-32.5 193v336h-135v274h458v-610q0 -104 53 -155.5t138 -51.5q60 0 109 37t71 100v406h-166v274zM225 1342q0 37 13.5 69.5t37.5 57t56.5 38.5t70.5 14q36 0 68 -14
t56 -38.5t38 -57t14 -69.5t-14 -69.5t-38 -56.5t-56 -38t-68 -14q-38 0 -70.5 14t-56.5 38t-37.5 56.5t-13.5 69.5zM704 1342q0 37 14 69.5t38 57t56.5 38.5t70.5 14q36 0 68 -14t56 -38.5t38 -57t14 -69.5t-14 -69.5t-38 -56.5t-56 -38t-68 -14q-38 0 -70.5 14t-56.5 38
t-38 56.5t-14 69.5z" />
    <glyph glyph-name="Umacron" unicode="&#x16a;" horiz-adv-x="1561" 
d="M51 1516h608v-275h-139v-629q0 -86 19.5 -146t54.5 -98t83 -55.5t105 -17.5q59 0 107.5 15t83 51.5t53 97.5t18.5 153v629h-161v275h608v-275h-121v-590q0 -160 -46 -284.5t-126.5 -210.5t-189 -131t-232.5 -45q-123 0 -230 44.5t-186.5 129t-125.5 205.5t-46 274v608
h-137v275zM1124 1655h-688v215h688v-215z" />
    <glyph glyph-name="umacron" unicode="&#x16b;" horiz-adv-x="1409" 
d="M723 1036h490v-762h125v-274h-439v88q-53 -48 -124 -74t-164 -26q-86 0 -162 27t-132.5 81.5t-89 136.5t-32.5 193v336h-135v274h458v-610q0 -104 53 -155.5t138 -51.5q60 0 109 37t71 100v406h-166v274zM989 1176h-688v215h688v-215z" />
    <glyph glyph-name="Uring" unicode="&#x16e;" horiz-adv-x="1561" 
d="M51 1516h471v-275h-2v-629q0 -86 19.5 -146t54.5 -98t83 -55.5t105 -17.5q60 0 108 15.5t83 51t53 97t18 153.5v629h2v275h445v-275h-121v-590q0 -159 -46 -284t-126 -211t-188.5 -131t-233.5 -45q-123 0 -230.5 45t-186 129t-125 204.5t-46.5 274.5v608h-137v275z
M785 2028q63 0 117 -24t95 -65.5t65.5 -95.5t24.5 -117q0 -62 -24.5 -116.5t-65.5 -95.5t-95 -65t-117 -24q-62 0 -116.5 24t-95.5 65t-65 95.5t-24 116.5q0 63 24 117t65 95.5t95.5 65.5t116.5 24zM660 1726q0 -53 36 -89t89 -36t88 36t35 89q0 54 -35 88.5t-88 34.5
t-89 -34.5t-36 -88.5z" />
    <glyph glyph-name="uring" unicode="&#x16f;" horiz-adv-x="1409" 
d="M723 1036h490v-762h125v-274h-439v88q-53 -48 -124 -74t-164 -26q-86 0 -162 27t-132.5 81.5t-89 136.5t-32.5 193v336h-135v274h458v-610q0 -104 53 -155.5t138 -51.5q60 0 109 37t71 100v406h-166v274zM645 1859q65 0 123 -25t101.5 -68t68.5 -101t25 -123t-25 -123
t-68.5 -101.5t-101.5 -68.5t-123 -25t-123 25t-101 68.5t-68 101.5t-25 123t25 123t68 101t101 68t123 25zM520 1542q0 -26 10 -49t27 -40t39.5 -26.5t48.5 -9.5t48.5 9.5t39 26.5t26 40t9.5 49t-9.5 48.5t-26 39t-39 26t-48.5 9.5t-48.5 -9.5t-39.5 -26t-27 -39t-10 -48.5z
" />
    <glyph glyph-name="Uhungarumlaut" unicode="&#x170;" horiz-adv-x="1561" 
d="M51 1516h608v-275h-139v-629q0 -86 19.5 -146t54.5 -98t83 -55.5t105 -17.5q59 0 107.5 15t83 51.5t53 97.5t18.5 153v629h-161v275h608v-275h-121v-590q0 -160 -46 -284.5t-126.5 -210.5t-189 -131t-232.5 -45q-123 0 -230 44.5t-186.5 129t-125.5 205.5t-46 274v608
h-137v275zM1343 1990l-280 -319h-189l209 319h260zM946 1990l-256 -319h-186l184 319h258z" />
    <glyph glyph-name="uhungarumlaut" unicode="&#x171;" horiz-adv-x="1409" 
d="M723 1036h490v-762h125v-274h-439v88q-53 -48 -124 -74t-164 -26q-86 0 -162 27t-132.5 81.5t-89 136.5t-32.5 193v336h-135v274h458v-610q0 -104 53 -155.5t138 -51.5q60 0 109 37t71 100v406h-166v274zM1208 1511l-280 -319h-189l209 319h260zM811 1511l-256 -319h-186
l184 319h258z" />
    <glyph glyph-name="Yacute" unicode="&#xdd;" horiz-adv-x="1536" 
d="M47 1516h649v-275h-127l203 -348l215 348h-145v275h649v-275h-112l-451 -612v-355h184v-274h-676v274h168v359l-424 608h-133v275zM899 1968h326v-25l-306 -286h-235z" />
    <glyph glyph-name="yacute" unicode="&#xfd;" horiz-adv-x="1241" 
d="M51 1036h508v-274h-80l149 -388l153 388h-89v274h508v-274h-113l-401 -959h178v-274h-643v274h181l78 197l-324 762h-105v274zM731 1489h326v-25l-306 -286h-235z" />
    <glyph glyph-name="Ydieresis" unicode="&#x178;" horiz-adv-x="1536" 
d="M47 1516h649v-275h-127l203 -348l215 348h-145v275h649v-275h-112l-451 -612v-355h184v-274h-676v274h168v359l-424 608h-133v275zM371 1820q0 37 13.5 69.5t37.5 57t56.5 38.5t70.5 14q36 0 68 -14t56 -38.5t38 -57t14 -69.5t-14 -69.5t-38 -56.5t-56 -38t-68 -14
q-38 0 -70.5 14t-56.5 38t-37.5 56.5t-13.5 69.5zM850 1820q0 37 14 69.5t38 57t56.5 38.5t70.5 14q36 0 68 -14t56 -38.5t38 -57t14 -69.5t-14 -69.5t-38 -56.5t-56 -38t-68 -14q-38 0 -70.5 14t-56.5 38t-38 56.5t-14 69.5z" />
    <glyph glyph-name="ydieresis" unicode="&#xff;" horiz-adv-x="1241" 
d="M51 1036h508v-274h-80l149 -388l153 388h-89v274h508v-274h-113l-401 -959h178v-274h-643v274h181l78 197l-324 762h-105v274zM203 1342q0 37 13.5 69.5t37.5 57t56.5 38.5t70.5 14q36 0 68 -14t56 -38.5t38 -57t14 -69.5t-14 -69.5t-38 -56.5t-56 -38t-68 -14
q-38 0 -70.5 14t-56.5 38t-37.5 56.5t-13.5 69.5zM682 1342q0 37 14 69.5t38 57t56.5 38.5t70.5 14q36 0 68 -14t56 -38.5t38 -57t14 -69.5t-14 -69.5t-38 -56.5t-56 -38t-68 -14q-38 0 -70.5 14t-56.5 38t-38 56.5t-14 69.5z" />
    <glyph glyph-name="Zacute" unicode="&#x179;" horiz-adv-x="1290" 
d="M1214 1202l-755 -905h428v235h325v-532h-1151v313l737 906h-409v-240h-326v537h1151v-314zM784 1968h326v-25l-306 -286h-235z" />
    <glyph glyph-name="zacute" unicode="&#x17a;" horiz-adv-x="1141" 
d="M94 164l429 606h-201v-156h-261v422h908v-180l-451 -588h230v199h262v-467h-916v164zM625 1489h326v-25l-306 -286h-235z" />
    <glyph glyph-name="Zdotaccent" unicode="&#x17b;" horiz-adv-x="1290" 
d="M1214 1202l-755 -905h428v235h325v-532h-1151v313l737 906h-409v-240h-326v537h1151v-314zM495 1849q0 37 13.5 69.5t37.5 56.5t56.5 38t70.5 14q36 0 68 -14t56 -38t38 -56.5t14 -69.5t-14 -69.5t-38 -56.5t-56 -38t-68 -14q-38 0 -70.5 14t-56.5 38t-37.5 56.5
t-13.5 69.5z" />
    <glyph glyph-name="zdotaccent" unicode="&#x17c;" horiz-adv-x="1141" 
d="M94 164l429 606h-201v-156h-261v422h908v-180l-451 -588h230v199h262v-467h-916v164zM336 1370q0 37 13.5 69.5t37.5 56.5t56.5 38t70.5 14q36 0 68 -14t56 -38t38 -56.5t14 -69.5t-14 -69.5t-38 -56.5t-56 -38t-68 -14q-38 0 -70.5 14t-56.5 38t-37.5 56.5t-13.5 69.5z
" />
    <glyph glyph-name="Zcaron" unicode="&#x17d;" horiz-adv-x="1290" 
d="M1214 1202l-755 -905h428v235h325v-532h-1151v313l737 906h-409v-240h-326v537h1151v-314zM1069 1941l-272 -325h-240l-274 325h246l147 -153l146 153h247z" />
    <glyph glyph-name="zcaron" unicode="&#x17e;" horiz-adv-x="1141" 
d="M94 164l429 606h-201v-156h-261v422h908v-180l-451 -588h230v199h262v-467h-916v164zM909 1462l-272 -325h-240l-274 325h246l147 -153l146 153h247z" />
    <glyph glyph-name="uni0401" unicode="&#x401;" horiz-adv-x="1380" 
d="M113 1516h1206v-517h-326v215h-389v-299h301v-290h-301v-351h389v269h326v-543h-1206v274h159v940h-159v302zM325 1821q0 37 13.5 69.5t37.5 56.5t56.5 38t70.5 14q36 0 68 -14t56 -38t38 -56.5t14 -69.5t-14 -69.5t-38 -56.5t-56 -38t-68 -14q-38 0 -70.5 14t-56.5 38
t-37.5 56.5t-13.5 69.5zM805 1821q0 37 13.5 69.5t37.5 56.5t56.5 38t70.5 14q36 0 68 -14t56 -38t38 -56.5t14 -69.5t-14 -69.5t-38 -56.5t-56 -38t-68 -14q-38 0 -70.5 14t-56.5 38t-37.5 56.5t-13.5 69.5z" />
    <glyph glyph-name="uni0451" unicode="&#x451;" horiz-adv-x="1186" 
d="M349 453l3 -31q11 -45 37.5 -79t62.5 -57t80 -34.5t89 -11.5t85.5 5.5t78.5 15t74 22t73 26.5l110 -205q-57 -35 -104.5 -59.5t-95.5 -40.5t-102 -23.5t-126 -7.5q-135 0 -240 44.5t-176.5 120.5t-109 178t-37.5 216t39.5 214t111.5 174.5t172 117.5t222 43t216.5 -40.5
t159.5 -112t100 -168t38 -207.5q3 -25 3.5 -49.5t-1.5 -50.5h-763zM588 831q-56 0 -95.5 -13.5t-66.5 -37t-43 -53.5t-25 -63h433q-7 34 -20 64t-36 53t-58.5 36.5t-88.5 13.5zM166 1342q0 37 13.5 69.5t37.5 56.5t56.5 38t70.5 14q36 0 68 -14t56 -38t38 -56.5t14 -69.5
t-14 -69.5t-38 -56.5t-56 -38t-68 -14q-38 0 -70.5 14t-56.5 38t-37.5 56.5t-13.5 69.5zM645 1342q0 37 13.5 69.5t37.5 56.5t56.5 38t70.5 14q36 0 68 -14t56 -38t38 -56.5t14 -69.5t-14 -69.5t-38 -56.5t-56 -38t-68 -14q-38 0 -70.5 14t-56.5 38t-37.5 56.5t-13.5 69.5z
" />
    <glyph glyph-name="uni0403" unicode="&#x403;" horiz-adv-x="1305" 
d="M113 274h157v977h-157v265h1185v-461h-327v196h-369v-977h160v-274h-649v274zM713 1886h326v-25l-306 -286h-235z" />
    <glyph glyph-name="uni0453" unicode="&#x453;" horiz-adv-x="1214" 
d="M113 274h178v498h-178v264h1071v-461h-307v197h-277v-498h162v-274h-649v274zM811 1489h326v-25l-306 -286h-235z" />
    <glyph glyph-name="uni0407" unicode="&#x407;" horiz-adv-x="874" 
d="M113 1516h649v-274h-160v-968h160v-274h-649v274h157v968h-157v274zM83 1820q0 66 46 113t113 47q33 0 62 -12t50.5 -33.5t33.5 -51.5t12 -63q0 -32 -12 -62t-33.5 -51.5t-50.5 -33.5t-62 -12q-67 0 -113 47t-46 112v0zM460 1820q0 66 46 113t113 47q33 0 61.5 -12
t50 -33.5t34 -51.5t12.5 -63q0 -32 -12.5 -62t-34 -51.5t-50 -33.5t-61.5 -12q-67 0 -113 47t-46 112v0z" />
    <glyph glyph-name="uni0457" unicode="&#x457;" horiz-adv-x="791" 
d="M80 1037l467 -1v-762h142v-274h-608v274h156v488h-157v275zM28 1342q0 66 46 113t113 47q33 0 62 -12t50.5 -33.5t33.5 -51.5t12 -63q0 -32 -12 -62t-33.5 -51.5t-50.5 -33.5t-62 -12q-67 0 -113 47t-46 112v0zM405 1342q0 66 46 113t113 47q33 0 61.5 -12t50 -33.5
t34 -51.5t12.5 -63q0 -32 -12.5 -62t-34 -51.5t-50 -33.5t-61.5 -12q-67 0 -113 47t-46 112v0z" />
    <glyph glyph-name="uni040C" unicode="&#x40c;" horiz-adv-x="1655" 
d="M113 1516h649v-275h-160v-441l485 423v293h517v-295h-113l-505 -434l484 -490h123v-297h-503v297l-488 488v-511h160v-274h-649v274h157v967h-157v275zM969 1968h326v-25l-306 -286h-235z" />
    <glyph glyph-name="uni045C" unicode="&#x45c;" horiz-adv-x="1365" 
d="M92 1036h469v-422h120l105 152v270h500v-274h-170l-203 -254l221 -234h150v-274h-281l-340 399h-102v-125h106v-274h-575v274h161v488h-161v274zM746 1489h326v-25l-306 -286h-235z" />
    <glyph glyph-name="uni040E" unicode="&#x40e;" horiz-adv-x="1479" 
d="M825 1516h623v-275h-125l-430 -946q-39 -84 -83 -142.5t-95 -95.5t-109.5 -53t-124.5 -16q-45 0 -83 3t-72 9h-209v414h309v-172q33 2 59.5 8t50 20.5t42 35t34.5 48.5l-63 127q-96 193 -189.5 381.5t-189.5 378.5h-129v275h643v-275h-125l205 -504l194 504h-133v275z
M755 1638q-95 0 -167 21.5t-125 63t-89.5 101.5t-60.5 138h252q20 -60 67.5 -91.5t122.5 -31.5q72 0 118 29t71 94h250q-22 -77 -58 -137t-89.5 -101.5t-125.5 -63.5t-166 -22z" />
    <glyph glyph-name="uni045E" unicode="&#x45e;" horiz-adv-x="1241" 
d="M692 1036h508v-274h-125l-278 -780q-41 -113 -83 -198t-98.5 -141.5t-133 -85t-187.5 -28.5h-125v274h98q68 0 126.5 38t86.5 120l6 21l-331 780h-105v274h508v-274h-80l150 -389l139 389h-76v274zM622 1157q-95 0 -167 21.5t-125 63t-89.5 101.5t-60.5 138h252
q20 -60 67.5 -91.5t122.5 -31.5q72 0 118 29t71 94h250q-22 -77 -58 -137t-89.5 -101.5t-125.5 -63.5t-166 -22z" />
    <glyph glyph-name="uni0419" unicode="&#x419;" horiz-adv-x="1894" 
d="M113 1516h613v-275h-123v-769l684 1046h494v-277h-167v-967h167v-274h-624v274h129v755l-684 -1029h-489v274h157v967h-157v275zM978 1636q-95 0 -167 21.5t-125 63t-89.5 101.5t-60.5 138h252q20 -60 67.5 -91.5t122.5 -31.5q72 0 118 29t71 94h250q-22 -77 -58 -137
t-89.5 -101.5t-125.5 -63.5t-166 -22z" />
    <glyph glyph-name="uni0439" unicode="&#x439;" horiz-adv-x="1577" 
d="M92 1036h561v-274h-123v-366l501 640h404v-276h-123v-486h123v-274h-561v274h129v356l-501 -630h-408v274h127v488h-129v274zM845 1157q-95 0 -167 21.5t-125 63t-89.5 101.5t-60.5 138h252q20 -60 67.5 -91.5t122.5 -31.5q72 0 118 29t71 94h250q-22 -77 -58 -137
t-89.5 -101.5t-125.5 -63.5t-166 -22z" />
    <glyph glyph-name="uni021A" unicode="&#x21a;" horiz-adv-x="1419" 
d="M373 274h157v977h-184v-196h-326v461h1379v-461h-328v196h-209v-977h160v-274h-649v274zM622 -29l289 -104l-197 -338l-206 72z" />
    <glyph glyph-name="uni021B" unicode="&#x21b;" horiz-adv-x="801" 
d="M471 1036h207v-262h-209l-2 -438q0 -38 6 -61.5t17.5 -37.5t27.5 -19t37 -5q38 0 67 7.5t58 17.5l43 -193q-51 -32 -113.5 -51t-148.5 -19q-61 0 -116.5 21t-97.5 63.5t-67 106.5t-24 149l3 459h-149v262h150l2 248l311 148zM313 -29l289 -104l-197 -338l-206 72z" />
    <glyph glyph-name="uni0400" unicode="&#x400;" horiz-adv-x="1380" 
d="M113 1516h1206v-517h-326v215h-389v-299h301v-290h-301v-351h389v269h326v-543h-1206v274h159v940h-159v302zM660 1657l-293 286v25h326l196 -311h-229z" />
    <glyph glyph-name="uni0450" unicode="&#x450;" horiz-adv-x="1186" 
d="M349 453l3 -31q11 -45 37.5 -79t62.5 -57t80 -34.5t89 -11.5t85.5 5.5t78.5 15t74 22t73 26.5l110 -205q-57 -35 -104.5 -59.5t-95.5 -40.5t-102 -23.5t-126 -7.5q-135 0 -240 44.5t-176.5 120.5t-109 178t-37.5 216t39.5 214t111.5 174.5t172 117.5t222 43t216.5 -40.5
t159.5 -112t100 -168t38 -207.5q3 -25 3.5 -49.5t-1.5 -50.5h-763zM588 831q-56 0 -95.5 -13.5t-66.5 -37t-43 -53.5t-25 -63h433q-7 34 -20 64t-36 53t-58.5 36.5t-88.5 13.5zM500 1178l-293 286v25h326l196 -311h-229z" />
    <glyph glyph-name="uni040D" unicode="&#x40d;" horiz-adv-x="1894" 
d="M113 1516h613v-275h-123v-769l684 1046h494v-277h-167v-967h167v-274h-624v274h129v755l-684 -1029h-489v274h157v967h-157v275zM916 1657l-293 286v25h326l196 -311h-229z" />
    <glyph glyph-name="uni045D" unicode="&#x45d;" horiz-adv-x="1577" 
d="M92 1036h561v-274h-123v-366l501 640h404v-276h-123v-486h123v-274h-561v274h129v356l-501 -630h-408v274h127v488h-129v274zM760 1178l-293 286v25h326l196 -311h-229z" />
    <glyph glyph-name="uni0405" unicode="&#x405;" 
d="M842 1089q-5 35 -24.5 66t-50 53.5t-69 35.5t-80.5 13q-38 0 -71 -8t-57.5 -24.5t-39 -42.5t-14.5 -62q0 -45 19.5 -71.5t50 -43.5t67.5 -27t72 -22l275 -92q57 -20 107 -55t86.5 -85t57.5 -115t21 -146q0 -110 -40.5 -201t-113.5 -156t-175 -101t-226 -36
q-87 0 -164.5 19.5t-141.5 56.5t-112 88.5t-75 116.5h-103v301h362v-62q0 -45 14.5 -83t43.5 -66t73 -43.5t103 -15.5q90 0 137 41.5t47 115.5q0 38 -16.5 63.5t-42.5 43t-58 29.5t-63 22l-229 74q-65 20 -125.5 56t-107 90t-74 126.5t-27.5 165.5q0 108 40 192.5t112 142.5
t171 88t217 30q93 0 172 -21.5t141.5 -57.5t106 -82.5t66.5 -96.5h100v-302h-362v88z" />
    <glyph glyph-name="uni0455" unicode="&#x455;" horiz-adv-x="1102" 
d="M725.5 765q-15.5 22 -45.5 38.5t-73.5 26.5t-98.5 10q-21 0 -45 -3.5t-44.5 -12.5t-34 -24.5t-13.5 -39.5q0 -12 3.5 -23t13.5 -21t27.5 -18.5t45.5 -13.5l188 -37q102 -20 171 -50t111 -70t60.5 -89t18.5 -106q0 -89 -41.5 -156t-109 -111.5t-152 -67t-170.5 -22.5
q-56 0 -101.5 7t-82 19t-65 28.5t-52.5 36.5h-181v278h283v-6q1 -29 18 -50.5t44.5 -36.5t62.5 -22.5t74 -7.5q90 0 131 23.5t41 60.5q0 29 -20 49.5t-71 32.5l-192 41q-181 35 -273 116.5t-92 209.5q0 75 35 136.5t95 105t140.5 67.5t172.5 24q63 0 112 -7.5t88 -19.5
t68.5 -28.5t52.5 -34.5h174v-278h-258q0 24 -15.5 46z" />
    <glyph glyph-name="uni0406" unicode="&#x406;" horiz-adv-x="874" 
d="M113 1516h649v-274h-160v-968h160v-274h-649v274h157v968h-157v274z" />
    <glyph glyph-name="uni0456" unicode="&#x456;" horiz-adv-x="791" 
d="M80 1036h465v-762h144v-274h-609v274h156v488h-156v274zM220 1370q0 37 13.5 69.5t37.5 56.5t56.5 38t70.5 14q36 0 68 -14t56 -38t38 -56.5t14 -69.5t-14 -69.5t-38 -56.5t-56 -38t-68 -14q-38 0 -70.5 14t-56.5 38t-37.5 56.5t-13.5 69.5z" />
    <glyph glyph-name="uni0408" unicode="&#x408;" horiz-adv-x="686" 
d="M82 1516h573v-304h-106v-1040q-22 -81 -64 -148.5t-82.5 -122.5t-113.5 -139l-279 15q59 90 92.5 148.5t67.5 129t53 150.5v1007h-141v304z" />
    <glyph glyph-name="uni0458" unicode="&#x458;" horiz-adv-x="621" 
d="M51 1036h455v-1054q0 -119 -29.5 -204t-86 -140t-139.5 -81t-190 -26l-4 227q72 3 107 57.5t35 145.5v801h-148v274zM182 1370q0 37 13.5 69.5t37.5 56.5t56.5 38t70.5 14q36 0 68.5 -14t57 -38t39 -56.5t14.5 -69.5t-14.5 -69.5t-39 -56.5t-57 -38t-68.5 -14
q-38 0 -70.5 14t-56.5 38t-37.5 56.5t-13.5 69.5z" />
    <glyph glyph-name="SOFTHYPHEN" unicode="&#xad;" horiz-adv-x="0" 
 />
    <glyph glyph-name="Idotaccent" unicode="&#x130;" horiz-adv-x="874" 
d="M113 1516h649v-274h-160v-968h160v-274h-649v274h157v968h-157v274zM254 1849q0 37 13.5 69.5t37.5 56.5t56.5 38t70.5 14q36 0 68 -14t56 -38t38 -56.5t14 -69.5t-14 -69.5t-38 -56.5t-56 -38t-68 -14q-38 0 -70.5 14t-56.5 38t-37.5 56.5t-13.5 69.5z" />
    <glyph glyph-name="napostrophe" unicode="&#x149;" horiz-adv-x="1460" 
d="M932 596q0 87 -46 136.5t-122 49.5q-52 0 -105 -23t-103 -86v-399h168v-274h-644v274h152v488h-150v274h472v-91q65 51 145.5 80.5t169.5 29.5q187 0 288 -104.5t101 -305.5v-371h147v-274h-473v596zM385 1561l288 -104l-196 -338l-207 71z" />
    <glyph glyph-name="OE.ss01" horiz-adv-x="2062" 
d="M825 0q-155 0 -291.5 59.5t-236.5 163t-157.5 241.5t-57.5 296t57.5 295t157.5 239.5t236.5 162t291.5 59.5h1176v-517h-326v240h-389v-324h301v-290h-301v-351h389v269h326v-543h-1176zM465 569q31 -88 84 -153.5t124.5 -103.5t153.5 -38h127v967h-127q-82 0 -153.5 -37
t-124.5 -101.5t-84 -153.5t-31 -189q0 -103 31 -191z" />
    </font>
</defs>
</svg>
