<?xml version="1.0" standalone="no"?>
<!DOCTYPE svg PUBLIC "-//W3C//DTD SVG 1.1//EN" "http://www.w3.org/Graphics/SVG/1.1/DTD/svg11.dtd" >
<svg>
<metadata>
Created by FontForge 20110222 at Sat May 24 10:23:35 2014
 By Orthosie Webhosting
Copyright (c) 2013 Anton Koovit.
</metadata>
<defs>
<font id="Arvo" horiz-adv-x="1176" >
  <font-face 
    font-family="Arvo"
    font-weight="400"
    font-stretch="normal"
    units-per-em="2048"
    panose-1="2 6 6 3 4 2 2 9 3 4"
    ascent="1638"
    descent="-410"
    x-height="1036"
    cap-height="1516"
    bbox="-258 -506 2550 2079"
    underline-thickness="50"
    underline-position="-50"
    unicode-range="U+0020-FB02"
  />
    <missing-glyph />
    <glyph glyph-name="fourinferior" horiz-adv-x="1141" 
d="M102 1516h936v-1516h-936v1516zM205 102h731v1311h-731v-1311z" />
    <glyph glyph-name="space" unicode=" " horiz-adv-x="449" 
 />
    <glyph glyph-name="exclam" unicode="!" horiz-adv-x="682" 
d="M211 121q0 26 10.5 49.5t28 41t41.5 28t51 10.5q26 0 49.5 -10.5t41 -28t28 -41t10.5 -49.5q0 -27 -10.5 -51t-28 -42.5t-41 -29t-49.5 -10.5q-27 0 -51 10.5t-41.5 29t-28 42.5t-10.5 51zM211 1577h260l-41 -1167h-178z" />
    <glyph glyph-name="quotesingle" unicode="'" horiz-adv-x="340" 
d="M186 1059h-149v518l197 16z" />
    <glyph glyph-name="quotedbl" unicode="&#x22;" horiz-adv-x="651" 
d="M251 1059h-169l-41 518h228zM588 1059h-169l-14 518h230z" />
    <glyph glyph-name="numbersign" unicode="#" horiz-adv-x="1423" 
d="M170 1198h252l63 318h191l-62 -318h351l63 318h191l-62 -318h225l-39 -199h-225l-81 -415h239l-37 -195h-240l-75 -389h-193l76 389h-351l-75 -389h-197l77 389h-241l41 195h239l82 415h-253zM494 584h351l81 415h-351z" />
    <glyph glyph-name="percent" unicode="%" horiz-adv-x="1731" 
d="M75 1167q0 67 25 127.5t70.5 106t108.5 72t138 26.5t138 -26.5t108 -72t70.5 -106t25.5 -127.5q0 -68 -24.5 -128t-69.5 -106t-108 -72.5t-140 -26.5q-78 0 -141 26.5t-107.5 72.5t-69 106t-24.5 128zM417 1335q-36 0 -67.5 -12.5t-55 -35t-37 -53.5t-13.5 -67
q0 -35 13.5 -66.5t37 -55t55 -37t67.5 -13.5q35 0 66 13.5t54 36.5t36.5 54.5t13.5 67.5t-13.5 67t-36.5 53.5t-54 35t-66 12.5zM1252 1540h195l-1041 -1556h-194zM941 323q0 67 25 127t70.5 105.5t108.5 72.5t138 27t138 -27t108.5 -72.5t70.5 -105.5t25 -127
q0 -68 -24.5 -128.5t-69 -106t-107.5 -72.5t-141 -27t-141 27t-107.5 72.5t-69 106t-24.5 128.5zM1283 491q-35 0 -66.5 -13t-55 -35.5t-37 -53t-13.5 -66.5q0 -35 13.5 -66.5t37 -55t55 -37t66.5 -13.5t66 13.5t54 36.5t36.5 54.5t13.5 67.5t-13.5 66.5t-36.5 53t-54 35.5
t-66 13z" />
    <glyph glyph-name="perthousand" unicode="&#x2030;" horiz-adv-x="2439" 
d="M76 1167q0 68 25.5 127.5t70.5 105.5t107.5 72.5t138.5 26.5t138 -26.5t107.5 -72.5t71 -105.5t25.5 -127.5q0 -67 -24.5 -127.5t-68.5 -106.5t-107.5 -72.5t-141.5 -26.5t-141.5 26.5t-107.5 72.5t-68.5 106.5t-24.5 127.5v0zM418 1335q-72 0 -122 -48t-50 -120
q0 -71 50 -121.5t122 -50.5q35 0 65.5 13.5t54 37t37 54t13.5 67.5q0 72 -49.5 120t-120.5 48v0zM1253 1540h195l-1040 -1556h-195zM1704 326q0 67 25.5 126.5t70.5 105.5t107.5 72.5t138.5 26.5t138.5 -26.5t107.5 -72.5t70.5 -105.5t25.5 -126.5q0 -68 -24.5 -128.5
t-68.5 -106.5t-107.5 -72.5t-141.5 -26.5t-141.5 26.5t-107.5 72.5t-68.5 106.5t-24.5 128.5v0zM2046 494q-72 0 -122 -48.5t-50 -119.5q0 -72 50 -122t122 -50q35 0 65.5 13t54 36.5t37 54.5t13.5 68q0 71 -49 119.5t-121 48.5v0zM942 326q0 67 25.5 126.5t70.5 105.5
t107.5 72.5t138.5 26.5t138.5 -26.5t107.5 -72.5t70.5 -105.5t25.5 -126.5q0 -68 -24.5 -128.5t-68.5 -106.5t-107.5 -72.5t-141.5 -26.5t-141.5 26.5t-107.5 72.5t-68.5 106.5t-24.5 128.5v0zM1284 494q-72 0 -122 -48.5t-50 -119.5q0 -72 50 -122t122 -50q35 0 65.5 13
t54 36.5t37 54.5t13.5 68q0 71 -49 119.5t-121 48.5v0z" />
    <glyph glyph-name="ampersand" unicode="&#x26;" horiz-adv-x="1468" 
d="M1288 -6l-236 228q-42 -52 -91 -95t-104.5 -74.5t-118 -49t-132.5 -17.5q-97 0 -181.5 34t-147 93t-98.5 139.5t-36 173.5q0 61 18.5 118.5t51 107.5t76 90t135.5 87l-66 64q-26 24 -50.5 55t-43 67t-30 75t-11.5 77q0 80 31 149t84.5 120t125.5 80.5t154 29.5
q87 0 161.5 -31t128.5 -83t85 -121t31 -144q0 -60 -12 -105.5t-34 -81.5t-52.5 -65.5t-65 -54.5t-70.5 -45.5t-74 -39.5l306 -285q32 73 51.5 144.5t30.5 129.5h188q-17 -94 -52 -195t-89 -198l276 -256zM473 666q-34 -14 -61.5 -38.5t-47.5 -56t-31 -68t-11 -73.5
q0 -58 22.5 -107.5t62 -85.5t93 -56.5t114.5 -20.5q52 0 98 13t86 36.5t73.5 56t62.5 70.5l-380 367zM784 1026q26 28 44 64.5t18 76.5q0 42 -18.5 81t-49.5 69t-72.5 47.5t-87.5 17.5q-50 0 -90.5 -16.5t-69.5 -45.5t-45 -67.5t-16 -83.5q0 -42 20.5 -88.5t74.5 -97.5
l89 -83q59 26 111 56t92 70z" />
    <glyph glyph-name="parenleft" unicode="(" horiz-adv-x="721" 
d="M530 -451q-90 112 -162 235.5t-122.5 255t-77.5 270t-27 280.5t27 280.5t77.5 269.5t122.5 254.5t162 235.5l138 -110q-79 -100 -140.5 -211t-103.5 -229t-64 -241.5t-22 -248.5t22 -248.5t64 -242t103.5 -229t140.5 -210.5z" />
    <glyph glyph-name="parenright" unicode=")" horiz-adv-x="721" 
d="M53 -340q79 100 140.5 210.5t103.5 229t64 242t22 248.5t-22 248.5t-64 241.5t-103.5 229t-140.5 211l137 110q90 -112 162 -235.5t123 -254.5t78 -269.5t27 -280.5t-27 -280.5t-78 -270t-123 -255t-162 -235.5z" />
    <glyph glyph-name="asterisk" unicode="*" horiz-adv-x="836" 
d="M483 1295l248 81l37 -119l-249 -80l157 -214l-109 -72l-149 206l-148 -204l-108 70l155 212l-258 82l39 125l252 -82v246h133v-251z" />
    <glyph glyph-name="comma" unicode="," horiz-adv-x="569" 
d="M205 283l219 -86l-260 -537l-144 53z" />
    <glyph glyph-name="hyphen" unicode="-" horiz-adv-x="737" 
d="M94 496v172h551v-172h-551z" />
    <glyph glyph-name="period" unicode="." horiz-adv-x="457" 
d="M96 121q0 26 10.5 49.5t28.5 41t41.5 28t50.5 10.5q26 0 49.5 -10.5t41 -28t28 -41t10.5 -49.5q0 -27 -10.5 -51t-28 -42.5t-41 -29t-49.5 -10.5q-27 0 -50.5 10.5t-41.5 29t-28.5 42.5t-10.5 51z" />
    <glyph glyph-name="slash" unicode="/" horiz-adv-x="848" 
d="M637 1569h174l-600 -1598h-174z" />
    <glyph glyph-name="zero" unicode="0" horiz-adv-x="1329" 
d="M655 -18q-162 0 -271 60t-174.5 165t-93.5 246t-28 303q0 173 38 323.5t102 241.5t161.5 155t267.5 64q161 0 268 -51t176.5 -156.5t97.5 -254.5t28 -316q0 -163 -28 -305t-94.5 -247.5t-176.5 -166.5t-273 -61zM655 160q117 0 188.5 47.5t108 129.5t54.5 191.5t18 233.5
q0 119 -14 228.5t-54 193.5t-112 134t-187 50q-119 0 -188 -50t-103 -120.5t-53.5 -193.5t-19.5 -242q0 -124 12.5 -233.5t51 -191.5t110 -129.5t188.5 -47.5z" />
    <glyph glyph-name="one" unicode="1" horiz-adv-x="858" 
d="M242 172h147v1109l-307 -167v209l422 236h80v-1387h149v-172h-491v172z" />
    <glyph glyph-name="two" unicode="2" horiz-adv-x="1100" 
d="M88 147l533 644q27 32 56.5 69t55 78t42 85.5t16.5 92.5q0 50 -20 94t-55 77t-83.5 52t-106.5 19q-52 0 -98.5 -16.5t-81.5 -48.5t-56.5 -79.5t-23.5 -109.5h-180q1 95 37 175.5t96.5 139t140.5 91t168 32.5q102 0 185 -32.5t142 -89.5t91.5 -135t32.5 -169
q0 -36 -8.5 -76.5t-29 -87t-54 -99.5t-84.5 -114l-473 -563h647v-176h-889v147z" />
    <glyph glyph-name="three" unicode="3" horiz-adv-x="1110" 
d="M780 1120q0 39 -16.5 83.5t-51 82t-87 62t-123.5 24.5q-59 0 -107.5 -20.5t-96.5 -76.5t-52 -124h-190q5 87 43.5 157t97.5 123t138 84t165 31q107 0 194 -35.5t148.5 -94t95 -133.5t33.5 -153q0 -48 -12 -96t-37.5 -91.5t-65.5 -80.5t-97 -65q47 -18 88.5 -50.5
t72.5 -77.5t49 -102t18 -125q0 -98 -38 -181.5t-103 -144.5t-152.5 -95.5t-187.5 -34.5q-92 0 -182.5 32.5t-153.5 92.5t-93 125t-36 129h192q29 -93 103.5 -146t189.5 -53q52 0 101.5 21t87.5 58.5t61 88t23 110.5q0 63 -23 114t-62 86.5t-90.5 55t-109.5 19.5h-86v151h70
q66 0 118.5 19.5t88.5 53.5t55.5 79.5t19.5 97.5z" />
    <glyph glyph-name="four" unicode="4" horiz-adv-x="1251" 
d="M92 596l539 920h213l-513 -906h388v250l196 14v-264h226v-172h-226v-266h150v-172h-492v172h146v266h-629z" />
    <glyph glyph-name="five" unicode="5" horiz-adv-x="1139" 
d="M317 894q56 38 115 57.5t135 19.5q112 0 206 -40t161.5 -108t105 -158.5t37.5 -191.5q0 -102 -37 -193.5t-105 -160.5t-163.5 -109.5t-212.5 -40.5q-89 0 -166 23.5t-139 66t-107.5 101.5t-72.5 129l164 82q16 -51 47 -94.5t73 -75t93 -49t108 -17.5q72 0 133.5 26.5
t107 72.5t71.5 107.5t26 131.5q0 71 -26 131.5t-72 105t-107.5 70t-132.5 25.5q-80 0 -147.5 -28.5t-112.5 -76.5l-147 23v793h854v-166h-689v-456z" />
    <glyph glyph-name="six" unicode="6" horiz-adv-x="1249" 
d="M815 1516l-340 -567q61 26 110.5 30t88.5 4q92 0 178 -34.5t152.5 -97t106.5 -149t40 -190.5q0 -127 -43 -226t-116 -167t-169.5 -103.5t-204.5 -35.5q-102 0 -196.5 37t-167.5 103.5t-116.5 160t-43.5 207.5q0 88 33.5 174t83.5 180l371 674h233zM596 819
q-72 0 -122.5 -22.5t-95.5 -63t-71 -103t-26 -144.5q0 -78 26 -140t72 -104.5t108.5 -65t135.5 -22.5q68 0 130 24t109 68t75 105t28 135q0 82 -30 144.5t-80.5 104.5t-117.5 63t-141 21z" />
    <glyph glyph-name="seven" unicode="7" horiz-adv-x="1077" 
d="M182 172h117q54 154 119 312.5t132 308.5t132 285.5t119 244.5h-568v-117h-192v310h995v-150q-66 -130 -138 -275.5t-142.5 -298.5t-136.5 -310t-120 -310h126v-172h-443v172z" />
    <glyph glyph-name="eight" unicode="8" horiz-adv-x="1276" 
d="M631 1544q86 0 162.5 -31t134.5 -85t91.5 -126.5t33.5 -154.5q0 -98 -46 -181t-123 -137q51 -30 93 -71.5t72 -91t46.5 -106.5t16.5 -118q0 -95 -38.5 -178t-104.5 -145.5t-154 -98.5t-188 -36q-101 0 -190 36t-155 98.5t-104.5 145.5t-38.5 178q0 61 16.5 118.5t47 107
t73 91t94.5 71.5q-76 55 -120.5 137.5t-44.5 179.5q0 82 33 154.5t90.5 126.5t135.5 85t167 31zM322 446q0 -59 24 -111.5t65.5 -91.5t97 -62t118.5 -23q62 0 117 23t96.5 62t65.5 91.5t24 111.5q0 58 -24 110t-65.5 91t-96.5 61.5t-117 22.5q-63 0 -118.5 -22.5t-97 -61.5
t-65.5 -91t-24 -110zM377 1143q0 -50 19 -93.5t53 -76t80.5 -51.5t101.5 -19q51 0 96 19t79.5 51.5t54.5 76t20 93.5q0 49 -20 92.5t-54.5 76t-79.5 51.5t-96 19q-55 0 -101.5 -19t-80.5 -51.5t-53 -76t-19 -92.5z" />
    <glyph glyph-name="nine" unicode="9" horiz-adv-x="1270" 
d="M430 0l349 572q-50 -20 -91 -27t-88 -7q-88 0 -182.5 34.5t-161 97t-110 154t-43.5 185.5q0 127 43 226t116 167t169.5 103.5t204.5 35.5t201.5 -36t166.5 -103.5t114.5 -161t41.5 -207.5q0 -88 -33.5 -174t-83.5 -180l-380 -679h-233zM631 1367q-68 0 -130 -24t-109 -68
t-75 -105t-28 -135q0 -82 30 -144.5t80.5 -104.5t113 -63t125.5 -21q92 0 142.5 22.5t95.5 63t71 103t26 144.5q0 78 -26 140t-72 104.5t-108.5 65t-135.5 22.5z" />
    <glyph glyph-name="colon" unicode=":" horiz-adv-x="524" 
d="M96 907q0 26 10.5 49.5t28.5 41t41.5 28t50.5 10.5q26 0 49.5 -10.5t41 -28t28 -41t10.5 -49.5q0 -27 -10.5 -51t-28 -42t-41 -29t-49.5 -11q-27 0 -50.5 11t-41.5 29t-28.5 42t-10.5 51zM96 121q0 26 10.5 49.5t28.5 41t41.5 28t50.5 10.5q26 0 49.5 -10.5t41 -28
t28 -41t10.5 -49.5q0 -27 -10.5 -51t-28 -42.5t-41 -29t-49.5 -10.5q-27 0 -50.5 10.5t-41.5 29t-28.5 42.5t-10.5 51z" />
    <glyph glyph-name="semicolon" unicode=";" horiz-adv-x="524" 
d="M96 907q0 26 10.5 49.5t28.5 41t41.5 28t50.5 10.5q26 0 49.5 -10.5t41 -28t28 -41t10.5 -49.5q0 -27 -10.5 -51t-28 -42t-41 -29t-49.5 -11q-27 0 -50.5 11t-41.5 29t-28.5 42t-10.5 51zM164 283l219 -86l-260 -537l-143 53z" />
    <glyph glyph-name="less" unicode="&#x3c;" horiz-adv-x="1001" 
d="M10 761l843 423v-185l-678 -315l678 -315v-185l-843 421v156z" />
    <glyph glyph-name="equal" unicode="=" horiz-adv-x="922" 
d="M86 446h750v-141h-750v141zM86 784h750v-141h-750v141z" />
    <glyph glyph-name="greater" unicode="&#x3e;" horiz-adv-x="1147" 
d="M1007 605l-843 -421v185l678 315l-678 315v185l843 -423v-156z" />
    <glyph glyph-name="question" unicode="?" horiz-adv-x="1065" 
d="M338 121q0 26 10.5 49.5t28 41t41.5 28t51 10.5q26 0 49.5 -10.5t41 -28t28 -41t10.5 -49.5q0 -27 -10.5 -51t-28 -42.5t-41 -29t-49.5 -10.5q-27 0 -51 10.5t-41.5 29t-28 42.5t-10.5 51zM381 336q0 104 7.5 176.5t28.5 133t58 105.5t96 95q53 45 96.5 78t74.5 64.5
t48 68t17 88.5q0 45 -18 87t-48.5 74.5t-72 52.5t-88.5 20q-81 0 -135 -28t-87 -67.5t-47 -83.5t-14 -75l-176 12q5 84 40.5 159t95.5 131.5t142 90t181 33.5q100 0 177.5 -33t130.5 -88t80 -127.5t27 -151.5q0 -102 -52 -188t-155 -158q-47 -33 -107.5 -85t-86 -128.5
t-29.5 -128t-4 -127.5h-180z" />
    <glyph glyph-name="at" unicode="@" horiz-adv-x="2310" 
d="M1589 956v-663q0 -61 17.5 -92t41.5 -45.5t61 -14.5q74 0 123 40.5t78 97.5t40.5 117.5t11.5 150.5q0 102 -29 197.5t-81.5 180t-126.5 155t-165 121t-196 78.5t-219 28q-113 0 -217.5 -29t-195 -82t-165 -127t-127 -164.5t-81.5 -194.5t-29 -216q0 -113 29 -217.5
t81.5 -195.5t127 -165t165 -127t195 -82t217.5 -29q115 0 222 30.5t200 86.5l94 -157q-113 -69 -243.5 -106.5t-272.5 -37.5q-138 0 -266 35.5t-239 100.5t-202.5 156.5t-156.5 202.5t-100.5 239t-35.5 266q0 137 35.5 264.5t100.5 238.5t156.5 202t202.5 156t239 100.5
t266 35.5q140 0 268.5 -34.5t239.5 -96.5t202 -149t155.5 -192t100 -224.5t35.5 -247.5q0 -68 -13 -137t-39 -132t-63.5 -118t-87 -95.5t-109.5 -64t-130 -23.5q-92 0 -154 40t-97 103q-63 -52 -142 -81t-170 -29q-105 0 -192.5 36.5t-151.5 100.5t-99.5 149t-35.5 183
q0 97 37 182.5t101.5 149.5t152 101.5t188.5 37.5q73 0 140 -20t124 -57v83h184zM1141 195q94 0 162 43.5t102 112.5v253q-17 35 -43.5 65t-60.5 51.5t-74.5 33.5t-85.5 12q-64 0 -118 -23t-93.5 -62t-61.5 -91.5t-22 -110.5q0 -59 21 -110.5t59.5 -90t93 -61t121.5 -22.5z
" />
    <glyph glyph-name="A" unicode="A" horiz-adv-x="1542" 
d="M1040 172h126l-120 344h-583l-117 -344h156v-172h-492v172h132l472 1344h295l471 -1344h152v-172h-492v172zM520 682h468l-236 678z" />
    <glyph glyph-name="B" unicode="B" horiz-adv-x="1352" 
d="M143 172h144v1171h-144v175l682 -2q92 0 173 -34.5t141 -94t94.5 -140.5t34.5 -174q0 -97 -54 -177t-154 -128q49 -26 89 -60.5t68 -75.5t43.5 -87t15.5 -94q0 -95 -34.5 -177t-94.5 -143t-140.5 -96t-172.5 -35h-691v172zM483 674v-502h353q48 0 89 24t72 62.5
t48.5 87.5t17.5 100q0 44 -18 85t-48.5 73t-72 51t-88.5 19h-353zM483 1343v-495h344q48 0 89.5 19t72 51t48.5 74t18 87q0 49 -18 96.5t-49 84.5t-72.5 60t-88.5 23h-344z" />
    <glyph glyph-name="C" unicode="C" horiz-adv-x="1503" 
d="M1219 1116q-67 114 -177.5 179t-246.5 65q-116 0 -212 -49t-164.5 -131.5t-106.5 -191t-38 -228.5q0 -142 42 -251.5t109.5 -182t160.5 -121t209 -48.5q158 0 275 76.5t200 251.5l176 -83q-38 -108 -129 -208.5t-224.5 -162t-295.5 -61.5q-155 0 -285 58.5t-231.5 166.5
t-155 256t-53.5 309q0 162 53.5 306t150 250.5t230 168t289.5 61.5q139 0 240 -39.5t171.5 -94t121.5 -118.5h106v-178h-215z" />
    <glyph glyph-name="D" unicode="D" horiz-adv-x="1520" 
d="M143 1516h564q104 0 198 -27t175 -76t147 -117.5t112.5 -152.5t71.5 -180.5t25 -200.5q0 -106 -25 -203t-71.5 -182t-112.5 -154.5t-147 -119t-175 -76.5t-198 -27h-564v172h144v1171h-144v173zM483 1343v-1171h236q105 0 197.5 46t161.5 125.5t109 187t40 231.5
q0 122 -40 228t-109 184.5t-161.5 123.5t-197.5 45h-236z" />
    <glyph glyph-name="E" unicode="E" horiz-adv-x="1286" 
d="M143 1516h1086v-429h-205v256h-541v-485h455v-172h-455v-514h541v256h205v-428h-1086v172h144v1171h-144v173z" />
    <glyph glyph-name="F" unicode="F" horiz-adv-x="1247" 
d="M143 1516h1086v-429h-205v256h-541v-487h521v-168h-521v-516h152v-172h-492v172h144v1171h-144v173z" />
    <glyph glyph-name="G" unicode="G" horiz-adv-x="1677" 
d="M1313 -6v304q-38 -79 -95 -137.5t-127 -96.5t-149.5 -57t-161.5 -19q-148 0 -273 49.5t-226.5 157.5t-155 256t-53.5 309q0 162 53.5 306t150 251t230 168t289.5 61q144 0 247.5 -41t177 -99.5t117.5 -111.5h97v-178h-215q-67 114 -177.5 180t-247.5 64q-115 0 -211 -49
t-164.5 -132t-106.5 -191t-38 -228q0 -133 42 -247t107 -185t160.5 -117.5t211.5 -46.5q192 0 315 93.5t172 291.5h-424v172h641v-727h-186z" />
    <glyph glyph-name="H" unicode="H" horiz-adv-x="1843" 
d="M1208 1516h492v-172h-144v-1172h144v-172h-492v172h152v545h-877v-545h152v-172h-492v172h144v1172h-144v172h492v-172h-152v-459h877v459h-152v172z" />
    <glyph glyph-name="I" unicode="I" horiz-adv-x="770" 
d="M143 1516h484v-173h-144v-1171h144v-172h-484v172h144v1171h-144v173z" />
    <glyph glyph-name="J" unicode="J" horiz-adv-x="670" 
d="M135 1516h491v-173h-127v-1171q0 -22 -10.5 -51.5t-27 -62.5t-38.5 -67.5t-44 -67.5q-53 -77 -120 -161l-172 15q59 90 106 172q20 35 39 71.5t34 70.5t24.5 63.5t9.5 50.5v1138h-165v173z" />
    <glyph glyph-name="K" unicode="K" horiz-adv-x="1563" 
d="M1147 1343v173h348v-173h-119l-664 -559l621 -612h162v-172h-408v172l-602 602zM145 1516h492v-173h-154v-1171h152v-172h-492v172h144v1171h-142v173z" />
    <glyph glyph-name="L" unicode="L" horiz-adv-x="1296" 
d="M143 1516h492v-173h-152v-1171h523q16 0 32 7.5t29 19.5t21 27.5t8 31.5v191h190v-449h-1143v172h144v1171h-144v173z" />
    <glyph glyph-name="M" unicode="M" horiz-adv-x="2175" 
d="M143 172h144v1153h-144v191h480l481 -1309l487 1309h455v-191h-143v-1153h143v-172h-492v172h162v1164l-530 -1336h-170l-537 1339v-1167h156v-172h-492v172z" />
    <glyph glyph-name="N" unicode="N" horiz-adv-x="1624" 
d="M1081 1516h492v-173h-129v-1343h-256l-705 1257v-1085h156v-172h-492v172h140v1171h-144v175h408l692 -1245l8 48v1022h-170v173z" />
    <glyph glyph-name="O" unicode="O" horiz-adv-x="1602" 
d="M799 -30q-157 0 -287 58.5t-232 166.5t-155 256t-53 307q0 164 53.5 308t150 250.5t230 168t293.5 61.5q161 0 295 -61.5t230 -168t149 -250.5t53 -308t-53.5 -307.5t-150 -250.5t-230 -168.5t-293.5 -61.5zM799 156q119 0 215.5 49t164.5 131.5t105 191.5t37 230
q0 124 -40.5 239.5t-113 195.5t-168.5 123.5t-200 43.5q-119 0 -216 -49t-165 -131.5t-105 -192t-37 -229.5q0 -140 41 -249.5t108.5 -182t161 -121.5t212.5 -49z" />
    <glyph glyph-name="P" unicode="P" horiz-adv-x="1272" 
d="M143 1516h613q102 0 187.5 -26.5t148 -78t97 -128.5t34.5 -177q0 -83 -34 -156.5t-96 -128.5t-148.5 -87t-192.5 -32h-269v-530h152v-172h-492v172h144v1171h-144v173zM483 1343v-477h273q57 0 104.5 15.5t82 45.5t54 75t19.5 104q0 112 -68 174.5t-217 62.5h-248z" />
    <glyph glyph-name="Q" unicode="Q" horiz-adv-x="1597" 
d="M698 -24q-140 19 -255.5 87t-198 172.5t-127.5 238.5t-45 284q0 164 53.5 308t150 250.5t230 168t293.5 61.5q161 0 295 -61.5t230 -168t149 -250.5t53 -308q0 -152 -46.5 -286.5t-130.5 -239t-201 -172.5t-258 -85q65 -17 104 -40t98 -52.5t118 -29.5q57 0 101.5 28.5
t58.5 87.5l152 -69q-12 -56 -44.5 -98.5t-76 -71t-93.5 -42.5t-98 -14q-77 0 -144.5 28t-141.5 68t-142 40q-41 0 -84 -13v179zM799 156q119 0 215.5 49t164.5 131.5t105 191.5t37 230q0 124 -40.5 238.5t-113.5 195.5t-166 124.5t-202 43.5q-119 0 -216 -49t-165 -131.5
t-105 -192t-37 -229.5q0 -137 40.5 -247t107.5 -183.5t166.5 -122.5t208.5 -49z" />
    <glyph glyph-name="R" unicode="R" horiz-adv-x="1464" 
d="M143 1516h631q101 0 186.5 -26.5t148 -78t97.5 -128.5t35 -177q0 -57 -20.5 -112.5t-57 -103t-86.5 -84.5t-109 -57q25 -11 50.5 -31.5t48 -50t41 -67t29.5 -80.5l84 -330h131l2 -190h-295l-113 461q-31 124 -94.5 182.5t-173.5 58.5h-195v-530h152v-172h-492v172h144
v1171h-144v173zM483 1343v-477h291q57 0 104.5 15t82 45t54 74.5t19.5 103.5q0 113 -68 176t-216 63h-267z" />
    <glyph glyph-name="S" unicode="S" horiz-adv-x="1210" 
d="M888 1236q-32 44 -70.5 67.5t-84.5 36t-92 12.5q-76 0 -133 -17.5t-94.5 -47.5t-56.5 -70t-19 -84q0 -66 23.5 -106.5t59.5 -65t79.5 -38.5t83.5 -28l202 -66q91 -29 160.5 -66t116.5 -87.5t71.5 -116.5t24.5 -153q0 -94 -38.5 -174t-107.5 -139t-164.5 -92.5
t-209.5 -33.5q-117 0 -200 26.5t-139.5 71t-90.5 101.5t-53 117h-76v172h252q0 -111 23.5 -157t65.5 -76.5t100 -46t128 -15.5q68 0 122.5 16t93 46.5t59 74t20.5 98.5q0 61 -25.5 103.5t-65.5 72.5t-87.5 49t-91.5 33l-219 62q-72 22 -131.5 56t-102 83t-65.5 114.5
t-23 151.5q0 87 34 163t100 133t161.5 89.5t218.5 32.5q81 0 149.5 -19t124 -53.5t98 -83t71.5 -106.5h75v-172h-245q0 88 -32 132z" />
    <glyph glyph-name="T" unicode="T" horiz-adv-x="1434" 
d="M453 172h139v1180h-346v-236h-205v400h1352v-400h-205v236h-400v-1180h156v-172h-491v172z" />
    <glyph glyph-name="U" unicode="U" horiz-adv-x="1559" 
d="M63 1516h491v-173h-155v-706q0 -127 28.5 -216.5t79 -146t120 -82.5t152.5 -26q86 0 158 23t123.5 77.5t80 145t28.5 225.5v706h-164v173h491v-173h-135v-684q0 -164 -45.5 -291t-124.5 -213t-186 -130.5t-230 -44.5q-120 0 -224.5 44t-182 129t-122 207.5t-44.5 280.5
v702h-139v173z" />
    <glyph glyph-name="V" unicode="V" horiz-adv-x="1485" 
d="M1013 1516h492v-173h-131l-491 -1343h-275l-484 1343h-134v173h492v-173h-132l389 -1169l417 1169h-143v173z" />
    <glyph glyph-name="W" unicode="W" horiz-adv-x="2560" 
d="M2058 1516h492v-173h-132l-433 -1343h-306l-411 1321l-379 -1321h-303l-442 1343h-134v173h492v-173h-132l367 -1165l387 1338h299l412 -1338l374 1165h-151v173z" />
    <glyph glyph-name="X" unicode="X" horiz-adv-x="1552" 
d="M950 1516h492v-173h-112l-410 -569l428 -602h94v-172h-492v172h185l-324 451l-326 -451h177v-172h-492v172h99l432 603l-408 568h-123v173h492v-173h-146l295 -415l298 415h-159v173z" />
    <glyph glyph-name="Y" unicode="Y" horiz-adv-x="1354" 
d="M51 1516h492v-173h-144l285 -487l305 487h-158v173h492v-173h-129l-426 -646v-525h156v-172h-492v172h139v530l-402 641h-118v173z" />
    <glyph glyph-name="Z" unicode="Z" horiz-adv-x="1214" 
d="M1163 1292l-913 -1120h711v252h196v-424h-1106v227l900 1116h-687v-256h-196v429h1095v-224z" />
    <glyph glyph-name="bracketleft" unicode="[" horiz-adv-x="721" 
d="M238 1706h403v-151h-219v-1780h219v-152h-403v2083z" />
    <glyph glyph-name="backslash" unicode="\" horiz-adv-x="948" 
d="M41 1581h162l704 -1606h-162z" />
    <glyph glyph-name="bracketright" unicode="]" horiz-adv-x="721" 
d="M299 1555h-219v151h403v-2083h-403v152h219v1780z" />
    <glyph glyph-name="asciicircum" unicode="^" horiz-adv-x="1229" 
d="M672 1513l403 -790h-143l-315 626l-320 -626h-141l403 790h113z" />
    <glyph glyph-name="underscore" unicode="_" horiz-adv-x="1024" 
d="M0 -154h1024v-102h-1024v102z" />
    <glyph glyph-name="grave" unicode="`" horiz-adv-x="594" 
d="M387 1178l-287 282v17h248l184 -299h-145z" />
    <glyph glyph-name="a" unicode="a" horiz-adv-x="1120" 
d="M709 96q-59 -55 -130.5 -90t-162.5 -35q-76 0 -139.5 24t-109.5 65.5t-71.5 96.5t-25.5 117q0 66 19.5 117t52 88.5t76 63t91 41t97 22t94.5 6.5q72 0 121 -4.5t89 -12.5l1 85q0 55 -16 95.5t-45 67t-69.5 39.5t-90.5 13q-47 0 -90 -6.5t-80.5 -17t-69 -24t-53.5 -28.5
l-61 129q37 24 81 44.5t92.5 35t99 23t99.5 8.5q90 0 162 -21.5t122 -66.5t77 -114.5t27 -166.5l-1 -518h115v-172h-301v96zM457 127q37 0 74 9t70 24.5t61 36t47 42.5l1 234h-216q-54 0 -98.5 -12t-77 -35t-50.5 -57t-18 -78q0 -41 15 -71.5t42.5 -51t65.5 -31t84 -10.5z
" />
    <glyph glyph-name="b" unicode="b" horiz-adv-x="1253" 
d="M57 1556h336v-606q66 51 144 81t161 30q102 0 187 -38t146.5 -107t95.5 -165.5t34 -213.5q0 -125 -38 -226.5t-105.5 -174.5t-160.5 -112.5t-204 -39.5q-77 0 -144.5 22.5t-115.5 58.5v-65h-186v1384h-150v172zM649 897q-73 0 -140 -30t-116 -81v-557q32 -33 94 -58.5
t156 -25.5q64 0 123 24t104 72.5t72 120.5t27 168q0 88 -25.5 156t-69 115t-101.5 71.5t-124 24.5z" />
    <glyph glyph-name="c" unicode="c" horiz-adv-x="1116" 
d="M848 760q-42 75 -106.5 110t-149.5 35q-65 0 -122 -27t-99.5 -77t-67 -121.5t-24.5 -159.5q0 -87 24.5 -157t67.5 -119.5t99.5 -76t121.5 -26.5q96 0 167 46.5t113 136.5l154 -76q-30 -64 -74 -115t-99.5 -87t-122 -55.5t-140.5 -19.5q-108 0 -199.5 40.5t-158 113.5
t-103.5 174t-37 221t39 221t107 173.5t159 113.5t195 41q98 0 185.5 -34t153.5 -103h105v-172h-188z" />
    <glyph glyph-name="d" unicode="d" horiz-adv-x="1268" 
d="M711 1556h327v-1384h152v-172h-338v85q-50 -51 -116 -79.5t-150 -28.5q-105 0 -195.5 36.5t-157 107t-104 173t-37.5 234.5q0 120 36 218.5t102 168t159 108t207 38.5q75 0 137 -16.5t119 -57.5v397h-141v172zM610 139q83 0 139 24.5t103 73.5v580q-50 42 -115 61
t-133 19q-66 0 -124 -24.5t-101.5 -71.5t-68.5 -115t-25 -156q0 -96 24 -169t67 -122.5t103 -74.5t131 -25z" />
    <glyph glyph-name="e" unicode="e" 
d="M276 494q0 -44 6.5 -80.5t18.5 -69.5q37 -100 118.5 -150.5t184.5 -50.5q81 0 157.5 22.5t160.5 70.5l75 -127q-102 -70 -205 -104t-214 -34q-105 0 -194.5 35t-154 104t-101 172t-36.5 240q0 111 31 209.5t92.5 172t152.5 116.5t212 43q117 0 195.5 -35.5t128 -94
t75 -133.5t35.5 -153q5 -38 6.5 -77t1.5 -76h-746zM567 907q-65 0 -113.5 -18.5t-82.5 -53t-54.5 -84.5t-30.5 -112h537q-4 58 -18.5 107t-44.5 85t-77 56t-116 20z" />
    <glyph glyph-name="f" unicode="f" horiz-adv-x="745" 
d="M442 1036h240v-151h-240v-713h162v-172h-504v172h156v713h-171v151h171v162q2 90 26 157t68 112t106 67t138 22q53 0 95 -5t75 -13.5t58.5 -18.5t45.5 -20l-57 -133q-32 17 -83.5 29t-107.5 12q-83 0 -130.5 -51.5t-47.5 -151.5v-168z" />
    <glyph glyph-name="g" unicode="g" horiz-adv-x="1208" 
d="M858 91q-51 -54 -118.5 -84t-153.5 -30q-105 0 -195.5 36.5t-157 107t-104 173t-37.5 234.5q0 120 36 218.5t102 168t159 108t207 38.5q78 0 140.5 -17.5t121.5 -60.5v53h186v-995q0 -246 -116.5 -372t-362.5 -126q-54 0 -113 8t-116.5 25.5t-112 44.5t-100.5 66l100 151
q30 -26 68.5 -48t82.5 -37.5t91 -24.5t94 -9q77 0 133.5 16t93 56.5t54.5 109.5t18 175v15zM610 139q46 0 84 9t69 23.5t54.5 33.5t40.5 40v567q-51 45 -117.5 65t-136.5 20q-66 0 -124 -24.5t-101.5 -71.5t-68.5 -115t-25 -156q0 -96 24 -169t67 -122.5t103 -74.5t131 -25z
" />
    <glyph glyph-name="h" unicode="h" horiz-adv-x="1354" 
d="M114 1556h328v-634h6q28 28 64.5 52.5t76.5 42.5t83 28t90 10q83 0 150 -23t114 -70t72.5 -120.5t25.5 -173.5v-496h156v-172h-492v172h142v473q0 119 -60.5 180.5t-173.5 61.5q-64 0 -130 -30.5t-124 -76.5v-608h150v-172h-492v172h156v1212h-142v172z" />
    <glyph glyph-name="i" unicode="i" horiz-adv-x="657" 
d="M92 1036h338v-864h156v-172h-492v172h148v692h-150v172zM207 1403q0 26 10.5 49.5t28 41t41.5 28t51 10.5q26 0 49.5 -10.5t41 -28t28 -41t10.5 -49.5q0 -27 -10.5 -51t-28 -42.5t-41 -29t-49.5 -10.5q-27 0 -51 10.5t-41.5 29t-28 42.5t-10.5 51z" />
    <glyph glyph-name="j" unicode="j" horiz-adv-x="604" 
d="M84 1036h336v-1116q0 -89 -23 -160.5t-66.5 -122t-106.5 -78.5t-144 -30l-19 139q89 13 129.5 84.5t40.5 188.5v923h-147v172zM207 1403q0 24 9.5 45t25.5 37t37.5 25.5t46.5 9.5q24 0 45.5 -9.5t37.5 -25.5t25.5 -37t9.5 -45q0 -25 -9.5 -47t-25.5 -38.5t-37.5 -26
t-45.5 -9.5q-25 0 -46.5 9.5t-37.5 26t-25.5 38.5t-9.5 47z" />
    <glyph glyph-name="k" unicode="k" horiz-adv-x="1276" 
d="M92 1556h365v-172h-2v-774h180l246 254h-62v172h393v-172h-131l-315 -325l344 -367h125v-172h-219l-424 463h-137v-291h86v-172h-443v172h170v1212h-176v172z" />
    <glyph glyph-name="l" unicode="l" horiz-adv-x="666" 
d="M92 1556h336v-1384h156v-172h-492v172h150v1212h-150v172z" />
    <glyph glyph-name="m" unicode="m" horiz-adv-x="2040" 
d="M100 1036h330v-121h2q34 29 71.5 54.5t78.5 44.5t85.5 30t92.5 11q112 0 193 -41.5t125 -129.5q38 34 80 65.5t87.5 54.5t95.5 37t104 14q84 0 151 -23t114 -70t71.5 -120.5t24.5 -173.5v-496h144v-172h-484v172h146v473q0 119 -60 180.5t-173 61.5q-67 0 -137 -32
t-120 -81v-602h143v-172h-483v172h146v473q0 119 -60.5 180.5t-173.5 61.5q-65 0 -131 -31t-125 -77v-607h146v-172h-484v172h144v692h-144v172z" />
    <glyph glyph-name="n" unicode="n" horiz-adv-x="1366" 
d="M782 172h146v473q0 119 -60.5 180.5t-173.5 61.5q-65 0 -131 -31t-125 -77v-607h146v-172h-484v172h144v692h-144v172h330v-122h2q33 29 70.5 55t78.5 45t85.5 30t93.5 11q83 0 150 -23t114 -70t72.5 -120.5t25.5 -173.5v-496h144v-172h-484v172z" />
    <glyph glyph-name="o" unicode="o" horiz-adv-x="1219" 
d="M86 518q1 123 39.5 224t107.5 173.5t164 111.5t209 39q115 0 210.5 -39t163.5 -110.5t106 -172.5t38 -224q0 -121 -38 -222.5t-106 -174.5t-163.5 -113.5t-210.5 -40.5q-117 0 -212 40t-163 112.5t-106 173.5t-39 223zM283 518q0 -89 25.5 -161t70 -122.5t103 -78
t124.5 -27.5q69 0 128.5 27t103.5 77.5t69 122.5t25 162q0 94 -25 167t-68.5 122t-103.5 74t-129 25q-66 0 -124.5 -25t-103 -74t-70 -122t-25.5 -167z" />
    <glyph glyph-name="p" unicode="p" horiz-adv-x="1249" 
d="M59 1036h330v-86q66 51 144 81t161 30q102 0 187 -38t146.5 -107t95.5 -165.5t34 -213.5q0 -125 -38 -228t-105.5 -176.5t-160.5 -114.5t-204 -41q-79 0 -140.5 16.5t-117.5 42.5v-335h162v-172h-492v172h142v1163h-144v172zM645 897q-72 0 -138.5 -29t-115.5 -80v-561
q33 -34 94.5 -61t153.5 -27q64 0 123 25t104 74.5t72 122.5t27 169q0 88 -25.5 156t-69 115t-101.5 71.5t-124 24.5z" />
    <glyph glyph-name="q" unicode="q" horiz-adv-x="1206" 
d="M698 -299h150v380q-50 -49 -115 -76.5t-147 -27.5q-105 0 -195.5 36.5t-157 107t-104 173t-37.5 234.5q0 120 36 218.5t102 168t159 108t207 38.5q75 0 135 -16.5t117 -54.5v46h186v-1335h156v-172h-492v172zM610 139q85 0 144 28t94 66v587q-50 41 -113.5 59t-130.5 18
q-66 0 -124 -24.5t-101.5 -72t-68.5 -115.5t-25 -155q0 -96 24 -169t67 -122.5t103 -74.5t131 -25z" />
    <glyph glyph-name="r" unicode="r" horiz-adv-x="961" 
d="M845 817h-190v64q-33 0 -67.5 -12.5t-64.5 -38t-52.5 -65t-32.5 -93.5v-500h176v-172h-514v172h143l1 692h-144v172h331v-143q18 32 40.5 59.5t50 48t61 32t72.5 11.5h98t92 -2v-225z" />
    <glyph glyph-name="s" unicode="s" horiz-adv-x="993" 
d="M678.5 829.5q-19.5 29.5 -50.5 48t-69 27t-74 8.5q-40 0 -73.5 -9t-57.5 -26t-37.5 -41.5t-13.5 -54.5q0 -52 31.5 -82.5t105.5 -56.5l199 -70q128 -43 187 -117t59 -177q0 -69 -27.5 -126.5t-78 -98t-121.5 -63t-158 -22.5q-121 0 -197 39t-117 103h-104v172h207
q0 -43 18.5 -73.5t49 -49.5t69 -28t78.5 -9q39 0 75 9.5t63.5 28t43.5 44.5t16 59q0 50 -32.5 85t-110.5 63l-198 74q-121 43 -179.5 109.5t-58.5 166.5q0 66 24.5 122t71 96.5t113.5 63.5t153 23q111 0 186 -31t135 -106h97v-172h-205q0 42 -19.5 71.5z" />
    <glyph glyph-name="t" unicode="t" horiz-adv-x="762" 
d="M400 1036h243v-151h-245l-3 -598q0 -61 14 -99t45 -52.5t70 -14.5q42 0 74 7.5t70 25.5l43 -125q-48 -25 -101 -39.5t-125 -14.5q-68 0 -118.5 16.5t-85 55.5t-51.5 104.5t-17 163.5l3 570h-165v151h167v248l182 86v-334z" />
    <glyph glyph-name="u" unicode="u" horiz-adv-x="1350" 
d="M724 1036h334v-864h115v-172h-302v96q-70 -54 -152.5 -84t-176.5 -30q-78 0 -141.5 22.5t-108 70t-68.5 120.5t-24 174v495h-140v172h334v-645q0 -119 55 -180t158 -61q61 0 128.5 22t127.5 61v631h-139v172z" />
    <glyph glyph-name="v" unicode="v" horiz-adv-x="1100" 
d="M20 1036h358v-172h-97l256 -714l250 714h-63v172h328v-172h-89l-339 -880h-184l-338 880h-82v172z" />
    <glyph glyph-name="w" unicode="w" horiz-adv-x="1640" 
d="M20 1036h328v-172h-48l181 -661l248 833h156l237 -831l189 659h-60v172h328v-172h-89l-284 -880h-172l-235 827l-234 -827h-174l-282 880h-89v172z" />
    <glyph glyph-name="x" unicode="x" horiz-adv-x="1085" 
d="M694 172h59l-206 256l-201 -256h51v-172h-344v172h84l315 367l-296 325h-105v172h344v-172h-39l191 -246l193 246h-50v172h344v-172h-89l-293 -338l310 -354h76v-172h-344v172z" />
    <glyph glyph-name="y" unicode="y" 
d="M31 1036h393v-172h-123l243 -661l254 661h-122v172h393v-172h-107l-461 -1163h142v-172h-418v172h126l110 285l-346 878h-84v172z" />
    <glyph glyph-name="z" unicode="z" horiz-adv-x="924" 
d="M76 115l525 766h-331v-146h-184v301h741v-118l-524 -762h354v176h193v-332h-774v115z" />
    <glyph glyph-name="braceleft" unicode="{" horiz-adv-x="721" 
d="M133 723q42 0 73.5 23t52.5 60.5t31.5 85.5t10.5 98v452q0 63 18.5 112t48 83t67.5 51.5t77 17.5h137v-126h-69q-54 0 -74.5 -52.5t-20.5 -146.5v-428q0 -62 -13 -110t-35.5 -84t-53 -60t-66.5 -37v-4q36 -13 66.5 -37t53 -60t35.5 -84.5t13 -109.5v-418
q0 -94 20.5 -146.5t74.5 -52.5h69v-127h-137q-39 0 -77 17.5t-67.5 51.5t-48 83t-18.5 112v443q0 50 -10.5 97.5t-31.5 85t-52.5 60.5t-73.5 23v127z" />
    <glyph glyph-name="bar" unicode="|" horiz-adv-x="455" 
d="M152 1726h155v-1996h-155v1996z" />
    <glyph glyph-name="braceright" unicode="}" horiz-adv-x="721" 
d="M72 -377v127h69q54 0 74.5 52.5t20.5 146.5v418q0 61 13 109.5t35.5 84.5t53 60t65.5 37v4q-35 13 -65.5 37t-53 60t-35.5 84t-13 110v428q0 94 -20.5 146.5t-74.5 52.5h-69v126h137q39 0 77 -17.5t67.5 -51.5t48 -83t18.5 -112v-452q0 -50 10.5 -98t31.5 -85.5
t52.5 -60.5t73.5 -23v-127q-42 0 -73.5 -23t-52.5 -60.5t-31.5 -85t-10.5 -97.5v-443q0 -63 -18.5 -112t-48 -83t-67.5 -51.5t-77 -17.5h-137z" />
    <glyph glyph-name="asciitilde" unicode="~" horiz-adv-x="1229" 
d="M141 483q45 84 106 130t150 46q58 0 119.5 -22.5t119.5 -49t109 -49t89 -22.5q43 0 86.5 34.5t93.5 117.5l73 -115q-45 -84 -105.5 -130t-150.5 -46q-39 0 -79 10.5t-80.5 26.5t-79 34.5t-74 34.5t-67 26.5t-56.5 10.5q-43 0 -86.5 -34t-93.5 -117z" />
    <glyph glyph-name="ellipsis" unicode="&#x2026;" horiz-adv-x="2048" 
d="M205 123q0 30 11.5 56.5t32 47t47 32t56.5 11.5q31 0 58 -11.5t47.5 -32t32.5 -47t12 -56.5t-12 -57t-32.5 -47t-47.5 -32t-58 -12q-30 0 -56.5 12t-47 32t-32 47t-11.5 57zM877 123q0 30 11.5 56.5t32 47t47 32t56.5 11.5q31 0 58 -11.5t47.5 -32t32.5 -47t12 -56.5
t-12 -57t-32.5 -47t-47.5 -32t-58 -12q-30 0 -56.5 12t-47 32t-32 47t-11.5 57zM1548 123q0 30 12 56.5t32 47t47 32t57 11.5q31 0 58 -11.5t47 -32t32 -47t12 -56.5t-12 -57t-32 -47t-47 -32t-58 -12q-30 0 -57 12t-47 32t-32 47t-12 57z" />
    <glyph glyph-name="quoteleft" unicode="&#x2018;" horiz-adv-x="606" 
d="M362 1556l132 -63l-191 -514l-190 78z" />
    <glyph glyph-name="quoteright" unicode="&#x2019;" horiz-adv-x="606" 
d="M276 1565l220 -86l-260 -537l-144 53z" />
    <glyph glyph-name="quotedblleft" unicode="&#x201c;" horiz-adv-x="1065" 
d="M805 1556l131 -63l-191 -514l-190 78zM379 1556l131 -63l-191 -514l-190 78z" />
    <glyph glyph-name="quotedblright" unicode="&#x201d;" horiz-adv-x="1028" 
d="M223 979l-131 63l191 514l190 -77zM649 979l-131 63l191 514l190 -77z" />
    <glyph glyph-name="quotesinglbase" unicode="&#x201a;" horiz-adv-x="569" 
d="M205 283l219 -86l-260 -537l-144 53z" />
    <glyph glyph-name="quotedblbase" unicode="&#x201e;" horiz-adv-x="1006" 
d="M205 283l219 -86l-260 -537l-144 53zM666 283l219 -86l-260 -537l-144 53z" />
    <glyph glyph-name="commabelow" horiz-adv-x="569" 
d="M133 -41l211 -84l-180 -348l-144 53z" />
    <glyph glyph-name="apostrophe" unicode="&#x2bc;" horiz-adv-x="340" 
d="M133 1520l211 -84l-180 -349l-144 54z" />
    <glyph glyph-name="commaaccent" horiz-adv-x="340" 
d="M231 1128l-211 84l181 349l143 -54z" />
    <glyph glyph-name="endash" unicode="&#x2013;" horiz-adv-x="1024" 
d="M0 647h1024v-162h-1024v162z" />
    <glyph glyph-name="emdash" unicode="&#x2014;" horiz-adv-x="2048" 
d="M0 647h2048v-162h-2048v162z" />
    <glyph glyph-name="brokenbar" unicode="&#xa6;" horiz-adv-x="512" 
d="M152 1729h155v-750h-155v750zM152 481h155v-749h-155v749z" />
    <glyph glyph-name="guilsinglleft" unicode="&#x2039;" horiz-adv-x="616" 
d="M514 172h-192l-220 393l220 393h192l-229 -393z" />
    <glyph glyph-name="guilsinglright" unicode="&#x203a;" horiz-adv-x="616" 
d="M332 565l-230 393h193l219 -393l-219 -393h-193z" />
    <glyph glyph-name="guillemotleft" unicode="&#xab;" horiz-adv-x="1040" 
d="M514 172h-192l-220 393l220 393h192l-229 -393zM938 172h-193l-219 393l219 393h193l-229 -393z" />
    <glyph glyph-name="guillemotright" unicode="&#xbb;" horiz-adv-x="1040" 
d="M332 565l-230 393h193l219 -393l-219 -393h-193zM756 565l-230 393h193l219 -393l-219 -393h-193z" />
    <glyph glyph-name="degree" unicode="&#xb0;" horiz-adv-x="682" 
d="M340 1737q49 0 92.5 -19t76.5 -52t52 -76.5t19 -92.5t-19 -92t-52 -75.5t-76.5 -51t-92.5 -18.5t-92.5 18.5t-75.5 51t-51 75.5t-19 92t19 92.5t51 76.5t75.5 52t92.5 19zM205 1497q0 -28 10.5 -52.5t29 -43t43 -29t52.5 -10.5t52.5 10.5t43.5 29t30 43t11 52.5t-11 52.5
t-30 43.5t-43.5 30t-52.5 11t-52.5 -11t-43 -30t-29 -43.5t-10.5 -52.5z" />
    <glyph glyph-name="periodcentered" unicode="&#xb7;" horiz-adv-x="612" 
d="M174 666q0 26 10.5 49.5t28 41t41.5 28t51 10.5q26 0 49.5 -10.5t41 -28t28 -41t10.5 -49.5q0 -27 -10.5 -51.5t-28 -42.5t-41 -29t-49.5 -11q-27 0 -51 11t-41.5 29t-28 42.5t-10.5 51.5z" />
    <glyph glyph-name="bullet" unicode="&#x2022;" horiz-adv-x="811" 
d="M154 780q0 52 19.5 98t53.5 80.5t80 54t99 19.5q52 0 98 -19.5t80 -53.5t53.5 -80t19.5 -99t-19.5 -99t-53.5 -80t-80 -53.5t-98 -19.5q-53 0 -99 19.5t-80 53.5t-53.5 80t-19.5 99z" />
    <glyph glyph-name="circumflex" unicode="&#x2c6;" horiz-adv-x="860" 
d="M217 1176l250 313h63l252 -313h-149l-133 155l-135 -155h-148z" />
    <glyph glyph-name="tilde" unicode="&#x2dc;" horiz-adv-x="999" 
d="M313 1415q50 0 86.5 -16.5t68 -36t62.5 -35.5t70 -16q28 0 54.5 19t35.5 61l119 -35q-20 -85 -78 -131.5t-139 -46.5q-56 0 -95 15.5t-71 33.5t-60 33.5t-61 15.5q-15 0 -30.5 -2t-30.5 -9.5t-27.5 -23t-19.5 -43.5l-109 53q13 47 37 78.5t54 50.5t64.5 27t69.5 8z" />
    <glyph glyph-name="macron" unicode="&#xaf;" horiz-adv-x="797" 
d="M797 1229h-758v117h758v-117z" />
    <glyph glyph-name="breve" unicode="&#x2d8;" horiz-adv-x="1008" 
d="M487 1149q-76 0 -141.5 25t-115 69t-79 104.5t-32.5 131.5h121q1 -43 20 -82t52 -68.5t78 -47t97 -17.5t97 17t78 46.5t52 68.5t21 83h121q-3 -71 -33 -131.5t-79.5 -104.5t-115.5 -69t-141 -25z" />
    <glyph glyph-name="cedilla" unicode="&#xb8;" horiz-adv-x="940" 
d="M182 -303q55 1 99.5 19.5t78 48.5t55 70.5t29.5 86.5l150 -45q-18 -73 -56 -130.5t-90.5 -97t-117.5 -60.5t-137 -21z" />
    <glyph glyph-name="hungarumlaut" unicode="&#x2dd;" horiz-adv-x="1341" 
d="M1064 1478l-233 -300h-152l208 300h177zM743 1478l-222 -300h-151l195 300h178z" />
    <glyph glyph-name="ogonek" unicode="&#x2db;" horiz-adv-x="539" 
d="M469 29q-66 -29 -111 -56t-73 -55.5t-40 -58.5t-12 -64q0 -19 8 -32t21 -20.5t29.5 -11t34.5 -3.5q38 0 65 6.5t47 15.5l49 -166q-11 -6 -31 -13t-45 -13.5t-52 -10.5t-50 -4q-61 0 -112 13.5t-88.5 39.5t-58.5 64.5t-21 89.5t18 95.5t47.5 81.5t67.5 66.5t77.5 52
t77 37.5t66.5 23z" />
    <glyph glyph-name="caron" unicode="&#x2c7;" horiz-adv-x="860" 
d="M776 1488l-252 -353h-49l-252 353h144l133 -196l135 196h141z" />
    <glyph glyph-name="acute" unicode="&#xb4;" horiz-adv-x="645" 
d="M297 1477h240v-17l-299 -282h-154z" />
    <glyph glyph-name="dieresis" unicode="&#xa8;" horiz-adv-x="612" 
d="M39 1360q0 26 10.5 49.5t28 41t41 28t49.5 10.5q25 0 48 -10.5t40 -28t27 -41t10 -49.5q0 -27 -10 -51t-27 -42.5t-40 -29t-48 -10.5q-26 0 -49.5 10.5t-41 29t-28 42.5t-10.5 51zM498 1360q0 26 10.5 49.5t28 41t41 28t49.5 10.5q25 0 47.5 -10.5t40 -28t27.5 -41
t10 -49.5q0 -27 -10 -51t-27.5 -42.5t-40 -29t-47.5 -10.5q-26 0 -49.5 10.5t-41 29t-28 42.5t-10.5 51z" />
    <glyph glyph-name="ring" unicode="&#x2da;" horiz-adv-x="1200" 
d="M506 1343q0 -21 8.5 -39.5t23 -33t33 -23t39.5 -8.5t40 8.5t33.5 23t23 33t8.5 39.5t-8.5 40t-23 33.5t-33.5 23t-40 8.5t-39.5 -8.5t-33 -23t-23 -33.5t-8.5 -40zM610 1599q52 0 99 -20.5t81.5 -55t55 -81.5t20.5 -99t-20.5 -98.5t-55 -81.5t-81.5 -55.5t-99 -20.5
t-98.5 20.5t-81.5 55.5t-55.5 81.5t-20.5 98.5t20.5 99t55.5 81.5t81.5 55t98.5 20.5z" />
    <glyph glyph-name="dotaccent" unicode="&#x2d9;" horiz-adv-x="612" 
d="M174 1403q0 26 10.5 49.5t28 41t41.5 28t51 10.5q26 0 49.5 -10.5t41 -28t28 -41t10.5 -49.5q0 -27 -10.5 -51t-28 -42.5t-41 -29t-49.5 -10.5q-27 0 -51 10.5t-41.5 29t-28 42.5t-10.5 51z" />
    <glyph glyph-name="macron#1" horiz-adv-x="797" 
d="M797 1229h-758v117h758v-117z" />
    <glyph glyph-name="dieresis.i" horiz-adv-x="788" 
d="M131 1360q0 53 38 91t91 38q25 0 48.5 -10.5t40 -27.5t26.5 -41t10 -50q0 -27 -10 -51.5t-26.5 -43t-40 -28.5t-48.5 -10q-53 0 -91 40t-38 93v0zM446 1360q0 53 38 91t91 38q25 0 48.5 -10.5t40 -27.5t26.5 -41t10 -50q0 -27 -10 -51.5t-26.5 -43t-40 -28.5t-48.5 -10
q-53 0 -91 40t-38 93v0z" />
    <glyph glyph-name="circumflex.i" horiz-adv-x="860" 
d="M252 1176l210 313h73l212 -313h-154l-93 155l-95 -155h-153z" />
    <glyph glyph-name="breve.i" horiz-adv-x="1008" 
d="M487 1149q-75 0 -141.5 24.5t-116 69.5t-79 104.5t-31.5 131.5h141q2 -86 62.5 -142.5t164.5 -56.5q105 0 164.5 55.5t63.5 143.5h141q-4 -72 -33.5 -131.5t-79 -104.5t-115 -69.5t-141.5 -24.5v0z" />
    <glyph glyph-name="caron.i" horiz-adv-x="860" 
d="M776 1468l-252 -333h-49l-252 333h144l133 -176l135 176h141z" />
    <glyph glyph-name="AE" unicode="&#xc6;" horiz-adv-x="1915" 
d="M-2 172h106l816 1344h938v-429h-205v256h-465v-481h379v-172h-379v-518h465v256h205v-428h-992v172h125v254h-517l-148 -254h163v-172h-491v172zM991 598v714l-416 -714h416z" />
    <glyph glyph-name="ae" unicode="&#xe6;" horiz-adv-x="1784" 
d="M481 606q132 0 212 -21v3l1 92q1 55 -15 95.5t-45.5 67t-71 39.5t-91.5 13q-47 0 -90 -6.5t-80.5 -17t-69 -24t-53.5 -28.5l-61 129q37 24 81 44.5t92.5 35t99 23t99.5 8.5q115 0 199.5 -35.5t132.5 -110.5q62 70 150.5 110t206.5 40q117 0 195.5 -35.5t128 -94
t75 -133.5t35.5 -153q5 -38 6.5 -77t1.5 -76h-746q0 -54 9 -102t31 -98t103.5 -100.5t184.5 -50.5q81 0 157.5 22.5t160.5 70.5l75 -127q-102 -70 -205 -104t-214 -34q-118 0 -214 42.5t-162 128.5q-32 -39 -74.5 -71t-92.5 -54t-105 -34t-110 -12q-84 0 -151.5 24
t-115.5 65.5t-74 96.5t-26 117q0 65 19.5 115t52 87t76 62t91 40t97 21.5t94.5 6.5zM438 127q97 0 171.5 36.5t125.5 96.5q-38 94 -44 217h-216q-54 0 -98.5 -12t-77 -35t-50.5 -57t-18 -78q0 -42 15 -73.5t42.5 -52.5t65.5 -31.5t84 -10.5zM1165 907q-65 0 -113.5 -18.5
t-82.5 -53t-54.5 -84.5t-30.5 -112h537q-4 58 -18.5 107t-44.5 85t-77 56t-116 20z" />
    <glyph glyph-name="OE" unicode="&#x152;" horiz-adv-x="2335" 
d="M801 -31q-160 0 -294 61.5t-231.5 169t-150.5 251t-53 307.5t54 308t150.5 250.5t230.5 168t294 61.5q166 0 301 -64.5t233 -176.5v211h942v-429h-204v256h-541v-485h455v-172h-455v-514h541v256h204v-428h-942v213q-98 -115 -233 -179.5t-301 -64.5v0zM801 158
q119 0 215 48t163.5 131t104.5 191.5t37 229.5q0 119 -37 228.5t-104.5 192.5t-163.5 132t-215 49t-216.5 -49t-166 -132t-105.5 -191.5t-37 -229.5t38 -229.5t106.5 -191.5t165 -131t215.5 -48v0z" />
    <glyph glyph-name="oe" unicode="&#x153;" horiz-adv-x="1972" 
d="M86 518q1 123 39.5 224t107.5 173.5t164 111.5t209 39q115 0 210.5 -39t163.5 -110.5t106 -172.5t38 -224q0 -121 -38 -222.5t-106 -174.5t-163.5 -113.5t-210.5 -40.5q-117 0 -212 40t-163 112.5t-106 173.5t-39 223zM283 518q0 -89 25.5 -161t70 -122.5t103 -78
t124.5 -27.5q69 0 128.5 27t103.5 77.5t69 122.5t25 162q0 94 -25 167t-68.5 122t-103.5 74t-129 25q-66 0 -124.5 -25t-103 -74t-70 -122t-25.5 -167zM1130 494q0 -44 6.5 -80.5t18.5 -69.5q37 -100 118.5 -150.5t184.5 -50.5q81 0 157.5 22.5t160.5 70.5l75 -127
q-102 -70 -205 -104t-214 -34q-105 0 -194.5 35t-154 104t-101 172t-36.5 240q0 111 31 209.5t92.5 172t152.5 116.5t212 43q117 0 195.5 -35.5t128 -94t75 -133.5t35.5 -153q5 -38 6.5 -77t1.5 -76h-746zM1421 907q-65 0 -113.5 -18.5t-82.5 -53t-54.5 -84.5t-30.5 -112
h537q-4 58 -18.5 107t-44.5 85t-77 56t-116 20z" />
    <glyph glyph-name="thorn" unicode="&#xfe;" horiz-adv-x="1253" 
d="M57 1577h328v-627q66 51 144 81t161 30q102 0 187 -38t146.5 -107t95.5 -165.5t34 -213.5q0 -125 -38 -226.5t-105.5 -174.5t-160.5 -112.5t-204 -39.5q-77 0 -144.5 22t-115.5 59v-364h162v-172h-492v172h144v1704h-142v172zM641 897q-73 0 -140 -30t-116 -81v-557
q32 -33 94 -58.5t156 -25.5q64 0 123 24t104 72.5t72 120.5t27 168q0 88 -25.5 156t-69 115t-101.5 71.5t-124 24.5z" />
    <glyph glyph-name="Thorn" unicode="&#xde;" horiz-adv-x="1323" 
d="M106 1516h492v-173h-158v-134l328 -1q101 0 186.5 -26t148 -78t97.5 -128.5t35 -176.5q0 -83 -34 -156.5t-95.5 -128.5t-148.5 -87t-193 -32h-324v-223h156v-172h-492v172h140v1171h-138v173zM440 1036v-477h328q57 0 104.5 15.5t82 45.5t54 75t19.5 104q0 92 -37.5 141
t-93 72.5t-154.5 23.5h-303z" />
    <glyph glyph-name="Oslash" unicode="&#xd8;" horiz-adv-x="1593" 
d="M263 218q-90 106 -138.5 244t-48.5 296q0 109 24.5 210t69.5 189t109.5 159.5t145.5 122.5t176 79t202 28q115 0 215 -32t185 -89l140 179h199l-220 -282q99 -108 153.5 -252t54.5 -312q0 -109 -24.5 -210t-69.5 -188.5t-109.5 -159.5t-145.5 -123.5t-176.5 -79.5
t-201.5 -28q-124 0 -231 36.5t-195 103.5l-111 -143h-199zM803 158q119 0 215 48.5t164 131t104.5 191t36.5 229.5q0 113 -33 216.5t-94 184.5l-698 -895q62 -51 138.5 -78.5t166.5 -27.5zM391 381l692 890q-59 42 -129 65.5t-151 23.5q-119 0 -215.5 -49t-164.5 -131.5
t-105 -192t-37 -229.5q0 -106 28 -202t82 -175z" />
    <glyph glyph-name="oslash" unicode="&#xf8;" horiz-adv-x="1219" 
d="M213 145q-59 72 -90 166t-31 207q0 122 37.5 223t106 173.5t163.5 112.5t209 40q78 0 146 -18t126 -52l133 170h198l-211 -270q60 -72 93 -167t33 -210q0 -124 -36.5 -225.5t-104 -174t-163.5 -112t-214 -39.5q-80 0 -149 19t-128 54l-80 -103h-199zM882 746l-441 -564
q37 -25 79 -38t88 -13q69 0 128.5 27t103.5 77t69 121.5t25 161.5q0 69 -13.5 126t-38.5 102zM335 301l439 561q-36 23 -78 34t-88 11q-66 0 -124.5 -25.5t-103 -74.5t-70 -122t-25.5 -167q0 -63 13 -117.5t37 -99.5z" />
    <glyph glyph-name="Eth" unicode="&#xd0;" horiz-adv-x="1516" 
d="M139 1516h576q155 0 288.5 -59.5t231.5 -161t153.5 -239.5t55.5 -294q0 -158 -55.5 -297t-153.5 -242.5t-231.5 -163t-288.5 -59.5h-576v172h156v504h-168v172h168v495h-156v173zM492 676v-504h235q104 0 197.5 46t162 126t108.5 187.5t40 230.5t-40 228.5t-108.5 184
t-162 123.5t-197.5 45h-235v-495h186v-172h-186z" />
    <glyph glyph-name="eth" unicode="&#xf0;" horiz-adv-x="1270" 
d="M666 1526l89 -162l170 55l53 -164l-138 -45l194 -352q51 -93 84 -179t33 -175q0 -114 -43.5 -207.5t-116.5 -160t-167.5 -103.5t-196.5 -37q-108 0 -204.5 35.5t-169.5 104t-116 167.5t-43 226q0 103 40 190t106.5 149t152.5 97t178 35q39 0 88 -4t111 -30l-112 186
l-149 -48l-52 164l109 35l-134 223h234zM649 836q-74 0 -140.5 -21.5t-117 -63.5t-80.5 -104.5t-30 -144.5q0 -74 27.5 -135t74.5 -105t109 -68t131 -24q73 0 135.5 22.5t108.5 65t72 104.5t26 140q0 77 -26.5 139t-71 105.5t-101.5 66.5t-117 23z" />
    <glyph glyph-name="fi" unicode="&#xfb01;" horiz-adv-x="1386" 
d="M70 1036h170v162q0 90 24.5 157.5t68.5 111.5t106.5 66.5t138.5 22.5q106 0 169.5 -18t104.5 -39l-57 -133q-33 16 -84.5 28.5t-106.5 12.5q-84 0 -131 -51t-47 -152v-168h240v-151h-240v-713h162v-172h-492v172h144v713h-170v151zM821 1036h338v-864h156v-172h-492v172
h148v692h-150v172zM936 1403q0 53 39 91t92 38q27 0 50.5 -10.5t41 -27.5t27.5 -40.5t10 -50.5t-10 -51.5t-27.5 -43t-41 -28.5t-50.5 -10q-53 0 -92 40t-39 93v0z" />
    <glyph glyph-name="fl" unicode="&#xfb02;" horiz-adv-x="1206" 
d="M426 1036h240v-151h-240v-713h162v-172h-492v172h146v713h-201v151h201v162q0 90 23.5 157.5t67.5 111.5t106.5 66.5t138.5 22.5q71 0 123.5 -9t91.5 -23v32h186v-1384h156v-172h-342v1366q-33 16 -84.5 28.5t-104.5 12.5q-84 0 -131 -51t-47 -152v-168z" />
    <glyph glyph-name="mu" unicode="&#xb5;" horiz-adv-x="1198" 
d="M1018 172h115v-172h-302v96q-70 -54 -152.5 -84t-176.5 -30q-85 0 -148 25v-478h-196v1507h196v-645q0 -119 55 -180t158 -61q61 0 128.5 22t127.5 61v803h195v-864z" />
    <glyph glyph-name="germandbls" unicode="&#xdf;" horiz-adv-x="1247" 
d="M588 964h78q64 3 93.5 20t51.5 41t34 53.5t12 59.5q0 50 -18 94t-50.5 75t-78 47t-100.5 16q-48 0 -88 -17.5t-67.5 -48.5t-42.5 -74t-15 -94v-1136h-381v172h185v987q0 70 27.5 141t79.5 128t128 92.5t176 35.5q93 0 173 -32t138.5 -88.5t92 -133t33.5 -160.5
q0 -46 -9 -84.5t-24 -71t-34 -58t-39 -45.5q51 -33 92.5 -77t70.5 -92.5t45.5 -110t16.5 -129.5q0 -101 -39.5 -192.5t-108 -157.5t-160 -102t-194.5 -36q-39 0 -78 6v188q20 -5 39 -7.5t39 -2.5q65 0 121.5 24.5t98.5 67.5t66 100t24 112q0 65 -25 122.5t-67 95t-98 62
t-118 24.5h-80v186z" />
    <glyph glyph-name="dotlessi" unicode="&#x131;" horiz-adv-x="657" 
d="M92 1036h338v-864h156v-172h-492v172h148v692h-150v172z" />
    <glyph glyph-name="onesuperior" unicode="&#xb9;" horiz-adv-x="508" 
d="M92 952h82v445l-141 -76v139l217 119h59v-627h80v-112h-297v112z" />
    <glyph glyph-name="twosuperior" unicode="&#xb2;" horiz-adv-x="676" 
d="M55 944l275 277q31 32 56.5 67.5t25.5 73.5q0 19 -8 36.5t-23 30.5t-36.5 21t-47.5 8q-53 0 -85 -30t-34 -78h-125q0 52 19.5 94.5t53.5 72.5t78.5 46t94.5 16q52 0 97 -15t78 -43.5t52 -68.5t19 -90q0 -38 -19 -80t-61 -84l-235 -235h313v-121h-488v102z" />
    <glyph glyph-name="threesuperior" unicode="&#xb3;" horiz-adv-x="631" 
d="M428 1364q0 16 -8 33.5t-23.5 31.5t-38 23.5t-51.5 9.5q-16 0 -36 -5.5t-37 -17.5t-29 -30.5t-12 -44.5h-132q3 44 22 83.5t51 69t76 47t95 17.5q56 0 103 -17.5t80.5 -46.5t52 -67t18.5 -80q0 -48 -23 -87.5t-69 -64.5q42 -19 72 -60.5t30 -100.5q0 -48 -20 -89.5
t-55.5 -72t-83.5 -47.5t-103 -17q-48 0 -94 14.5t-82 43t-58 69t-22 93.5h133q8 -48 41.5 -73.5t87.5 -25.5q25 0 48 7.5t40 21.5t27 32.5t10 41.5q0 51 -36 78.5t-93 27.5h-57v107h55q57 0 89 27t32 69z" />
    <glyph glyph-name="ordmasculine" unicode="&#xba;" horiz-adv-x="934" 
d="M102 1217q0 78 27 144.5t75 115t115 76t148 27.5t148 -26.5t115 -74.5t74.5 -114t26.5 -145q0 -80 -26 -146.5t-74 -114.5t-115 -75t-149 -27t-149.5 26.5t-115.5 74.5t-74 114t-26 145zM254 1217q0 -52 17 -94t46 -71.5t67.5 -45.5t82.5 -16q45 0 84 16t67.5 45.5
t45 71.5t16.5 94q0 55 -16.5 98t-45 71.5t-67.5 43.5t-84 15q-44 0 -82.5 -15t-67.5 -43.5t-46 -71.5t-17 -98z" />
    <glyph glyph-name="ordfeminine" unicode="&#xaa;" horiz-adv-x="838" 
d="M551 942q-42 -34 -90 -54.5t-111 -20.5q-55 0 -100.5 16t-78.5 44t-51 65.5t-18 79.5q0 58 27 99.5t70 67.5t96.5 38t105.5 12q47 0 83.5 -4t66.5 -10v49q0 68 -42.5 98.5t-111.5 30.5q-65 0 -117 -13.5t-87 -33.5l-50 96q57 35 128.5 56.5t144.5 21.5q64 0 116 -14.5
t88.5 -44.5t56 -77.5t19.5 -113.5v-313h82v-131h-227v56zM375 984q54 0 101.5 20t74.5 47v136h-156q-32 0 -60 -7t-48 -20t-31.5 -32t-11.5 -44q0 -49 35.5 -74.5t95.5 -25.5z" />
    <glyph glyph-name="exclamdown" unicode="&#xa1;" horiz-adv-x="682" 
d="M211 1010q0 26 10.5 49.5t28 41t41.5 28t51 10.5q26 0 49.5 -10.5t41 -28t28 -41t10.5 -49.5q0 -27 -10.5 -51t-28 -42.5t-41 -29t-49.5 -10.5q-27 0 -51 10.5t-41.5 29t-28 42.5t-10.5 51zM252 696h178l41 -1167h-260z" />
    <glyph glyph-name="questiondown" unicode="&#xbf;" horiz-adv-x="1030" 
d="M406 1022q0 26 10.5 49.5t28 41t41.5 28t51 10.5q26 0 49.5 -10.5t41 -28t28 -41t10.5 -49.5q0 -27 -10.5 -51t-28 -42.5t-41 -29t-49.5 -10.5q-27 0 -51 10.5t-41.5 29t-28 42.5t-10.5 51zM623 780q0 -104 -7.5 -181.5t-28.5 -138t-58.5 -110.5t-96.5 -100
q-53 -45 -96.5 -78t-74 -64.5t-47.5 -68t-17 -88.5q0 -45 18 -87t48.5 -74.5t72 -52.5t88.5 -20q81 0 135 28t87 67.5t47 83t14 75.5l176 -12q-6 -84 -41.5 -159t-95.5 -131.5t-142 -90t-180 -33.5q-101 0 -178.5 33t-130 88t-80 127.5t-27.5 151.5q0 102 52.5 188.5
t154.5 157.5q47 33 82 61t60.5 57t41.5 62t25.5 76.5t13.5 100t4 132.5h181z" />
    <glyph glyph-name="nonmarkingreturn" horiz-adv-x="0" 
 />
    <glyph glyph-name=".null" horiz-adv-x="0" 
 />
    <glyph glyph-name="uni0410" unicode="&#x410;" horiz-adv-x="1542" 
d="M1040 172h126l-120 344h-583l-117 -344h156v-172h-492v172h132l472 1344h295l471 -1344h152v-172h-492v172zM520 682h468l-236 678z" />
    <glyph glyph-name="uni0411" unicode="&#x411;" horiz-adv-x="1352" 
d="M119 172h141v1180h-117v164h1067v-400h-204v236h-549v-469h321q107 0 194 -33t148.5 -90.5t95 -137t33.5 -171.5q0 -93 -34.5 -174.5t-98 -143t-149.5 -97.5t-191 -36h-657v172zM457 711v-539h313q125 0 198.5 75t73.5 193q0 56 -16 105t-51 86t-88 58.5t-125 21.5h-305z
" />
    <glyph glyph-name="uni0412" unicode="&#x412;" horiz-adv-x="1323" 
d="M143 172h144v1171h-144v175l682 -2q92 0 173 -34.5t141 -94t94.5 -140.5t34.5 -174q0 -97 -54 -177t-154 -128q49 -26 89 -60.5t68 -75.5t43.5 -87t15.5 -94q0 -95 -34.5 -177t-94.5 -143t-140.5 -96t-172.5 -35h-691v172zM483 674v-502h353q48 0 89 24t72 62.5
t48.5 87.5t17.5 100q0 44 -18 85t-48.5 73t-72 51t-88.5 19h-353zM483 1343v-495h344q48 0 89.5 19t72 51t48.5 74t18 87q0 49 -18 96.5t-49 84.5t-72.5 60t-88.5 23h-344z" />
    <glyph glyph-name="uni0413" unicode="&#x413;" horiz-adv-x="1229" 
d="M143 172h140v1180h-138v164h1072v-400h-205v236h-533v-1180h156v-172h-492v172z" />
    <glyph glyph-name="uni0414" unicode="&#x414;" horiz-adv-x="1620" 
d="M61 172h52q88 8 143 56t88 124t45 174.5t12 208.5v608h-159v173h1235v-173h-146v-1171h146v-520h-197v348h-1024v-348h-195v520zM594 721q0 -203 -42 -338t-126 -211h709v1171h-541v-622z" />
    <glyph glyph-name="uni0415" unicode="&#x415;" horiz-adv-x="1286" 
d="M143 1516h1086v-429h-205v256h-541v-485h455v-172h-455v-514h541v256h205v-428h-1086v172h144v1171h-144v173z" />
    <glyph glyph-name="uni0416" unicode="&#x416;" horiz-adv-x="2120" 
d="M819 172h140v520h-113l-377 -520v-172h-389v172h172l451 610l-476 561h-118v173h329v-173l392 -479h129v479h-138v173h492v-173h-158v-479h129l402 479v173h325v-173h-119l-485 -563l473 -608h162v-172h-385v172l-389 520h-113v-520h156v-172h-492v172z" />
    <glyph glyph-name="uni0417" unicode="&#x417;" horiz-adv-x="1210" 
d="M92 498h246v-146q31 -88 103.5 -137t185.5 -49q51 0 100 21.5t88 58.5t61.5 88t22.5 110q0 62 -22.5 113t-61.5 87t-91 55.5t-110 19.5h-86v151h70q66 0 118 19.5t89 53.5t56.5 79t19.5 98q0 39 -16.5 83t-51.5 82t-87 62.5t-124 24.5q-53 0 -98 -19.5t-78 -46t-52.5 -55
t-25.5 -49.5v-98h-246v172h84q54 117 164.5 193.5t249.5 76.5q107 0 194 -35.5t148.5 -94t95 -133.5t33.5 -153q0 -100 -49 -188t-164 -145q94 -37 161.5 -127t67.5 -228q0 -98 -37.5 -182t-103 -144.5t-152.5 -95t-188 -34.5q-82 0 -153.5 21.5t-130 64.5t-102.5 106.5
t-70 147.5h-58v172z" />
    <glyph glyph-name="uni0418" unicode="&#x418;" horiz-adv-x="1843" 
d="M143 1516h502v-173h-160v-1101l839 1274h376v-172h-142v-1172h142v-172h-492v172h153v1098l-843 -1270h-374v172h149v1171h-150v173z" />
    <glyph glyph-name="uni041A" unicode="&#x41a;" horiz-adv-x="1563" 
d="M1147 1343v173h348v-173h-119l-664 -559l621 -612h162v-172h-408v172l-602 602zM145 1516h492v-173h-154v-1171h152v-172h-492v172h144v1171h-142v173z" />
    <glyph glyph-name="uni041B" unicode="&#x41b;" horiz-adv-x="1647" 
d="M1012 172h149v1171h-540v-591q0 -164 -28 -302.5t-80 -238.5t-130 -155.5t-178 -55.5h-174v311h188v-147q68 22 110 77.5t65.5 131.5t31.5 169t8 193v304.5v303.5h-170v173h1239v-173h-145v-1171h145v-172h-491v172z" />
    <glyph glyph-name="uni041C" unicode="&#x41c;" horiz-adv-x="2175" 
d="M143 172h144v1153h-144v191h480l481 -1309l487 1309h455v-191h-143v-1153h143v-172h-492v172h162v1164l-530 -1336h-170l-537 1339v-1167h156v-172h-492v172z" />
    <glyph glyph-name="uni041D" unicode="&#x41d;" horiz-adv-x="1843" 
d="M1208 1516h492v-172h-144v-1172h144v-172h-492v172h152v545h-877v-545h152v-172h-492v172h144v1172h-144v172h492v-172h-152v-459h877v459h-152v172z" />
    <glyph glyph-name="uni041E" unicode="&#x41e;" horiz-adv-x="1602" 
d="M799 -30q-157 0 -287 58.5t-232 166.5t-155 256t-53 307q0 164 53.5 308t150 250.5t230 168t293.5 61.5q161 0 295 -61.5t230 -168t149 -250.5t53 -308t-53.5 -307.5t-150 -250.5t-230 -168.5t-293.5 -61.5zM799 156q119 0 215.5 49t164.5 131.5t105 191.5t37 230
q0 124 -40.5 239.5t-113 195.5t-168.5 123.5t-200 43.5q-119 0 -216 -49t-165 -131.5t-105 -192t-37 -229.5q0 -140 41 -249.5t108.5 -182t161 -121.5t212.5 -49z" />
    <glyph glyph-name="uni041F" unicode="&#x41f;" horiz-adv-x="1762" 
d="M145 1516h1473v-173h-143v-1171h143v-172h-491v172h151v1171h-795v-1171h152v-172h-492v172h144v1171h-142v173z" />
    <glyph glyph-name="uni0420" unicode="&#x420;" horiz-adv-x="1272" 
d="M143 1516h613q102 0 187.5 -26.5t148 -78t97 -128.5t34.5 -177q0 -83 -34 -156.5t-96 -128.5t-148.5 -87t-192.5 -32h-269v-530h152v-172h-492v172h144v1171h-144v173zM483 1343v-477h273q57 0 104.5 15.5t82 45.5t54 75t19.5 104q0 112 -68 174.5t-217 62.5h-248z" />
    <glyph glyph-name="uni0421" unicode="&#x421;" horiz-adv-x="1503" 
d="M1219 1116q-67 114 -177.5 179t-246.5 65q-116 0 -212 -49t-164.5 -131.5t-106.5 -191t-38 -228.5q0 -142 42 -251.5t109.5 -182t160.5 -121t209 -48.5q158 0 275 76.5t200 251.5l176 -83q-38 -108 -129 -208.5t-224.5 -162t-295.5 -61.5q-155 0 -285 58.5t-231.5 166.5
t-155 256t-53.5 309q0 162 53.5 306t150 250.5t230 168t289.5 61.5q139 0 240 -39.5t171.5 -94t121.5 -118.5h106v-178h-215z" />
    <glyph glyph-name="uni0422" unicode="&#x422;" horiz-adv-x="1434" 
d="M453 172h139v1180h-346v-236h-205v400h1352v-400h-205v236h-400v-1180h156v-172h-491v172z" />
    <glyph glyph-name="uni0423" unicode="&#x423;" horiz-adv-x="1300" 
d="M870 1516h418v-173h-90l-424 -981q-37 -86 -76 -156.5t-85 -120.5t-102.5 -77.5t-129.5 -27.5q-47 0 -105.5 5t-91.5 15h-4v311h188v-178q25 0 49.5 3t51 20.5t54.5 54.5t58 106l17 39q-113 248 -225.5 494t-225.5 493h-123v173h457v-173h-125l328 -776l317 776h-131v173
z" />
    <glyph glyph-name="uni0424" unicode="&#x424;" horiz-adv-x="1540" 
d="M543 1597h450v-151h-125v-121h19q141 0 255.5 -38t195.5 -105.5t126 -162.5t45 -210q0 -113 -45 -208t-127 -163.5t-196.5 -106.5t-253.5 -38h-19v-121h146v-172h-492v172h150v121h-15q-139 0 -253.5 38t-196.5 106.5t-127 163.5t-45 208q0 115 43 210t124 162.5
t196.5 105.5t258.5 38h15v121h-129v151zM868 1165v-710h21q115 0 194.5 25.5t129 72.5t72 111.5t22.5 142.5q0 76 -21.5 142.5t-71 113.5t-129 74.5t-196.5 27.5h-21zM238 807q0 -78 23.5 -142.5t73.5 -111.5t129 -72.5t191 -25.5h17v710h-17q-112 0 -192 -27.5t-130 -74.5
t-72.5 -112.5t-22.5 -143.5v0z" />
    <glyph glyph-name="uni0425" unicode="&#x425;" horiz-adv-x="1552" 
d="M950 1516h492v-173h-112l-410 -569l428 -602h94v-172h-492v172h185l-324 451l-326 -451h177v-172h-492v172h99l432 603l-408 568h-123v173h492v-173h-146l295 -415l298 415h-159v173z" />
    <glyph glyph-name="uni0426" unicode="&#x426;" horiz-adv-x="1782" 
d="M1147 1516h491v-173h-143v-1181h207v-510h-189v348h-1370v162h144v1181h-144v173h492v-173h-152v-1181h815v1181h-151v173z" />
    <glyph glyph-name="uni0427" unicode="&#x427;" horiz-adv-x="1577" 
d="M70 1516h467v-173h-142v-387q0 -82 14.5 -132t50.5 -77.5t94 -37t144 -9.5q99 0 198 20.5t198 53.5v569h-152v173h492v-173h-144v-1171h144v-172h-492v172h152v422q-97 -31 -197 -51.5t-199 -20.5q-116 0 -208.5 16.5t-157 60.5t-99 121t-34.5 198v425h-129v173z" />
    <glyph glyph-name="uni0428" unicode="&#x428;" horiz-adv-x="2339" 
d="M145 1516h492v-173h-152v-1181h584v1181h-154v173h492v-173h-141v-1181h581v1181h-143v173h491v-173h-151v-1181h147v-162h-2048v162h146v1181h-144v173z" />
    <glyph glyph-name="uni0429" unicode="&#x429;" horiz-adv-x="2339" 
d="M1704 1516h491v-173h-151v-1181h235v-510h-188v348h-1948v162h146v1181h-144v173h492v-173h-152v-1181h584v1181h-154v173h492v-173h-141v-1181h581v1181h-143v173z" />
    <glyph glyph-name="uni042A" unicode="&#x42a;" horiz-adv-x="1608" 
d="M401 172h142v1180h-305v-236h-205v400h870v-164h-164v-469h322q106 0 193 -33t148.5 -90.5t95.5 -137t34 -171.5q0 -93 -35 -174.5t-98.5 -143t-149.5 -97.5t-190 -36h-658v172zM739 711v-539h314q125 0 198.5 75t73.5 193q0 56 -16.5 105t-51 86t-88 58.5t-125.5 21.5
h-305z" />
    <glyph glyph-name="uni042B" unicode="&#x42b;" horiz-adv-x="1929" 
d="M119 1516h491v-173h-155v-460h321q107 0 194 -33t148.5 -90.5t95 -137t33.5 -171.5q0 -93 -34.5 -174.5t-98 -143t-149.5 -97.5t-191 -36h-657v172h141v1171h-139v173zM1325 1516h492v-173h-158v-1171h156v-172h-492v172h139v1171h-137v173zM455 711v-539h313
q125 0 198.5 75t73.5 193q0 56 -16 105t-51 86t-88.5 58.5t-124.5 21.5h-305z" />
    <glyph glyph-name="uni042C" unicode="&#x42c;" horiz-adv-x="1349" 
d="M147 1516h491v-173h-157v-460h321q107 0 194 -33t148.5 -90.5t95 -137t33.5 -171.5q0 -93 -34.5 -174.5t-98 -143t-149.5 -97.5t-191 -36h-657v172h141v1171h-137v173zM481 711v-539h313q125 0 198.5 75t73.5 193q0 56 -16 105t-51 86t-88.5 58.5t-124.5 21.5h-305z" />
    <glyph glyph-name="uni042D" unicode="&#x42d;" horiz-adv-x="1602" 
d="M498 848h784q-12 104 -52 197.5t-104.5 163t-149.5 109.5t-190 40q-77 0 -137.5 -16.5t-108.5 -47t-86 -75.5t-71 -103h-215v178h94q51 58 104.5 104t115 78.5t136 50t168.5 17.5q160 0 290 -62.5t222.5 -170t141.5 -249.5t49 -302t-49 -302.5t-140.5 -251t-221.5 -172
t-292 -63.5q-116 0 -213.5 32t-175.5 90.5t-138 139t-105 179.5l180 82q39 -80 84 -142.5t99 -105.5t119.5 -64.5t149.5 -21.5q107 0 196 43t153.5 115.5t103.5 166t45 193.5h-786v170z" />
    <glyph glyph-name="uni042E" unicode="&#x42e;" horiz-adv-x="2255" 
d="M145 1516h492v-173h-158v-456h254q21 141 82.5 261t155.5 209t217 139t266 50q162 0 295 -61.5t229.5 -168t149.5 -250.5t53 -308t-53 -307.5t-150.5 -251t-230.5 -169t-293 -61.5q-156 0 -286 58.5t-226 159t-152.5 236.5t-64.5 292h-246v-543h156v-172h-492v172h140
v1171h-138v173zM1454 158q119 0 215 48t164 131t104.5 191.5t36.5 229.5q0 119 -36.5 228.5t-104.5 192.5t-164 132t-215 49t-216 -49t-165.5 -132t-105.5 -191.5t-37 -229.5t38 -229.5t106.5 -191.5t164.5 -131t215 -48v0z" />
    <glyph glyph-name="uni042F" unicode="&#x42f;" horiz-adv-x="1464" 
d="M872 172h140v530h-193q-110 0 -173.5 -58t-94.5 -183l-113 -461h-295l2 190h131l84 330q17 72 55 127t81 84q-60 23 -109 63t-84 90t-55.5 107.5t-20.5 114.5q0 100 38 177t104.5 128t154.5 78t191 27l645 2v-175h-152v-1171h156v-172h-492v172zM434 1104
q0 -117 73 -177.5t187 -60.5h318v477h-273q-149 0 -227 -62t-78 -177v0z" />
    <glyph glyph-name="uni0430" unicode="&#x430;" horiz-adv-x="1042" 
d="M709 96q-59 -55 -130.5 -90t-162.5 -35q-76 0 -139.5 24t-109.5 65.5t-71.5 96.5t-25.5 117q0 66 19.5 117t52 88.5t76 63t91 41t97 22t94.5 6.5q72 0 121 -4.5t89 -12.5l1 85q0 55 -16 95.5t-45 67t-69.5 39.5t-90.5 13q-47 0 -90 -6.5t-80.5 -17t-69 -24t-53.5 -28.5
l-61 129q37 24 81 44.5t92.5 35t99 23t99.5 8.5q90 0 162 -21.5t122 -66.5t77 -114.5t27 -166.5l-1 -518h115v-172h-301v96zM457 127q37 0 74 9t70 24.5t61 36t47 42.5l1 234h-216q-54 0 -98.5 -12t-77 -35t-50.5 -57t-18 -78q0 -41 15 -71.5t42.5 -51t65.5 -31t84 -10.5z
" />
    <glyph glyph-name="uni0431" unicode="&#x431;" horiz-adv-x="1225" 
d="M279 897q59 82 148 127t212 45q119 0 210 -44t152.5 -119t93 -175t31.5 -211q0 -123 -36.5 -225t-104 -174t-163 -112t-214.5 -40q-121 0 -218 45t-164.5 122t-104.5 178.5t-37 213.5q0 99 1 191t1 168q2 135 45 247.5t121 192.5t185.5 124t236.5 44h178v61h223v-229
h-395q-92 0 -167 -35t-127 -89t-79.5 -121.5t-27.5 -131.5v-53zM608 131q68 0 128.5 26.5t105.5 77t71.5 122t26.5 161.5q0 94 -24.5 167t-67.5 122t-102.5 74.5t-129.5 25.5q-65 0 -123.5 -25.5t-104.5 -71.5t-73.5 -112.5t-29.5 -146.5v-16q0 -97 25.5 -171.5t69.5 -126
t102.5 -79t125.5 -27.5v0z" />
    <glyph glyph-name="uni0432" unicode="&#x432;" horiz-adv-x="1253" 
d="M110 0v172h119v692h-119v172h613q186 0 293.5 -85t107.5 -224q0 -68 -40 -120t-116 -85q78 -35 121 -93t43 -134q0 -64 -28.5 -117t-81 -93t-126 -62.5t-165.5 -22.5h-621zM417 446v-274h316q96 0 141 29.5t45 89.5q0 59 -46 107t-140 48h-316zM417 864v-274h308
q96 0 141 34.5t45 92.5q0 63 -46 105t-140 42h-308z" />
    <glyph glyph-name="uni0433" unicode="&#x433;" horiz-adv-x="1058" 
d="M110 172h152v700h-152v164h889v-358h-195v194h-354v-700h152v-172h-492v172z" />
    <glyph glyph-name="uni0434" unicode="&#x434;" horiz-adv-x="1437" 
d="M100 170l31 4q78 12 132 58.5t88 120t49 171t15 211.5v129h-163v172h1054v-172h-163v-690h184v-461h-193v287h-841v-287h-193v457zM594 670q0 -174 -44.5 -299t-135.5 -197h540v690h-360v-194z" />
    <glyph glyph-name="uni0435" unicode="&#x435;" 
d="M276 494q0 -44 6.5 -80.5t18.5 -69.5q37 -100 118.5 -150.5t184.5 -50.5q81 0 157.5 22.5t160.5 70.5l75 -127q-102 -70 -205 -104t-214 -34q-105 0 -194.5 35t-154 104t-101 172t-36.5 240q0 111 31 209.5t92.5 172t152.5 116.5t212 43q117 0 195.5 -35.5t128 -94
t75 -133.5t35.5 -153q5 -38 6.5 -77t1.5 -76h-746zM567 907q-65 0 -113.5 -18.5t-82.5 -53t-54.5 -84.5t-30.5 -112h537q-4 58 -18.5 107t-44.5 85t-77 56t-116 20z" />
    <glyph glyph-name="uni0436" unicode="&#x436;" horiz-adv-x="1827" 
d="M819 442h-133l-248 -272v-170h-375v172h125l324 346l-319 346h-130v172h396v-172h-70l254 -274h176v274h-108v172h295v-446h180l252 274h-68v172h393v-172h-129l-317 -346l323 -346h125v-172h-219l-403 442h-137v-270h108v-172h-295v442z" />
    <glyph glyph-name="uni0437" unicode="&#x437;" horiz-adv-x="975" 
d="M707 776q0 72 -53.5 114t-168.5 42q-53 0 -94 -14.5t-71.5 -38t-48 -56t-21.5 -69.5h-33h-33h-129v172h74q53 71 146.5 120.5t209.5 49.5q99 0 174.5 -27t128 -70t79 -99t26.5 -114q0 -28 -6 -63t-24.5 -67.5t-52.5 -61.5t-87 -47q51 -19 86 -46.5t55.5 -59t29.5 -65.5
t9 -63q0 -71 -32.5 -131.5t-90 -105.5t-134.5 -70.5t-165 -25.5q-80 0 -153.5 20t-132 59t-99.5 94.5t-53 125.5l182 43q19 -93 85.5 -136t170.5 -43q49 0 93 10.5t76 31t50.5 53t18.5 77.5q0 39 -18.5 68t-49 47.5t-70.5 27.5t-83 9h-99v156h68q98 0 169 35.5t71 117.5v0z
" />
    <glyph glyph-name="uni0438" unicode="&#x438;" horiz-adv-x="1445" 
d="M110 1036h492v-172h-164v-631l543 803h354v-176h-135v-688h135v-172h-492v172h168v645l-555 -817h-344v172h137v692h-139v172z" />
    <glyph glyph-name="uni043A" unicode="&#x43a;" horiz-adv-x="1293" 
d="M110 1036h443v-172h-99v-254h180l246 254h-61v172h393v-172h-131l-315 -325l323 -367h125v-172h-219l-404 463h-137v-291h99v-172h-443v172h158v692h-158v172z" />
    <glyph glyph-name="uni043B" unicode="&#x43b;" horiz-adv-x="1300" 
d="M698 172h158v692h-326v-248q0 -129 -13 -225t-38.5 -164.5t-63.5 -112.5t-87 -70t-108.5 -36t-129.5 -10h-37v168q84 0 140.5 21.5t91 74.5t50 145.5t15.5 233.5l2 223h-137v172h959v-172h-130v-692h146v-172h-492v172z" />
    <glyph glyph-name="uni043C" unicode="&#x43c;" horiz-adv-x="1713" 
d="M1112 172h151v526h-4l-395 -708l-414 708h-2v-526h154v-172h-492v172h156v690h-156v174h357l395 -704l383 704h360v-174h-157v-690h155v-172h-491v172z" />
    <glyph glyph-name="uni043D" unicode="&#x43d;" horiz-adv-x="1438" 
d="M856 1036h472v-172h-150v-692h150v-172h-472v172h134v305h-546v-305h138v-172h-472v172h146v692h-144v172h472v-172h-140v-221h546v221h-134v172z" />
    <glyph glyph-name="uni043E" unicode="&#x43e;" horiz-adv-x="1219" 
d="M86 518q1 123 39.5 224t107.5 173.5t164 111.5t209 39q115 0 210.5 -39t163.5 -110.5t106 -172.5t38 -224q0 -121 -38 -222.5t-106 -174.5t-163.5 -113.5t-210.5 -40.5q-117 0 -212 40t-163 112.5t-106 173.5t-39 223zM283 518q0 -89 25.5 -161t70 -122.5t103 -78
t124.5 -27.5q69 0 128.5 27t103.5 77.5t69 122.5t25 162q0 94 -25 167t-68.5 122t-103.5 74t-129 25q-66 0 -124.5 -25t-103 -74t-70 -122t-25.5 -167z" />
    <glyph glyph-name="uni043F" unicode="&#x43f;" horiz-adv-x="1377" 
d="M112 1036h1155v-172h-149v-692h149v-172h-491v172h153v692h-485v-692h158v-172h-492v172h146v692h-144v172z" />
    <glyph glyph-name="uni0440" unicode="&#x440;" horiz-adv-x="1249" 
d="M59 1036h330v-86q66 51 144 81t161 30q102 0 187 -38t146.5 -107t95.5 -165.5t34 -213.5q0 -125 -38 -228t-105.5 -176.5t-160.5 -114.5t-204 -41q-79 0 -140.5 16.5t-117.5 42.5v-335h162v-172h-492v172h142v1163h-144v172zM645 897q-72 0 -138.5 -29t-115.5 -80v-561
q33 -34 94.5 -61t153.5 -27q64 0 123 25t104 74.5t72 122.5t27 169q0 88 -25.5 156t-69 115t-101.5 71.5t-124 24.5z" />
    <glyph glyph-name="uni0441" unicode="&#x441;" horiz-adv-x="1116" 
d="M848 760q-42 75 -106.5 110t-149.5 35q-65 0 -122 -27t-99.5 -77t-67 -121.5t-24.5 -159.5q0 -87 24.5 -157t67.5 -119.5t99.5 -76t121.5 -26.5q96 0 167 46.5t113 136.5l154 -76q-30 -64 -74 -115t-99.5 -87t-122 -55.5t-140.5 -19.5q-108 0 -199.5 40.5t-158 113.5
t-103.5 174t-37 221t39 221t107 173.5t159 113.5t195 41q98 0 185.5 -34t153.5 -103h105v-172h-188z" />
    <glyph glyph-name="uni0442" unicode="&#x442;" horiz-adv-x="1190" 
d="M363 172h137v700h-244v-194h-196v358h1069v-358h-195v194h-246v-700h166v-172h-491v172z" />
    <glyph glyph-name="uni0443" unicode="&#x443;" horiz-adv-x="1084" 
d="M676 1036h393v-172h-106l-383 -964q-37 -95 -82 -164.5t-99.5 -115.5t-121 -68.5t-146.5 -22.5h-47v172h51q96 0 176 62.5t138 209.5l8 23l-342 868h-84v172h393v-172h-123l244 -661l254 661h-123v172z" />
    <glyph glyph-name="uni0444" unicode="&#x444;" horiz-adv-x="1837" 
d="M682 1556h328v-567q63 41 138 56.5t152 15.5q99 0 181 -38t141 -107.5t92 -166t33 -212.5q0 -125 -34 -226.5t-97.5 -174.5t-154.5 -112.5t-204 -39.5q-71 0 -135.5 13t-111.5 38v-334h153v-172h-491v172h151v354q-47 -39 -111.5 -58.5t-144.5 -19.5q-104 0 -192 37
t-150.5 106.5t-97.5 172t-35 235.5q0 119 35 217.5t98.5 169t152.5 108.5t200 38q71 0 130.5 -8.5t114.5 -36.5v368h-141v172zM1251 897q-69 0 -131.5 -21.5t-109.5 -68.5v-600q30 -29 88.5 -45.5t146.5 -16.5q62 0 118 24t98 71t67.5 119.5t25.5 170.5q0 88 -23.5 156
t-64.5 115t-96 71.5t-119 24.5v0zM594 139q82 0 139.5 22.5t89.5 57.5v617q-47 41 -109.5 51t-125.5 10q-64 0 -119 -24.5t-96 -71.5t-64.5 -115t-23.5 -156q0 -98 22.5 -171.5t64.5 -122t98 -73t124 -24.5v0z" />
    <glyph glyph-name="uni0445" unicode="&#x445;" horiz-adv-x="1085" 
d="M694 172h59l-206 256l-201 -256h51v-172h-344v172h84l315 367l-296 325h-105v172h344v-172h-39l191 -246l193 246h-50v172h344v-172h-89l-293 -338l310 -354h76v-172h-344v172z" />
    <glyph glyph-name="uni0446" unicode="&#x446;" horiz-adv-x="1401" 
d="M774 1036h491v-172h-147v-702h188v-449h-182v287h-1012v162h144v702h-146v172h492v-172h-158v-702h486v702h-156v172z" />
    <glyph glyph-name="uni0447" unicode="&#x447;" horiz-adv-x="1224" 
d="M10 1036h492v-172h-176v-96q0 -82 15 -131t46 -74.5t76 -34t104 -8.5q64 0 115 3t94 12v329h-153v172h491v-172h-149v-692h149v-172h-491v172h153v209q-47 -10 -102.5 -14.5t-116.5 -4.5q-86 0 -162 15.5t-133 57.5t-91 118t-34 197v114h-127v172z" />
    <glyph glyph-name="uni0448" unicode="&#x448;" horiz-adv-x="1982" 
d="M112 1036h492v-172h-162v-702h448v702h-151v172h491v-172h-151v-702h440v702h-141v172h491v-172h-161v-702h163v-162h-1761v162h144v702h-142v172z" />
    <glyph glyph-name="uni0449" unicode="&#x449;" horiz-adv-x="1997" 
d="M1378 1036h491v-172h-161v-702h194v-449h-182v287h-1610v162h144v702h-142v172h492v-172h-162v-702h448v702h-151v172h491v-172h-151v-702h440v702h-141v172z" />
    <glyph glyph-name="uni044A" unicode="&#x44a;" horiz-adv-x="1308" 
d="M300 172h145v692h-209v-143h-176v315h734v-172h-160v-190h215q80 0 148.5 -24.5t118.5 -68.5t79 -106.5t29 -138.5q0 -78 -29 -139.5t-79 -105.5t-117.5 -67.5t-143.5 -23.5h-555v172zM634 502v-330h229q72 0 122 42t50 122q0 82 -52 124t-126 42h-223z" />
    <glyph glyph-name="uni044B" unicode="&#x44b;" horiz-adv-x="1689" 
d="M110 1036h500v-172h-166v-190h215q80 0 148.5 -24.5t118.5 -68.5t78.5 -106.5t28.5 -138.5q0 -78 -28.5 -139.5t-78.5 -105.5t-117.5 -67.5t-143.5 -23.5h-555v172h145v692h-145v172zM444 502v-330h229q72 0 122 42t50 122q0 82 -52 124t-126 42h-223zM1087 1036h492
v-172h-156v-692h156v-172h-492v172h148v692h-148v172z" />
    <glyph glyph-name="uni044C" unicode="&#x44c;" horiz-adv-x="1117" 
d="M110 1036h500v-172h-166v-190h215q80 0 148.5 -24.5t118.5 -68.5t78.5 -106.5t28.5 -138.5q0 -78 -28.5 -139.5t-78.5 -105.5t-117.5 -67.5t-143.5 -23.5h-555v172h145v692h-145v172zM444 502v-330h229q72 0 122 42t50 122q0 82 -52 124t-126 42h-223z" />
    <glyph glyph-name="uni044D" unicode="&#x44d;" horiz-adv-x="1170" 
d="M315 625h572q-8 55 -33 106t-63.5 90t-93 61.5t-122.5 22.5q-100 0 -159.5 -41t-96.5 -104h-188v172h105q65 69 153 103t186 34q105 0 196 -41t158.5 -113.5t106.5 -174t39 -220.5q0 -121 -38 -221t-105.5 -173t-160.5 -114t-204 -41q-75 0 -143 19.5t-125 55.5t-102 87
t-76 115l153 76q21 -45 50.5 -79t66.5 -57.5t81 -35t93 -11.5q127 0 220.5 84t103.5 246h-574v154z" />
    <glyph glyph-name="uni044E" unicode="&#x44e;" horiz-adv-x="1690" 
d="M43 1036h467v-172h-113v-272h197q10 106 51 194t106.5 150.5t153.5 96.5t195 34q114 0 209.5 -39t164 -111.5t106.5 -173t38 -223.5t-37 -225t-104.5 -174t-162.5 -112t-214 -40q-107 0 -195 34t-153.5 95.5t-105.5 147.5t-50 192h-199v-266h123v-172h-467v172h156v692
h-166v172zM776 518q0 -90 25.5 -160.5t69.5 -122t103.5 -78t125.5 -26.5q67 0 126.5 26.5t103.5 77t69.5 122t25.5 161.5q0 94 -24.5 167t-68.5 122t-103.5 74.5t-128.5 25.5q-66 0 -125.5 -25.5t-103.5 -74.5t-69.5 -122t-25.5 -167v0z" />
    <glyph glyph-name="uni044F" unicode="&#x44f;" horiz-adv-x="1247" 
d="M664 172h147v270h-184q-90 0 -141.5 -38.5t-75.5 -124.5l-80 -279h-279v172h139l56 182q16 52 48 89.5t66 58.5q-43 14 -75.5 39.5t-56 58.5t-35 67.5t-11.5 69.5q0 115 52.5 176.5t139.5 88t200.5 29.5t236.5 3v2h295v-159h-107v-705h156v-172h-491v172zM367 739
q0 -69 58 -108t150 -39h236v285h-236q-104 0 -156 -34t-52 -104v0z" />
    <glyph glyph-name="uni2116" unicode="&#x2116;" horiz-adv-x="2540" 
d="M1077 1516h492v-173h-129v-1343h-256l-705 1257v-1085h156v-172h-492v172h140v1171h-136v175h400l700 -1250v1075h-170v173zM1708 631q0 78 26.5 144.5t75 114.5t116 75.5t147.5 27.5q79 0 147 -26.5t116 -74.5t74.5 -113.5t26.5 -145.5t-26.5 -146.5t-73.5 -114.5
t-115 -75t-149 -27q-82 0 -150 27t-115 75t-73.5 113.5t-26.5 145.5v0zM1782 172h590v-172h-590v172zM1860 631q0 -105 62.5 -166.5t150.5 -61.5q92 0 152.5 61.5t60.5 166.5q0 110 -60.5 168.5t-152.5 58.5q-88 0 -150.5 -58.5t-62.5 -168.5v0z" />
    <glyph glyph-name="cyr.dotlessi" horiz-adv-x="612" 
d="M61 1036h492v-172h-156v-692h156v-172h-492v172h148v692h-148v172z" />
    <glyph glyph-name="estimated" unicode="&#x212e;" horiz-adv-x="1671" 
d="M829 -31q-153 0 -286 46t-230.5 132t-154 209t-56.5 277q0 164 60.5 289t160 208.5t230.5 126.5t272 43q168 0 301.5 -49t227.5 -139t146 -217t59 -281h-1160q-12 0 -20 -5t-8 -27v-338q0 -29 32.5 -67t93 -71.5t144.5 -58t188 -24.5q146 0 268 58t195 150h133
q-131 -141 -275 -201.5t-321 -60.5v0zM825 1247q-86 0 -168 -18.5t-145 -47t-102 -65.5t-39 -76v-340q0 -32 30 -32h852q23 0 29 8t6 24v340q0 39 -43 77t-110.5 66.5t-149.5 46t-160 17.5v0z" />
    <glyph glyph-name="uni2126" unicode="&#x2126;" horiz-adv-x="1849" 
d="M1571 172v182h192v-354h-628v477q65 19 127.5 54.5t110.5 90t78 127t30 162.5q0 95 -42 179t-114 145t-166 97t-198 36q-105 0 -196 -36t-159.5 -97t-108.5 -145t-40 -179q0 -90 29.5 -162.5t77.5 -127t110.5 -90t128.5 -54.5v-477h-629v354h193v-182h243v203
q-43 14 -103.5 55t-117.5 107.5t-97 160t-40 211.5q0 133 55 250t150.5 203t224.5 136t276 50q148 0 280 -49t231.5 -135t156.5 -201.5t57 -249.5q0 -120 -39.5 -213.5t-96 -161t-117 -108.5t-103.5 -55v-203h244z" />
    <glyph glyph-name="uni2206" unicode="&#x2206;" horiz-adv-x="1464" 
d="M713 1583h55l645 -1534v-49h-1362v49zM1178 172l-443 1061l-446 -1061h889z" />
    <glyph glyph-name="summation" unicode="&#x2211;" horiz-adv-x="1522" 
d="M1157 70h197v-543h-1272v106l655 859l-639 921v103h1256v-533h-197v363h-776l588 -852l-611 -795h799v371z" />
    <glyph glyph-name="Gamma" unicode="&#x393;" horiz-adv-x="1229" 
d="M143 172h140v1180h-138v164h1072v-400h-205v236h-533v-1180h156v-172h-492v172z" />
    <glyph glyph-name="Ohm" horiz-adv-x="1849" 
d="M1571 172v182h192v-354h-628v477q65 19 127.5 54.5t110.5 90t78 127t30 162.5q0 95 -42 179t-114 145t-166 97t-198 36q-105 0 -196 -36t-159.5 -97t-108.5 -145t-40 -179q0 -90 29.5 -162.5t77.5 -127t110.5 -90t128.5 -54.5v-477h-629v354h193v-182h243v203
q-43 14 -103.5 55t-117.5 107.5t-97 160t-40 211.5q0 133 55 250t150.5 203t224.5 136t276 50q148 0 280 -49t231.5 -135t156.5 -201.5t57 -249.5q0 -120 -39.5 -213.5t-96 -161t-117 -108.5t-103.5 -55v-203h244z" />
    <glyph glyph-name="Pi" unicode="&#x3a0;" horiz-adv-x="1762" 
d="M145 1516h1473v-173h-143v-1171h143v-172h-491v172h151v1171h-795v-1171h152v-172h-492v172h144v1171h-142v173z" />
    <glyph glyph-name="product" unicode="&#x220f;" horiz-adv-x="1552" 
d="M139 1516h1352v-173h-148v-1642h148v-172h-492v172h148v1642h-664v-1642h148v-172h-492v172h148v1642h-148v173z" />
    <glyph glyph-name="pi" unicode="&#x3c0;" horiz-adv-x="1382" 
d="M1104 -16q-72 0 -127 18t-93 56t-57.5 97.5t-19.5 139.5v569h-371v-692h150v-172h-492v172h148v692h-150v172h1141v-172h-232v-536q0 -39 2.5 -72t12.5 -55.5t32.5 -35.5t63.5 -13q35 0 61.5 6t57.5 20l31 -160q-33 -16 -70 -25t-88 -9v0z" />
    <glyph glyph-name="radical" unicode="&#x221a;" horiz-adv-x="1362" 
d="M246 864h-183l-2 172h291l250 -606q19 -43 35 -86t31 -78q14 -39 28 -76h4q7 19 15 43q8 23 19 53.5t28 73.5l465 1156h162l-625 -1516h-146z" />
    <glyph glyph-name="integral" unicode="&#x222b;" horiz-adv-x="729" 
d="M426 -113q0 -90 -23.5 -157.5t-67.5 -111.5t-106.5 -66.5t-138.5 -22.5q-106 0 -169.5 18.5t-104.5 38.5l57 133q33 -16 84 -28.5t106 -12.5q84 0 131.5 51.5t47.5 151.5v1338q0 90 23.5 157.5t67.5 111.5t106.5 66.5t138.5 22.5q106 0 169.5 -18.5t104.5 -38.5l-57 -134
q-33 17 -84.5 29t-106.5 12q-84 0 -131 -51t-47 -151v-1338z" />
    <glyph glyph-name="infinity" unicode="&#x221e;" horiz-adv-x="1704" 
d="M535 373q-89 0 -163.5 32.5t-130 90t-87 134.5t-31.5 163q0 88 31.5 164.5t87 134t130 90t163.5 32.5q131 0 224 -64.5t159 -176.5q67 108 161.5 174.5t216.5 66.5q86 0 161 -33.5t129 -91t86 -134t32 -162.5t-32 -163t-86 -133.5t-129 -90t-161 -33.5q-131 0 -225 66.5
t-160 183.5q-65 -111 -156 -180.5t-220 -69.5v0zM1286 1053q-108 0 -182 -72t-111 -178q0 -6 4 -10q37 -113 110 -185.5t179 -72.5q51 0 97.5 20t81 56t54 82t19.5 100q0 55 -19.5 102t-54 83t-81 55.5t-97.5 19.5v0zM537 535q110 0 182 73.5t110 184.5l5 14
q-17 49 -46.5 93t-67.5 78t-85 54.5t-98 20.5q-54 0 -99 -19.5t-78.5 -55.5t-53 -83t-19.5 -102q0 -54 19.5 -100t53 -82t78.5 -56t99 -20v0z" />
    <glyph glyph-name="notequal" unicode="&#x2260;" horiz-adv-x="922" 
d="M86 784h377l98 265h148l-99 -265h226v-141h-279l-74 -197h353v-141h-406l-100 -246h-148l101 246h-197v141h250l74 197h-324v141z" />
    <glyph glyph-name="approxequal" unicode="&#x2248;" horiz-adv-x="1229" 
d="M141 357q45 84 106 130t150 46q58 0 119.5 -22.5t119.5 -49t109 -49t89 -22.5q43 0 86.5 34.5t93.5 117.5l73 -115q-45 -84 -105.5 -130t-150.5 -46q-39 0 -79 10.5t-80.5 26.5t-79 34.5t-74 34.5t-67 26.5t-56.5 10.5q-43 0 -86.5 -34t-93.5 -117zM141 690
q45 84 106 130t150 46q58 0 119.5 -22.5t119.5 -49t109 -49t89 -22.5q43 0 86.5 34.5t93.5 117.5l73 -115q-45 -84 -105.5 -130t-150.5 -46q-39 0 -79 10.5t-80.5 26.5t-79 34.5t-74 34.5t-67 26.5t-56.5 10.5q-43 0 -86.5 -34t-93.5 -117z" />
    <glyph glyph-name="multiply" unicode="&#xd7;" horiz-adv-x="1303" 
d="M525 676l-373 448l145 123l353 -422l341 408l160 -115l-373 -447l377 -450l-151 -119l-350 420l-355 -426l-166 111z" />
    <glyph glyph-name="divide" unicode="&#xf7;" horiz-adv-x="1126" 
d="M414 907q0 26 10.5 49.5t28 41t41.5 28t51 10.5q26 0 49.5 -10.5t41 -28t28 -41t10.5 -49.5q0 -27 -10.5 -51t-28 -42.5t-41 -29t-49.5 -10.5q-27 0 -51 10.5t-41.5 29t-28 42.5t-10.5 51zM414 121q0 26 10.5 49.5t28 41t41.5 28t51 10.5q26 0 49.5 -10.5t41 -28t28 -41
t10.5 -49.5q0 -27 -10.5 -51t-28 -42.5t-41 -29t-49.5 -10.5q-27 0 -51 10.5t-41.5 29t-28 42.5t-10.5 51zM51 614h1024v-162h-1024v162z" />
    <glyph glyph-name="lozenge" unicode="&#x25ca;" horiz-adv-x="1182" 
d="M102 793l439 770h100l438 -772l-448 -791h-94zM584 240l305 546l-305 541l-293 -536z" />
    <glyph glyph-name="plus" unicode="+" horiz-adv-x="1311" 
d="M143 791h420v419h182v-419h422v-183h-422v-422h-182v422h-420v183z" />
    <glyph glyph-name="plusminus" unicode="&#xb1;" horiz-adv-x="1229" 
d="M102 893h420v420h183v-420h421v-182h-421v-402h-183v402h-420v182zM102 162h1024v-162h-1024v162z" />
    <glyph glyph-name="minus" unicode="&#x2212;" horiz-adv-x="1075" 
d="M51 647h1024v-162h-1024v162z" />
    <glyph glyph-name="lessequal" unicode="&#x2264;" horiz-adv-x="918" 
d="M30 909l791 305v-143l-621 -217l621 -227v-142l-791 312v112zM30 446h750v-141h-750v141z" />
    <glyph glyph-name="greaterequal" unicode="&#x2265;" horiz-adv-x="918" 
d="M866 797l-791 -312v142l619 227l-619 217v143l791 -305v-112zM73 446h793v-141h-793v141z" />
    <glyph glyph-name="logicalnot" unicode="&#xac;" horiz-adv-x="1214" 
d="M1143 999v-567h-182v383h-912v184h1094z" />
    <glyph glyph-name="fraction" unicode="&#x2044;" horiz-adv-x="1401" 
d="M1233 1577h199l-1276 -1638h-199z" />
    <glyph glyph-name="onequarter" unicode="&#xbc;" horiz-adv-x="2036" 
d="M1276 1577h199l-1276 -1638h-199zM1080 303l280 457h148l-273 -455h183v164h135v-164h112v-110h-112v-195h-135v195h-336zM64 907h84v404l-129 -72v162l217 121h70v-615h81v-129h-323v129z" />
    <glyph glyph-name="onehalf" unicode="&#xbd;" horiz-adv-x="1925" 
d="M1276 1577h199l-1276 -1638h-199zM1039 121l274 276q34 31 55 64t21 65q0 35 -27 60.5t-73 25.5q-50 0 -78.5 -28.5t-28.5 -71.5h-145q0 56 20 100.5t54.5 75.5t81.5 47.5t100 16.5q51 0 97 -14.5t80.5 -43t54.5 -70t20 -94.5q0 -42 -19.5 -79t-54.5 -74l-229 -236h301
v-141h-504v121zM76 907h84v404l-129 -72v162l217 121h70v-615h82v-129h-324v129z" />
    <glyph glyph-name="threequarters" unicode="&#xbe;" horiz-adv-x="1935" 
d="M1337 1577h199l-1276 -1638h-199zM373 1309q0 15 -7 30.5t-20.5 29t-34 22t-47.5 8.5q-15 0 -33 -5t-33.5 -16.5t-25.5 -29t-10 -41.5h-150q1 47 20 88.5t52 72t79 48.5t101 18q56 0 104 -17.5t82.5 -47.5t54 -69.5t19.5 -82.5q0 -49 -21.5 -88.5t-62.5 -63.5
q19 -9 36 -24.5t30 -36.5t20.5 -46t7.5 -52q0 -48 -20.5 -91t-56.5 -75.5t-85 -51t-106 -18.5q-54 0 -102 16t-84.5 46t-58 72.5t-21.5 96.5h151q7 -45 37.5 -70.5t81.5 -25.5q24 0 44.5 8t36 22.5t24 33t8.5 39.5q0 43 -31.5 70.5t-85.5 27.5h-65v113h67q50 0 77.5 25.5
t27.5 64.5zM975 303l280 457h148l-273 -455h183v164h135v-164h112v-110h-112v-195h-135v195h-336z" />
    <glyph glyph-name="divisionslash" unicode="&#x2215;" horiz-adv-x="801" 
d="M758 1167h198l-960 -1228h-199z" />
    <glyph glyph-name="one.fract" horiz-adv-x="800" 
d="M399 907h84v404l-129 -72v162l217 121h70v-615h82v-129h-324v129z" />
    <glyph glyph-name="two.fract" horiz-adv-x="800" 
d="M164 121l274 276q35 31 55.5 64t20.5 65q0 35 -26.5 60.5t-73.5 25.5q-50 0 -78.5 -28.5t-28.5 -71.5h-145q0 55 20.5 100t55 76t80.5 47.5t100 16.5q51 0 97 -14.5t80 -43t54.5 -69.5t20.5 -95q0 -41 -19.5 -78.5t-54.5 -74.5l-230 -236h302v-141h-504v121z" />
    <glyph glyph-name="three.fract" horiz-adv-x="800" 
d="M521 1309q0 28 -28 59t-81 31q-31 0 -66.5 -21.5t-35.5 -70.5h-150q2 47 20.5 88t51.5 71.5t79 49t101 18.5t103.5 -17.5t83 -48t54 -69.5t19.5 -82q0 -47 -21.5 -87t-62.5 -65q39 -16 66.5 -60t27.5 -99q0 -50 -20.5 -92t-56 -74.5t-85 -51t-106.5 -18.5
q-53 0 -101 16.5t-85 46t-58.5 72.5t-21.5 96h151q7 -45 37.5 -70.5t81.5 -25.5q47 0 80 31t33 72q0 43 -32 70.5t-85 27.5h-65v113h67q49 0 77 25.5t28 64.5v0z" />
    <glyph glyph-name="four.fract" horiz-adv-x="800" 
d="M135 303l280 457h148l-273 -455h183v164h135v-164h112v-110h-112v-195h-135v195h-336z" />
    <glyph glyph-name="foursuperior" unicode="&#x2074;" horiz-adv-x="809" 
d="M115 1137l278 467h131l-268 -463h190v137l119 6v-143h115v-101h-115v-194h-119v194h-331v97z" />
    <glyph glyph-name="dagger" unicode="&#x2020;" horiz-adv-x="1126" 
d="M51 1036h416v477h197v-477h411v-172h-411v-1335h-197v1335h-416v172z" />
    <glyph glyph-name="daggerdbl" unicode="&#x2021;" horiz-adv-x="1126" 
d="M51 1036h416v477h197v-477h411v-172h-411v-694h411v-172h-411v-469h-197v469h-416v172h416v694h-416v172z" />
    <glyph glyph-name="paragraph" unicode="&#xb6;" horiz-adv-x="1274" 
d="M465 701q-93 6 -171 38.5t-134.5 85t-87.5 124t-31 155.5q0 102 35 179t100 129t156.5 78t204.5 26h598v-162h-80v-1723h-181v1723h-229v-1723h-180v1070z" />
    <glyph glyph-name="section" unicode="&#xa7;" horiz-adv-x="1094" 
d="M74 -25h237v-24q0 -55 18 -99t51.5 -75.5t81 -48.5t105.5 -17q104 0 162.5 54.5t58.5 150.5q0 53 -18.5 91t-47 64t-64.5 42.5t-70 27.5q-46 14 -91 28t-91 28q-64 19 -117.5 49t-92 73.5t-60 102t-21.5 135.5q0 103 48.5 187t141.5 136q-66 48 -107.5 125t-41.5 185
q0 78 27.5 143.5t81.5 113t133 74.5t182 27q82 0 149.5 -17.5t119.5 -49t87 -74.5t52 -94h65v-166h-232v56v0v0v0q-8 40 -32 71t-57.5 52.5t-74 32.5t-82.5 11q-57 0 -98.5 -12.5t-68.5 -35t-40.5 -53t-13.5 -67.5q0 -46 17.5 -79.5t45 -58t62 -41t68.5 -28.5
q77 -27 144 -51.5t122.5 -50.5t99 -56.5t73.5 -69.5t45.5 -88.5t15.5 -115.5q0 -106 -52.5 -191.5t-143.5 -139.5q70 -50 107 -123.5t37 -180.5q0 -86 -32.5 -159t-90.5 -126.5t-138 -83.5t-175 -30q-98 0 -169 23t-120 62t-79.5 90t-46.5 106h-70v165zM313 567
q0 -54 20.5 -87t52.5 -53.5t109 -44.5l104 -38q111 4 176 59.5t65 149.5q0 51 -22 86.5t-56.5 60t-76.5 40.5t-83 27q-21 -1 -27 -1q-65 0 -114 -15.5t-82 -42.5t-49.5 -63t-16.5 -78z" />
    <glyph glyph-name="currency" unicode="&#xa4;" horiz-adv-x="1128" 
d="M125 743q0 79 25.5 150t70.5 128l-147 177l145 123l149 -179q46 24 97.5 37t107.5 13q55 0 106 -13t97 -36l137 164l160 -115l-145 -174q45 -57 69.5 -127t24.5 -148q0 -77 -24 -146t-68 -126l147 -176l-151 -119l-143 171q-48 -25 -100.5 -38.5t-109.5 -13.5t-108.5 13
t-98.5 37l-145 -175l-166 111l164 190q-46 58 -70 126.5t-24 145.5zM295 748q0 -59 22 -110t60 -89t89 -60t109 -22t109.5 22t89.5 60t60 89t22 110q0 58 -22 109t-60 89t-89.5 60t-109.5 22t-109 -22t-89 -60t-60 -89t-22 -109z" />
    <glyph glyph-name="Euro" unicode="&#x20ac;" horiz-adv-x="1503" 
d="M1212 1116q-65 115 -166.5 178.5t-257.5 63.5q-92 0 -172.5 -30t-144 -83t-109 -125.5t-69.5 -158.5h608l-108 -187h-525q0 -31 3 -61.5t8 -59.5h622l-108 -186h-455q65 -135 181 -219t269 -84q86 0 156 20.5t126 62.5t102.5 103.5t84.5 143.5l181 -82
q-47 -99 -109.5 -178.5t-144.5 -137t-180.5 -89.5t-215.5 -32q-159 0 -292.5 62.5t-228.5 170t-148 250t-53 302.5t53 302t149.5 249.5t228.5 170t291 62.5q95 0 172.5 -17.5t143 -50t121 -78.5t108.5 -104h94v-178h-215z" />
    <glyph glyph-name="dollar" unicode="$" horiz-adv-x="1210" 
d="M516 -186v322q-99 16 -156.5 61t-90.5 106h-119v172h251v-11l2 1q0 -81 56 -123.5t166 -42.5q100 0 158.5 39t58.5 111q0 37 -19.5 62t-49 41.5t-65.5 26.5t-69 19l-176 47q-57 15 -105 39.5t-82.5 60.5t-53.5 85t-19 114q0 58 21 107.5t61 87.5t98.5 63t132.5 36v341
h197v-342q85 -15 147 -54t100 -93h101v-172h-209l-23 -3v3h-2v22q-10 65 -65 105t-146 40q-109 0 -166 -35.5t-57 -97.5q0 -42 18.5 -67t46.5 -40.5t61.5 -24t64.5 -17.5l174 -53q66 -20 118.5 -45.5t88.5 -59.5t55.5 -79.5t19.5 -106.5q0 -62 -23.5 -115.5t-66.5 -95.5
t-103.5 -71t-133.5 -41v-322h-197z" />
    <glyph glyph-name="yen" unicode="&#xa5;" horiz-adv-x="1354" 
d="M51 1516h492v-172h-145l286 -488l305 488h-157v172h492v-172h-129l-328 -496h184v-141h-283v-148h283v-141h-283v-246h156v-172h-492v172h139v246h-270v141h270v148h-270v141h178l-311 496h-117v172z" />
    <glyph glyph-name="sterling" unicode="&#xa3;" horiz-adv-x="932" 
d="M33 807h195q-26 69 -45 142t-19 155q0 78 27 143t76 112t117 73t151 26q74 0 136 -26.5t106 -73.5t66.5 -112t18.5 -142l-166 -10q-1 38 -11.5 74t-30.5 64t-49.5 45t-67.5 17q-43 0 -76 -12.5t-55.5 -34t-35 -50.5t-14.5 -62q-2 -25 0 -48.5t7 -49t14 -55.5t20 -67
q7 -27 15 -54l16 -54h279v-145h-234q14 -43 24.5 -81.5t18.5 -70.5q9 -38 4.5 -83t-22 -91t-48.5 -88.5t-76 -75.5h486v-168h-799v168h110q61 35 98 83.5t52 106t9.5 123t-29.5 133.5l-16 44h-252v145z" />
    <glyph glyph-name="cent" unicode="&#xa2;" horiz-adv-x="1210" 
d="M516 -186v329q-90 16 -164.5 62t-128 116.5t-83 162.5t-29.5 200q0 106 31 197t85 161.5t128 117.5t161 64v355h197v-356q68 -14 128 -45t108 -82h106v-172h-183l-4 -2q-1 0 -1 2h-1v1q-43 74 -107 109t-149 35q-65 0 -122 -27t-99.5 -77t-67 -121.5t-24.5 -159.5
q0 -87 24.5 -157t67.5 -119.5t99.5 -76t121.5 -26.5q96 0 167.5 46.5t113.5 135.5l153 -75q-49 -105 -134 -174.5t-197 -92.5v-331h-197z" />
    <glyph glyph-name="trademark" unicode="&#x2122;" horiz-adv-x="1732" 
d="M720 952h92v506h-92v121h295l166 -469l176 469h287v-121h-94v-506h94v-112h-297v112h70v385l-154 -385h-164l-153 389v-389h71v-112h-297v112zM176 952h81v506h-112v-74h-135v195h655v-195h-133v74h-139v-506h79v-112h-296v112z" />
    <glyph glyph-name="copyright" unicode="&#xa9;" horiz-adv-x="1919" 
d="M102 831q0 118 30.5 227.5t86 204.5t133.5 173t173 133.5t204.5 86t228.5 30.5q118 0 228 -30.5t205.5 -86t174 -133.5t134.5 -173t86.5 -204.5t30.5 -227.5q0 -119 -30.5 -228.5t-86.5 -204.5t-134.5 -173t-174 -133.5t-205.5 -86t-228 -30.5q-119 0 -228.5 30.5
t-204.5 86t-173 133.5t-133.5 173t-86 204.5t-30.5 228.5zM283 831q0 -142 52.5 -265.5t144 -215t214.5 -144t264 -52.5t263.5 52.5t215 144t145 215t52.5 265.5q0 140 -52.5 269.5t-145 215.5t-215 138.5t-263.5 52.5t-264 -52.5t-214.5 -138.5t-144 -215.5t-52.5 -269.5z
M1190 1059q-48 46 -100.5 67t-110.5 21q-64 0 -120 -24.5t-97.5 -67.5t-65.5 -100t-24 -121t24 -120t65.5 -98t97.5 -66t120 -24q56 0 108.5 22.5t83.5 57.5l134 -129q-23 -30 -59 -56.5t-79 -46t-91.5 -31t-96.5 -11.5q-105 0 -196.5 39t-159.5 107t-107 159.5t-39 196.5
q0 104 39 195.5t107 160t159.5 108t196.5 39.5q58 0 109.5 -12.5t96 -33t81 -47t65.5 -54.5z" />
    <glyph glyph-name="registered" unicode="&#xae;" horiz-adv-x="1919" 
d="M102 831q0 118 30.5 227.5t86 204.5t133.5 173t173 133.5t204.5 86t228.5 30.5q118 0 228 -30.5t205.5 -86t174 -133.5t134.5 -173t86.5 -204.5t30.5 -227.5q0 -119 -30.5 -228.5t-86.5 -204.5t-134.5 -173t-174 -133.5t-205.5 -86t-228 -30.5q-119 0 -228.5 30.5
t-204.5 86t-173 133.5t-133.5 173t-86 204.5t-30.5 228.5zM283 831q0 -142 52.5 -265.5t144 -215t214.5 -144t264 -52.5t263.5 52.5t215 144t145 215t52.5 265.5q0 94 -52.5 246.5t-145 238.5t-215 138.5t-263.5 52.5t-264 -52.5t-214.5 -138.5t-144 -215.5t-52.5 -269.5z
M555 518h98v670h-102v158h483q73 0 132 -21t100 -58t63.5 -87.5t22.5 -108.5q0 -49 -10 -87t-30.5 -67.5t-50.5 -51.5t-69 -39q31 -17 55.5 -52.5t36.5 -87.5l41 -168h82l2 -158h-256l-51 254q-14 84 -64 121t-129 37h-67v-254h92v-158h-379v158zM842 1188v-260h143
q74 0 118 30.5t44 98.5q0 62 -41.5 96.5t-128.5 34.5h-135z" />
    <glyph glyph-name="uni04B0" unicode="&#x4b0;" horiz-adv-x="1354" 
d="M831 1516h492v-173h-129l-422 -638v0h356v-173h-360v-360h156v-172h-492v172h139v360h-338v173h336v0l-401 638h-117v173h492v-173h-146l287 -487l305 487h-158v173z" />
    <glyph glyph-name="uni04B1" unicode="&#x4b1;" horiz-adv-x="1067" 
d="M702 1036h328v-172h-69l-336 -880h295v-172h-295v-281h-187v281h-297v172h297l-336 880h-63v172h328v-172h-86l254 -714l249 714h-82v172z" />
    <glyph glyph-name="uni0490" unicode="&#x490;" horiz-adv-x="1229" 
d="M143 172h140v1180h-138v164h848v266h197v-430h-711v-1180h156v-172h-492v172z" />
    <glyph glyph-name="uni0491" unicode="&#x491;" horiz-adv-x="1022" 
d="M92 172h152v700h-152v164h694v285h189v-449h-543v-700h152v-172h-492v172z" />
    <glyph glyph-name="uni040F" unicode="&#x40f;" horiz-adv-x="1782" 
d="M1147 1516h491v-173h-143v-1181h143v-162h-641v-348h-188v348h-666v162h144v1181h-144v173h492v-173h-152v-1181h815v1181h-151v173z" />
    <glyph glyph-name="uni045F" unicode="&#x45f;" horiz-adv-x="1374" 
d="M773 1036h491v-172h-147v-702h147v-162h-456v-348h-189v348h-509v162h145v702h-145v172h491v-172h-158v-702h486v702h-156v172z" />
    <glyph glyph-name="uni040A" unicode="&#x40a;" horiz-adv-x="2198" 
d="M145 1516h492v-173h-154v-462h678v462h-145v173h491v-173h-149v-460h293q106 0 193 -33t148.5 -90.5t95.5 -137t34 -171.5q0 -93 -35 -174.5t-98.5 -143t-149.5 -97.5t-190 -36h-658v172h170v539h-678v-539h152v-172h-492v172h144v1171h-142v173zM1358 711v-539h284
q125 0 199 75t74 193q0 56 -16.5 105t-51.5 86t-88 58.5t-125 21.5h-276z" />
    <glyph glyph-name="uni045A" unicode="&#x45a;" horiz-adv-x="1784" 
d="M776 172h146v330h-496v-330h158v-172h-492v172h146v692h-144v172h492v-172h-160v-190h496v190h-146v172h492v-172h-158v-190h215q80 0 148.5 -24.5t118.5 -68.5t79 -106.5t29 -138.5q0 -78 -29 -139.5t-79 -105.5t-117.5 -67.5t-143.5 -23.5h-555v172zM1110 502v-330h229
q72 0 122 42t50 122q0 82 -52 124t-126 42h-223z" />
    <glyph glyph-name="uni0459" unicode="&#x459;" horiz-adv-x="1686" 
d="M215 1036h959v-172h-162v-190h215q81 0 149.5 -24.5t118.5 -68.5t78.5 -106.5t28.5 -138.5q0 -77 -29 -139t-79 -106t-117 -67.5t-144 -23.5h-555v172h145v692h-293v-248q0 -124 -12 -218t-36.5 -162.5t-61.5 -114t-86 -73t-110 -39t-134 -11.5h-37v168q86 1 143 23
t91 76t48 145.5t15 230.5l2 223h-137v172zM1012 502v-330h229q35 0 66.5 10.5t55 31.5t37 51.5t13.5 70.5t-14 71t-38 52t-56.5 32t-69.5 11h-223z" />
    <glyph glyph-name="uni0409" unicode="&#x409;" horiz-adv-x="2186" 
d="M979 172h142v1171h-500v-591q0 -164 -27.5 -302.5t-80 -238.5t-130 -155.5t-178.5 -55.5h-174v311h189v-147q67 22 109 77.5t65.5 131.5t32 169t8.5 193v304.5v303.5h-170v173h1218v-173h-166v-460h322q106 0 193 -33t148.5 -90.5t95.5 -137t34 -171.5q0 -93 -35 -174.5
t-98.5 -143t-149.5 -97.5t-190 -36h-658v172zM1317 711v-539h209q84 0 153.5 11.5t119 41t77 81.5t27.5 134q0 56 -16.5 105t-51 86t-88 58.5t-125.5 21.5h-305z" />
    <glyph glyph-name="uni0454" unicode="&#x454;" horiz-adv-x="1116" 
d="M846 760q-41 74 -105.5 109.5t-150.5 35.5q-115 0 -200 -80t-107 -219h553v-151h-555q8 -74 35.5 -131.5t69.5 -98.5t93 -62.5t111 -21.5q47 0 89 11.5t78 35t64.5 57.5t48.5 79l154 -76q-31 -64 -75 -115t-99 -87t-121.5 -55.5t-140.5 -19.5q-109 0 -200 41t-157.5 114
t-103.5 173t-37 221q0 119 39 220.5t106.5 174t158.5 113.5t196 41q98 0 186 -34t154 -103h104v-172h-182q-2 0 -2 -1t-2 -1h-2v2v0z" />
    <glyph glyph-name="uni0404" unicode="&#x404;" horiz-adv-x="1503" 
d="M1212 1116q-65 115 -166.5 178.5t-257.5 63.5q-100 0 -186 -37t-151.5 -100.5t-109.5 -150.5t-62 -185h884v-170h-895q8 -113 49 -213.5t109 -175t160 -118.5t202 -44q86 0 156 20.5t126 62.5t102.5 103.5t84.5 143.5l181 -82q-47 -99 -109.5 -178.5t-144.5 -137
t-180.5 -89.5t-215.5 -32q-159 0 -292.5 62.5t-228.5 170t-148 250t-53 302.5t53 302t149.5 249.5t228.5 170t291 62.5q95 0 172.5 -17.5t143 -50t121 -78.5t108.5 -104h94v-178h-215z" />
    <glyph glyph-name="uni0402" unicode="&#x402;" horiz-adv-x="1761" 
d="M1663 453q0 -105 -35 -191t-97.5 -145.5t-150.5 -92t-194 -32.5h-21.5h-19.5v158q16 0 30.5 1t28.5 3q58 8 107 28.5t84 56t55 88t20 124.5q0 63 -25.5 117.5t-71.5 93t-108.5 60t-136.5 21.5q-118 0 -204.5 -24.5t-167.5 -51.5v-495h151v-172h-491v172h143v1180h-313
v-236h-205v400h1223v-400h-205v236h-303v-519q102 37 189 54.5t183 17.5q119 0 217.5 -33.5t169 -94t109.5 -143.5t39 -181v0z" />
    <glyph glyph-name="uni0452" unicode="&#x452;" horiz-adv-x="1300" 
d="M106 1556h328v-268h469v-151h-469v-215q68 57 146.5 95t173.5 38q166 0 264 -92.5t98 -294.5v-748q0 -178 -89 -282.5t-251 -108.5l-24 139q90 13 130 84.5t40 188.5v704q0 119 -60.5 180.5t-173.5 61.5q-65 0 -129.5 -31t-124.5 -76v-608h152v-172h-492v172h154v965
h-142v151h142v96h-142v172z" />
    <glyph glyph-name="uni040B" unicode="&#x40b;" horiz-adv-x="1843" 
d="M1276 172h158v322q0 81 -17.5 131.5t-54.5 78t-94.5 37t-134.5 9.5q-113 0 -201 -20.5t-176 -53.5v-504h151v-172h-491v172h143v1180h-313v-236h-205v400h1223v-400h-205v236h-303v-521q90 31 182 53.5t197 22.5q106 0 193 -16.5t148.5 -60.5t94.5 -120.5t33 -197.5v-340
h163v-172h-491v172z" />
    <glyph glyph-name="uni045B" unicode="&#x45b;" horiz-adv-x="1354" 
d="M106 1556h328v-268h469v-151h-469v-215q68 57 146.5 95t173.5 38q166 0 264 -92.5t98 -294.5v-496h156v-172h-492v172h142v473q0 119 -60.5 180.5t-173.5 61.5q-65 0 -129.5 -31t-124.5 -76v-608h150v-172h-492v172h156v965h-142v151h142v96h-142v172z" />
    <glyph glyph-name="Lslash" unicode="&#x141;" horiz-adv-x="1296" 
d="M143 1516h492v-173h-158v-557l561 304v-209l-561 -303v-406h522q33 0 62 26.5t29 59.5v191h196v-449h-1143v172h138v301l-138 -74v209l138 74v661h-138v173z" />
    <glyph glyph-name="lslash" unicode="&#x142;" horiz-adv-x="666" 
d="M92 1556h336v-231v-154v-229l162 150v-248l-162 -150v-522h156v-172h-492v172h150v348l-148 -135v248l148 135v616h-150v172z" />
    <glyph glyph-name="Aogonek" unicode="&#x104;" horiz-adv-x="1542" 
d="M10 172h131l473 1344h295l471 -1344h131v-172h-188q-51 0 -94 -16.5t-75 -44t-50.5 -63.5t-18.5 -75q0 -47 41 -80.5t101 -33.5q39 0 67.5 5t48.5 15l50 -151q-23 -13 -71 -27t-101 -14q-78 0 -136.5 22.5t-96.5 59t-56.5 84t-18.5 94.5q0 67 33 128.5t86 96.5v172h133
l-121 344h-581l-117 -344h156v-172h-492v172zM520 682h467l-235 678z" />
    <glyph glyph-name="aogonek" unicode="&#x105;" horiz-adv-x="1042" 
d="M940 0q-72 0 -119 -23.5t-74.5 -58.5t-40 -74t-12.5 -69q0 -54 32 -77.5t77 -23.5q35 0 61.5 6.5t48.5 16.5l52 -139q-11 -7 -31.5 -15t-45 -14t-51 -10t-51.5 -4q-73 0 -126.5 19.5t-87 51t-50 69.5t-16.5 75q0 14 2 48t19.5 72.5t55.5 78.5t109 71h-2v96
q-59 -53 -131 -89t-162 -36q-75 0 -138.5 23.5t-110 65.5t-72 97.5t-25.5 116.5q0 84 32 142.5t82 97.5t112.5 59.5t123.5 28.5q23 4 41.5 4h38.5q66 0 118 -5t93 -15v94q0 111 -60.5 163t-160.5 52q-94 0 -171 -23.5t-122 -52.5l-61 129q73 47 173.5 79t198.5 32
q91 0 162.5 -21.5t121.5 -66.5t77 -115t27 -166q0 -129 -1.5 -259t-1.5 -259h117v-172h-51zM438 127q74 0 143.5 34t108.5 77v239h-215q-53 0 -97 -12t-77 -34.5t-51.5 -57.5t-18.5 -78q0 -84 57.5 -126t149.5 -42v0z" />
    <glyph glyph-name="Eogonek" unicode="&#x118;" horiz-adv-x="1286" 
d="M143 1516h1086v-429h-205v256h-541v-485h455v-172h-455v-514h541v256h205v-428h-19q-129 -43 -197.5 -96.5t-68.5 -128.5q0 -41 31 -70t82 -29q39 0 73.5 6.5t55.5 16.5l43 -127q-27 -16 -74 -29.5t-104 -13.5q-62 0 -113 14.5t-88 41t-58.5 65.5t-21.5 90q0 86 45 150.5
t109 109.5h-781v172h144v1171h-144v173z" />
    <glyph glyph-name="eogonek" unicode="&#x119;" horiz-adv-x="1118" 
d="M899 49q-22 -12 -42.5 -25.5t-41.5 -27.5q-39 -27 -70.5 -54.5t-53 -55t-34 -55.5t-12.5 -56q0 -47 34 -73t95 -26q41 0 70.5 8.5t52.5 18.5l43 -127q-27 -16 -79 -31.5t-118 -15.5q-120 0 -196 54.5t-76 156.5q0 72 35 130t88 101h-16q-105 0 -194 35t-153.5 103.5
t-101.5 172t-37 240.5q0 111 31 209t92 172t152.5 117t212.5 43q145 0 232 -54.5t134 -137.5t61.5 -183t14.5 -194h-746q0 -86 26 -152t70 -110t104.5 -66.5t127.5 -22.5q80 0 157 22.5t161 70.5l75 -127q-6 -5 -12 -9l-12 -8t-12.5 -8t-12.5 -8q-12 -8 -24.5 -14.5
t-24.5 -12.5v0zM567 907q-65 0 -113 -18.5t-82 -53t-54.5 -85t-30.5 -111.5h536q-4 57 -18 106.5t-45 85t-78 56t-115 20.5v0z" />
    <glyph glyph-name="Iogonek" unicode="&#x12e;" horiz-adv-x="780" 
d="M145 1516h492v-173h-158v-1171h156v-172h-47q-39 -2 -81 -16.5t-76 -40t-56.5 -64.5t-22.5 -90q0 -53 31 -83t82 -30q39 0 73.5 6.5t55.5 16.5l43 -127q-27 -16 -74 -29.5t-104 -13.5q-123 0 -202 54.5t-79 156.5q0 90 43 153.5t105 106.5h-183v172h140v1171h-138v173z
" />
    <glyph glyph-name="iogonek" unicode="&#x12f;" horiz-adv-x="657" 
d="M59 1036h338v-864h156v-172h-72q-39 -2 -81 -16.5t-75.5 -40t-56 -64.5t-22.5 -90q0 -53 30.5 -83t81.5 -30q39 0 74 6.5t55 16.5l43 -127q-26 -16 -73 -29.5t-105 -13.5q-123 0 -201.5 54.5t-78.5 156.5q0 90 43 153.5t104 106.5h-158v172h148v692h-150v172z" />
    <glyph glyph-name="Uogonek" unicode="&#x172;" horiz-adv-x="1559" 
d="M1005 1516h491v-173h-135v-684q0 -192 -61.5 -331.5t-165.5 -225.5q-43 -43 -76 -78.5t-54.5 -69.5t-31.5 -69t-10 -75q0 -68 41 -101t92 -33q39 0 80 8.5t61 18.5l43 -123q-31 -16 -84 -33.5t-123 -17.5q-55 0 -106 14.5t-91 45t-63.5 77.5t-23.5 113q0 61 19.5 112.5
t53.5 94.5q-22 -4 -42.5 -5t-43.5 -1q-120 0 -225.5 45t-182.5 130t-121 207.5t-44 278.5v702h-139v173h491v-173h-155v-702q0 -129 28.5 -219t78.5 -146.5t121 -83t157 -26.5t157.5 24.5t121.5 81t78 147.5t28 222v702h-164v173z" />
    <glyph glyph-name="uogonek" unicode="&#x173;" horiz-adv-x="1198" 
d="M20 1036h334v-645q0 -119 54.5 -180t158.5 -61q60 0 128.5 21.5t127.5 61.5v631h-139v172h334v-864h115v-172h-19q-129 -43 -197.5 -96.5t-68.5 -128.5q0 -41 30.5 -70t82.5 -29q38 0 73 6.5t56 16.5l43 -127q-27 -16 -74 -29.5t-105 -13.5q-24 0 -46.5 2t-45.5 6
q-43 8 -77.5 26.5t-59.5 44t-38 58.5t-13 74q0 86 46 151.5t111 110.5v0v94q-71 -53 -153 -83.5t-176 -30.5q-92 0 -157.5 27.5t-106.5 85t-59.5 145.5t-18.5 211v413h-140v172z" />
    <glyph glyph-name="NOBREAKSPACE" unicode="&#xa0;" horiz-adv-x="449" 
 />
    <glyph glyph-name="uni2113" unicode="&#x2113;" horiz-adv-x="977" 
d="M426 332q0 -101 44 -152t128 -51q55 0 96 20.5t74 36.5l57 -133q-20 -10 -42.5 -22.5t-51.5 -23.5t-67.5 -19t-92.5 -8q-92 0 -155.5 27.5t-102.5 82.5t-55 139t-16 197l-74 -68l-105 140l179 172v229q0 129 26.5 249t79.5 212t131 147.5t180 55.5q60 0 104 -20.5
t73.5 -56.5t44 -83t14.5 -100q0 -89 -22.5 -163.5t-66.5 -144t-109.5 -139.5t-153.5 -147l-117 -111v-266zM473 893q59 57 101 105.5t69 91.5t41 81.5t18 77.5q3 15 3 27v27q0 47 -24 61t-46 14q-49 0 -88 -41t-65.5 -111.5t-41 -167.5t-14.5 -210z" />
    <glyph glyph-name="florin" unicode="&#x192;" horiz-adv-x="729" 
d="M223 1036h199l29 162q16 90 52 157.5t88 111.5t117.5 66.5t141.5 22.5q106 0 166.5 -18t97.5 -39l-82 -133q-28 16 -77.5 28.5t-104.5 12.5q-84 0 -140.5 -51t-74.5 -152l-29 -168h242l-27 -151h-241l-174 -998q-17 -90 -52 -157.5t-87 -111.5t-118.5 -66.5t-142.5 -22.5
q-106 0 -166.5 18.5t-97.5 38.5l82 133q29 -16 78 -28.5t104 -12.5q84 0 140.5 51.5t74.5 151.5l174 1004h-198z" />
    <glyph glyph-name="partialdiff" unicode="&#x2202;" horiz-adv-x="1245" 
d="M430 1524l349 -571.896q-50 19.9971 -91 26.9951q-41 6.99902 -88 6.99902q-88 0 -182.5 -34.4941q-94.5 -34.4932 -161 -96.9814q-66.5 -62.4893 -110 -153.973q-43.5 -91.4824 -43.5 -185.466q0 -126.977 43 -225.958q43 -98.9824 116 -166.97t169.5 -103.481
q96.5 -35.4932 204.5 -35.4932t201.5 35.9932q93.5 35.9941 166.5 103.481t114.5 160.971q41.5 93.4824 41.5 207.462q0 87.9834 -33.5 173.968t-83.5 179.967l-380 678.876h-233zM631 157.25q-68 0 -130 23.9961q-62 23.9951 -109 67.9873t-75 104.98
q-28 60.9893 -28 134.976q0 81.9854 30 144.474t80.5 104.48q50.5 41.9932 113 62.9893t125.5 20.9961q92 0 142.5 -22.4961t95.5 -62.9883q45 -40.4932 71 -102.981t26 -144.474q0 -77.9854 -26 -139.975q-26 -61.9883 -72 -104.48t-108.5 -64.9883t-135.5 -22.4961z" />
    <glyph glyph-name="Agrave" unicode="&#xc0;" horiz-adv-x="1542" 
d="M1040 172h126l-120 344h-583l-117 -344h156v-172h-492v172h132l472 1344h295l471 -1344h152v-172h-492v172zM520 682h468l-236 678zM682 1657l-287 282v17h248l184 -299h-145z" />
    <glyph glyph-name="agrave" unicode="&#xe0;" horiz-adv-x="1120" 
d="M709 96q-59 -55 -130.5 -90t-162.5 -35q-76 0 -139.5 24t-109.5 65.5t-71.5 96.5t-25.5 117q0 66 19.5 117t52 88.5t76 63t91 41t97 22t94.5 6.5q72 0 121 -4.5t89 -12.5l1 85q0 55 -16 95.5t-45 67t-69.5 39.5t-90.5 13q-47 0 -90 -6.5t-80.5 -17t-69 -24t-53.5 -28.5
l-61 129q37 24 81 44.5t92.5 35t99 23t99.5 8.5q90 0 162 -21.5t122 -66.5t77 -114.5t27 -166.5l-1 -518h115v-172h-301v96zM457 127q37 0 74 9t70 24.5t61 36t47 42.5l1 234h-216q-54 0 -98.5 -12t-77 -35t-50.5 -57t-18 -78q0 -41 15 -71.5t42.5 -51t65.5 -31t84 -10.5z
M446 1178l-287 282v17h248l184 -299h-145z" />
    <glyph glyph-name="Aacute" unicode="&#xc1;" horiz-adv-x="1542" 
d="M1040 172h126l-120 344h-583l-117 -344h156v-172h-492v172h132l472 1344h295l471 -1344h152v-172h-492v172zM520 682h468l-236 678zM829 1956h240v-17l-299 -282h-154z" />
    <glyph glyph-name="aacute" unicode="&#xe1;" horiz-adv-x="1120" 
d="M709 96q-59 -55 -130.5 -90t-162.5 -35q-76 0 -139.5 24t-109.5 65.5t-71.5 96.5t-25.5 117q0 66 19.5 117t52 88.5t76 63t91 41t97 22t94.5 6.5q72 0 121 -4.5t89 -12.5l1 85q0 55 -16 95.5t-45 67t-69.5 39.5t-90.5 13q-47 0 -90 -6.5t-80.5 -17t-69 -24t-53.5 -28.5
l-61 129q37 24 81 44.5t92.5 35t99 23t99.5 8.5q90 0 162 -21.5t122 -66.5t77 -114.5t27 -166.5l-1 -518h115v-172h-301v96zM457 127q37 0 74 9t70 24.5t61 36t47 42.5l1 234h-216q-54 0 -98.5 -12t-77 -35t-50.5 -57t-18 -78q0 -41 15 -71.5t42.5 -51t65.5 -31t84 -10.5z
M594 1477h240v-17l-299 -282h-154z" />
    <glyph glyph-name="Acircumflex" unicode="&#xc2;" horiz-adv-x="1542" 
d="M1040 172h126l-120 344h-583l-117 -344h156v-172h-492v172h132l472 1344h295l471 -1344h152v-172h-492v172zM520 682h468l-236 678zM498 1655l250 313h63l252 -313h-149l-133 155l-135 -155h-148z" />
    <glyph glyph-name="acircumflex" unicode="&#xe2;" horiz-adv-x="1120" 
d="M709 96q-59 -55 -130.5 -90t-162.5 -35q-76 0 -139.5 24t-109.5 65.5t-71.5 96.5t-25.5 117q0 66 19.5 117t52 88.5t76 63t91 41t97 22t94.5 6.5q72 0 121 -4.5t89 -12.5l1 85q0 55 -16 95.5t-45 67t-69.5 39.5t-90.5 13q-47 0 -90 -6.5t-80.5 -17t-69 -24t-53.5 -28.5
l-61 129q37 24 81 44.5t92.5 35t99 23t99.5 8.5q90 0 162 -21.5t122 -66.5t77 -114.5t27 -166.5l-1 -518h115v-172h-301v96zM457 127q37 0 74 9t70 24.5t61 36t47 42.5l1 234h-216q-54 0 -98.5 -12t-77 -35t-50.5 -57t-18 -78q0 -41 15 -71.5t42.5 -51t65.5 -31t84 -10.5z
M262 1176l250 313h63l252 -313h-149l-133 155l-135 -155h-148z" />
    <glyph glyph-name="Atilde" unicode="&#xc3;" horiz-adv-x="1542" 
d="M1040 172h126l-120 344h-583l-117 -344h156v-172h-492v172h132l472 1344h295l471 -1344h152v-172h-492v172zM520 682h468l-236 678zM626 1894q50 0 86.5 -16.5t68 -36t62.5 -35.5t70 -16q28 0 54.5 19t35.5 61l119 -35q-20 -85 -78 -131.5t-139 -46.5q-56 0 -95 15.5
t-71 33.5t-60 33.5t-61 15.5q-15 0 -30.5 -2t-30.5 -9.5t-27.5 -23t-19.5 -43.5l-109 53q13 47 37 78.5t54 50.5t64.5 27t69.5 8z" />
    <glyph glyph-name="atilde" unicode="&#xe3;" horiz-adv-x="1120" 
d="M709 96q-59 -55 -130.5 -90t-162.5 -35q-76 0 -139.5 24t-109.5 65.5t-71.5 96.5t-25.5 117q0 66 19.5 117t52 88.5t76 63t91 41t97 22t94.5 6.5q72 0 121 -4.5t89 -12.5l1 85q0 55 -16 95.5t-45 67t-69.5 39.5t-90.5 13q-47 0 -90 -6.5t-80.5 -17t-69 -24t-53.5 -28.5
l-61 129q37 24 81 44.5t92.5 35t99 23t99.5 8.5q90 0 162 -21.5t122 -66.5t77 -114.5t27 -166.5l-1 -518h115v-172h-301v96zM457 127q37 0 74 9t70 24.5t61 36t47 42.5l1 234h-216q-54 0 -98.5 -12t-77 -35t-50.5 -57t-18 -78q0 -41 15 -71.5t42.5 -51t65.5 -31t84 -10.5z
M391 1415q50 0 86.5 -16.5t68 -36t62.5 -35.5t70 -16q28 0 54.5 19t35.5 61l119 -35q-20 -85 -78 -131.5t-139 -46.5q-56 0 -95 15.5t-71 33.5t-60 33.5t-61 15.5q-15 0 -30.5 -2t-30.5 -9.5t-27.5 -23t-19.5 -43.5l-109 53q13 47 37 78.5t54 50.5t64.5 27t69.5 8z" />
    <glyph glyph-name="Adieresis" unicode="&#xc4;" horiz-adv-x="1542" 
d="M1040 172h126l-120 344h-583l-117 -344h156v-172h-492v172h132l472 1344h295l471 -1344h152v-172h-492v172zM520 682h468l-236 678zM383 1839q0 26 10.5 49.5t28 41t41 28t49.5 10.5q25 0 48 -10.5t40 -28t27 -41t10 -49.5q0 -27 -10 -51t-27 -42.5t-40 -29t-48 -10.5
q-26 0 -49.5 10.5t-41 29t-28 42.5t-10.5 51zM842 1839q0 26 10.5 49.5t28 41t41 28t49.5 10.5q25 0 47.5 -10.5t40 -28t27.5 -41t10 -49.5q0 -27 -10 -51t-27.5 -42.5t-40 -29t-47.5 -10.5q-26 0 -49.5 10.5t-41 29t-28 42.5t-10.5 51z" />
    <glyph glyph-name="adieresis" unicode="&#xe4;" horiz-adv-x="1120" 
d="M709 96q-59 -55 -130.5 -90t-162.5 -35q-76 0 -139.5 24t-109.5 65.5t-71.5 96.5t-25.5 117q0 66 19.5 117t52 88.5t76 63t91 41t97 22t94.5 6.5q72 0 121 -4.5t89 -12.5l1 85q0 55 -16 95.5t-45 67t-69.5 39.5t-90.5 13q-47 0 -90 -6.5t-80.5 -17t-69 -24t-53.5 -28.5
l-61 129q37 24 81 44.5t92.5 35t99 23t99.5 8.5q90 0 162 -21.5t122 -66.5t77 -114.5t27 -166.5l-1 -518h115v-172h-301v96zM457 127q37 0 74 9t70 24.5t61 36t47 42.5l1 234h-216q-54 0 -98.5 -12t-77 -35t-50.5 -57t-18 -78q0 -41 15 -71.5t42.5 -51t65.5 -31t84 -10.5z
M148 1360q0 26 10.5 49.5t28 41t41 28t49.5 10.5q25 0 48 -10.5t40 -28t27 -41t10 -49.5q0 -27 -10 -51t-27 -42.5t-40 -29t-48 -10.5q-26 0 -49.5 10.5t-41 29t-28 42.5t-10.5 51zM607 1360q0 26 10.5 49.5t28 41t41 28t49.5 10.5q25 0 47.5 -10.5t40 -28t27.5 -41
t10 -49.5q0 -27 -10 -51t-27.5 -42.5t-40 -29t-47.5 -10.5q-26 0 -49.5 10.5t-41 29t-28 42.5t-10.5 51z" />
    <glyph glyph-name="Amacron" unicode="&#x100;" horiz-adv-x="1542" 
d="M1040 172h126l-120 344h-583l-117 -344h156v-172h-492v172h132l472 1344h295l471 -1344h152v-172h-492v172zM520 682h468l-236 678zM1110 1708h-758v117h758v-117z" />
    <glyph glyph-name="amacron" unicode="&#x101;" horiz-adv-x="1120" 
d="M709 96q-59 -55 -130.5 -90t-162.5 -35q-76 0 -139.5 24t-109.5 65.5t-71.5 96.5t-25.5 117q0 66 19.5 117t52 88.5t76 63t91 41t97 22t94.5 6.5q72 0 121 -4.5t89 -12.5l1 85q0 55 -16 95.5t-45 67t-69.5 39.5t-90.5 13q-47 0 -90 -6.5t-80.5 -17t-69 -24t-53.5 -28.5
l-61 129q37 24 81 44.5t92.5 35t99 23t99.5 8.5q90 0 162 -21.5t122 -66.5t77 -114.5t27 -166.5l-1 -518h115v-172h-301v96zM457 127q37 0 74 9t70 24.5t61 36t47 42.5l1 234h-216q-54 0 -98.5 -12t-77 -35t-50.5 -57t-18 -78q0 -41 15 -71.5t42.5 -51t65.5 -31t84 -10.5z
M875 1229h-758v117h758v-117z" />
    <glyph glyph-name="Abreve" unicode="&#x102;" horiz-adv-x="1542" 
d="M1040 172h126l-120 344h-583l-117 -344h156v-172h-492v172h132l472 1344h295l471 -1344h152v-172h-492v172zM520 682h468l-236 678zM768 1628q-76 0 -141.5 25t-115 69t-79 104.5t-32.5 131.5h121q1 -43 20 -82t52 -68.5t78 -47t97 -17.5t97 17t78 46.5t52 68.5t21 83
h121q-3 -71 -33 -131.5t-79.5 -104.5t-115.5 -69t-141 -25z" />
    <glyph glyph-name="abreve" unicode="&#x103;" horiz-adv-x="1120" 
d="M709 96q-59 -55 -130.5 -90t-162.5 -35q-76 0 -139.5 24t-109.5 65.5t-71.5 96.5t-25.5 117q0 66 19.5 117t52 88.5t76 63t91 41t97 22t94.5 6.5q72 0 121 -4.5t89 -12.5l1 85q0 55 -16 95.5t-45 67t-69.5 39.5t-90.5 13q-47 0 -90 -6.5t-80.5 -17t-69 -24t-53.5 -28.5
l-61 129q37 24 81 44.5t92.5 35t99 23t99.5 8.5q90 0 162 -21.5t122 -66.5t77 -114.5t27 -166.5l-1 -518h115v-172h-301v96zM457 127q37 0 74 9t70 24.5t61 36t47 42.5l1 234h-216q-54 0 -98.5 -12t-77 -35t-50.5 -57t-18 -78q0 -41 15 -71.5t42.5 -51t65.5 -31t84 -10.5z
M532 1149q-76 0 -141.5 25t-115 69t-79 104.5t-32.5 131.5h121q1 -43 20 -82t52 -68.5t78 -47t97 -17.5t97 17t78 46.5t52 68.5t21 83h121q-3 -71 -33 -131.5t-79.5 -104.5t-115.5 -69t-141 -25z" />
    <glyph glyph-name="Aring" unicode="&#xc5;" horiz-adv-x="1542" 
d="M1040 172h125l-121 344h-581l-117 -344h156v-172h-492v172h131l463 1317q-47 35 -73.5 88t-26.5 115q0 51 20.5 98t55 82t81 55.5t99.5 20.5q51 0 98 -20.5t82 -55.5t55.5 -82t20.5 -98q0 -60 -26.5 -113t-71.5 -88l462 -1319h152v-172h-492v172zM520 682h467l-235 678z
M655 1692q0 -41 32 -73t73 -32t72.5 32t31.5 73t-31.5 72.5t-72.5 31.5t-73 -31.5t-32 -72.5v0z" />
    <glyph glyph-name="aring" unicode="&#xe5;" horiz-adv-x="1120" 
d="M709 96q-59 -55 -130.5 -90t-162.5 -35q-76 0 -139.5 24t-109.5 65.5t-71.5 96.5t-25.5 117q0 66 19.5 117t52 88.5t76 63t91 41t97 22t94.5 6.5q72 0 121 -4.5t89 -12.5l1 85q0 55 -16 95.5t-45 67t-69.5 39.5t-90.5 13q-47 0 -90 -6.5t-80.5 -17t-69 -24t-53.5 -28.5
l-61 129q37 24 81 44.5t92.5 35t99 23t99.5 8.5q90 0 162 -21.5t122 -66.5t77 -114.5t27 -166.5l-1 -518h115v-172h-301v96zM457 127q37 0 74 9t70 24.5t61 36t47 42.5l1 234h-216q-54 0 -98.5 -12t-77 -35t-50.5 -57t-18 -78q0 -41 15 -71.5t42.5 -51t65.5 -31t84 -10.5z
M421 1343q0 -21 8.5 -39.5t23 -33t33 -23t39.5 -8.5t40 8.5t33.5 23t23 33t8.5 39.5t-8.5 40t-23 33.5t-33.5 23t-40 8.5t-39.5 -8.5t-33 -23t-23 -33.5t-8.5 -40zM525 1599q52 0 99 -20.5t81.5 -55t55 -81.5t20.5 -99t-20.5 -98.5t-55 -81.5t-81.5 -55.5t-99 -20.5
t-98.5 20.5t-81.5 55.5t-55.5 81.5t-20.5 98.5t20.5 99t55.5 81.5t81.5 55t98.5 20.5z" />
    <glyph glyph-name="Ccedilla" unicode="&#xc7;" horiz-adv-x="1503" 
d="M1219 1116q-67 114 -177.5 179t-246.5 65q-116 0 -212 -49t-164.5 -131.5t-106.5 -191t-38 -228.5q0 -142 42 -251.5t109.5 -182t160.5 -121t209 -48.5q158 0 275 76.5t200 251.5l176 -83q-38 -108 -129 -208.5t-224.5 -162t-295.5 -61.5q-155 0 -285 58.5t-231.5 166.5
t-155 256t-53.5 309q0 162 53.5 306t150 250.5t230 168t289.5 61.5q139 0 240 -39.5t171.5 -94t121.5 -118.5h106v-178h-215zM510 -303q55 1 99.5 19.5t78 48.5t55 70.5t29.5 86.5l150 -45q-18 -73 -56 -130.5t-90.5 -97t-117.5 -60.5t-137 -21z" />
    <glyph glyph-name="ccedilla" unicode="&#xe7;" horiz-adv-x="1116" 
d="M848 760q-42 75 -106.5 110t-149.5 35q-65 0 -122 -27t-99.5 -77t-67 -121.5t-24.5 -159.5q0 -87 24.5 -157t67.5 -119.5t99.5 -76t121.5 -26.5q96 0 167 46.5t113 136.5l154 -76q-30 -64 -74 -115t-99.5 -87t-122 -55.5t-140.5 -19.5q-108 0 -199.5 40.5t-158 113.5
t-103.5 174t-37 221t39 221t107 173.5t159 113.5t195 41q98 0 185.5 -34t153.5 -103h105v-172h-188zM323 -303q55 1 99.5 19.5t78 48.5t55 70.5t29.5 86.5l150 -45q-18 -73 -56 -130.5t-90.5 -97t-117.5 -60.5t-137 -21z" />
    <glyph glyph-name="Cacute" unicode="&#x106;" horiz-adv-x="1503" 
d="M1219 1116q-67 114 -177.5 179t-246.5 65q-116 0 -212 -49t-164.5 -131.5t-106.5 -191t-38 -228.5q0 -142 42 -251.5t109.5 -182t160.5 -121t209 -48.5q158 0 275 76.5t200 251.5l176 -83q-38 -108 -129 -208.5t-224.5 -162t-295.5 -61.5q-155 0 -285 58.5t-231.5 166.5
t-155 256t-53.5 309q0 162 53.5 306t150 250.5t230 168t289.5 61.5q139 0 240 -39.5t171.5 -94t121.5 -118.5h106v-178h-215zM856 1956h240v-17l-299 -282h-154z" />
    <glyph glyph-name="cacute" unicode="&#x107;" horiz-adv-x="1116" 
d="M848 760q-42 75 -106.5 110t-149.5 35q-65 0 -122 -27t-99.5 -77t-67 -121.5t-24.5 -159.5q0 -87 24.5 -157t67.5 -119.5t99.5 -76t121.5 -26.5q96 0 167 46.5t113 136.5l154 -76q-30 -64 -74 -115t-99.5 -87t-122 -55.5t-140.5 -19.5q-108 0 -199.5 40.5t-158 113.5
t-103.5 174t-37 221t39 221t107 173.5t159 113.5t195 41q98 0 185.5 -34t153.5 -103h105v-172h-188zM684 1477h240v-17l-299 -282h-154z" />
    <glyph glyph-name="Ccaron" unicode="&#x10c;" horiz-adv-x="1503" 
d="M1219 1116q-67 114 -177.5 179t-246.5 65q-116 0 -212 -49t-164.5 -131.5t-106.5 -191t-38 -228.5q0 -142 42 -251.5t109.5 -182t160.5 -121t209 -48.5q158 0 275 76.5t200 251.5l176 -83q-38 -108 -129 -208.5t-224.5 -162t-295.5 -61.5q-155 0 -285 58.5t-231.5 166.5
t-155 256t-53.5 309q0 162 53.5 306t150 250.5t230 168t289.5 61.5q139 0 240 -39.5t171.5 -94t121.5 -118.5h106v-178h-215zM1075 1967l-252 -353h-49l-252 353h144l133 -196l135 196h141z" />
    <glyph glyph-name="ccaron" unicode="&#x10d;" horiz-adv-x="1116" 
d="M848 760q-42 75 -106.5 110t-149.5 35q-65 0 -122 -27t-99.5 -77t-67 -121.5t-24.5 -159.5q0 -87 24.5 -157t67.5 -119.5t99.5 -76t121.5 -26.5q96 0 167 46.5t113 136.5l154 -76q-30 -64 -74 -115t-99.5 -87t-122 -55.5t-140.5 -19.5q-108 0 -199.5 40.5t-158 113.5
t-103.5 174t-37 221t39 221t107 173.5t159 113.5t195 41q98 0 185.5 -34t153.5 -103h105v-172h-188zM903 1488l-252 -353h-49l-252 353h144l133 -196l135 196h141z" />
    <glyph glyph-name="Dcroat" unicode="&#x110;" horiz-adv-x="1516" 
d="M139 1516h576q155 0 288.5 -59.5t231.5 -161t153.5 -239.5t55.5 -294q0 -158 -55.5 -297t-153.5 -242.5t-231.5 -163t-288.5 -59.5h-576v172h156v504h-168v172h168v495h-156v173zM492 676v-504h235q104 0 197.5 46t162 126t108.5 187.5t40 230.5t-40 228.5t-108.5 184
t-162 123.5t-197.5 45h-235v-495h186v-172h-186z" />
    <glyph glyph-name="dcroat" unicode="&#x111;" horiz-adv-x="1268" 
d="M1038 1120v-948h152v-172h-338v84q-49 -49 -115.5 -78t-150.5 -29q-105 0 -196 37t-156.5 106.5t-103.5 172t-38 235.5q0 119 36 217.5t102.5 169t158.5 108.5t207 38q76 0 137.5 -16.5t118.5 -57.5v133h-195v172h195v92h-141v172h327v-264h152v-172h-152zM610 139
q88 0 147.5 30t94.5 69v579q-49 41 -114.5 60.5t-133.5 19.5q-65 0 -123.5 -24.5t-101.5 -71.5t-68.5 -115t-25.5 -156q0 -96 24.5 -168.5t67.5 -122t102.5 -75t130.5 -25.5v0z" />
    <glyph glyph-name="Dcaron" unicode="&#x10e;" horiz-adv-x="1520" 
d="M143 1516h564q104 0 198 -27t175 -76t147 -117.5t112.5 -152.5t71.5 -180.5t25 -200.5q0 -106 -25 -203t-71.5 -182t-112.5 -154.5t-147 -119t-175 -76.5t-198 -27h-564v172h144v1171h-144v173zM483 1343v-1171h236q105 0 197.5 46t161.5 125.5t109 187t40 231.5
q0 122 -40 228t-109 184.5t-161.5 123.5t-197.5 45h-236zM926 1885l-252 -353h-49l-252 353h144l133 -196l135 196h141z" />
    <glyph glyph-name="dcaron" unicode="&#x10f;" horiz-adv-x="1395" 
d="M711 1556h327v-1384h152v-172h-338v85q-50 -51 -116 -79.5t-150 -28.5q-105 0 -195.5 36.5t-157 107t-104 173t-37.5 234.5q0 120 36 218.5t102 168t159 108t207 38.5q75 0 137 -16.5t119 -57.5v397h-141v172zM610 139q83 0 139 24.5t103 73.5v580q-50 42 -115 61
t-133 19q-66 0 -124 -24.5t-101.5 -71.5t-68.5 -115t-25 -156q0 -96 24 -169t67 -122.5t103 -74.5t131 -25zM1339 1059h-149v518l197 16z" />
    <glyph glyph-name="Egrave" unicode="&#xc8;" horiz-adv-x="1286" 
d="M143 1516h1086v-429h-205v256h-541v-485h455v-172h-455v-514h541v256h205v-428h-1086v172h144v1171h-144v173zM651 1657l-287 282v17h248l184 -299h-145z" />
    <glyph glyph-name="egrave" unicode="&#xe8;" 
d="M276 494q0 -44 6.5 -80.5t18.5 -69.5q37 -100 118.5 -150.5t184.5 -50.5q81 0 157.5 22.5t160.5 70.5l75 -127q-102 -70 -205 -104t-214 -34q-105 0 -194.5 35t-154 104t-101 172t-36.5 240q0 111 31 209.5t92.5 172t152.5 116.5t212 43q117 0 195.5 -35.5t128 -94
t75 -133.5t35.5 -153q5 -38 6.5 -77t1.5 -76h-746zM567 907q-65 0 -113.5 -18.5t-82.5 -53t-54.5 -84.5t-30.5 -112h537q-4 58 -18.5 107t-44.5 85t-77 56t-116 20zM506 1178l-287 282v17h248l184 -299h-145z" />
    <glyph glyph-name="Eacute" unicode="&#xc9;" horiz-adv-x="1286" 
d="M143 1516h1086v-429h-205v256h-541v-485h455v-172h-455v-514h541v256h205v-428h-1086v172h144v1171h-144v173zM799 1956h240v-17l-299 -282h-154z" />
    <glyph glyph-name="eacute" unicode="&#xe9;" 
d="M276 494q0 -44 6.5 -80.5t18.5 -69.5q37 -100 118.5 -150.5t184.5 -50.5q81 0 157.5 22.5t160.5 70.5l75 -127q-102 -70 -205 -104t-214 -34q-105 0 -194.5 35t-154 104t-101 172t-36.5 240q0 111 31 209.5t92.5 172t152.5 116.5t212 43q117 0 195.5 -35.5t128 -94
t75 -133.5t35.5 -153q5 -38 6.5 -77t1.5 -76h-746zM567 907q-65 0 -113.5 -18.5t-82.5 -53t-54.5 -84.5t-30.5 -112h537q-4 58 -18.5 107t-44.5 85t-77 56t-116 20zM653 1477h240v-17l-299 -282h-154z" />
    <glyph glyph-name="Ecircumflex" unicode="&#xca;" horiz-adv-x="1286" 
d="M143 1516h1086v-429h-205v256h-541v-485h455v-172h-455v-514h541v256h205v-428h-1086v172h144v1171h-144v173zM467 1655l250 313h63l252 -313h-149l-133 155l-135 -155h-148z" />
    <glyph glyph-name="ecircumflex" unicode="&#xea;" 
d="M276 494q0 -44 6.5 -80.5t18.5 -69.5q37 -100 118.5 -150.5t184.5 -50.5q81 0 157.5 22.5t160.5 70.5l75 -127q-102 -70 -205 -104t-214 -34q-105 0 -194.5 35t-154 104t-101 172t-36.5 240q0 111 31 209.5t92.5 172t152.5 116.5t212 43q117 0 195.5 -35.5t128 -94
t75 -133.5t35.5 -153q5 -38 6.5 -77t1.5 -76h-746zM567 907q-65 0 -113.5 -18.5t-82.5 -53t-54.5 -84.5t-30.5 -112h537q-4 58 -18.5 107t-44.5 85t-77 56t-116 20zM321 1176l250 313h63l252 -313h-149l-133 155l-135 -155h-148z" />
    <glyph glyph-name="Edieresis" unicode="&#xcb;" horiz-adv-x="1286" 
d="M143 1516h1086v-429h-205v256h-541v-485h455v-172h-455v-514h541v256h205v-428h-1086v172h144v1171h-144v173zM352 1839q0 26 10.5 49.5t28 41t41 28t49.5 10.5q25 0 48 -10.5t40 -28t27 -41t10 -49.5q0 -27 -10 -51t-27 -42.5t-40 -29t-48 -10.5q-26 0 -49.5 10.5
t-41 29t-28 42.5t-10.5 51zM811 1839q0 26 10.5 49.5t28 41t41 28t49.5 10.5q25 0 47.5 -10.5t40 -28t27.5 -41t10 -49.5q0 -27 -10 -51t-27.5 -42.5t-40 -29t-47.5 -10.5q-26 0 -49.5 10.5t-41 29t-28 42.5t-10.5 51z" />
    <glyph glyph-name="edieresis" unicode="&#xeb;" 
d="M276 494q0 -44 6.5 -80.5t18.5 -69.5q37 -100 118.5 -150.5t184.5 -50.5q81 0 157.5 22.5t160.5 70.5l75 -127q-102 -70 -205 -104t-214 -34q-105 0 -194.5 35t-154 104t-101 172t-36.5 240q0 111 31 209.5t92.5 172t152.5 116.5t212 43q117 0 195.5 -35.5t128 -94
t75 -133.5t35.5 -153q5 -38 6.5 -77t1.5 -76h-746zM567 907q-65 0 -113.5 -18.5t-82.5 -53t-54.5 -84.5t-30.5 -112h537q-4 58 -18.5 107t-44.5 85t-77 56t-116 20zM207 1360q0 26 10.5 49.5t28 41t41 28t49.5 10.5q25 0 48 -10.5t40 -28t27 -41t10 -49.5q0 -27 -10 -51
t-27 -42.5t-40 -29t-48 -10.5q-26 0 -49.5 10.5t-41 29t-28 42.5t-10.5 51zM666 1360q0 26 10.5 49.5t28 41t41 28t49.5 10.5q25 0 47.5 -10.5t40 -28t27.5 -41t10 -49.5q0 -27 -10 -51t-27.5 -42.5t-40 -29t-47.5 -10.5q-26 0 -49.5 10.5t-41 29t-28 42.5t-10.5 51z" />
    <glyph glyph-name="Ecaron" unicode="&#x11a;" horiz-adv-x="1286" 
d="M143 1516h1086v-429h-205v256h-541v-485h455v-172h-455v-514h541v256h205v-428h-1086v172h144v1171h-144v173zM1018 1967l-252 -353h-49l-252 353h144l133 -196l135 196h141z" />
    <glyph glyph-name="ecaron" unicode="&#x11b;" 
d="M276 494q0 -44 6.5 -80.5t18.5 -69.5q37 -100 118.5 -150.5t184.5 -50.5q81 0 157.5 22.5t160.5 70.5l75 -127q-102 -70 -205 -104t-214 -34q-105 0 -194.5 35t-154 104t-101 172t-36.5 240q0 111 31 209.5t92.5 172t152.5 116.5t212 43q117 0 195.5 -35.5t128 -94
t75 -133.5t35.5 -153q5 -38 6.5 -77t1.5 -76h-746zM567 907q-65 0 -113.5 -18.5t-82.5 -53t-54.5 -84.5t-30.5 -112h537q-4 58 -18.5 107t-44.5 85t-77 56t-116 20zM872 1488l-252 -353h-49l-252 353h144l133 -196l135 196h141z" />
    <glyph glyph-name="Emacron" unicode="&#x112;" horiz-adv-x="1286" 
d="M143 1516h1086v-429h-205v256h-541v-485h455v-172h-455v-514h541v256h205v-428h-1086v172h144v1171h-144v173zM1080 1708h-758v117h758v-117z" />
    <glyph glyph-name="emacron" unicode="&#x113;" 
d="M276 494q0 -44 6.5 -80.5t18.5 -69.5q37 -100 118.5 -150.5t184.5 -50.5q81 0 157.5 22.5t160.5 70.5l75 -127q-102 -70 -205 -104t-214 -34q-105 0 -194.5 35t-154 104t-101 172t-36.5 240q0 111 31 209.5t92.5 172t152.5 116.5t212 43q117 0 195.5 -35.5t128 -94
t75 -133.5t35.5 -153q5 -38 6.5 -77t1.5 -76h-746zM567 907q-65 0 -113.5 -18.5t-82.5 -53t-54.5 -84.5t-30.5 -112h537q-4 58 -18.5 107t-44.5 85t-77 56t-116 20zM934 1229h-758v117h758v-117z" />
    <glyph glyph-name="Edotaccent" unicode="&#x116;" horiz-adv-x="1286" 
d="M143 1516h1086v-429h-205v256h-541v-485h455v-172h-455v-514h541v256h205v-428h-1086v172h144v1171h-144v173zM614 1882q0 26 10.5 49.5t28 41t41.5 28t51 10.5q26 0 49.5 -10.5t41 -28t28 -41t10.5 -49.5q0 -27 -10.5 -51t-28 -42.5t-41 -29t-49.5 -10.5q-27 0 -51 10.5
t-41.5 29t-28 42.5t-10.5 51z" />
    <glyph glyph-name="edotaccent" unicode="&#x117;" 
d="M276 494q0 -44 6.5 -80.5t18.5 -69.5q37 -100 118.5 -150.5t184.5 -50.5q81 0 157.5 22.5t160.5 70.5l75 -127q-102 -70 -205 -104t-214 -34q-105 0 -194.5 35t-154 104t-101 172t-36.5 240q0 111 31 209.5t92.5 172t152.5 116.5t212 43q117 0 195.5 -35.5t128 -94
t75 -133.5t35.5 -153q5 -38 6.5 -77t1.5 -76h-746zM567 907q-65 0 -113.5 -18.5t-82.5 -53t-54.5 -84.5t-30.5 -112h537q-4 58 -18.5 107t-44.5 85t-77 56t-116 20zM469 1403q0 26 10.5 49.5t28 41t41.5 28t51 10.5q26 0 49.5 -10.5t41 -28t28 -41t10.5 -49.5
q0 -27 -10.5 -51t-28 -42.5t-41 -29t-49.5 -10.5q-27 0 -51 10.5t-41.5 29t-28 42.5t-10.5 51z" />
    <glyph glyph-name="Gcommaaccent" unicode="&#x122;" horiz-adv-x="1677" 
d="M1313 -6v304q-38 -79 -95 -137.5t-127 -96.5t-149.5 -57t-161.5 -19q-148 0 -273 49.5t-226.5 157.5t-155 256t-53.5 309q0 162 53.5 306t150 251t230 168t289.5 61q144 0 247.5 -41t177 -99.5t117.5 -111.5h97v-178h-215q-67 114 -177.5 180t-247.5 64q-115 0 -211 -49
t-164.5 -132t-106.5 -191t-38 -228q0 -133 42 -247t107 -185t160.5 -117.5t211.5 -46.5q192 0 315 93.5t172 291.5h-424v172h641v-727h-186zM788 -41l211 -84l-180 -348l-144 53z" />
    <glyph glyph-name="gcommaaccent" unicode="&#x123;" horiz-adv-x="1208" 
d="M858 91q-51 -54 -118.5 -84t-153.5 -30q-105 0 -195.5 36.5t-157 107t-104 173t-37.5 234.5q0 120 36 218.5t102 168t159 108t207 38.5q78 0 140.5 -17.5t121.5 -60.5v53h186v-995q0 -246 -116.5 -372t-362.5 -126q-54 0 -113 8t-116.5 25.5t-112 44.5t-100.5 66l100 151
q30 -26 68.5 -48t82.5 -37.5t91 -24.5t94 -9q77 0 133.5 16t93 56.5t54.5 109.5t18 175v15zM610 139q46 0 84 9t69 23.5t54.5 33.5t40.5 40v567q-51 45 -117.5 65t-136.5 20q-66 0 -124 -24.5t-101.5 -71.5t-68.5 -115t-25 -156q0 -96 24 -169t67 -122.5t103 -74.5t131 -25z
M712 1125l-211 84l181 349l143 -54z" />
    <glyph glyph-name="Gbreve" unicode="&#x11e;" horiz-adv-x="1677" 
d="M1313 -6v304q-38 -79 -95 -137.5t-127 -96.5t-149.5 -57t-161.5 -19q-148 0 -273 49.5t-226.5 157.5t-155 256t-53.5 309q0 162 53.5 306t150 251t230 168t289.5 61q144 0 247.5 -41t177 -99.5t117.5 -111.5h97v-178h-215q-67 114 -177.5 180t-247.5 64q-115 0 -211 -49
t-164.5 -132t-106.5 -191t-38 -228q0 -133 42 -247t107 -185t160.5 -117.5t211.5 -46.5q192 0 315 93.5t172 291.5h-424v172h641v-727h-186zM837 1628q-76 0 -141.5 25t-115 69t-79 104.5t-32.5 131.5h121q1 -43 20 -82t52 -68.5t78 -47t97 -17.5t97 17t78 46.5t52 68.5
t21 83h121q-3 -71 -33 -131.5t-79.5 -104.5t-115.5 -69t-141 -25z" />
    <glyph glyph-name="gbreve" unicode="&#x11f;" horiz-adv-x="1208" 
d="M858 91q-51 -54 -118.5 -84t-153.5 -30q-105 0 -195.5 36.5t-157 107t-104 173t-37.5 234.5q0 120 36 218.5t102 168t159 108t207 38.5q78 0 140.5 -17.5t121.5 -60.5v53h186v-995q0 -246 -116.5 -372t-362.5 -126q-54 0 -113 8t-116.5 25.5t-112 44.5t-100.5 66l100 151
q30 -26 68.5 -48t82.5 -37.5t91 -24.5t94 -9q77 0 133.5 16t93 56.5t54.5 109.5t18 175v15zM610 139q46 0 84 9t69 23.5t54.5 33.5t40.5 40v567q-51 45 -117.5 65t-136.5 20q-66 0 -124 -24.5t-101.5 -71.5t-68.5 -115t-25 -156q0 -96 24 -169t67 -122.5t103 -74.5t131 -25z
M604 1149q-76 0 -141.5 25t-115 69t-79 104.5t-32.5 131.5h121q1 -43 20 -82t52 -68.5t78 -47t97 -17.5t97 17t78 46.5t52 68.5t21 83h121q-3 -71 -33 -131.5t-79.5 -104.5t-115.5 -69t-141 -25z" />
    <glyph glyph-name="Igrave" unicode="&#xcc;" horiz-adv-x="770" 
d="M143 1516h484v-173h-144v-1171h144v-172h-484v172h144v1171h-144v173zM312 1657l-287 282v17h248l184 -299h-145z" />
    <glyph glyph-name="igrave" unicode="&#xec;" horiz-adv-x="657" 
d="M92 1036h338v-864h156v-172h-492v172h148v692h-150v172zM252 1178l-287 282v17h248l184 -299h-145z" />
    <glyph glyph-name="Iacute" unicode="&#xcd;" horiz-adv-x="770" 
d="M143 1516h484v-173h-144v-1171h144v-172h-484v172h144v1171h-144v173zM459 1956h240v-17l-299 -282h-154z" />
    <glyph glyph-name="iacute" unicode="&#xed;" horiz-adv-x="657" 
d="M92 1036h338v-864h156v-172h-492v172h148v692h-150v172zM392 1477h240v-17l-299 -282h-154z" />
    <glyph glyph-name="Icircumflex" unicode="&#xce;" horiz-adv-x="770" 
d="M143 1516h484v-173h-144v-1171h144v-172h-484v172h144v1171h-144v173zM128 1655l250 313h63l252 -313h-149l-133 155l-135 -155h-148z" />
    <glyph glyph-name="icircumflex" unicode="&#xee;" horiz-adv-x="657" 
d="M92 1036h338v-864h156v-172h-492v172h148v692h-150v172zM62 1176l210 313h73l212 -313h-154l-93 155l-95 -155h-153z" />
    <glyph glyph-name="Idieresis" unicode="&#xcf;" horiz-adv-x="770" 
d="M143 1516h484v-173h-144v-1171h144v-172h-484v172h144v1171h-144v173zM105 1839q0 53 38 91t91 38q25 0 48.5 -10.5t40 -27.5t26.5 -41t10 -50q0 -27 -10 -51.5t-26.5 -43t-40 -28.5t-48.5 -10q-53 0 -91 40t-38 93v0zM420 1839q0 53 38 91t91 38q25 0 48.5 -10.5
t40 -27.5t26.5 -41t10 -50q0 -27 -10 -51.5t-26.5 -43t-40 -28.5t-48.5 -10q-53 0 -91 40t-38 93v0z" />
    <glyph glyph-name="idieresis" unicode="&#xef;" horiz-adv-x="657" 
d="M92 1036h338v-864h156v-172h-492v172h148v692h-150v172zM15 1360q0 53 38 91t91 38q25 0 48.5 -10.5t40 -27.5t26.5 -41t10 -50q0 -27 -10 -51.5t-26.5 -43t-40 -28.5t-48.5 -10q-53 0 -91 40t-38 93v0zM330 1360q0 53 38 91t91 38q25 0 48.5 -10.5t40 -27.5t26.5 -41
t10 -50q0 -27 -10 -51.5t-26.5 -43t-40 -28.5t-48.5 -10q-53 0 -91 40t-38 93v0z" />
    <glyph glyph-name="Imacron" unicode="&#x12a;" horiz-adv-x="770" 
d="M143 1516h484v-173h-144v-1171h144v-172h-484v172h144v1171h-144v173zM767 1708h-758v117h758v-117z" />
    <glyph glyph-name="imacron" unicode="&#x12b;" horiz-adv-x="657" 
d="M92 1036h338v-864h156v-172h-492v172h148v692h-150v172zM707 1229h-758v117h758v-117z" />
    <glyph glyph-name="Kcommaaccent" unicode="&#x136;" horiz-adv-x="1563" 
d="M1147 1343v173h348v-173h-119l-664 -559l621 -612h162v-172h-408v172l-602 602zM145 1516h492v-173h-154v-1171h152v-172h-492v172h144v1171h-142v173zM731 -41l211 -84l-180 -348l-144 53z" />
    <glyph glyph-name="kcommaaccent" unicode="&#x137;" horiz-adv-x="1276" 
d="M92 1556h365v-172h-2v-774h180l246 254h-62v172h393v-172h-131l-315 -325l344 -367h125v-172h-219l-424 463h-137v-291h86v-172h-443v172h170v1212h-176v172zM588 -41l211 -84l-180 -348l-144 53z" />
    <glyph glyph-name="Lcommaaccent" unicode="&#x13b;" horiz-adv-x="1296" 
d="M143 1516h492v-173h-152v-1171h523q16 0 32 7.5t29 19.5t21 27.5t8 31.5v191h190v-449h-1143v172h144v1171h-144v173zM598 -41l211 -84l-180 -348l-144 53z" />
    <glyph glyph-name="lcommaaccent" unicode="&#x13c;" horiz-adv-x="666" 
d="M92 1556h336v-1384h156v-172h-492v172h150v1212h-150v172zM283 -41l211 -84l-180 -348l-144 53z" />
    <glyph glyph-name="Lacute" unicode="&#x139;" horiz-adv-x="1296" 
d="M143 1516h492v-173h-152v-1171h523q16 0 32 7.5t29 19.5t21 27.5t8 31.5v191h190v-449h-1143v172h144v1171h-144v173zM524 1874h240v-17l-299 -282h-154z" />
    <glyph glyph-name="lacute" unicode="&#x13a;" horiz-adv-x="666" 
d="M92 1556h336v-1384h156v-172h-492v172h150v1212h-150v172zM422 1919h240v-17l-299 -282h-154z" />
    <glyph glyph-name="Lcaron" unicode="&#x13d;" horiz-adv-x="1296" 
d="M143 1516h492v-173h-152v-1171h523q16 0 32 7.5t29 19.5t21 27.5t8 31.5v191h190v-449h-1143v172h144v1171h-144v173zM1073 1021h-149v518l197 16z" />
    <glyph glyph-name="lcaron" unicode="&#x13e;" horiz-adv-x="780" 
d="M92 1556h336v-1384h156v-172h-492v172h150v1212h-150v172zM714 1059h-149v518l197 16z" />
    <glyph glyph-name="Nacute" unicode="&#x143;" horiz-adv-x="1624" 
d="M1081 1516h492v-173h-129v-1343h-256l-705 1257v-1085h156v-172h-492v172h140v1171h-144v175h408l692 -1245l8 48v1022h-170v173zM899 1956h240v-17l-299 -282h-154z" />
    <glyph glyph-name="nacute" unicode="&#x144;" horiz-adv-x="1366" 
d="M782 172h146v473q0 119 -60.5 180.5t-173.5 61.5q-65 0 -131 -31t-125 -77v-607h146v-172h-484v172h144v692h-144v172h330v-122h2q33 29 70.5 55t78.5 45t85.5 30t93.5 11q83 0 150 -23t114 -70t72.5 -120.5t25.5 -173.5v-496h144v-172h-484v172zM758 1477h240v-17
l-299 -282h-154z" />
    <glyph glyph-name="Ncaron" unicode="&#x147;" horiz-adv-x="1624" 
d="M1081 1516h492v-173h-129v-1343h-256l-705 1257v-1085h156v-172h-492v172h140v1171h-144v175h408l692 -1245l8 48v1022h-170v173zM1118 1967l-252 -353h-49l-252 353h144l133 -196l135 196h141z" />
    <glyph glyph-name="ncaron" unicode="&#x148;" horiz-adv-x="1366" 
d="M782 172h146v473q0 119 -60.5 180.5t-173.5 61.5q-65 0 -131 -31t-125 -77v-607h146v-172h-484v172h144v692h-144v172h330v-122h2q33 29 70.5 55t78.5 45t85.5 30t93.5 11q83 0 150 -23t114 -70t72.5 -120.5t25.5 -173.5v-496h144v-172h-484v172zM977 1488l-252 -353h-49
l-252 353h144l133 -196l135 196h141z" />
    <glyph glyph-name="Ntilde" unicode="&#xd1;" horiz-adv-x="1624" 
d="M1081 1516h492v-173h-129v-1343h-256l-705 1257v-1085h156v-172h-492v172h140v1171h-144v175h408l692 -1245l8 48v1022h-170v173zM696 1894q50 0 86.5 -16.5t68 -36t62.5 -35.5t70 -16q28 0 54.5 19t35.5 61l119 -35q-20 -85 -78 -131.5t-139 -46.5q-56 0 -95 15.5
t-71 33.5t-60 33.5t-61 15.5q-15 0 -30.5 -2t-30.5 -9.5t-27.5 -23t-19.5 -43.5l-109 53q13 47 37 78.5t54 50.5t64.5 27t69.5 8z" />
    <glyph glyph-name="ntilde" unicode="&#xf1;" horiz-adv-x="1366" 
d="M782 172h146v473q0 119 -60.5 180.5t-173.5 61.5q-65 0 -131 -31t-125 -77v-607h146v-172h-484v172h144v692h-144v172h330v-122h2q33 29 70.5 55t78.5 45t85.5 30t93.5 11q83 0 150 -23t114 -70t72.5 -120.5t25.5 -173.5v-496h144v-172h-484v172zM555 1415
q50 0 86.5 -16.5t68 -36t62.5 -35.5t70 -16q28 0 54.5 19t35.5 61l119 -35q-20 -85 -78 -131.5t-139 -46.5q-56 0 -95 15.5t-71 33.5t-60 33.5t-61 15.5q-15 0 -30.5 -2t-30.5 -9.5t-27.5 -23t-19.5 -43.5l-109 53q13 47 37 78.5t54 50.5t64.5 27t69.5 8z" />
    <glyph glyph-name="Ncommaaccent" unicode="&#x145;" horiz-adv-x="1624" 
d="M1081 1516h492v-173h-129v-1343h-256l-705 1257v-1085h156v-172h-492v172h140v1171h-144v175h408l692 -1245l8 48v1022h-170v173zM762 -41l211 -84l-180 -348l-144 53z" />
    <glyph glyph-name="ncommaaccent" unicode="&#x146;" horiz-adv-x="1366" 
d="M782 172h146v473q0 119 -60.5 180.5t-173.5 61.5q-65 0 -131 -31t-125 -77v-607h146v-172h-484v172h144v692h-144v172h330v-122h2q33 29 70.5 55t78.5 45t85.5 30t93.5 11q83 0 150 -23t114 -70t72.5 -120.5t25.5 -173.5v-496h144v-172h-484v172zM633 -41l211 -84
l-180 -348l-144 53z" />
    <glyph glyph-name="Ograve" unicode="&#xd2;" horiz-adv-x="1602" 
d="M799 -30q-157 0 -287 58.5t-232 166.5t-155 256t-53 307q0 164 53.5 308t150 250.5t230 168t293.5 61.5q161 0 295 -61.5t230 -168t149 -250.5t53 -308t-53.5 -307.5t-150 -250.5t-230 -168.5t-293.5 -61.5zM799 156q119 0 215.5 49t164.5 131.5t105 191.5t37 230
q0 124 -40.5 239.5t-113 195.5t-168.5 123.5t-200 43.5q-119 0 -216 -49t-165 -131.5t-105 -192t-37 -229.5q0 -140 41 -249.5t108.5 -182t161 -121.5t212.5 -49zM723 1657l-287 282v17h248l184 -299h-145z" />
    <glyph glyph-name="ograve" unicode="&#xf2;" horiz-adv-x="1219" 
d="M86 518q1 123 39.5 224t107.5 173.5t164 111.5t209 39q115 0 210.5 -39t163.5 -110.5t106 -172.5t38 -224q0 -121 -38 -222.5t-106 -174.5t-163.5 -113.5t-210.5 -40.5q-117 0 -212 40t-163 112.5t-106 173.5t-39 223zM283 518q0 -89 25.5 -161t70 -122.5t103 -78
t124.5 -27.5q69 0 128.5 27t103.5 77.5t69 122.5t25 162q0 94 -25 167t-68.5 122t-103.5 74t-129 25q-66 0 -124.5 -25t-103 -74t-70 -122t-25.5 -167zM534 1178l-287 282v17h248l184 -299h-145z" />
    <glyph glyph-name="Oacute" unicode="&#xd3;" horiz-adv-x="1602" 
d="M799 -30q-157 0 -287 58.5t-232 166.5t-155 256t-53 307q0 164 53.5 308t150 250.5t230 168t293.5 61.5q161 0 295 -61.5t230 -168t149 -250.5t53 -308t-53.5 -307.5t-150 -250.5t-230 -168.5t-293.5 -61.5zM799 156q119 0 215.5 49t164.5 131.5t105 191.5t37 230
q0 124 -40.5 239.5t-113 195.5t-168.5 123.5t-200 43.5q-119 0 -216 -49t-165 -131.5t-105 -192t-37 -229.5q0 -140 41 -249.5t108.5 -182t161 -121.5t212.5 -49zM870 1956h240v-17l-299 -282h-154z" />
    <glyph glyph-name="oacute" unicode="&#xf3;" horiz-adv-x="1219" 
d="M86 518q1 123 39.5 224t107.5 173.5t164 111.5t209 39q115 0 210.5 -39t163.5 -110.5t106 -172.5t38 -224q0 -121 -38 -222.5t-106 -174.5t-163.5 -113.5t-210.5 -40.5q-117 0 -212 40t-163 112.5t-106 173.5t-39 223zM283 518q0 -89 25.5 -161t70 -122.5t103 -78
t124.5 -27.5q69 0 128.5 27t103.5 77.5t69 122.5t25 162q0 94 -25 167t-68.5 122t-103.5 74t-129 25q-66 0 -124.5 -25t-103 -74t-70 -122t-25.5 -167zM682 1477h240v-17l-299 -282h-154z" />
    <glyph glyph-name="Ocircumflex" unicode="&#xd4;" horiz-adv-x="1602" 
d="M799 -30q-157 0 -287 58.5t-232 166.5t-155 256t-53 307q0 164 53.5 308t150 250.5t230 168t293.5 61.5q161 0 295 -61.5t230 -168t149 -250.5t53 -308t-53.5 -307.5t-150 -250.5t-230 -168.5t-293.5 -61.5zM799 156q119 0 215.5 49t164.5 131.5t105 191.5t37 230
q0 124 -40.5 239.5t-113 195.5t-168.5 123.5t-200 43.5q-119 0 -216 -49t-165 -131.5t-105 -192t-37 -229.5q0 -140 41 -249.5t108.5 -182t161 -121.5t212.5 -49zM539 1655l250 313h63l252 -313h-149l-133 155l-135 -155h-148z" />
    <glyph glyph-name="ocircumflex" unicode="&#xf4;" horiz-adv-x="1219" 
d="M86 518q1 123 39.5 224t107.5 173.5t164 111.5t209 39q115 0 210.5 -39t163.5 -110.5t106 -172.5t38 -224q0 -121 -38 -222.5t-106 -174.5t-163.5 -113.5t-210.5 -40.5q-117 0 -212 40t-163 112.5t-106 173.5t-39 223zM283 518q0 -89 25.5 -161t70 -122.5t103 -78
t124.5 -27.5q69 0 128.5 27t103.5 77.5t69 122.5t25 162q0 94 -25 167t-68.5 122t-103.5 74t-129 25q-66 0 -124.5 -25t-103 -74t-70 -122t-25.5 -167zM350 1176l250 313h63l252 -313h-149l-133 155l-135 -155h-148z" />
    <glyph glyph-name="Otilde" unicode="&#xd5;" horiz-adv-x="1602" 
d="M799 -30q-157 0 -287 58.5t-232 166.5t-155 256t-53 307q0 164 53.5 308t150 250.5t230 168t293.5 61.5q161 0 295 -61.5t230 -168t149 -250.5t53 -308t-53.5 -307.5t-150 -250.5t-230 -168.5t-293.5 -61.5zM799 156q119 0 215.5 49t164.5 131.5t105 191.5t37 230
q0 124 -40.5 239.5t-113 195.5t-168.5 123.5t-200 43.5q-119 0 -216 -49t-165 -131.5t-105 -192t-37 -229.5q0 -140 41 -249.5t108.5 -182t161 -121.5t212.5 -49zM667 1894q50 0 86.5 -16.5t68 -36t62.5 -35.5t70 -16q28 0 54.5 19t35.5 61l119 -35q-20 -85 -78 -131.5
t-139 -46.5q-56 0 -95 15.5t-71 33.5t-60 33.5t-61 15.5q-15 0 -30.5 -2t-30.5 -9.5t-27.5 -23t-19.5 -43.5l-109 53q13 47 37 78.5t54 50.5t64.5 27t69.5 8z" />
    <glyph glyph-name="otilde" unicode="&#xf5;" horiz-adv-x="1219" 
d="M86 518q1 123 39.5 224t107.5 173.5t164 111.5t209 39q115 0 210.5 -39t163.5 -110.5t106 -172.5t38 -224q0 -121 -38 -222.5t-106 -174.5t-163.5 -113.5t-210.5 -40.5q-117 0 -212 40t-163 112.5t-106 173.5t-39 223zM283 518q0 -89 25.5 -161t70 -122.5t103 -78
t124.5 -27.5q69 0 128.5 27t103.5 77.5t69 122.5t25 162q0 94 -25 167t-68.5 122t-103.5 74t-129 25q-66 0 -124.5 -25t-103 -74t-70 -122t-25.5 -167zM479 1415q50 0 86.5 -16.5t68 -36t62.5 -35.5t70 -16q28 0 54.5 19t35.5 61l119 -35q-20 -85 -78 -131.5t-139 -46.5
q-56 0 -95 15.5t-71 33.5t-60 33.5t-61 15.5q-15 0 -30.5 -2t-30.5 -9.5t-27.5 -23t-19.5 -43.5l-109 53q13 47 37 78.5t54 50.5t64.5 27t69.5 8z" />
    <glyph glyph-name="Odieresis" unicode="&#xd6;" horiz-adv-x="1602" 
d="M799 -30q-157 0 -287 58.5t-232 166.5t-155 256t-53 307q0 164 53.5 308t150 250.5t230 168t293.5 61.5q161 0 295 -61.5t230 -168t149 -250.5t53 -308t-53.5 -307.5t-150 -250.5t-230 -168.5t-293.5 -61.5zM799 156q119 0 215.5 49t164.5 131.5t105 191.5t37 230
q0 124 -40.5 239.5t-113 195.5t-168.5 123.5t-200 43.5q-119 0 -216 -49t-165 -131.5t-105 -192t-37 -229.5q0 -140 41 -249.5t108.5 -182t161 -121.5t212.5 -49zM424 1839q0 26 10.5 49.5t28 41t41 28t49.5 10.5q25 0 48 -10.5t40 -28t27 -41t10 -49.5q0 -27 -10 -51
t-27 -42.5t-40 -29t-48 -10.5q-26 0 -49.5 10.5t-41 29t-28 42.5t-10.5 51zM883 1839q0 26 10.5 49.5t28 41t41 28t49.5 10.5q25 0 47.5 -10.5t40 -28t27.5 -41t10 -49.5q0 -27 -10 -51t-27.5 -42.5t-40 -29t-47.5 -10.5q-26 0 -49.5 10.5t-41 29t-28 42.5t-10.5 51z" />
    <glyph glyph-name="odieresis" unicode="&#xf6;" horiz-adv-x="1219" 
d="M86 518q1 123 39.5 224t107.5 173.5t164 111.5t209 39q115 0 210.5 -39t163.5 -110.5t106 -172.5t38 -224q0 -121 -38 -222.5t-106 -174.5t-163.5 -113.5t-210.5 -40.5q-117 0 -212 40t-163 112.5t-106 173.5t-39 223zM283 518q0 -89 25.5 -161t70 -122.5t103 -78
t124.5 -27.5q69 0 128.5 27t103.5 77.5t69 122.5t25 162q0 94 -25 167t-68.5 122t-103.5 74t-129 25q-66 0 -124.5 -25t-103 -74t-70 -122t-25.5 -167zM236 1360q0 26 10.5 49.5t28 41t41 28t49.5 10.5q25 0 48 -10.5t40 -28t27 -41t10 -49.5q0 -27 -10 -51t-27 -42.5
t-40 -29t-48 -10.5q-26 0 -49.5 10.5t-41 29t-28 42.5t-10.5 51zM695 1360q0 26 10.5 49.5t28 41t41 28t49.5 10.5q25 0 47.5 -10.5t40 -28t27.5 -41t10 -49.5q0 -27 -10 -51t-27.5 -42.5t-40 -29t-47.5 -10.5q-26 0 -49.5 10.5t-41 29t-28 42.5t-10.5 51z" />
    <glyph glyph-name="Ohungarumlaut" unicode="&#x150;" horiz-adv-x="1602" 
d="M799 -30q-157 0 -287 58.5t-232 166.5t-155 256t-53 307q0 164 53.5 308t150 250.5t230 168t293.5 61.5q161 0 295 -61.5t230 -168t149 -250.5t53 -308t-53.5 -307.5t-150 -250.5t-230 -168.5t-293.5 -61.5zM799 156q119 0 215.5 49t164.5 131.5t105 191.5t37 230
q0 124 -40.5 239.5t-113 195.5t-168.5 123.5t-200 43.5q-119 0 -216 -49t-165 -131.5t-105 -192t-37 -229.5q0 -140 41 -249.5t108.5 -182t161 -121.5t212.5 -49zM1261 1957l-233 -300h-152l208 300h177zM940 1957l-222 -300h-151l195 300h178z" />
    <glyph glyph-name="ohungarumlaut" unicode="&#x151;" horiz-adv-x="1219" 
d="M86 518q1 123 39.5 224t107.5 173.5t164 111.5t209 39q115 0 210.5 -39t163.5 -110.5t106 -172.5t38 -224q0 -121 -38 -222.5t-106 -174.5t-163.5 -113.5t-210.5 -40.5q-117 0 -212 40t-163 112.5t-106 173.5t-39 223zM283 518q0 -89 25.5 -161t70 -122.5t103 -78
t124.5 -27.5q69 0 128.5 27t103.5 77.5t69 122.5t25 162q0 94 -25 167t-68.5 122t-103.5 74t-129 25q-66 0 -124.5 -25t-103 -74t-70 -122t-25.5 -167zM1072 1478l-233 -300h-152l208 300h177zM751 1478l-222 -300h-151l195 300h178z" />
    <glyph glyph-name="Omacron" unicode="&#x14c;" horiz-adv-x="1602" 
d="M799 -30q-157 0 -287 58.5t-232 166.5t-155 256t-53 307q0 164 53.5 308t150 250.5t230 168t293.5 61.5q161 0 295 -61.5t230 -168t149 -250.5t53 -308t-53.5 -307.5t-150 -250.5t-230 -168.5t-293.5 -61.5zM799 156q119 0 215.5 49t164.5 131.5t105 191.5t37 230
q0 124 -40.5 239.5t-113 195.5t-168.5 123.5t-200 43.5q-119 0 -216 -49t-165 -131.5t-105 -192t-37 -229.5q0 -140 41 -249.5t108.5 -182t161 -121.5t212.5 -49zM1151 1708h-758v117h758v-117z" />
    <glyph glyph-name="omacron" unicode="&#x14d;" horiz-adv-x="1219" 
d="M86 518q1 123 39.5 224t107.5 173.5t164 111.5t209 39q115 0 210.5 -39t163.5 -110.5t106 -172.5t38 -224q0 -121 -38 -222.5t-106 -174.5t-163.5 -113.5t-210.5 -40.5q-117 0 -212 40t-163 112.5t-106 173.5t-39 223zM283 518q0 -89 25.5 -161t70 -122.5t103 -78
t124.5 -27.5q69 0 128.5 27t103.5 77.5t69 122.5t25 162q0 94 -25 167t-68.5 122t-103.5 74t-129 25q-66 0 -124.5 -25t-103 -74t-70 -122t-25.5 -167zM963 1229h-758v117h758v-117z" />
    <glyph glyph-name="Racute" unicode="&#x154;" horiz-adv-x="1464" 
d="M143 1516h631q101 0 186.5 -26.5t148 -78t97.5 -128.5t35 -177q0 -57 -20.5 -112.5t-57 -103t-86.5 -84.5t-109 -57q25 -11 50.5 -31.5t48 -50t41 -67t29.5 -80.5l84 -330h131l2 -190h-295l-113 461q-31 124 -94.5 182.5t-173.5 58.5h-195v-530h152v-172h-492v172h144
v1171h-144v173zM483 1343v-477h291q57 0 104.5 15t82 45t54 74.5t19.5 103.5q0 113 -68 176t-216 63h-267zM762 1958h240v-17l-299 -282h-154z" />
    <glyph glyph-name="racute" unicode="&#x155;" horiz-adv-x="961" 
d="M845 817h-190v64q-33 0 -67.5 -12.5t-64.5 -38t-52.5 -65t-32.5 -93.5v-500h176v-172h-514v172h143l1 692h-144v172h331v-143q18 32 40.5 59.5t50 48t61 32t72.5 11.5h98t92 -2v-225zM477 1477h240v-17l-299 -282h-154z" />
    <glyph glyph-name="Rcaron" unicode="&#x158;" horiz-adv-x="1464" 
d="M143 1516h631q101 0 186.5 -26.5t148 -78t97.5 -128.5t35 -177q0 -57 -20.5 -112.5t-57 -103t-86.5 -84.5t-109 -57q25 -11 50.5 -31.5t48 -50t41 -67t29.5 -80.5l84 -330h131l2 -190h-295l-113 461q-31 124 -94.5 182.5t-173.5 58.5h-195v-530h152v-172h-492v172h144
v1171h-144v173zM483 1343v-477h291q57 0 104.5 15t82 45t54 74.5t19.5 103.5q0 113 -68 176t-216 63h-267zM981 1969l-252 -353h-49l-252 353h144l133 -196l135 196h141z" />
    <glyph glyph-name="rcaron" unicode="&#x159;" horiz-adv-x="961" 
d="M845 817h-190v64q-33 0 -67.5 -12.5t-64.5 -38t-52.5 -65t-32.5 -93.5v-500h176v-172h-514v172h143l1 692h-144v172h331v-143q18 32 40.5 59.5t50 48t61 32t72.5 11.5h98t92 -2v-225zM697 1488l-252 -353h-49l-252 353h144l133 -196l135 196h141z" />
    <glyph glyph-name="Rcommaaccent" unicode="&#x156;" horiz-adv-x="1464" 
d="M143 1516h631q101 0 186.5 -26.5t148 -78t97.5 -128.5t35 -177q0 -57 -20.5 -112.5t-57 -103t-86.5 -84.5t-109 -57q25 -11 50.5 -31.5t48 -50t41 -67t29.5 -80.5l84 -330h131l2 -190h-295l-113 461q-31 124 -94.5 182.5t-173.5 58.5h-195v-530h152v-172h-492v172h144
v1171h-144v173zM483 1343v-477h291q57 0 104.5 15t82 45t54 74.5t19.5 103.5q0 113 -68 176t-216 63h-267zM682 -41l211 -84l-180 -348l-144 53z" />
    <glyph glyph-name="rcommaaccent" unicode="&#x157;" horiz-adv-x="961" 
d="M845 817h-190v64q-33 0 -67.5 -12.5t-64.5 -38t-52.5 -65t-32.5 -93.5v-500h176v-172h-514v172h143l1 692h-144v172h331v-143q18 32 40.5 59.5t50 48t61 32t72.5 11.5h98t92 -2v-225zM315 -41l211 -84l-180 -348l-144 53z" />
    <glyph glyph-name="Sacute" unicode="&#x15a;" horiz-adv-x="1210" 
d="M888 1236q-32 44 -70.5 67.5t-84.5 36t-92 12.5q-76 0 -133 -17.5t-94.5 -47.5t-56.5 -70t-19 -84q0 -66 23.5 -106.5t59.5 -65t79.5 -38.5t83.5 -28l202 -66q91 -29 160.5 -66t116.5 -87.5t71.5 -116.5t24.5 -153q0 -94 -38.5 -174t-107.5 -139t-164.5 -92.5
t-209.5 -33.5q-117 0 -200 26.5t-139.5 71t-90.5 101.5t-53 117h-76v172h252q0 -111 23.5 -157t65.5 -76.5t100 -46t128 -15.5q68 0 122.5 16t93 46.5t59 74t20.5 98.5q0 61 -25.5 103.5t-65.5 72.5t-87.5 49t-91.5 33l-219 62q-72 22 -131.5 56t-102 83t-65.5 114.5
t-23 151.5q0 87 34 163t100 133t161.5 89.5t218.5 32.5q81 0 149.5 -19t124 -53.5t98 -83t71.5 -106.5h75v-172h-245q0 88 -32 132zM721 1956h240v-17l-299 -282h-154z" />
    <glyph glyph-name="sacute" unicode="&#x15b;" horiz-adv-x="993" 
d="M678.5 829.5q-19.5 29.5 -50.5 48t-69 27t-74 8.5q-40 0 -73.5 -9t-57.5 -26t-37.5 -41.5t-13.5 -54.5q0 -52 31.5 -82.5t105.5 -56.5l199 -70q128 -43 187 -117t59 -177q0 -69 -27.5 -126.5t-78 -98t-121.5 -63t-158 -22.5q-121 0 -197 39t-117 103h-104v172h207
q0 -43 18.5 -73.5t49 -49.5t69 -28t78.5 -9q39 0 75 9.5t63.5 28t43.5 44.5t16 59q0 50 -32.5 85t-110.5 63l-198 74q-121 43 -179.5 109.5t-58.5 166.5q0 66 24.5 122t71 96.5t113.5 63.5t153 23q111 0 186 -31t135 -106h97v-172h-205q0 42 -19.5 71.5zM565 1477h240v-17
l-299 -282h-154z" />
    <glyph glyph-name="Scaron" unicode="&#x160;" horiz-adv-x="1210" 
d="M888 1236q-32 44 -70.5 67.5t-84.5 36t-92 12.5q-76 0 -133 -17.5t-94.5 -47.5t-56.5 -70t-19 -84q0 -66 23.5 -106.5t59.5 -65t79.5 -38.5t83.5 -28l202 -66q91 -29 160.5 -66t116.5 -87.5t71.5 -116.5t24.5 -153q0 -94 -38.5 -174t-107.5 -139t-164.5 -92.5
t-209.5 -33.5q-117 0 -200 26.5t-139.5 71t-90.5 101.5t-53 117h-76v172h252q0 -111 23.5 -157t65.5 -76.5t100 -46t128 -15.5q68 0 122.5 16t93 46.5t59 74t20.5 98.5q0 61 -25.5 103.5t-65.5 72.5t-87.5 49t-91.5 33l-219 62q-72 22 -131.5 56t-102 83t-65.5 114.5
t-23 151.5q0 87 34 163t100 133t161.5 89.5t218.5 32.5q81 0 149.5 -19t124 -53.5t98 -83t71.5 -106.5h75v-172h-245q0 88 -32 132zM940 1967l-252 -353h-49l-252 353h144l133 -196l135 196h141z" />
    <glyph glyph-name="scaron" unicode="&#x161;" horiz-adv-x="993" 
d="M678.5 829.5q-19.5 29.5 -50.5 48t-69 27t-74 8.5q-40 0 -73.5 -9t-57.5 -26t-37.5 -41.5t-13.5 -54.5q0 -52 31.5 -82.5t105.5 -56.5l199 -70q128 -43 187 -117t59 -177q0 -69 -27.5 -126.5t-78 -98t-121.5 -63t-158 -22.5q-121 0 -197 39t-117 103h-104v172h207
q0 -43 18.5 -73.5t49 -49.5t69 -28t78.5 -9q39 0 75 9.5t63.5 28t43.5 44.5t16 59q0 50 -32.5 85t-110.5 63l-198 74q-121 43 -179.5 109.5t-58.5 166.5q0 66 24.5 122t71 96.5t113.5 63.5t153 23q111 0 186 -31t135 -106h97v-172h-205q0 42 -19.5 71.5zM784 1488l-252 -353
h-49l-252 353h144l133 -196l135 196h141z" />
    <glyph glyph-name="Scedilla" unicode="&#x15e;" horiz-adv-x="1210" 
d="M888 1236q-32 44 -70.5 67.5t-84.5 36t-92 12.5q-76 0 -133 -17.5t-94.5 -47.5t-56.5 -70t-19 -84q0 -66 23.5 -106.5t59.5 -65t79.5 -38.5t83.5 -28l202 -66q91 -29 160.5 -66t116.5 -87.5t71.5 -116.5t24.5 -153q0 -94 -38.5 -174t-107.5 -139t-164.5 -92.5
t-209.5 -33.5q-117 0 -200 26.5t-139.5 71t-90.5 101.5t-53 117h-76v172h252q0 -111 23.5 -157t65.5 -76.5t100 -46t128 -15.5q68 0 122.5 16t93 46.5t59 74t20.5 98.5q0 61 -25.5 103.5t-65.5 72.5t-87.5 49t-91.5 33l-219 62q-72 22 -131.5 56t-102 83t-65.5 114.5
t-23 151.5q0 87 34 163t100 133t161.5 89.5t218.5 32.5q81 0 149.5 -19t124 -53.5t98 -83t71.5 -106.5h75v-172h-245q0 88 -32 132zM338 -303q55 1 99.5 19.5t78 48.5t55 70.5t29.5 86.5l150 -45q-18 -73 -56 -130.5t-90.5 -97t-117.5 -60.5t-137 -21z" />
    <glyph glyph-name="scedilla" unicode="&#x15f;" horiz-adv-x="993" 
d="M678.5 829.5q-19.5 29.5 -50.5 48t-69 27t-74 8.5q-40 0 -73.5 -9t-57.5 -26t-37.5 -41.5t-13.5 -54.5q0 -52 31.5 -82.5t105.5 -56.5l199 -70q128 -43 187 -117t59 -177q0 -69 -27.5 -126.5t-78 -98t-121.5 -63t-158 -22.5q-121 0 -197 39t-117 103h-104v172h207
q0 -43 18.5 -73.5t49 -49.5t69 -28t78.5 -9q39 0 75 9.5t63.5 28t43.5 44.5t16 59q0 50 -32.5 85t-110.5 63l-198 74q-121 43 -179.5 109.5t-58.5 166.5q0 66 24.5 122t71 96.5t113.5 63.5t153 23q111 0 186 -31t135 -106h97v-172h-205q0 42 -19.5 71.5zM291 -303
q55 1 99.5 19.5t78 48.5t55 70.5t29.5 86.5l150 -45q-18 -73 -56 -130.5t-90.5 -97t-117.5 -60.5t-137 -21z" />
    <glyph glyph-name="Scommaaccent" unicode="&#x218;" horiz-adv-x="1210" 
d="M888 1236q-32 44 -70.5 67.5t-84.5 36t-92 12.5q-76 0 -133 -17.5t-94.5 -47.5t-56.5 -70t-19 -84q0 -66 23.5 -106.5t59.5 -65t79.5 -38.5t83.5 -28l202 -66q91 -29 160.5 -66t116.5 -87.5t71.5 -116.5t24.5 -153q0 -94 -38.5 -174t-107.5 -139t-164.5 -92.5
t-209.5 -33.5q-117 0 -200 26.5t-139.5 71t-90.5 101.5t-53 117h-76v172h252q0 -111 23.5 -157t65.5 -76.5t100 -46t128 -15.5q68 0 122.5 16t93 46.5t59 74t20.5 98.5q0 61 -25.5 103.5t-65.5 72.5t-87.5 49t-91.5 33l-219 62q-72 22 -131.5 56t-102 83t-65.5 114.5
t-23 151.5q0 87 34 163t100 133t161.5 89.5t218.5 32.5q81 0 149.5 -19t124 -53.5t98 -83t71.5 -106.5h75v-172h-245q0 88 -32 132zM555 -41l211 -84l-180 -348l-144 53z" />
    <glyph glyph-name="scommaaccent" unicode="&#x219;" horiz-adv-x="993" 
d="M678.5 829.5q-19.5 29.5 -50.5 48t-69 27t-74 8.5q-40 0 -73.5 -9t-57.5 -26t-37.5 -41.5t-13.5 -54.5q0 -52 31.5 -82.5t105.5 -56.5l199 -70q128 -43 187 -117t59 -177q0 -69 -27.5 -126.5t-78 -98t-121.5 -63t-158 -22.5q-121 0 -197 39t-117 103h-104v172h207
q0 -43 18.5 -73.5t49 -49.5t69 -28t78.5 -9q39 0 75 9.5t63.5 28t43.5 44.5t16 59q0 50 -32.5 85t-110.5 63l-198 74q-121 43 -179.5 109.5t-58.5 166.5q0 66 24.5 122t71 96.5t113.5 63.5t153 23q111 0 186 -31t135 -106h97v-172h-205q0 42 -19.5 71.5zM446 -41l211 -84
l-180 -348l-144 53z" />
    <glyph glyph-name="Tcommaaccent" unicode="&#x162;" horiz-adv-x="1434" 
d="M453 172h139v1180h-346v-236h-205v400h1352v-400h-205v236h-400v-1180h156v-172h-491v172zM668 -41l211 -84l-180 -348l-144 53z" />
    <glyph glyph-name="tcommaaccent" unicode="&#x163;" horiz-adv-x="762" 
d="M400 1036h243v-151h-245l-3 -598q0 -61 14 -99t45 -52.5t70 -14.5q42 0 74 7.5t70 25.5l43 -125q-48 -25 -101 -39.5t-125 -14.5q-68 0 -118.5 16.5t-85 55.5t-51.5 104.5t-17 163.5l3 570h-165v151h167v248l182 86v-334zM332 -41l211 -84l-180 -348l-144 53z" />
    <glyph glyph-name="Tcaron" unicode="&#x164;" horiz-adv-x="1434" 
d="M453 172h139v1180h-346v-236h-205v400h1352v-400h-205v236h-400v-1180h156v-172h-491v172zM993 1967l-252 -353h-49l-252 353h144l133 -196l135 196h141z" />
    <glyph glyph-name="tcaron" unicode="&#x165;" horiz-adv-x="780" 
d="M400 1036h243v-151h-245l-3 -598q0 -61 14 -99t45 -52.5t70 -14.5q42 0 74 7.5t70 25.5l43 -125q-48 -25 -101 -39.5t-125 -14.5q-68 0 -118.5 16.5t-85 55.5t-51.5 104.5t-17 163.5l3 570h-165v151h167v248l182 86v-334zM680 1100h-149v518l197 16z" />
    <glyph glyph-name="Ugrave" unicode="&#xd9;" horiz-adv-x="1559" 
d="M63 1516h491v-173h-155v-706q0 -127 28.5 -216.5t79 -146t120 -82.5t152.5 -26q86 0 158 23t123.5 77.5t80 145t28.5 225.5v706h-164v173h491v-173h-135v-684q0 -164 -45.5 -291t-124.5 -213t-186 -130.5t-230 -44.5q-120 0 -224.5 44t-182 129t-122 207.5t-44.5 280.5
v702h-139v173zM754 1657l-287 282v17h248l184 -299h-145z" />
    <glyph glyph-name="ugrave" unicode="&#xf9;" horiz-adv-x="1350" 
d="M724 1036h334v-864h115v-172h-302v96q-70 -54 -152.5 -84t-176.5 -30q-78 0 -141.5 22.5t-108 70t-68.5 120.5t-24 174v495h-140v172h334v-645q0 -119 55 -180t158 -61q61 0 128.5 22t127.5 61v631h-139v172zM502 1178l-287 282v17h248l184 -299h-145z" />
    <glyph glyph-name="Uacute" unicode="&#xda;" horiz-adv-x="1559" 
d="M63 1516h491v-173h-155v-706q0 -127 28.5 -216.5t79 -146t120 -82.5t152.5 -26q86 0 158 23t123.5 77.5t80 145t28.5 225.5v706h-164v173h491v-173h-135v-684q0 -164 -45.5 -291t-124.5 -213t-186 -130.5t-230 -44.5q-120 0 -224.5 44t-182 129t-122 207.5t-44.5 280.5
v702h-139v173zM901 1956h240v-17l-299 -282h-154z" />
    <glyph glyph-name="uacute" unicode="&#xfa;" horiz-adv-x="1350" 
d="M724 1036h334v-864h115v-172h-302v96q-70 -54 -152.5 -84t-176.5 -30q-78 0 -141.5 22.5t-108 70t-68.5 120.5t-24 174v495h-140v172h334v-645q0 -119 55 -180t158 -61q61 0 128.5 22t127.5 61v631h-139v172zM649 1477h240v-17l-299 -282h-154z" />
    <glyph glyph-name="Ucircumflex" unicode="&#xdb;" horiz-adv-x="1559" 
d="M63 1516h491v-173h-155v-706q0 -127 28.5 -216.5t79 -146t120 -82.5t152.5 -26q86 0 158 23t123.5 77.5t80 145t28.5 225.5v706h-164v173h491v-173h-135v-684q0 -164 -45.5 -291t-124.5 -213t-186 -130.5t-230 -44.5q-120 0 -224.5 44t-182 129t-122 207.5t-44.5 280.5
v702h-139v173zM517 1655l250 313h63l252 -313h-149l-133 155l-135 -155h-148z" />
    <glyph glyph-name="ucircumflex" unicode="&#xfb;" horiz-adv-x="1350" 
d="M724 1036h334v-864h115v-172h-302v96q-70 -54 -152.5 -84t-176.5 -30q-78 0 -141.5 22.5t-108 70t-68.5 120.5t-24 174v495h-140v172h334v-645q0 -119 55 -180t158 -61q61 0 128.5 22t127.5 61v631h-139v172zM317 1176l250 313h63l252 -313h-149l-133 155l-135 -155h-148
z" />
    <glyph glyph-name="Udieresis" unicode="&#xdc;" horiz-adv-x="1559" 
d="M63 1516h491v-173h-155v-706q0 -127 28.5 -216.5t79 -146t120 -82.5t152.5 -26q86 0 158 23t123.5 77.5t80 145t28.5 225.5v706h-164v173h491v-173h-135v-684q0 -164 -45.5 -291t-124.5 -213t-186 -130.5t-230 -44.5q-120 0 -224.5 44t-182 129t-122 207.5t-44.5 280.5
v702h-139v173zM419 1839q0 26 10.5 49.5t28 41t41 28t49.5 10.5q25 0 48 -10.5t40 -28t27 -41t10 -49.5q0 -27 -10 -51t-27 -42.5t-40 -29t-48 -10.5q-26 0 -49.5 10.5t-41 29t-28 42.5t-10.5 51zM878 1839q0 26 10.5 49.5t28 41t41 28t49.5 10.5q25 0 47.5 -10.5t40 -28
t27.5 -41t10 -49.5q0 -27 -10 -51t-27.5 -42.5t-40 -29t-47.5 -10.5q-26 0 -49.5 10.5t-41 29t-28 42.5t-10.5 51z" />
    <glyph glyph-name="udieresis" unicode="&#xfc;" horiz-adv-x="1350" 
d="M724 1036h334v-864h115v-172h-302v96q-70 -54 -152.5 -84t-176.5 -30q-78 0 -141.5 22.5t-108 70t-68.5 120.5t-24 174v495h-140v172h334v-645q0 -119 55 -180t158 -61q61 0 128.5 22t127.5 61v631h-139v172zM203 1360q0 26 10.5 49.5t28 41t41 28t49.5 10.5
q25 0 48 -10.5t40 -28t27 -41t10 -49.5q0 -27 -10 -51t-27 -42.5t-40 -29t-48 -10.5q-26 0 -49.5 10.5t-41 29t-28 42.5t-10.5 51zM662 1360q0 26 10.5 49.5t28 41t41 28t49.5 10.5q25 0 47.5 -10.5t40 -28t27.5 -41t10 -49.5q0 -27 -10 -51t-27.5 -42.5t-40 -29
t-47.5 -10.5q-26 0 -49.5 10.5t-41 29t-28 42.5t-10.5 51z" />
    <glyph glyph-name="Umacron" unicode="&#x16a;" horiz-adv-x="1559" 
d="M63 1516h491v-173h-155v-706q0 -127 28.5 -216.5t79 -146t120 -82.5t152.5 -26q86 0 158 23t123.5 77.5t80 145t28.5 225.5v706h-164v173h491v-173h-135v-684q0 -164 -45.5 -291t-124.5 -213t-186 -130.5t-230 -44.5q-120 0 -224.5 44t-182 129t-122 207.5t-44.5 280.5
v702h-139v173zM1172 1708h-758v117h758v-117z" />
    <glyph glyph-name="umacron" unicode="&#x16b;" horiz-adv-x="1350" 
d="M724 1036h334v-864h115v-172h-302v96q-70 -54 -152.5 -84t-176.5 -30q-78 0 -141.5 22.5t-108 70t-68.5 120.5t-24 174v495h-140v172h334v-645q0 -119 55 -180t158 -61q61 0 128.5 22t127.5 61v631h-139v172zM930 1229h-758v117h758v-117z" />
    <glyph glyph-name="Uring" unicode="&#x16e;" horiz-adv-x="1559" 
d="M63 1516h491v-173h-155v-706q0 -127 28.5 -216.5t79 -146t120 -82.5t152.5 -26q86 0 158 23t123.5 77.5t80 145t28.5 225.5v706h-164v173h491v-173h-135v-684q0 -164 -45.5 -291t-124.5 -213t-186 -130.5t-230 -44.5q-120 0 -224.5 44t-182 129t-122 207.5t-44.5 280.5
v702h-139v173zM676 1823q0 -21 8.5 -39.5t23 -33t33 -23t39.5 -8.5t40 8.5t33.5 23t23 33t8.5 39.5t-8.5 40t-23 33.5t-33.5 23t-40 8.5t-39.5 -8.5t-33 -23t-23 -33.5t-8.5 -40zM780 2079q52 0 99 -20.5t81.5 -55t55 -81.5t20.5 -99t-20.5 -98.5t-55 -81.5t-81.5 -55.5
t-99 -20.5t-98.5 20.5t-81.5 55.5t-55.5 81.5t-20.5 98.5t20.5 99t55.5 81.5t81.5 55t98.5 20.5z" />
    <glyph glyph-name="uring" unicode="&#x16f;" horiz-adv-x="1350" 
d="M724 1036h334v-864h115v-172h-302v96q-70 -54 -152.5 -84t-176.5 -30q-78 0 -141.5 22.5t-108 70t-68.5 120.5t-24 174v495h-140v172h334v-645q0 -119 55 -180t158 -61q61 0 128.5 22t127.5 61v631h-139v172zM476 1343q0 -21 8.5 -39.5t23 -33t33 -23t39.5 -8.5t40 8.5
t33.5 23t23 33t8.5 39.5t-8.5 40t-23 33.5t-33.5 23t-40 8.5t-39.5 -8.5t-33 -23t-23 -33.5t-8.5 -40zM580 1599q52 0 99 -20.5t81.5 -55t55 -81.5t20.5 -99t-20.5 -98.5t-55 -81.5t-81.5 -55.5t-99 -20.5t-98.5 20.5t-81.5 55.5t-55.5 81.5t-20.5 98.5t20.5 99t55.5 81.5
t81.5 55t98.5 20.5z" />
    <glyph glyph-name="Uhungarumlaut" unicode="&#x170;" horiz-adv-x="1559" 
d="M63 1516h491v-173h-155v-706q0 -127 28.5 -216.5t79 -146t120 -82.5t152.5 -26q86 0 158 23t123.5 77.5t80 145t28.5 225.5v706h-164v173h491v-173h-135v-684q0 -164 -45.5 -291t-124.5 -213t-186 -130.5t-230 -44.5q-120 0 -224.5 44t-182 129t-122 207.5t-44.5 280.5
v702h-139v173zM1244 1957l-233 -300h-152l208 300h177zM923 1957l-222 -300h-151l195 300h178z" />
    <glyph glyph-name="uhungarumlaut" unicode="&#x171;" horiz-adv-x="1350" 
d="M724 1036h334v-864h115v-172h-302v96q-70 -54 -152.5 -84t-176.5 -30q-78 0 -141.5 22.5t-108 70t-68.5 120.5t-24 174v495h-140v172h334v-645q0 -119 55 -180t158 -61q61 0 128.5 22t127.5 61v631h-139v172zM1040 1478l-233 -300h-152l208 300h177zM719 1478l-222 -300
h-151l195 300h178z" />
    <glyph glyph-name="Yacute" unicode="&#xdd;" horiz-adv-x="1354" 
d="M51 1516h492v-173h-144l285 -487l305 487h-158v173h492v-173h-129l-426 -646v-525h156v-172h-492v172h139v530l-402 641h-118v173zM797 1956h240v-17l-299 -282h-154z" />
    <glyph glyph-name="yacute" unicode="&#xfd;" 
d="M31 1036h393v-172h-123l243 -661l254 661h-122v172h393v-172h-107l-461 -1163h142v-172h-418v172h126l110 285l-346 878h-84v172zM629 1477h240v-17l-299 -282h-154z" />
    <glyph glyph-name="Ydieresis" unicode="&#x178;" horiz-adv-x="1354" 
d="M51 1516h492v-173h-144l285 -487l305 487h-158v173h492v-173h-129l-426 -646v-525h156v-172h-492v172h139v530l-402 641h-118v173zM339 1839q0 26 10.5 49.5t28 41t41 28t49.5 10.5q25 0 48 -10.5t40 -28t27 -41t10 -49.5q0 -27 -10 -51t-27 -42.5t-40 -29t-48 -10.5
q-26 0 -49.5 10.5t-41 29t-28 42.5t-10.5 51zM798 1839q0 26 10.5 49.5t28 41t41 28t49.5 10.5q25 0 47.5 -10.5t40 -28t27.5 -41t10 -49.5q0 -27 -10 -51t-27.5 -42.5t-40 -29t-47.5 -10.5q-26 0 -49.5 10.5t-41 29t-28 42.5t-10.5 51z" />
    <glyph glyph-name="ydieresis" unicode="&#xff;" 
d="M31 1036h393v-172h-123l243 -661l254 661h-122v172h393v-172h-107l-461 -1163h142v-172h-418v172h126l110 285l-346 878h-84v172zM182 1360q0 26 10.5 49.5t28 41t41 28t49.5 10.5q25 0 48 -10.5t40 -28t27 -41t10 -49.5q0 -27 -10 -51t-27 -42.5t-40 -29t-48 -10.5
q-26 0 -49.5 10.5t-41 29t-28 42.5t-10.5 51zM641 1360q0 26 10.5 49.5t28 41t41 28t49.5 10.5q25 0 47.5 -10.5t40 -28t27.5 -41t10 -49.5q0 -27 -10 -51t-27.5 -42.5t-40 -29t-47.5 -10.5q-26 0 -49.5 10.5t-41 29t-28 42.5t-10.5 51z" />
    <glyph glyph-name="Zacute" unicode="&#x179;" horiz-adv-x="1214" 
d="M1163 1292l-913 -1120h711v252h196v-424h-1106v227l900 1116h-687v-256h-196v429h1095v-224zM690 1956h240v-17l-299 -282h-154z" />
    <glyph glyph-name="zacute" unicode="&#x17a;" horiz-adv-x="924" 
d="M76 115l525 766h-331v-146h-184v301h741v-118l-524 -762h354v176h193v-332h-774v115zM533 1477h240v-17l-299 -282h-154z" />
    <glyph glyph-name="Zdotaccent" unicode="&#x17b;" horiz-adv-x="1214" 
d="M1163 1292l-913 -1120h711v252h196v-424h-1106v227l900 1116h-687v-256h-196v429h1095v-224zM506 1882q0 26 10.5 49.5t28 41t41.5 28t51 10.5q26 0 49.5 -10.5t41 -28t28 -41t10.5 -49.5q0 -27 -10.5 -51t-28 -42.5t-41 -29t-49.5 -10.5q-27 0 -51 10.5t-41.5 29
t-28 42.5t-10.5 51z" />
    <glyph glyph-name="zdotaccent" unicode="&#x17c;" horiz-adv-x="924" 
d="M76 115l525 766h-331v-146h-184v301h741v-118l-524 -762h354v176h193v-332h-774v115zM348 1403q0 26 10.5 49.5t28 41t41.5 28t51 10.5q26 0 49.5 -10.5t41 -28t28 -41t10.5 -49.5q0 -27 -10.5 -51t-28 -42.5t-41 -29t-49.5 -10.5q-27 0 -51 10.5t-41.5 29t-28 42.5
t-10.5 51z" />
    <glyph glyph-name="Zcaron" unicode="&#x17d;" horiz-adv-x="1214" 
d="M1163 1292l-913 -1120h711v252h196v-424h-1106v227l900 1116h-687v-256h-196v429h1095v-224zM909 1967l-252 -353h-49l-252 353h144l133 -196l135 196h141z" />
    <glyph glyph-name="zcaron" unicode="&#x17e;" horiz-adv-x="924" 
d="M76 115l525 766h-331v-146h-184v301h741v-118l-524 -762h354v176h193v-332h-774v115zM752 1488l-252 -353h-49l-252 353h144l133 -196l135 196h141z" />
    <glyph glyph-name="uni0401" unicode="&#x401;" horiz-adv-x="1286" 
d="M143 1516h1086v-429h-205v256h-541v-485h455v-172h-455v-514h541v256h205v-428h-1086v172h144v1171h-144v173zM358 1839q0 26 10.5 49.5t28 41t41.5 28t51 10.5q26 0 49.5 -10.5t41 -28t28 -41t10.5 -49.5q0 -27 -10.5 -51t-28 -42.5t-41 -29t-49.5 -10.5q-27 0 -51 10.5
t-41.5 29t-28 42.5t-10.5 51zM817 1839q0 26 10.5 49.5t28 41t41.5 28t51 10.5q26 0 49.5 -10.5t41 -28t28 -41t10.5 -49.5q0 -27 -10.5 -51t-28 -42.5t-41 -29t-49.5 -10.5q-27 0 -51 10.5t-41.5 29t-28 42.5t-10.5 51z" />
    <glyph glyph-name="uni0451" unicode="&#x451;" 
d="M276 494q0 -44 6.5 -80.5t18.5 -69.5q37 -100 118.5 -150.5t184.5 -50.5q81 0 157.5 22.5t160.5 70.5l75 -127q-102 -70 -205 -104t-214 -34q-105 0 -194.5 35t-154 104t-101 172t-36.5 240q0 111 31 209.5t92.5 172t152.5 116.5t212 43q117 0 195.5 -35.5t128 -94
t75 -133.5t35.5 -153q5 -38 6.5 -77t1.5 -76h-746zM567 907q-65 0 -113.5 -18.5t-82.5 -53t-54.5 -84.5t-30.5 -112h537q-4 58 -18.5 107t-44.5 85t-77 56t-116 20zM213 1361q0 26 10.5 49.5t28 41t41.5 28t51 10.5q26 0 49.5 -10.5t41 -28t28 -41t10.5 -49.5
q0 -27 -10.5 -51t-28 -42.5t-41 -29t-49.5 -10.5q-27 0 -51 10.5t-41.5 29t-28 42.5t-10.5 51zM672 1361q0 26 10.5 49.5t28 41t41.5 28t51 10.5q26 0 49.5 -10.5t41 -28t28 -41t10.5 -49.5q0 -27 -10.5 -51t-28 -42.5t-41 -29t-49.5 -10.5q-27 0 -51 10.5t-41.5 29
t-28 42.5t-10.5 51z" />
    <glyph glyph-name="uni0403" unicode="&#x403;" horiz-adv-x="1229" 
d="M143 172h140v1180h-138v164h1072v-400h-205v236h-533v-1180h156v-172h-492v172zM727 1974h240v-17l-299 -282h-154z" />
    <glyph glyph-name="uni0453" unicode="&#x453;" horiz-adv-x="1058" 
d="M110 172h152v700h-152v164h889v-358h-195v194h-354v-700h152v-172h-492v172zM637 1477h240v-17l-299 -282h-154z" />
    <glyph glyph-name="uni0407" unicode="&#x407;" horiz-adv-x="770" 
d="M143 1516h484v-173h-144v-1171h144v-172h-484v172h144v1171h-144v173zM105 1839q0 53 38 91t91 38q25 0 48.5 -10.5t40 -27.5t26.5 -41t10 -50q0 -27 -10 -51.5t-26.5 -43t-40 -28.5t-48.5 -10q-53 0 -91 40t-38 93v0zM420 1839q0 53 38 91t91 38q25 0 48.5 -10.5
t40 -27.5t26.5 -41t10 -50q0 -27 -10 -51.5t-26.5 -43t-40 -28.5t-48.5 -10q-53 0 -91 40t-38 93v0z" />
    <glyph glyph-name="uni0457" unicode="&#x457;" horiz-adv-x="657" 
d="M92 1036h338v-864h156v-172h-492v172h148v692h-150v172zM15 1360q0 53 38 91t91 38q25 0 48.5 -10.5t40 -27.5t26.5 -41t10 -50q0 -27 -10 -51.5t-26.5 -43t-40 -28.5t-48.5 -10q-53 0 -91 40t-38 93v0zM330 1360q0 53 38 91t91 38q25 0 48.5 -10.5t40 -27.5t26.5 -41
t10 -50q0 -27 -10 -51.5t-26.5 -43t-40 -28.5t-48.5 -10q-53 0 -91 40t-38 93v0z" />
    <glyph glyph-name="uni040C" unicode="&#x40c;" horiz-adv-x="1563" 
d="M1147 1343v173h348v-173h-119l-664 -559l621 -612h162v-172h-408v172l-602 602zM145 1516h492v-173h-154v-1171h152v-172h-492v172h144v1171h-142v173zM977 1956h240v-17l-299 -282h-154z" />
    <glyph glyph-name="uni045C" unicode="&#x45c;" horiz-adv-x="1293" 
d="M110 1036h443v-172h-99v-254h180l246 254h-61v172h393v-172h-131l-315 -325l323 -367h125v-172h-219l-404 463h-137v-291h99v-172h-443v172h158v692h-158v172zM666 1477h240v-17l-299 -282h-154z" />
    <glyph glyph-name="uni040E" unicode="&#x40e;" horiz-adv-x="1300" 
d="M870 1516h418v-173h-90l-424 -981q-37 -86 -76 -156.5t-85 -120.5t-102.5 -77.5t-129.5 -27.5q-47 0 -105.5 5t-91.5 15h-4v311h188v-178q25 0 49.5 3t51 20.5t54.5 54.5t58 106l17 39q-113 248 -225.5 494t-225.5 493h-123v173h457v-173h-125l328 -776l317 776h-131v173
zM671 1630q-76 0 -141.5 25t-115 69t-79 104.5t-32.5 131.5h121q1 -43 20 -82t52 -68.5t78 -47t97 -17.5t97 17t78 46.5t52 68.5t21 83h121q-3 -71 -33 -131.5t-79.5 -104.5t-115.5 -69t-141 -25z" />
    <glyph glyph-name="uni045E" unicode="&#x45e;" horiz-adv-x="1084" 
d="M676 1036h393v-172h-106l-383 -964q-37 -95 -82 -164.5t-99.5 -115.5t-121 -68.5t-146.5 -22.5h-47v172h51q96 0 176 62.5t138 209.5l8 23l-342 868h-84v172h393v-172h-123l244 -661l254 661h-123v172zM567 1149q-76 0 -141.5 25t-115 69t-79 104.5t-32.5 131.5h121
q1 -43 20 -82t52 -68.5t78 -47t97 -17.5t97 17t78 46.5t52 68.5t21 83h121q-3 -71 -33 -131.5t-79.5 -104.5t-115.5 -69t-141 -25z" />
    <glyph glyph-name="uni0419" unicode="&#x419;" horiz-adv-x="1843" 
d="M143 1516h502v-173h-160v-1101l839 1274h376v-172h-142v-1172h142v-172h-492v172h153v1098l-843 -1270h-374v172h149v1171h-150v173zM907 1628q-76 0 -141.5 25t-115 69t-79 104.5t-32.5 131.5h121q1 -43 20 -82t52 -68.5t78 -47t97 -17.5t97 17t78 46.5t52 68.5t21 83
h121q-3 -71 -33 -131.5t-79.5 -104.5t-115.5 -69t-141 -25z" />
    <glyph glyph-name="uni0439" unicode="&#x439;" horiz-adv-x="1445" 
d="M110 1036h492v-172h-164v-631l543 803h354v-176h-135v-688h135v-172h-492v172h168v645l-555 -817h-344v172h137v692h-139v172zM747 1149q-76 0 -141.5 25t-115 69t-79 104.5t-32.5 131.5h121q1 -43 20 -82t52 -68.5t78 -47t97 -17.5t97 17t78 46.5t52 68.5t21 83h121
q-3 -71 -33 -131.5t-79.5 -104.5t-115.5 -69t-141 -25z" />
    <glyph glyph-name="uni021A" unicode="&#x21a;" horiz-adv-x="1434" 
d="M453 172h139v1180h-346v-236h-205v400h1352v-400h-205v236h-400v-1180h156v-172h-491v172zM668 -41l211 -84l-180 -348l-144 53z" />
    <glyph glyph-name="uni021B" unicode="&#x21b;" horiz-adv-x="762" 
d="M400 1036h243v-151h-245l-3 -598q0 -61 14 -99t45 -52.5t70 -14.5q42 0 74 7.5t70 25.5l43 -125q-48 -25 -101 -39.5t-125 -14.5q-68 0 -118.5 16.5t-85 55.5t-51.5 104.5t-17 163.5l3 570h-165v151h167v248l182 86v-334zM332 -41l211 -84l-180 -348l-144 53z" />
    <glyph glyph-name="uni0400" unicode="&#x400;" horiz-adv-x="1286" 
d="M143 1516h1086v-429h-205v256h-541v-485h455v-172h-455v-514h541v256h205v-428h-1086v172h144v1171h-144v173zM651 1657l-287 282v17h248l184 -299h-145z" />
    <glyph glyph-name="uni0450" unicode="&#x450;" 
d="M276 494q0 -44 6.5 -80.5t18.5 -69.5q37 -100 118.5 -150.5t184.5 -50.5q81 0 157.5 22.5t160.5 70.5l75 -127q-102 -70 -205 -104t-214 -34q-105 0 -194.5 35t-154 104t-101 172t-36.5 240q0 111 31 209.5t92.5 172t152.5 116.5t212 43q117 0 195.5 -35.5t128 -94
t75 -133.5t35.5 -153q5 -38 6.5 -77t1.5 -76h-746zM567 907q-65 0 -113.5 -18.5t-82.5 -53t-54.5 -84.5t-30.5 -112h537q-4 58 -18.5 107t-44.5 85t-77 56t-116 20zM506 1178l-287 282v17h248l184 -299h-145z" />
    <glyph glyph-name="uni040D" unicode="&#x40d;" horiz-adv-x="1843" 
d="M143 1516h502v-173h-160v-1101l839 1274h376v-172h-142v-1172h142v-172h-492v172h153v1098l-843 -1270h-374v172h149v1171h-150v173zM887 1657l-287 282v17h248l184 -299h-145z" />
    <glyph glyph-name="uni045D" unicode="&#x45d;" horiz-adv-x="1445" 
d="M110 1036h492v-172h-164v-631l543 803h354v-176h-135v-688h135v-172h-492v172h168v645l-555 -817h-344v172h137v692h-139v172zM686 1178l-287 282v17h248l184 -299h-145z" />
    <glyph glyph-name="uni0405" unicode="&#x405;" horiz-adv-x="1210" 
d="M888 1236q-32 44 -70.5 67.5t-84.5 36t-92 12.5q-76 0 -133 -17.5t-94.5 -47.5t-56.5 -70t-19 -84q0 -66 23.5 -106.5t59.5 -65t79.5 -38.5t83.5 -28l202 -66q91 -29 160.5 -66t116.5 -87.5t71.5 -116.5t24.5 -153q0 -94 -38.5 -174t-107.5 -139t-164.5 -92.5
t-209.5 -33.5q-117 0 -200 26.5t-139.5 71t-90.5 101.5t-53 117h-76v172h252q0 -111 23.5 -157t65.5 -76.5t100 -46t128 -15.5q68 0 122.5 16t93 46.5t59 74t20.5 98.5q0 61 -25.5 103.5t-65.5 72.5t-87.5 49t-91.5 33l-219 62q-72 22 -131.5 56t-102 83t-65.5 114.5
t-23 151.5q0 87 34 163t100 133t161.5 89.5t218.5 32.5q81 0 149.5 -19t124 -53.5t98 -83t71.5 -106.5h75v-172h-245q0 88 -32 132z" />
    <glyph glyph-name="uni0455" unicode="&#x455;" horiz-adv-x="993" 
d="M678.5 829.5q-19.5 29.5 -50.5 48t-69 27t-74 8.5q-40 0 -73.5 -9t-57.5 -26t-37.5 -41.5t-13.5 -54.5q0 -52 31.5 -82.5t105.5 -56.5l199 -70q128 -43 187 -117t59 -177q0 -69 -27.5 -126.5t-78 -98t-121.5 -63t-158 -22.5q-121 0 -197 39t-117 103h-104v172h207
q0 -43 18.5 -73.5t49 -49.5t69 -28t78.5 -9q39 0 75 9.5t63.5 28t43.5 44.5t16 59q0 50 -32.5 85t-110.5 63l-198 74q-121 43 -179.5 109.5t-58.5 166.5q0 66 24.5 122t71 96.5t113.5 63.5t153 23q111 0 186 -31t135 -106h97v-172h-205q0 42 -19.5 71.5z" />
    <glyph glyph-name="uni0406" unicode="&#x406;" horiz-adv-x="780" 
d="M143 1516h484v-173h-144v-1171h144v-172h-484v172h144v1171h-144v173z" />
    <glyph glyph-name="uni0456" unicode="&#x456;" horiz-adv-x="657" 
d="M92 1036h338v-864h156v-172h-492v172h148v692h-150v172zM207 1403q0 26 10.5 49.5t28 41t41.5 28t51 10.5q26 0 49.5 -10.5t41 -28t28 -41t10.5 -49.5q0 -27 -10.5 -51t-28 -42.5t-41 -29t-49.5 -10.5q-27 0 -51 10.5t-41.5 29t-28 42.5t-10.5 51z" />
    <glyph glyph-name="uni0408" unicode="&#x408;" horiz-adv-x="670" 
d="M135 1516h491v-173h-127v-1171q0 -22 -10.5 -51.5t-27 -62.5t-38.5 -67.5t-44 -67.5q-53 -77 -120 -161l-172 15q59 90 106 172q20 35 39 71.5t34 70.5t24.5 63.5t9.5 50.5v1138h-165v173z" />
    <glyph glyph-name="uni0458" unicode="&#x458;" horiz-adv-x="604" 
d="M84 1036h336v-1116q0 -89 -23 -160.5t-66.5 -122t-106.5 -78.5t-144 -30l-19 139q89 13 129.5 84.5t40.5 188.5v923h-147v172zM207 1403q0 24 9.5 45t25.5 37t37.5 25.5t46.5 9.5q24 0 45.5 -9.5t37.5 -25.5t25.5 -37t9.5 -45q0 -25 -9.5 -47t-25.5 -38.5t-37.5 -26
t-45.5 -9.5q-25 0 -46.5 9.5t-37.5 26t-25.5 38.5t-9.5 47z" />
    <glyph glyph-name="SOFTHYPHEN" unicode="&#xad;" horiz-adv-x="0" 
 />
    <glyph glyph-name="Idotaccent" unicode="&#x130;" horiz-adv-x="770" 
d="M143 1516h484v-173h-144v-1171h144v-172h-484v172h144v1171h-144v173zM274 1882q0 26 10.5 49.5t28 41t41.5 28t51 10.5q26 0 49.5 -10.5t41 -28t28 -41t10.5 -49.5q0 -27 -10.5 -51t-28 -42.5t-41 -29t-49.5 -10.5q-27 0 -51 10.5t-41.5 29t-28 42.5t-10.5 51z" />
    <glyph glyph-name="napostrophe" unicode="&#x149;" horiz-adv-x="1366" 
d="M782 172h146v473q0 119 -60.5 180.5t-173.5 61.5q-65 0 -131 -31t-125 -77v-607h146v-172h-484v172h144v692h-144v172h330v-122h2q33 29 70.5 55t78.5 45t85.5 30t93.5 11q83 0 150 -23t114 -70t72.5 -120.5t25.5 -173.5v-496h144v-172h-484v172zM352 1553l211 -84
l-180 -349l-144 54z" />
    <glyph glyph-name="OE.ss01" horiz-adv-x="2075" 
d="M814 0q-155 0 -288 59.5t-231.5 163t-154 242.5t-55.5 297q0 156 55.5 294t154 239.5t231.5 161t288 59.5h1170v-429h-205v256h-541v-485h455v-172h-455v-514h541v256h205v-428h-1170zM294 762q0 -123 40 -230.5t108.5 -187.5t162 -126t197.5 -46h240v1171h-240
q-104 0 -197.5 -45t-162 -123.5t-108.5 -184t-40 -228.5v0z" />
    </font>
</defs>
</svg>
